%FSLAX25Y25*%
%MOIN*%
G70*
G01*
G75*
G04 Layer_Physical_Order=1*
G04 Layer_Color=255*
%ADD10C,0.02000*%
G36*
X149878Y410133D02*
X149886Y409404D01*
X149922Y409231D01*
X149924Y409056D01*
X150407Y406758D01*
X150476Y406596D01*
X150512Y406424D01*
X151435Y404265D01*
X151534Y404120D01*
X151603Y403958D01*
X152930Y402021D01*
X153056Y401898D01*
X153155Y401753D01*
X154834Y400112D01*
X154982Y400016D01*
X155107Y399893D01*
X157075Y398611D01*
X157238Y398546D01*
X157386Y398450D01*
X159566Y397577D01*
X159739Y397545D01*
X159902Y397479D01*
X162211Y397048D01*
X162300Y397049D01*
X162385Y397024D01*
X259930Y388570D01*
X260251Y388187D01*
X249280Y262915D01*
X248890Y260292D01*
X240181Y216899D01*
X240181Y216856D01*
X240166Y216816D01*
X239996Y215694D01*
X239999Y215613D01*
X239979Y215535D01*
X240015Y215268D01*
X240028Y214998D01*
X240062Y214925D01*
X240073Y214846D01*
X240644Y213183D01*
X240744Y213013D01*
X240812Y212828D01*
X241734Y211332D01*
X241868Y211187D01*
X241976Y211022D01*
X243203Y209763D01*
X243366Y209651D01*
X243507Y209514D01*
X244980Y208554D01*
X245163Y208481D01*
X245331Y208378D01*
X246979Y207764D01*
X247174Y207733D01*
X247360Y207668D01*
X249102Y207430D01*
X249213Y207436D01*
X249322Y207414D01*
X249628Y207410D01*
X249639Y207412D01*
X249651Y207409D01*
X267663Y207408D01*
X267747Y207424D01*
X267832Y207416D01*
X270102Y207632D01*
X270265Y207681D01*
X270435Y207696D01*
X272623Y208338D01*
X272774Y208417D01*
X272938Y208464D01*
X274965Y209509D01*
X275098Y209615D01*
X275250Y209692D01*
X277043Y211101D01*
X277099Y211166D01*
X277171Y211212D01*
X278594Y212568D01*
X278595Y212569D01*
X278596Y212570D01*
X281217Y215073D01*
X281219Y215076D01*
X281222Y215078D01*
X319105Y251547D01*
X341316Y228498D01*
X341307Y227998D01*
X303928Y192014D01*
X301312Y189515D01*
X301312Y189515D01*
X286116Y175037D01*
X265442Y175039D01*
X265355Y175021D01*
X265267Y175030D01*
X262929Y174800D01*
X262760Y174749D01*
X262586Y174732D01*
X260336Y174051D01*
X260182Y173968D01*
X260014Y173917D01*
X257941Y172810D01*
X257805Y172699D01*
X257650Y172616D01*
X255832Y171127D01*
X255721Y170991D01*
X255585Y170880D01*
X254093Y169064D01*
X254010Y168910D01*
X253898Y168774D01*
X252789Y166703D01*
X252737Y166535D01*
X252655Y166380D01*
X251970Y164133D01*
X251953Y163958D01*
X251902Y163790D01*
X251669Y161453D01*
X251678Y161365D01*
X251661Y161278D01*
X251635Y133326D01*
X251635Y133326D01*
X251635Y133325D01*
Y113529D01*
X251652Y113442D01*
X251643Y113354D01*
X251870Y111051D01*
X251921Y110883D01*
X251939Y110708D01*
X252610Y108494D01*
X252693Y108339D01*
X252745Y108171D01*
X253836Y106131D01*
X253947Y105996D01*
X254030Y105840D01*
X255499Y104053D01*
X255635Y103942D01*
X255747Y103806D01*
X257536Y102339D01*
X257691Y102257D01*
X257827Y102145D01*
X259869Y101056D01*
X260037Y101005D01*
X260192Y100923D01*
X262407Y100253D01*
X262582Y100236D01*
X262750Y100185D01*
X265054Y99960D01*
X265142Y99969D01*
X265229Y99952D01*
X290719Y99973D01*
X290771Y99983D01*
X290823Y99976D01*
X294516Y100196D01*
X294618Y100223D01*
X294724Y100221D01*
X298366Y100873D01*
X298464Y100911D01*
X298570Y100922D01*
X302110Y101996D01*
X302204Y102045D01*
X302307Y102068D01*
X305697Y103550D01*
X305709Y103558D01*
X305724Y103561D01*
X310246Y105624D01*
X314856Y107268D01*
X319589Y108512D01*
X324411Y109348D01*
X329287Y109770D01*
X334180Y109774D01*
X339055Y109361D01*
X343877Y108533D01*
X348610Y107296D01*
X353220Y105660D01*
X357742Y103605D01*
X357757Y103601D01*
X357769Y103593D01*
X361159Y102117D01*
X361262Y102095D01*
X361356Y102045D01*
X364897Y100977D01*
X365002Y100967D01*
X365101Y100928D01*
X368742Y100283D01*
X368848Y100285D01*
X368951Y100258D01*
X372643Y100044D01*
X372783Y100064D01*
X372923Y100050D01*
X375226Y100279D01*
X375395Y100330D01*
X375569Y100347D01*
X377784Y101021D01*
X377939Y101103D01*
X378107Y101154D01*
X380148Y102246D01*
X380284Y102358D01*
X380439Y102441D01*
X382228Y103910D01*
X382340Y104046D01*
X382475Y104157D01*
X383944Y105946D01*
X384027Y106101D01*
X384138Y106237D01*
X385229Y108278D01*
X385280Y108446D01*
X385363Y108601D01*
X386035Y110816D01*
X386052Y110991D01*
X386104Y111159D01*
X386331Y113461D01*
X386322Y113549D01*
X386339Y113636D01*
X386340Y118526D01*
X386322Y118613D01*
X386331Y118701D01*
X386101Y121038D01*
X386050Y121206D01*
X386033Y121381D01*
X385351Y123628D01*
X385268Y123783D01*
X385217Y123951D01*
X384110Y126022D01*
X383998Y126158D01*
X383915Y126313D01*
X382425Y128127D01*
X382289Y128238D01*
X382177Y128374D01*
X380361Y129863D01*
X380206Y129946D01*
X380070Y130057D01*
X377998Y131163D01*
X377829Y131213D01*
X377674Y131296D01*
X375426Y131976D01*
X375251Y131993D01*
X375083Y132044D01*
X374356Y132115D01*
Y164652D01*
X430360Y164698D01*
X430714Y164345D01*
Y132163D01*
X429983Y132090D01*
X429815Y132039D01*
X429640Y132022D01*
X427392Y131338D01*
X427237Y131255D01*
X427069Y131204D01*
X424997Y130096D01*
X424861Y129984D01*
X424707Y129902D01*
X422890Y128411D01*
X422779Y128275D01*
X422643Y128163D01*
X421153Y126347D01*
X421070Y126192D01*
X420959Y126057D01*
X419851Y123985D01*
X419800Y123817D01*
X419717Y123662D01*
X419035Y121414D01*
X419018Y121239D01*
X418967Y121071D01*
X418736Y118734D01*
X418745Y118646D01*
X418727Y118559D01*
X418726Y101867D01*
X418743Y101780D01*
X418734Y101692D01*
X418964Y99355D01*
X419015Y99186D01*
X419033Y99011D01*
X419714Y96764D01*
X419798Y96609D01*
X419849Y96441D01*
X420956Y94371D01*
X421068Y94235D01*
X421151Y94080D01*
X422641Y92265D01*
X422777Y92154D01*
X422889Y92018D01*
X424705Y90530D01*
X424860Y90447D01*
X424996Y90335D01*
X427069Y89230D01*
X427237Y89179D01*
X427392Y89096D01*
X429640Y88416D01*
X429815Y88399D01*
X429984Y88349D01*
X432322Y88120D01*
X432468Y88135D01*
X432613Y88116D01*
X436691Y88385D01*
X436781Y88409D01*
X436875Y88407D01*
X440903Y89097D01*
X440990Y89131D01*
X441083Y89138D01*
X445019Y90242D01*
X445102Y90284D01*
X445194Y90301D01*
X448994Y91807D01*
X449073Y91857D01*
X449162Y91884D01*
X452786Y93775D01*
X452859Y93834D01*
X452945Y93869D01*
X456354Y96126D01*
X456420Y96192D01*
X456502Y96236D01*
X459658Y98833D01*
X459718Y98905D01*
X459795Y98958D01*
X462665Y101868D01*
X462716Y101946D01*
X462788Y102006D01*
X465341Y105198D01*
X465383Y105281D01*
X465448Y105348D01*
X467657Y108787D01*
X467691Y108874D01*
X467748Y108948D01*
X469588Y112596D01*
X469613Y112687D01*
X469663Y112766D01*
X471114Y116585D01*
X471115Y116590D01*
X471118Y116595D01*
X472711Y120858D01*
X474655Y124882D01*
X476964Y128709D01*
X479617Y132307D01*
X482591Y135644D01*
X485862Y138691D01*
X489400Y141424D01*
X493176Y143818D01*
X497156Y145853D01*
X501385Y147541D01*
X501428Y147570D01*
X501478Y147582D01*
X503715Y148626D01*
X503863Y148735D01*
X504030Y148814D01*
X506006Y150294D01*
X506129Y150431D01*
X506275Y150543D01*
X507906Y152396D01*
X507999Y152556D01*
X508119Y152695D01*
X509337Y154842D01*
X509394Y155017D01*
X509484Y155179D01*
X510235Y157529D01*
X510256Y157712D01*
X510311Y157888D01*
X510565Y160342D01*
X510556Y160435D01*
X510574Y160526D01*
Y198572D01*
X510557Y198659D01*
X510566Y198747D01*
X510335Y201083D01*
X510284Y201252D01*
X510267Y201427D01*
X509585Y203674D01*
X509502Y203829D01*
X509451Y203997D01*
X508343Y206067D01*
X508232Y206203D01*
X508149Y206358D01*
X506658Y208172D01*
X506522Y208284D01*
X506410Y208419D01*
X504594Y209908D01*
X504439Y209991D01*
X504303Y210102D01*
X502231Y211207D01*
X502063Y211258D01*
X501908Y211341D01*
X499659Y212021D01*
X499484Y212038D01*
X499316Y212089D01*
X498589Y212159D01*
Y244696D01*
X554594Y244742D01*
X554947Y244389D01*
Y212207D01*
X554217Y212134D01*
X554049Y212083D01*
X553874Y212066D01*
X551626Y211382D01*
X551471Y211299D01*
X551303Y211248D01*
X549231Y210140D01*
X549095Y210028D01*
X548941Y209945D01*
X547124Y208454D01*
X547013Y208318D01*
X546877Y208207D01*
X545387Y206390D01*
X545304Y206236D01*
X545192Y206100D01*
X544085Y204028D01*
X544034Y203860D01*
X543951Y203705D01*
X543269Y201457D01*
X543252Y201282D01*
X543201Y201114D01*
X542971Y198776D01*
X542979Y198688D01*
X542962Y198602D01*
Y163963D01*
X542979Y163876D01*
X542971Y163788D01*
X543201Y161451D01*
X543252Y161283D01*
X543269Y161108D01*
X543951Y158861D01*
X544034Y158706D01*
X544085Y158538D01*
X545193Y156468D01*
X545304Y156332D01*
X545388Y156177D01*
X546878Y154363D01*
X547014Y154251D01*
X547126Y154115D01*
X548942Y152627D01*
X549097Y152544D01*
X549233Y152433D01*
X551305Y151328D01*
X551474Y151277D01*
X551628Y151194D01*
X553877Y150514D01*
X554052Y150497D01*
X554220Y150446D01*
X556558Y150218D01*
X556646Y150227D01*
X556733Y150210D01*
X596845Y150243D01*
X597199Y149890D01*
Y117874D01*
X517083Y117807D01*
X517005Y117792D01*
X516927Y117801D01*
X514481Y117585D01*
X514331Y117541D01*
X514175Y117530D01*
X511804Y116893D01*
X511664Y116824D01*
X511512Y116787D01*
X509287Y115748D01*
X509161Y115656D01*
X509018Y115593D01*
X507007Y114183D01*
X506899Y114070D01*
X506769Y113984D01*
X505033Y112247D01*
X504946Y112117D01*
X504833Y112009D01*
X503425Y109998D01*
X503362Y109854D01*
X503269Y109728D01*
X502232Y107504D01*
X502194Y107352D01*
X502125Y107211D01*
X501490Y104841D01*
X501480Y104684D01*
X501436Y104534D01*
X501222Y102090D01*
X501230Y102011D01*
X501215Y101934D01*
Y42038D01*
X501230Y41960D01*
X501222Y41882D01*
X501436Y39438D01*
X501480Y39287D01*
X501490Y39131D01*
X502125Y36761D01*
X502195Y36621D01*
X502232Y36469D01*
X503270Y34246D01*
X503362Y34120D01*
X503425Y33976D01*
X504834Y31967D01*
X504947Y31859D01*
X505034Y31729D01*
X506770Y29995D01*
X506900Y29908D01*
X507008Y29796D01*
X509020Y28390D01*
X509163Y28327D01*
X509289Y28234D01*
X511514Y27199D01*
X511666Y27162D01*
X511807Y27093D01*
X514178Y26460D01*
X514334Y26450D01*
X514484Y26406D01*
X516930Y26194D01*
X517008Y26203D01*
X517086Y26188D01*
X596845Y26254D01*
X597199Y25901D01*
Y-6115D01*
X556730Y-6149D01*
X556643Y-6166D01*
X556555Y-6157D01*
X554217Y-6389D01*
X554049Y-6441D01*
X553874Y-6458D01*
X551626Y-7141D01*
X551471Y-7224D01*
X551303Y-7275D01*
X549231Y-8384D01*
X549095Y-8495D01*
X548941Y-8578D01*
X547124Y-10070D01*
X547013Y-10205D01*
X546877Y-10317D01*
X545387Y-12133D01*
X545304Y-12288D01*
X545193Y-12424D01*
X544085Y-14496D01*
X544034Y-14664D01*
X543951Y-14819D01*
X543269Y-17067D01*
X543252Y-17242D01*
X543201Y-17410D01*
X542971Y-19747D01*
X542979Y-19835D01*
X542962Y-19922D01*
Y-54560D01*
X542979Y-54647D01*
X542971Y-54735D01*
X543201Y-57072D01*
X543252Y-57240D01*
X543269Y-57415D01*
X543951Y-59662D01*
X544034Y-59817D01*
X544085Y-59986D01*
X545193Y-62056D01*
X545304Y-62192D01*
X545388Y-62347D01*
X546878Y-64161D01*
X547014Y-64272D01*
X547126Y-64408D01*
X548942Y-65896D01*
X549097Y-65979D01*
X549233Y-66091D01*
X551305Y-67196D01*
X551474Y-67247D01*
X551629Y-67330D01*
X553877Y-68009D01*
X554052Y-68026D01*
X554220Y-68077D01*
X554947Y-68148D01*
Y-100685D01*
X498943Y-100731D01*
X498589Y-100378D01*
Y-68195D01*
X499319Y-68123D01*
X499487Y-68072D01*
X499662Y-68055D01*
X501910Y-67371D01*
X502065Y-67288D01*
X502233Y-67237D01*
X504305Y-66128D01*
X504441Y-66017D01*
X504596Y-65934D01*
X506412Y-64443D01*
X506523Y-64307D01*
X506659Y-64196D01*
X508149Y-62379D01*
X508232Y-62224D01*
X508344Y-62089D01*
X509451Y-60017D01*
X509502Y-59848D01*
X509585Y-59693D01*
X510267Y-57446D01*
X510284Y-57271D01*
X510335Y-57103D01*
X510566Y-54765D01*
X510557Y-54677D01*
X510574Y-54590D01*
Y-16545D01*
X510556Y-16454D01*
X510565Y-16361D01*
X510311Y-13908D01*
X510256Y-13731D01*
X510235Y-13548D01*
X509484Y-11199D01*
X509394Y-11037D01*
X509336Y-10862D01*
X508119Y-8717D01*
X507998Y-8577D01*
X507905Y-8417D01*
X506274Y-6567D01*
X506128Y-6455D01*
X506004Y-6318D01*
X504028Y-4842D01*
X503862Y-4762D01*
X503713Y-4653D01*
X501476Y-3613D01*
X501426Y-3601D01*
X501383Y-3573D01*
X497154Y-1891D01*
X493174Y137D01*
X489398Y2524D01*
X485860Y5251D01*
X482590Y8293D01*
X479616Y11625D01*
X476964Y15217D01*
X474655Y19040D01*
X472711Y23061D01*
X471117Y27321D01*
X471115Y27326D01*
X471114Y27331D01*
X469663Y31148D01*
X469613Y31228D01*
X469588Y31318D01*
X467748Y34964D01*
X467690Y35038D01*
X467656Y35125D01*
X465447Y38560D01*
X465382Y38628D01*
X465339Y38711D01*
X462786Y41899D01*
X462714Y41959D01*
X462662Y42037D01*
X459792Y44943D01*
X459714Y44995D01*
X459655Y45068D01*
X456498Y47660D01*
X456416Y47704D01*
X456349Y47770D01*
X452940Y50021D01*
X452854Y50056D01*
X452780Y50115D01*
X449156Y52000D01*
X449066Y52026D01*
X448988Y52077D01*
X445187Y53576D01*
X445095Y53593D01*
X445012Y53635D01*
X441076Y54732D01*
X440982Y54739D01*
X440895Y54772D01*
X436866Y55456D01*
X436772Y55453D01*
X436682Y55477D01*
X432603Y55739D01*
X432458Y55720D01*
X432313Y55734D01*
X429975Y55502D01*
X429807Y55451D01*
X429632Y55433D01*
X427384Y54750D01*
X427229Y54667D01*
X427061Y54616D01*
X424989Y53507D01*
X424853Y53396D01*
X424698Y53313D01*
X422882Y51822D01*
X422771Y51686D01*
X422635Y51575D01*
X421145Y49758D01*
X421062Y49604D01*
X420951Y49468D01*
X419843Y47396D01*
X419792Y47228D01*
X419709Y47073D01*
X419027Y44826D01*
X419010Y44651D01*
X418959Y44482D01*
X418728Y42145D01*
X418737Y42057D01*
X418719Y41971D01*
X418718Y25278D01*
X418735Y25192D01*
X418726Y25103D01*
X418956Y22766D01*
X419007Y22598D01*
X419025Y22423D01*
X419706Y20176D01*
X419790Y20021D01*
X419841Y19852D01*
X420948Y17782D01*
X421060Y17646D01*
X421143Y17491D01*
X422633Y15677D01*
X422769Y15565D01*
X422881Y15429D01*
X424697Y13941D01*
X424853Y13858D01*
X424989Y13747D01*
X427061Y12641D01*
X427229Y12591D01*
X427384Y12508D01*
X429633Y11828D01*
X429807Y11811D01*
X429976Y11760D01*
X430714Y11688D01*
Y-20847D01*
X374709Y-20894D01*
X374356Y-20541D01*
Y11643D01*
X375086Y11716D01*
X375254Y11767D01*
X375428Y11785D01*
X377675Y12470D01*
X377829Y12553D01*
X377997Y12604D01*
X380067Y13713D01*
X380203Y13824D01*
X380357Y13907D01*
X382172Y15398D01*
X382283Y15534D01*
X382418Y15645D01*
X383907Y17461D01*
X383990Y17616D01*
X384101Y17752D01*
X385208Y19823D01*
X385259Y19991D01*
X385342Y20146D01*
X386023Y22392D01*
X386040Y22567D01*
X386091Y22735D01*
X386321Y25071D01*
X386313Y25159D01*
X386330Y25245D01*
X386331Y30137D01*
X386313Y30224D01*
X386322Y30312D01*
X386095Y32614D01*
X386044Y32783D01*
X386027Y32957D01*
X385355Y35171D01*
X385272Y35326D01*
X385221Y35495D01*
X384129Y37534D01*
X384018Y37670D01*
X383935Y37825D01*
X382466Y39612D01*
X382330Y39724D01*
X382219Y39860D01*
X380429Y41326D01*
X380274Y41409D01*
X380138Y41520D01*
X378097Y42609D01*
X377928Y42660D01*
X377773Y42742D01*
X375558Y43412D01*
X375383Y43429D01*
X375215Y43480D01*
X372911Y43705D01*
X372771Y43691D01*
X372631Y43710D01*
X368941Y43489D01*
X368839Y43463D01*
X368733Y43465D01*
X365093Y42813D01*
X364995Y42774D01*
X364890Y42764D01*
X361351Y41690D01*
X361258Y41640D01*
X361155Y41618D01*
X357766Y40137D01*
X357757Y40131D01*
X357747Y40129D01*
X352763Y37881D01*
X347670Y36138D01*
X342435Y34881D01*
X337107Y34120D01*
X331730Y33863D01*
X326354Y34111D01*
X321025Y34863D01*
X315791Y36111D01*
X310698Y37846D01*
X305714Y40085D01*
X305704Y40088D01*
X305695Y40094D01*
X302305Y41569D01*
X302201Y41592D01*
X302108Y41642D01*
X298567Y42710D01*
X298462Y42720D01*
X298363Y42758D01*
X294721Y43404D01*
X294616Y43402D01*
X294513Y43428D01*
X290820Y43642D01*
X290768Y43635D01*
X290716Y43645D01*
X265226Y43624D01*
X265139Y43607D01*
X265051Y43615D01*
X262747Y43387D01*
X262579Y43336D01*
X262404Y43318D01*
X260190Y42645D01*
X260035Y42562D01*
X259867Y42511D01*
X257825Y41419D01*
X257690Y41307D01*
X257535Y41224D01*
X255745Y39755D01*
X255634Y39619D01*
X255498Y39508D01*
X254030Y37718D01*
X253947Y37563D01*
X253835Y37428D01*
X252744Y35386D01*
X252693Y35218D01*
X252610Y35063D01*
X251939Y32849D01*
X251921Y32674D01*
X251870Y32505D01*
X251643Y30203D01*
X251652Y30115D01*
X251635Y30028D01*
Y10232D01*
X251635Y10231D01*
X251635Y10230D01*
X251661Y-17722D01*
X251678Y-17808D01*
X251669Y-17897D01*
X251902Y-20232D01*
X251953Y-20400D01*
X251970Y-20575D01*
X252653Y-22820D01*
X252736Y-22975D01*
X252788Y-23143D01*
X253896Y-25211D01*
X254008Y-25347D01*
X254091Y-25502D01*
X255581Y-27314D01*
X255717Y-27425D01*
X255829Y-27561D01*
X257645Y-29048D01*
X257800Y-29130D01*
X257936Y-29242D01*
X260007Y-30346D01*
X260175Y-30397D01*
X260330Y-30479D01*
X262577Y-31158D01*
X262752Y-31175D01*
X262920Y-31226D01*
X265257Y-31454D01*
X265344Y-31445D01*
X265430Y-31462D01*
X265441D01*
X265443Y-31462D01*
X265445Y-31462D01*
X286119Y-31426D01*
X301311Y-45877D01*
X301311Y-45877D01*
X303929Y-48373D01*
X341307Y-84293D01*
X341316Y-84793D01*
X319103Y-107882D01*
X281221Y-71477D01*
X281218Y-71475D01*
X281216Y-71472D01*
X278594Y-68972D01*
X278594Y-68972D01*
X278593Y-68971D01*
X277170Y-67617D01*
X277098Y-67572D01*
X277042Y-67506D01*
X275251Y-66102D01*
X275099Y-66025D01*
X274966Y-65919D01*
X272941Y-64878D01*
X272778Y-64832D01*
X272626Y-64753D01*
X270441Y-64114D01*
X270272Y-64099D01*
X270109Y-64050D01*
X267842Y-63836D01*
X267751Y-63845D01*
X267661Y-63828D01*
X267656Y-63828D01*
X249648Y-63859D01*
X249636Y-63862D01*
X249625Y-63860D01*
X249318Y-63864D01*
X249210Y-63887D01*
X249100Y-63881D01*
X247357Y-64122D01*
X247171Y-64187D01*
X246977Y-64218D01*
X245329Y-64835D01*
X245161Y-64938D01*
X244979Y-65012D01*
X243505Y-65973D01*
X243365Y-66111D01*
X243202Y-66223D01*
X241975Y-67483D01*
X241868Y-67649D01*
X241734Y-67793D01*
X240812Y-69291D01*
X240743Y-69476D01*
X240644Y-69646D01*
X240072Y-71309D01*
X240062Y-71389D01*
X240028Y-71461D01*
X240015Y-71731D01*
X239979Y-71999D01*
X239999Y-72077D01*
X239996Y-72157D01*
X240166Y-73279D01*
X240181Y-73319D01*
X240181Y-73362D01*
X248890Y-116740D01*
X249280Y-119363D01*
X260282Y-244972D01*
X162382Y-253620D01*
X162297Y-253644D01*
X162208Y-253643D01*
X159899Y-254079D01*
X159736Y-254144D01*
X159564Y-254176D01*
X157383Y-255053D01*
X157236Y-255149D01*
X157073Y-255215D01*
X155106Y-256500D01*
X154980Y-256623D01*
X154833Y-256719D01*
X153154Y-258363D01*
X153055Y-258507D01*
X152929Y-258630D01*
X151603Y-260570D01*
X151534Y-260731D01*
X151435Y-260876D01*
X150512Y-263037D01*
X150476Y-263209D01*
X150407Y-263370D01*
X149924Y-265669D01*
X149922Y-265845D01*
X149886Y-266017D01*
X149878Y-266749D01*
X117799Y-269583D01*
X117416Y-269261D01*
X112532Y-213505D01*
X144963Y-210640D01*
X145098Y-211357D01*
X145163Y-211521D01*
X145196Y-211694D01*
X146071Y-213872D01*
X146168Y-214019D01*
X146233Y-214183D01*
X147517Y-216148D01*
X147640Y-216274D01*
X147736Y-216421D01*
X149380Y-218098D01*
X149525Y-218197D01*
X149648Y-218323D01*
X151587Y-219647D01*
X151749Y-219716D01*
X151894Y-219815D01*
X154055Y-220736D01*
X154227Y-220772D01*
X154389Y-220840D01*
X156688Y-221322D01*
X156864Y-221323D01*
X157036Y-221359D01*
X159385Y-221383D01*
X159472Y-221367D01*
X159560Y-221376D01*
X211478Y-216790D01*
X211563Y-216765D01*
X211651Y-216766D01*
X213960Y-216331D01*
X214123Y-216266D01*
X214296Y-216233D01*
X216476Y-215356D01*
X216623Y-215260D01*
X216786Y-215195D01*
X218754Y-213910D01*
X218879Y-213787D01*
X219026Y-213691D01*
X220706Y-212047D01*
X220805Y-211902D01*
X220930Y-211779D01*
X222257Y-209840D01*
X222326Y-209678D01*
X222425Y-209533D01*
X223347Y-207373D01*
X223384Y-207201D01*
X223453Y-207039D01*
X223936Y-204741D01*
X223938Y-204565D01*
X223974Y-204393D01*
X224000Y-202045D01*
X223983Y-201958D01*
X223993Y-201870D01*
X217042Y-122520D01*
X217035Y-122494D01*
X217037Y-122467D01*
X216952Y-121752D01*
X216866Y-121486D01*
X216801Y-121214D01*
X215969Y-119409D01*
X215838Y-119228D01*
X215734Y-119031D01*
X214481Y-117487D01*
X214310Y-117345D01*
X214160Y-117180D01*
X212564Y-115993D01*
X212363Y-115898D01*
X212177Y-115774D01*
X210337Y-115019D01*
X210112Y-114975D01*
X209894Y-114901D01*
X206749Y-114484D01*
X206612Y-114492D01*
X206478Y-114469D01*
X206009Y-114478D01*
X205992Y-114482D01*
X205975Y-114479D01*
X117194Y-118023D01*
X116827Y-117683D01*
X115575Y-85694D01*
X196099Y-82480D01*
X196205Y-82454D01*
X196314Y-82458D01*
X199179Y-81992D01*
X199382Y-81916D01*
X199594Y-81872D01*
X202263Y-80731D01*
X202435Y-80613D01*
X202624Y-80524D01*
X204062Y-79460D01*
X204197Y-79312D01*
X204354Y-79189D01*
X205520Y-77832D01*
X205618Y-77657D01*
X205744Y-77502D01*
X206578Y-75920D01*
X206636Y-75728D01*
X206724Y-75548D01*
X207186Y-73821D01*
X207199Y-73621D01*
X207245Y-73426D01*
X207311Y-71640D01*
X207300Y-71573D01*
X207311Y-71507D01*
X207277Y-70606D01*
X207274Y-70593D01*
X207276Y-70580D01*
X207031Y-65888D01*
X207008Y-65797D01*
X207012Y-65703D01*
X206281Y-61062D01*
X206248Y-60974D01*
X206242Y-60880D01*
X205032Y-56341D01*
X204991Y-56257D01*
X204975Y-56164D01*
X203300Y-51775D01*
X203250Y-51696D01*
X203224Y-51605D01*
X201101Y-47415D01*
X201101Y-47415D01*
X201101Y-47415D01*
X199024Y-43315D01*
X197416Y-39108D01*
X196254Y-34756D01*
X195550Y-30308D01*
X195309Y-25763D01*
X195276Y10128D01*
Y29780D01*
X195260Y29863D01*
X195268Y29947D01*
X195061Y32151D01*
X195012Y32313D01*
X194998Y32480D01*
X194382Y34607D01*
X194305Y34756D01*
X194259Y34918D01*
X193256Y36892D01*
X193152Y37024D01*
X193077Y37175D01*
X191724Y38926D01*
X191597Y39037D01*
X191495Y39171D01*
X189837Y40638D01*
X189692Y40723D01*
X189567Y40836D01*
X187664Y41968D01*
X187505Y42024D01*
X187362Y42111D01*
X185281Y42868D01*
X185114Y42893D01*
X184957Y42952D01*
X182771Y43307D01*
X182603Y43301D01*
X182437Y43330D01*
X180222Y43270D01*
X180095Y43241D01*
X179964Y43244D01*
X175947Y42544D01*
X175860Y42511D01*
X175767Y42503D01*
X171844Y41392D01*
X171760Y41349D01*
X171669Y41332D01*
X167881Y39821D01*
X167803Y39770D01*
X167713Y39744D01*
X164102Y37849D01*
X164029Y37791D01*
X163943Y37755D01*
X160547Y35498D01*
X160480Y35432D01*
X160398Y35388D01*
X157254Y32791D01*
X157195Y32719D01*
X157118Y32667D01*
X154258Y29759D01*
X154207Y29681D01*
X154136Y29621D01*
X151592Y26434D01*
X151549Y26351D01*
X151485Y26284D01*
X149285Y22851D01*
X149251Y22764D01*
X149193Y22691D01*
X147360Y19049D01*
X147335Y18959D01*
X147286Y18880D01*
X145839Y15069D01*
X145824Y14977D01*
X145782Y14893D01*
X144738Y10953D01*
X144732Y10860D01*
X144700Y10772D01*
X144069Y6746D01*
X144073Y6652D01*
X144050Y6562D01*
X143838Y2492D01*
X143845Y2446D01*
X143836Y2400D01*
Y-16065D01*
X37391Y-16153D01*
X37328Y-16166D01*
X37264Y-16158D01*
X34463Y-16361D01*
X34340Y-16395D01*
X34212Y-16397D01*
X31468Y-16996D01*
X31350Y-17047D01*
X31224Y-17068D01*
X28593Y-18051D01*
X28484Y-18118D01*
X28361Y-18157D01*
X25897Y-19503D01*
X25799Y-19586D01*
X25683Y-19641D01*
X23435Y-21325D01*
X23350Y-21420D01*
X23243Y-21492D01*
X21258Y-23478D01*
X21186Y-23584D01*
X21091Y-23670D01*
X19408Y-25918D01*
X19353Y-26034D01*
X19271Y-26132D01*
X17925Y-28596D01*
X17887Y-28719D01*
X17819Y-28828D01*
X16838Y-31458D01*
X16817Y-31585D01*
X16766Y-31703D01*
X16169Y-34446D01*
X16167Y-34574D01*
X16133Y-34698D01*
X15933Y-37497D01*
X15941Y-37561D01*
X15928Y-37625D01*
Y-75431D01*
X15941Y-75495D01*
X15933Y-75560D01*
X16139Y-78400D01*
X16174Y-78526D01*
X16176Y-78656D01*
X16791Y-81436D01*
X16843Y-81556D01*
X16865Y-81684D01*
X17875Y-84346D01*
X17944Y-84457D01*
X17984Y-84581D01*
X19368Y-87069D01*
X19452Y-87169D01*
X19510Y-87286D01*
X21239Y-89548D01*
X21336Y-89634D01*
X21410Y-89741D01*
X23448Y-91730D01*
X23557Y-91801D01*
X23646Y-91896D01*
X25950Y-93570D01*
X26068Y-93624D01*
X26170Y-93706D01*
X27736Y-94528D01*
Y-109852D01*
X27237Y-109876D01*
X27230Y-109804D01*
X26834Y-108499D01*
X26191Y-107297D01*
X25326Y-106243D01*
X24273Y-105378D01*
X23070Y-104735D01*
X21766Y-104340D01*
X20409Y-104206D01*
X18440D01*
X17083Y-104340D01*
X15779Y-104735D01*
X14576Y-105378D01*
X13522Y-106243D01*
X12658Y-107297D01*
X12015Y-108499D01*
X11619Y-109804D01*
X11485Y-111161D01*
X11619Y-112517D01*
X12015Y-113822D01*
X12658Y-115025D01*
X13522Y-116078D01*
X14576Y-116943D01*
X15779Y-117586D01*
X17083Y-117982D01*
X18440Y-118115D01*
X20409D01*
X21766Y-117982D01*
X23070Y-117586D01*
X24273Y-116943D01*
X25326Y-116078D01*
X26191Y-115025D01*
X26834Y-113822D01*
X27230Y-112517D01*
X27237Y-112445D01*
X27736Y-112470D01*
Y-127073D01*
X-27383Y-127119D01*
X-27736Y-126765D01*
Y-94576D01*
X-26168Y-93750D01*
X-26067Y-93668D01*
X-25949Y-93614D01*
X-23644Y-91936D01*
X-23556Y-91841D01*
X-23447Y-91770D01*
X-21409Y-89778D01*
X-21336Y-89670D01*
X-21238Y-89584D01*
X-19509Y-87319D01*
X-19452Y-87203D01*
X-19367Y-87103D01*
X-17983Y-84613D01*
X-17944Y-84489D01*
X-17875Y-84379D01*
X-16865Y-81715D01*
X-16843Y-81586D01*
X-16791Y-81467D01*
X-16176Y-78686D01*
X-16174Y-78556D01*
X-16139Y-78430D01*
X-15933Y-75589D01*
X-15941Y-75524D01*
X-15928Y-75460D01*
Y-37654D01*
X-15941Y-37591D01*
X-15933Y-37527D01*
X-16133Y-34727D01*
X-16167Y-34604D01*
X-16169Y-34475D01*
X-16766Y-31733D01*
X-16817Y-31616D01*
X-16838Y-31489D01*
X-17819Y-28860D01*
X-17887Y-28751D01*
X-17925Y-28628D01*
X-19271Y-26166D01*
X-19353Y-26068D01*
X-19409Y-25952D01*
X-21092Y-23707D01*
X-21187Y-23621D01*
X-21259Y-23514D01*
X-23244Y-21531D01*
X-23351Y-21460D01*
X-23437Y-21364D01*
X-25685Y-19684D01*
X-25801Y-19629D01*
X-25899Y-19547D01*
X-28364Y-18204D01*
X-28486Y-18166D01*
X-28595Y-18099D01*
X-31226Y-17120D01*
X-31353Y-17099D01*
X-31471Y-17048D01*
X-34214Y-16454D01*
X-34343Y-16452D01*
X-34466Y-16418D01*
X-37267Y-16220D01*
X-37331Y-16228D01*
X-37394Y-16216D01*
X-143482Y-16304D01*
X-143836Y-15951D01*
Y2157D01*
X-143845Y2203D01*
X-143839Y2250D01*
X-144050Y6319D01*
X-144073Y6410D01*
X-144069Y6503D01*
X-144700Y10528D01*
X-144732Y10616D01*
X-144738Y10709D01*
X-145783Y14648D01*
X-145824Y14732D01*
X-145839Y14824D01*
X-147286Y18632D01*
X-147336Y18712D01*
X-147361Y18802D01*
X-149194Y22440D01*
X-149251Y22514D01*
X-149285Y22601D01*
X-151485Y26030D01*
X-151550Y26097D01*
X-151593Y26180D01*
X-154137Y29363D01*
X-154208Y29423D01*
X-154260Y29502D01*
X-157119Y32404D01*
X-157196Y32457D01*
X-157255Y32529D01*
X-160400Y35120D01*
X-160482Y35164D01*
X-160549Y35230D01*
X-163945Y37482D01*
X-164031Y37517D01*
X-164104Y37576D01*
X-167715Y39465D01*
X-167805Y39491D01*
X-167883Y39542D01*
X-171671Y41046D01*
X-171763Y41063D01*
X-171846Y41105D01*
X-175770Y42211D01*
X-175863Y42218D01*
X-175950Y42251D01*
X-179967Y42945D01*
X-180068Y42942D01*
X-180165Y42968D01*
X-181579Y43051D01*
X-181719Y43032D01*
X-181860Y43045D01*
X-184164Y42817D01*
X-184332Y42766D01*
X-184506Y42748D01*
X-186722Y42075D01*
X-186876Y41992D01*
X-187045Y41941D01*
X-189086Y40849D01*
X-189222Y40737D01*
X-189376Y40654D01*
X-191166Y39185D01*
X-191277Y39050D01*
X-191413Y38938D01*
X-192881Y37148D01*
X-192964Y36994D01*
X-193076Y36858D01*
X-194167Y34816D01*
X-194218Y34648D01*
X-194301Y34493D01*
X-194973Y32279D01*
X-194990Y32104D01*
X-195041Y31936D01*
X-195268Y29633D01*
X-195259Y29545D01*
X-195276Y29458D01*
Y9806D01*
X-195310Y-26086D01*
X-195550Y-30630D01*
X-196254Y-35081D01*
X-197416Y-39434D01*
X-199024Y-43644D01*
X-201102Y-47747D01*
X-201102Y-47747D01*
X-201102Y-47747D01*
X-203225Y-51941D01*
X-203250Y-52032D01*
X-203300Y-52111D01*
X-204975Y-56503D01*
X-204991Y-56595D01*
X-205032Y-56679D01*
X-206242Y-61221D01*
X-206248Y-61314D01*
X-206281Y-61402D01*
X-207012Y-66045D01*
X-207008Y-66138D01*
X-207031Y-66229D01*
X-207276Y-70922D01*
X-207274Y-70935D01*
X-207277Y-70948D01*
X-207311Y-71849D01*
X-207300Y-71915D01*
X-207311Y-71982D01*
X-207245Y-73768D01*
X-207199Y-73963D01*
X-207186Y-74163D01*
X-206724Y-75890D01*
X-206636Y-76070D01*
X-206578Y-76262D01*
X-205744Y-77842D01*
X-205617Y-77998D01*
X-205519Y-78173D01*
X-204353Y-79528D01*
X-204195Y-79651D01*
X-204060Y-79799D01*
X-202623Y-80861D01*
X-202434Y-80950D01*
X-202261Y-81068D01*
X-199592Y-82204D01*
X-199380Y-82248D01*
X-199177Y-82323D01*
X-196311Y-82785D01*
X-196202Y-82781D01*
X-196096Y-82806D01*
X-115929Y-85872D01*
X-115589Y-86239D01*
X-116841Y-118231D01*
X-205978Y-114822D01*
X-206113Y-114844D01*
X-206249Y-114832D01*
X-209863Y-115246D01*
X-210098Y-115321D01*
X-210340Y-115369D01*
X-212180Y-116127D01*
X-212365Y-116251D01*
X-212566Y-116346D01*
X-214162Y-117535D01*
X-214311Y-117701D01*
X-214482Y-117843D01*
X-215735Y-119389D01*
X-215839Y-119586D01*
X-215969Y-119766D01*
X-216801Y-121573D01*
X-216866Y-121845D01*
X-216953Y-122110D01*
X-217037Y-122826D01*
X-217035Y-122853D01*
X-217042Y-122879D01*
X-221606Y-174980D01*
X-221600Y-175027D01*
X-221611Y-175074D01*
X-221755Y-179189D01*
X-221740Y-179282D01*
X-221752Y-179376D01*
X-221465Y-183484D01*
X-221440Y-183574D01*
X-221442Y-183669D01*
X-220727Y-187724D01*
X-220693Y-187812D01*
X-220685Y-187906D01*
X-219549Y-191863D01*
X-219506Y-191947D01*
X-219489Y-192040D01*
X-217945Y-195857D01*
X-217894Y-195936D01*
X-217866Y-196026D01*
X-215932Y-199661D01*
X-215873Y-199734D01*
X-215836Y-199821D01*
X-213532Y-203233D01*
X-213465Y-203299D01*
X-213420Y-203382D01*
X-210772Y-206535D01*
X-210698Y-206594D01*
X-210644Y-206671D01*
X-207681Y-209529D01*
X-207601Y-209580D01*
X-207539Y-209652D01*
X-204293Y-212185D01*
X-204208Y-212227D01*
X-204140Y-212292D01*
X-200646Y-214471D01*
X-200558Y-214505D01*
X-200482Y-214562D01*
X-196780Y-216364D01*
X-196688Y-216388D01*
X-196607Y-216437D01*
X-192736Y-217842D01*
X-192643Y-217856D01*
X-192557Y-217897D01*
X-188560Y-218890D01*
X-188465Y-218894D01*
X-188376Y-218925D01*
X-184297Y-219495D01*
X-184249Y-219492D01*
X-184204Y-219506D01*
X-159557Y-221642D01*
X-159469Y-221632D01*
X-159382Y-221648D01*
X-157033Y-221621D01*
X-156861Y-221584D01*
X-156685Y-221582D01*
X-154386Y-221097D01*
X-154225Y-221028D01*
X-154053Y-220992D01*
X-151892Y-220068D01*
X-151747Y-219969D01*
X-151586Y-219900D01*
X-149646Y-218573D01*
X-149524Y-218447D01*
X-149379Y-218348D01*
X-147736Y-216668D01*
X-147640Y-216521D01*
X-147517Y-216395D01*
X-146233Y-214428D01*
X-146167Y-214265D01*
X-146071Y-214118D01*
X-145196Y-211938D01*
X-145163Y-211765D01*
X-145098Y-211602D01*
X-144962Y-210881D01*
X-112885Y-213662D01*
X-112563Y-214044D01*
X-117447Y-269810D01*
X-149878Y-266999D01*
X-149886Y-266269D01*
X-149922Y-266097D01*
X-149924Y-265921D01*
X-150407Y-263623D01*
X-150476Y-263462D01*
X-150513Y-263290D01*
X-151435Y-261131D01*
X-151534Y-260986D01*
X-151604Y-260824D01*
X-152930Y-258887D01*
X-153056Y-258764D01*
X-153155Y-258618D01*
X-154835Y-256978D01*
X-154982Y-256881D01*
X-155108Y-256759D01*
X-157075Y-255477D01*
X-157238Y-255412D01*
X-157386Y-255316D01*
X-159566Y-254442D01*
X-159739Y-254410D01*
X-159902Y-254345D01*
X-162211Y-253913D01*
X-162300Y-253914D01*
X-162385Y-253890D01*
X-259930Y-245436D01*
X-260251Y-245053D01*
X-249280Y-119781D01*
X-248890Y-117157D01*
X-240181Y-73765D01*
X-240181Y-73722D01*
X-240166Y-73681D01*
X-239996Y-72559D01*
X-239999Y-72479D01*
X-239979Y-72401D01*
X-240015Y-72134D01*
X-240028Y-71864D01*
X-240062Y-71791D01*
X-240073Y-71711D01*
X-240644Y-70049D01*
X-240744Y-69879D01*
X-240812Y-69694D01*
X-241734Y-68197D01*
X-241868Y-68053D01*
X-241976Y-67887D01*
X-243203Y-66629D01*
X-243366Y-66517D01*
X-243507Y-66379D01*
X-244980Y-65420D01*
X-245163Y-65347D01*
X-245331Y-65243D01*
X-246979Y-64629D01*
X-247174Y-64598D01*
X-247360Y-64534D01*
X-249103Y-64295D01*
X-249213Y-64302D01*
X-249321Y-64279D01*
X-249628Y-64275D01*
X-249639Y-64277D01*
X-249651Y-64275D01*
X-267663Y-64273D01*
X-267663Y-64273D01*
X-267663Y-64273D01*
X-267674D01*
X-267759Y-64290D01*
X-267845Y-64281D01*
X-270112Y-64499D01*
X-270275Y-64549D01*
X-270444Y-64564D01*
X-272629Y-65206D01*
X-272780Y-65285D01*
X-272943Y-65332D01*
X-274968Y-66376D01*
X-275101Y-66482D01*
X-275253Y-66559D01*
X-277043Y-67967D01*
X-277099Y-68032D01*
X-277171Y-68078D01*
X-278594Y-69434D01*
X-278595Y-69435D01*
X-278596Y-69435D01*
X-281217Y-71939D01*
X-281219Y-71942D01*
X-281223Y-71944D01*
X-319105Y-108413D01*
X-341316Y-85363D01*
X-341307Y-84863D01*
X-303928Y-48880D01*
X-301310Y-46380D01*
D01*
X-286117Y-31902D01*
X-265442Y-31904D01*
X-265442Y-31904D01*
X-265441Y-31904D01*
X-265430D01*
X-265343Y-31887D01*
X-265254Y-31896D01*
X-262917Y-31664D01*
X-262749Y-31613D01*
X-262575Y-31595D01*
X-260328Y-30913D01*
X-260173Y-30830D01*
X-260005Y-30779D01*
X-257934Y-29671D01*
X-257798Y-29560D01*
X-257643Y-29477D01*
X-255828Y-27988D01*
X-255716Y-27852D01*
X-255581Y-27741D01*
X-254090Y-25926D01*
X-254007Y-25771D01*
X-253896Y-25636D01*
X-252787Y-23566D01*
X-252736Y-23398D01*
X-252654Y-23243D01*
X-251970Y-20997D01*
X-251953Y-20822D01*
X-251902Y-20654D01*
X-251669Y-18318D01*
X-251678Y-18230D01*
X-251661Y-18144D01*
X-251635Y9808D01*
X-251635Y9809D01*
X-251635Y9810D01*
Y29606D01*
X-251652Y29693D01*
X-251643Y29781D01*
X-251870Y32083D01*
X-251921Y32252D01*
X-251939Y32427D01*
X-252611Y34640D01*
X-252694Y34795D01*
X-252745Y34964D01*
X-253836Y37003D01*
X-253947Y37139D01*
X-254030Y37294D01*
X-255499Y39081D01*
X-255635Y39193D01*
X-255747Y39329D01*
X-257536Y40795D01*
X-257691Y40878D01*
X-257827Y40989D01*
X-259869Y42078D01*
X-260037Y42129D01*
X-260192Y42212D01*
X-262407Y42881D01*
X-262582Y42898D01*
X-262750Y42949D01*
X-265054Y43174D01*
X-265142Y43165D01*
X-265229Y43183D01*
X-290719Y43161D01*
X-290771Y43151D01*
X-290823Y43158D01*
X-294516Y42938D01*
X-294619Y42911D01*
X-294724Y42913D01*
X-298366Y42262D01*
X-298465Y42223D01*
X-298570Y42213D01*
X-302111Y41139D01*
X-302204Y41089D01*
X-302307Y41067D01*
X-305697Y39585D01*
X-305706Y39579D01*
X-305717Y39577D01*
X-310701Y37329D01*
X-315794Y35586D01*
X-321028Y34328D01*
X-326357Y33568D01*
X-331733Y33310D01*
X-337110Y33559D01*
X-342438Y34311D01*
X-347672Y35559D01*
X-352766Y37294D01*
X-357749Y39533D01*
X-357760Y39535D01*
X-357769Y39542D01*
X-361157Y41017D01*
X-361261Y41039D01*
X-361354Y41089D01*
X-364892Y42156D01*
X-364998Y42167D01*
X-365096Y42205D01*
X-368736Y42851D01*
X-368841Y42849D01*
X-368944Y42875D01*
X-372634Y43090D01*
X-372774Y43071D01*
X-372914Y43084D01*
X-375218Y42856D01*
X-375386Y42805D01*
X-375561Y42787D01*
X-377776Y42114D01*
X-377931Y42031D01*
X-378099Y41980D01*
X-380141Y40887D01*
X-380276Y40776D01*
X-380431Y40693D01*
X-382221Y39224D01*
X-382332Y39088D01*
X-382468Y38976D01*
X-383936Y37187D01*
X-384019Y37032D01*
X-384130Y36896D01*
X-385222Y34854D01*
X-385273Y34686D01*
X-385355Y34531D01*
X-386027Y32316D01*
X-386044Y32142D01*
X-386095Y31973D01*
X-386322Y29670D01*
X-386313Y29582D01*
X-386331Y29495D01*
X-386330Y24605D01*
X-386313Y24519D01*
X-386322Y24430D01*
X-386091Y22095D01*
X-386040Y21927D01*
X-386023Y21752D01*
X-385342Y19507D01*
X-385259Y19352D01*
X-385208Y19184D01*
X-384101Y17115D01*
X-383990Y16979D01*
X-383907Y16824D01*
X-382418Y15010D01*
X-382282Y14899D01*
X-382170Y14763D01*
X-380356Y13275D01*
X-380201Y13192D01*
X-380065Y13081D01*
X-377995Y11975D01*
X-377827Y11924D01*
X-377672Y11841D01*
X-375426Y11160D01*
X-375251Y11143D01*
X-375083Y11092D01*
X-374356Y11020D01*
Y-21517D01*
X-430360Y-21564D01*
X-430714Y-21211D01*
Y10971D01*
X-429973Y11044D01*
X-429805Y11095D01*
X-429630Y11113D01*
X-427382Y11796D01*
X-427227Y11879D01*
X-427059Y11930D01*
X-424987Y13039D01*
X-424851Y13151D01*
X-424696Y13233D01*
X-422880Y14725D01*
X-422768Y14861D01*
X-422633Y14972D01*
X-421142Y16789D01*
X-421059Y16944D01*
X-420948Y17079D01*
X-419840Y19152D01*
X-419790Y19320D01*
X-419707Y19475D01*
X-419025Y21723D01*
X-419007Y21898D01*
X-418957Y22066D01*
X-418726Y24403D01*
X-418735Y24491D01*
X-418718Y24578D01*
X-418720Y41271D01*
X-418737Y41357D01*
X-418728Y41445D01*
X-418959Y43782D01*
X-419010Y43951D01*
X-419027Y44126D01*
X-419709Y46372D01*
X-419792Y46527D01*
X-419843Y46695D01*
X-420951Y48765D01*
X-421063Y48901D01*
X-421146Y49056D01*
X-422636Y50870D01*
X-422772Y50982D01*
X-422884Y51117D01*
X-424700Y52605D01*
X-424855Y52688D01*
X-424991Y52800D01*
X-427063Y53905D01*
X-427231Y53956D01*
X-427387Y54038D01*
X-429635Y54718D01*
X-429810Y54735D01*
X-429978Y54786D01*
X-432316Y55014D01*
X-432461Y55000D01*
X-432607Y55019D01*
X-436685Y54750D01*
X-436775Y54726D01*
X-436869Y54728D01*
X-440898Y54039D01*
X-440985Y54005D01*
X-441078Y53998D01*
X-445014Y52894D01*
X-445098Y52852D01*
X-445190Y52835D01*
X-448990Y51329D01*
X-449069Y51279D01*
X-449159Y51252D01*
X-452783Y49361D01*
X-452856Y49303D01*
X-452942Y49267D01*
X-456351Y47011D01*
X-456417Y46945D01*
X-456500Y46901D01*
X-459656Y44303D01*
X-459716Y44231D01*
X-459793Y44178D01*
X-462663Y41268D01*
X-462715Y41190D01*
X-462786Y41130D01*
X-465340Y37938D01*
X-465383Y37855D01*
X-465448Y37787D01*
X-467656Y34348D01*
X-467690Y34261D01*
X-467748Y34187D01*
X-469588Y30538D01*
X-469613Y30448D01*
X-469663Y30369D01*
X-471114Y26549D01*
X-471115Y26544D01*
X-471118Y26540D01*
X-472711Y22276D01*
X-474655Y18252D01*
X-476964Y14425D01*
X-479617Y10828D01*
X-482591Y7491D01*
X-485862Y4443D01*
X-489400Y1710D01*
X-493176Y-684D01*
X-497156Y-2718D01*
X-501385Y-4407D01*
X-501428Y-4435D01*
X-501478Y-4447D01*
X-503715Y-5491D01*
X-503864Y-5601D01*
X-504030Y-5680D01*
X-506006Y-7160D01*
X-506129Y-7297D01*
X-506275Y-7409D01*
X-507906Y-9262D01*
X-507999Y-9421D01*
X-508119Y-9561D01*
X-509337Y-11708D01*
X-509395Y-11883D01*
X-509484Y-12044D01*
X-510235Y-14394D01*
X-510256Y-14578D01*
X-510311Y-14754D01*
X-510565Y-17208D01*
X-510556Y-17300D01*
X-510574Y-17392D01*
Y-55437D01*
X-510557Y-55524D01*
X-510566Y-55612D01*
X-510335Y-57949D01*
X-510284Y-58117D01*
X-510267Y-58292D01*
X-509585Y-60539D01*
X-509502Y-60694D01*
X-509451Y-60862D01*
X-508343Y-62932D01*
X-508232Y-63068D01*
X-508149Y-63223D01*
X-506658Y-65038D01*
X-506522Y-65149D01*
X-506411Y-65285D01*
X-504594Y-66773D01*
X-504439Y-66856D01*
X-504303Y-66967D01*
X-502231Y-68073D01*
X-502063Y-68124D01*
X-501908Y-68206D01*
X-499659Y-68886D01*
X-499484Y-68903D01*
X-499316Y-68954D01*
X-498589Y-69025D01*
Y-101561D01*
X-554594Y-101608D01*
X-554947Y-101255D01*
Y-69072D01*
X-554217Y-69000D01*
X-554049Y-68949D01*
X-553874Y-68931D01*
X-551626Y-68248D01*
X-551471Y-68165D01*
X-551303Y-68114D01*
X-549231Y-67005D01*
X-549095Y-66894D01*
X-548941Y-66811D01*
X-547124Y-65320D01*
X-547013Y-65184D01*
X-546877Y-65073D01*
X-545387Y-63256D01*
X-545304Y-63101D01*
X-545193Y-62965D01*
X-544085Y-60893D01*
X-544034Y-60725D01*
X-543951Y-60570D01*
X-543269Y-58322D01*
X-543252Y-58148D01*
X-543201Y-57979D01*
X-542971Y-55642D01*
X-542979Y-55554D01*
X-542962Y-55467D01*
Y-20829D01*
X-542979Y-20742D01*
X-542971Y-20654D01*
X-543201Y-18317D01*
X-543252Y-18149D01*
X-543269Y-17974D01*
X-543951Y-15727D01*
X-544034Y-15572D01*
X-544085Y-15404D01*
X-545193Y-13333D01*
X-545304Y-13197D01*
X-545388Y-13042D01*
X-546878Y-11228D01*
X-547014Y-11117D01*
X-547126Y-10981D01*
X-548942Y-9493D01*
X-549097Y-9410D01*
X-549233Y-9298D01*
X-551305Y-8193D01*
X-551474Y-8142D01*
X-551629Y-8060D01*
X-553877Y-7380D01*
X-554052Y-7363D01*
X-554220Y-7312D01*
X-556558Y-7084D01*
X-556646Y-7092D01*
X-556733Y-7075D01*
X-596846Y-7109D01*
X-597199Y-6755D01*
Y25260D01*
X-517083Y25327D01*
X-517007Y25342D01*
X-516931Y25334D01*
X-514545Y25539D01*
X-514398Y25582D01*
X-514246Y25591D01*
X-511929Y26197D01*
X-511792Y26264D01*
X-511643Y26299D01*
X-509462Y27289D01*
X-509338Y27378D01*
X-509198Y27437D01*
X-507215Y28782D01*
X-507108Y28891D01*
X-506980Y28973D01*
X-505254Y30634D01*
X-505167Y30759D01*
X-505054Y30862D01*
X-503635Y32791D01*
X-503570Y32929D01*
X-503476Y33050D01*
X-502404Y35191D01*
X-502364Y35338D01*
X-502292Y35473D01*
X-501598Y37764D01*
X-501583Y37916D01*
X-501535Y38061D01*
X-501239Y40437D01*
X-501246Y40531D01*
X-501226Y40623D01*
X-501216Y41166D01*
X-501219Y41183D01*
X-501215Y41201D01*
Y101097D01*
X-501231Y101174D01*
X-501222Y101252D01*
X-501436Y103697D01*
X-501480Y103847D01*
X-501490Y104003D01*
X-502126Y106373D01*
X-502195Y106513D01*
X-502232Y106666D01*
X-503270Y108888D01*
X-503362Y109015D01*
X-503425Y109158D01*
X-504834Y111167D01*
X-504947Y111275D01*
X-505034Y111405D01*
X-506770Y113139D01*
X-506900Y113226D01*
X-507008Y113339D01*
X-509020Y114745D01*
X-509163Y114808D01*
X-509289Y114900D01*
X-511514Y115935D01*
X-511666Y115972D01*
X-511807Y116042D01*
X-514178Y116675D01*
X-514334Y116685D01*
X-514485Y116728D01*
X-516930Y116940D01*
X-517008Y116931D01*
X-517086Y116947D01*
X-596846Y116881D01*
X-597199Y117234D01*
Y149249D01*
X-556730Y149283D01*
X-556643Y149300D01*
X-556555Y149292D01*
X-554217Y149524D01*
X-554049Y149575D01*
X-553874Y149592D01*
X-551626Y150276D01*
X-551471Y150359D01*
X-551303Y150410D01*
X-549231Y151519D01*
X-549095Y151630D01*
X-548941Y151713D01*
X-547124Y153204D01*
X-547013Y153340D01*
X-546877Y153451D01*
X-545387Y155268D01*
X-545304Y155423D01*
X-545193Y155558D01*
X-544085Y157630D01*
X-544034Y157799D01*
X-543951Y157953D01*
X-543269Y160201D01*
X-543252Y160376D01*
X-543201Y160544D01*
X-542971Y162882D01*
X-542979Y162970D01*
X-542962Y163057D01*
Y197695D01*
X-542979Y197782D01*
X-542971Y197870D01*
X-543201Y200207D01*
X-543252Y200375D01*
X-543269Y200550D01*
X-543951Y202797D01*
X-544034Y202952D01*
X-544085Y203120D01*
X-545193Y205190D01*
X-545304Y205326D01*
X-545388Y205481D01*
X-546878Y207295D01*
X-547014Y207407D01*
X-547126Y207543D01*
X-548942Y209031D01*
X-549097Y209114D01*
X-549233Y209225D01*
X-551305Y210330D01*
X-551474Y210381D01*
X-551629Y210464D01*
X-553877Y211144D01*
X-554052Y211161D01*
X-554220Y211212D01*
X-554947Y211283D01*
Y243819D01*
X-498943Y243866D01*
X-498589Y243512D01*
Y211330D01*
X-499319Y211258D01*
X-499487Y211206D01*
X-499662Y211189D01*
X-501910Y210505D01*
X-502065Y210423D01*
X-502233Y210371D01*
X-504305Y209263D01*
X-504441Y209151D01*
X-504596Y209069D01*
X-506412Y207577D01*
X-506523Y207442D01*
X-506659Y207330D01*
X-508149Y205514D01*
X-508232Y205359D01*
X-508344Y205223D01*
X-509451Y203151D01*
X-509502Y202983D01*
X-509585Y202828D01*
X-510267Y200580D01*
X-510284Y200405D01*
X-510335Y200237D01*
X-510566Y197900D01*
X-510557Y197812D01*
X-510574Y197725D01*
Y150415D01*
X-510543Y150256D01*
X-510545Y150093D01*
X-510475Y149918D01*
X-510438Y149733D01*
X-510348Y149597D01*
X-510288Y149446D01*
X-510157Y149311D01*
X-510052Y149154D01*
X-509916Y149063D01*
X-509803Y148947D01*
X-509630Y148872D01*
X-509473Y148767D01*
X-509313Y148735D01*
X-509164Y148671D01*
X-504789Y147733D01*
X-500595Y146425D01*
X-496538Y144742D01*
X-492652Y142696D01*
X-488968Y140306D01*
X-485517Y137590D01*
X-482328Y134571D01*
X-479427Y131275D01*
X-476838Y127729D01*
X-474583Y123961D01*
X-472681Y120004D01*
X-471118Y115814D01*
X-471115Y115809D01*
X-471114Y115804D01*
X-469663Y111987D01*
X-469613Y111907D01*
X-469588Y111817D01*
X-467748Y108171D01*
X-467691Y108098D01*
X-467656Y108010D01*
X-465448Y104576D01*
X-465383Y104508D01*
X-465340Y104425D01*
X-462787Y101237D01*
X-462715Y101177D01*
X-462664Y101099D01*
X-459794Y98194D01*
X-459717Y98141D01*
X-459657Y98069D01*
X-456501Y95477D01*
X-456419Y95432D01*
X-456352Y95367D01*
X-452944Y93116D01*
X-452857Y93080D01*
X-452784Y93022D01*
X-449160Y91136D01*
X-449071Y91110D01*
X-448992Y91059D01*
X-445192Y89560D01*
X-445100Y89543D01*
X-445016Y89501D01*
X-441081Y88404D01*
X-440988Y88397D01*
X-440900Y88363D01*
X-436872Y87679D01*
X-436778Y87682D01*
X-436688Y87658D01*
X-432610Y87396D01*
X-432465Y87415D01*
X-432319Y87401D01*
X-429981Y87633D01*
X-429813Y87684D01*
X-429638Y87701D01*
X-427389Y88385D01*
X-427235Y88468D01*
X-427067Y88519D01*
X-424995Y89628D01*
X-424859Y89739D01*
X-424704Y89822D01*
X-422888Y91313D01*
X-422776Y91449D01*
X-422641Y91561D01*
X-421150Y93377D01*
X-421067Y93532D01*
X-420956Y93668D01*
X-419848Y95740D01*
X-419797Y95908D01*
X-419714Y96063D01*
X-419033Y98311D01*
X-419016Y98486D01*
X-418964Y98655D01*
X-418734Y100992D01*
X-418743Y101080D01*
X-418726Y101167D01*
X-418727Y117859D01*
X-418745Y117946D01*
X-418736Y118034D01*
X-418967Y120371D01*
X-419018Y120539D01*
X-419035Y120714D01*
X-419717Y122960D01*
X-419800Y123116D01*
X-419851Y123284D01*
X-420959Y125354D01*
X-421070Y125490D01*
X-421153Y125645D01*
X-422644Y127459D01*
X-422780Y127570D01*
X-422892Y127706D01*
X-424708Y129194D01*
X-424863Y129277D01*
X-424999Y129388D01*
X-427071Y130493D01*
X-427239Y130544D01*
X-427394Y130627D01*
X-429643Y131307D01*
X-429818Y131324D01*
X-429986Y131375D01*
X-430714Y131446D01*
Y163982D01*
X-374709Y164029D01*
X-374356Y163675D01*
Y131492D01*
X-375086Y131420D01*
X-375254Y131369D01*
X-375429Y131351D01*
X-377677Y130668D01*
X-377832Y130585D01*
X-378000Y130534D01*
X-380072Y129425D01*
X-380207Y129313D01*
X-380362Y129230D01*
X-382178Y127739D01*
X-382290Y127603D01*
X-382425Y127492D01*
X-383916Y125675D01*
X-383999Y125520D01*
X-384110Y125384D01*
X-385217Y123312D01*
X-385268Y123144D01*
X-385351Y122989D01*
X-386033Y120741D01*
X-386050Y120567D01*
X-386101Y120398D01*
X-386331Y118061D01*
X-386323Y117973D01*
X-386340Y117886D01*
X-386339Y112996D01*
X-386322Y112909D01*
X-386331Y112821D01*
X-386104Y110519D01*
X-386052Y110351D01*
X-386035Y110176D01*
X-385363Y107963D01*
X-385280Y107807D01*
X-385229Y107639D01*
X-384138Y105600D01*
X-384026Y105464D01*
X-383943Y105309D01*
X-382475Y103522D01*
X-382339Y103410D01*
X-382227Y103274D01*
X-380437Y101808D01*
X-380282Y101725D01*
X-380146Y101614D01*
X-378105Y100525D01*
X-377937Y100475D01*
X-377782Y100392D01*
X-375567Y99722D01*
X-375392Y99705D01*
X-375224Y99654D01*
X-372920Y99429D01*
X-372780Y99443D01*
X-372640Y99424D01*
X-368948Y99644D01*
X-368845Y99671D01*
X-368740Y99669D01*
X-365098Y100321D01*
X-364999Y100359D01*
X-364894Y100370D01*
X-361353Y101443D01*
X-361260Y101493D01*
X-361157Y101516D01*
X-357766Y102997D01*
X-357754Y103006D01*
X-357740Y103009D01*
X-353218Y105072D01*
X-348608Y106716D01*
X-343875Y107960D01*
X-339053Y108796D01*
X-334177Y109218D01*
X-329284Y109222D01*
X-324409Y108809D01*
X-319587Y107980D01*
X-314854Y106744D01*
X-310244Y105108D01*
X-305721Y103052D01*
X-305707Y103049D01*
X-305695Y103041D01*
X-302305Y101565D01*
X-302201Y101542D01*
X-302108Y101493D01*
X-298567Y100425D01*
X-298462Y100415D01*
X-298363Y100376D01*
X-294721Y99731D01*
X-294616Y99733D01*
X-294513Y99706D01*
X-290820Y99492D01*
X-290768Y99499D01*
X-290716Y99489D01*
X-265226Y99510D01*
X-265139Y99528D01*
X-265051Y99519D01*
X-262747Y99748D01*
X-262579Y99799D01*
X-262405Y99816D01*
X-260190Y100490D01*
X-260035Y100573D01*
X-259867Y100624D01*
X-257825Y101716D01*
X-257690Y101827D01*
X-257535Y101910D01*
X-255745Y103379D01*
X-255634Y103515D01*
X-255498Y103627D01*
X-254030Y105416D01*
X-253947Y105571D01*
X-253836Y105707D01*
X-252744Y107748D01*
X-252693Y107916D01*
X-252610Y108071D01*
X-251939Y110286D01*
X-251921Y110461D01*
X-251870Y110629D01*
X-251643Y112932D01*
X-251652Y113020D01*
X-251635Y113107D01*
Y132903D01*
X-251635Y132904D01*
X-251635Y132905D01*
X-251661Y160856D01*
X-251678Y160943D01*
X-251670Y161031D01*
X-251902Y163368D01*
X-251953Y163536D01*
X-251971Y163711D01*
X-252655Y165957D01*
X-252738Y166112D01*
X-252789Y166280D01*
X-253899Y168349D01*
X-254010Y168485D01*
X-254094Y168640D01*
X-255586Y170453D01*
X-255722Y170564D01*
X-255834Y170700D01*
X-257651Y172187D01*
X-257806Y172269D01*
X-257943Y172380D01*
X-260016Y173484D01*
X-260184Y173535D01*
X-260339Y173617D01*
X-262588Y174295D01*
X-262763Y174312D01*
X-262931Y174363D01*
X-265270Y174589D01*
X-265358Y174580D01*
X-265445Y174597D01*
X-286119Y174561D01*
X-301311Y189011D01*
X-301311Y189011D01*
X-303930Y191508D01*
X-341307Y227427D01*
X-341316Y227927D01*
X-319103Y251016D01*
X-281221Y214611D01*
X-281218Y214609D01*
X-281216Y214606D01*
X-278595Y212107D01*
X-278594Y212106D01*
X-278593Y212105D01*
X-277170Y210752D01*
X-277098Y210706D01*
X-277042Y210641D01*
X-275249Y209235D01*
X-275097Y209158D01*
X-274963Y209051D01*
X-272936Y208011D01*
X-272772Y207964D01*
X-272620Y207885D01*
X-270432Y207246D01*
X-270263Y207231D01*
X-270099Y207183D01*
X-267829Y206970D01*
X-267744Y206979D01*
X-267660Y206962D01*
X-249648Y206994D01*
X-249637Y206996D01*
X-249625Y206994D01*
X-249318Y206998D01*
X-249210Y207022D01*
X-249100Y207015D01*
X-247357Y207256D01*
X-247171Y207321D01*
X-246977Y207353D01*
X-245329Y207969D01*
X-245161Y208073D01*
X-244979Y208146D01*
X-243505Y209108D01*
X-243365Y209246D01*
X-243202Y209357D01*
X-241975Y210618D01*
X-241868Y210783D01*
X-241734Y210927D01*
X-240812Y212425D01*
X-240743Y212610D01*
X-240644Y212780D01*
X-240072Y214444D01*
X-240062Y214523D01*
X-240028Y214596D01*
X-240015Y214866D01*
X-239979Y215134D01*
X-239999Y215211D01*
X-239996Y215292D01*
X-240166Y216413D01*
X-240181Y216454D01*
X-240181Y216497D01*
X-248890Y259875D01*
X-249280Y262497D01*
X-260283Y388106D01*
X-162382Y396754D01*
X-162297Y396779D01*
X-162208Y396778D01*
X-159899Y397213D01*
X-159736Y397278D01*
X-159564Y397311D01*
X-157383Y398188D01*
X-157237Y398284D01*
X-157073Y398349D01*
X-155106Y399634D01*
X-154981Y399757D01*
X-154833Y399853D01*
X-153154Y401497D01*
X-153055Y401642D01*
X-152929Y401765D01*
X-151603Y403704D01*
X-151534Y403866D01*
X-151435Y404011D01*
X-150512Y406171D01*
X-150476Y406343D01*
X-150407Y406505D01*
X-149924Y408803D01*
X-149922Y408979D01*
X-149886Y409151D01*
X-149878Y409883D01*
X-117799Y412717D01*
X-117416Y412396D01*
X-112532Y356639D01*
X-144954Y353776D01*
X-145060Y354357D01*
X-145121Y354511D01*
X-145149Y354675D01*
X-145942Y356746D01*
X-146031Y356887D01*
X-146089Y357043D01*
X-147250Y358932D01*
X-147364Y359054D01*
X-147449Y359196D01*
X-148940Y360839D01*
X-149073Y360937D01*
X-149183Y361062D01*
X-150952Y362401D01*
X-151101Y362473D01*
X-151232Y362575D01*
X-153217Y363565D01*
X-153378Y363609D01*
X-153526Y363685D01*
X-155660Y364292D01*
X-155825Y364306D01*
X-155984Y364353D01*
X-158194Y364556D01*
X-158316Y364544D01*
X-158437Y364562D01*
X-159482Y364516D01*
X-159521Y364506D01*
X-159560Y364510D01*
X-184207Y362333D01*
X-184252Y362320D01*
X-184300Y362323D01*
X-188379Y361746D01*
X-188468Y361715D01*
X-188563Y361710D01*
X-192560Y360711D01*
X-192645Y360670D01*
X-192738Y360656D01*
X-196610Y359244D01*
X-196690Y359195D01*
X-196782Y359171D01*
X-200484Y357363D01*
X-200559Y357306D01*
X-200648Y357272D01*
X-204141Y355087D01*
X-204210Y355022D01*
X-204294Y354980D01*
X-207541Y352442D01*
X-207602Y352370D01*
X-207682Y352319D01*
X-210645Y349456D01*
X-210699Y349379D01*
X-210772Y349320D01*
X-213421Y346163D01*
X-213466Y346080D01*
X-213533Y346014D01*
X-215836Y342598D01*
X-215873Y342511D01*
X-215933Y342438D01*
X-217867Y338800D01*
X-217894Y338710D01*
X-217946Y338631D01*
X-219489Y334811D01*
X-219506Y334719D01*
X-219549Y334635D01*
X-220685Y330676D01*
X-220693Y330581D01*
X-220727Y330494D01*
X-221442Y326438D01*
X-221440Y326343D01*
X-221465Y326252D01*
X-221752Y322144D01*
X-221740Y322050D01*
X-221755Y321957D01*
X-221611Y317842D01*
X-221600Y317796D01*
X-221605Y317749D01*
X-217042Y265655D01*
X-217035Y265629D01*
X-217037Y265602D01*
X-216953Y264887D01*
X-216866Y264621D01*
X-216801Y264349D01*
X-215969Y262543D01*
X-215838Y262363D01*
X-215734Y262166D01*
X-214481Y260622D01*
X-214310Y260479D01*
X-214160Y260314D01*
X-212564Y259128D01*
X-212363Y259032D01*
X-212177Y258909D01*
X-210337Y258154D01*
X-210112Y258109D01*
X-209894Y258035D01*
X-206749Y257618D01*
X-206613Y257627D01*
X-206478Y257603D01*
X-206010Y257613D01*
X-205993Y257616D01*
X-205975Y257614D01*
X-117194Y261157D01*
X-116827Y260818D01*
X-115575Y228828D01*
X-196099Y225614D01*
X-196205Y225588D01*
X-196314Y225592D01*
X-199179Y225126D01*
X-199382Y225051D01*
X-199594Y225006D01*
X-202264Y223866D01*
X-202436Y223748D01*
X-202624Y223659D01*
X-204062Y222595D01*
X-204197Y222447D01*
X-204354Y222323D01*
X-205520Y220966D01*
X-205618Y220792D01*
X-205744Y220636D01*
X-206579Y219055D01*
X-206636Y218863D01*
X-206724Y218683D01*
X-207186Y216956D01*
X-207199Y216756D01*
X-207245Y216561D01*
X-207311Y214774D01*
X-207300Y214708D01*
X-207311Y214641D01*
X-207277Y213740D01*
X-207274Y213727D01*
X-207276Y213714D01*
X-207031Y209022D01*
X-207008Y208931D01*
X-207012Y208837D01*
X-206281Y204197D01*
X-206248Y204108D01*
X-206242Y204015D01*
X-205032Y199475D01*
X-204991Y199391D01*
X-204975Y199299D01*
X-203300Y194910D01*
X-203250Y194830D01*
X-203224Y194740D01*
X-201101Y190549D01*
X-201101Y190549D01*
X-201101Y190549D01*
X-199024Y186449D01*
X-197416Y182242D01*
X-196254Y177891D01*
X-195550Y173442D01*
X-195310Y168898D01*
X-195276Y133007D01*
Y101177D01*
X-195259Y101090D01*
X-195268Y101002D01*
X-195041Y98700D01*
X-194990Y98532D01*
X-194973Y98357D01*
X-194301Y96143D01*
X-194218Y95988D01*
X-194167Y95820D01*
X-193075Y93780D01*
X-192964Y93644D01*
X-192881Y93489D01*
X-191412Y91702D01*
X-191276Y91590D01*
X-191164Y91455D01*
X-189375Y89988D01*
X-189220Y89906D01*
X-189084Y89794D01*
X-187042Y88705D01*
X-186874Y88654D01*
X-186719Y88572D01*
X-184504Y87902D01*
X-184329Y87885D01*
X-184161Y87834D01*
X-181857Y87609D01*
X-181769Y87618D01*
X-181682Y87601D01*
X-99817Y87669D01*
X-99463Y87315D01*
Y55133D01*
X-100193Y55060D01*
X-100361Y55009D01*
X-100536Y54992D01*
X-102785Y54308D01*
X-102939Y54226D01*
X-103107Y54175D01*
X-105179Y53066D01*
X-105315Y52954D01*
X-105470Y52872D01*
X-107286Y51380D01*
X-107397Y51245D01*
X-107533Y51133D01*
X-109024Y49317D01*
X-109107Y49162D01*
X-109218Y49026D01*
X-110326Y46954D01*
X-110377Y46786D01*
X-110459Y46631D01*
X-111141Y44383D01*
X-111159Y44208D01*
X-111210Y44040D01*
X-111440Y41703D01*
X-111431Y41615D01*
X-111449Y41528D01*
Y29857D01*
X-111431Y29770D01*
X-111440Y29682D01*
X-111210Y27345D01*
X-111159Y27177D01*
X-111141Y27002D01*
X-110459Y24755D01*
X-110376Y24600D01*
X-110325Y24432D01*
X-109218Y22362D01*
X-109106Y22226D01*
X-109023Y22070D01*
X-107532Y20256D01*
X-107396Y20145D01*
X-107285Y20009D01*
X-105469Y18521D01*
X-105313Y18438D01*
X-105177Y18327D01*
X-103105Y17221D01*
X-102937Y17170D01*
X-102782Y17088D01*
X-100533Y16408D01*
X-100359Y16391D01*
X-100190Y16340D01*
X-97852Y16112D01*
X-97764Y16120D01*
X-97677Y16103D01*
X-64944Y16130D01*
X-64881Y16143D01*
X-64817Y16135D01*
X-62016Y16338D01*
X-61892Y16372D01*
X-61764Y16374D01*
X-59021Y16973D01*
X-58903Y17024D01*
X-58776Y17045D01*
X-56146Y18028D01*
X-56037Y18095D01*
X-55914Y18134D01*
X-53450Y19480D01*
X-53351Y19563D01*
X-53236Y19618D01*
X-50988Y21302D01*
X-50902Y21397D01*
X-50796Y21469D01*
X-48810Y23455D01*
X-48739Y23561D01*
X-48644Y23647D01*
X-46961Y25895D01*
X-46905Y26011D01*
X-46823Y26109D01*
X-45478Y28574D01*
X-45439Y28696D01*
X-45372Y28805D01*
X-44390Y31435D01*
X-44370Y31562D01*
X-44319Y31680D01*
X-43722Y34423D01*
X-43720Y34551D01*
X-43686Y34675D01*
X-43485Y37474D01*
X-43493Y37538D01*
X-43481Y37602D01*
Y330964D01*
X43127Y331036D01*
X43481Y330683D01*
Y37677D01*
X43493Y37614D01*
X43485Y37549D01*
X43686Y34750D01*
X43720Y34626D01*
X43722Y34498D01*
X44319Y31756D01*
X44370Y31639D01*
X44391Y31512D01*
X45372Y28883D01*
X45439Y28774D01*
X45478Y28651D01*
X46824Y26189D01*
X46906Y26091D01*
X46962Y25975D01*
X48644Y23730D01*
X48740Y23644D01*
X48811Y23537D01*
X50797Y21554D01*
X50904Y21483D01*
X50989Y21387D01*
X53237Y19707D01*
X53353Y19652D01*
X53452Y19570D01*
X55916Y18227D01*
X56039Y18189D01*
X56148Y18121D01*
X58779Y17143D01*
X58905Y17122D01*
X59023Y17071D01*
X61767Y16477D01*
X61895Y16475D01*
X62019Y16441D01*
X64820Y16243D01*
X64884Y16251D01*
X64947Y16239D01*
X97680Y16266D01*
X97767Y16283D01*
X97855Y16275D01*
X100193Y16507D01*
X100361Y16558D01*
X100536Y16575D01*
X102784Y17259D01*
X102939Y17342D01*
X103107Y17393D01*
X105179Y18501D01*
X105315Y18613D01*
X105470Y18696D01*
X107286Y20187D01*
X107397Y20323D01*
X107533Y20434D01*
X109024Y22251D01*
X109106Y22406D01*
X109218Y22541D01*
X110325Y24613D01*
X110376Y24781D01*
X110459Y24936D01*
X111141Y27184D01*
X111158Y27359D01*
X111209Y27527D01*
X111440Y29864D01*
X111431Y29952D01*
X111448Y30039D01*
Y41710D01*
X111431Y41797D01*
X111440Y41886D01*
X111209Y44222D01*
X111158Y44390D01*
X111141Y44565D01*
X110459Y46812D01*
X110376Y46967D01*
X110325Y47136D01*
X109217Y49206D01*
X109106Y49342D01*
X109023Y49497D01*
X107532Y51311D01*
X107396Y51422D01*
X107285Y51558D01*
X105468Y53047D01*
X105313Y53129D01*
X105177Y53241D01*
X103105Y54346D01*
X102937Y54397D01*
X102782Y54479D01*
X100533Y55159D01*
X100358Y55176D01*
X100190Y55227D01*
X99463Y55298D01*
Y87835D01*
X181685Y87903D01*
X181772Y87920D01*
X181860Y87912D01*
X184164Y88140D01*
X184332Y88191D01*
X184506Y88209D01*
X186722Y88882D01*
X186876Y88965D01*
X187044Y89016D01*
X189086Y90109D01*
X189222Y90220D01*
X189376Y90303D01*
X191166Y91772D01*
X191277Y91908D01*
X191413Y92019D01*
X192881Y93809D01*
X192964Y93964D01*
X193076Y94100D01*
X194167Y96141D01*
X194218Y96309D01*
X194300Y96464D01*
X194973Y98678D01*
X194990Y98853D01*
X195041Y99022D01*
X195268Y101324D01*
X195259Y101412D01*
X195276Y101499D01*
Y133329D01*
X195309Y169220D01*
X195550Y173765D01*
X196254Y178215D01*
X197416Y182568D01*
X199024Y186778D01*
X201101Y190882D01*
X201101Y190882D01*
X201101Y190882D01*
X203225Y195076D01*
X203250Y195166D01*
X203300Y195246D01*
X204975Y199637D01*
X204991Y199730D01*
X205032Y199814D01*
X206242Y204355D01*
X206248Y204449D01*
X206281Y204537D01*
X207012Y209179D01*
X207008Y209273D01*
X207031Y209364D01*
X207276Y214056D01*
X207274Y214069D01*
X207277Y214082D01*
X207311Y214983D01*
X207300Y215050D01*
X207311Y215116D01*
X207245Y216902D01*
X207199Y217098D01*
X207186Y217298D01*
X206724Y219024D01*
X206635Y219204D01*
X206578Y219396D01*
X205744Y220977D01*
X205617Y221132D01*
X205519Y221307D01*
X204353Y222662D01*
X204195Y222786D01*
X204060Y222934D01*
X202622Y223996D01*
X202434Y224084D01*
X202261Y224202D01*
X199592Y225338D01*
X199379Y225382D01*
X199176Y225458D01*
X196311Y225919D01*
X196202Y225915D01*
X196096Y225940D01*
X115929Y229007D01*
X115589Y229374D01*
X116841Y261366D01*
X205978Y257957D01*
X205995Y257959D01*
X206013Y257956D01*
X206481Y257947D01*
X206615Y257971D01*
X206752Y257962D01*
X209897Y258385D01*
X210114Y258459D01*
X210340Y258504D01*
X212180Y259262D01*
X212365Y259385D01*
X212566Y259481D01*
X214162Y260670D01*
X214311Y260835D01*
X214482Y260977D01*
X215735Y262524D01*
X215838Y262720D01*
X215969Y262900D01*
X216801Y264708D01*
X216866Y264979D01*
X216952Y265245D01*
X217037Y265960D01*
X217035Y265987D01*
X217042Y266013D01*
X223993Y345374D01*
X223983Y345462D01*
X224000Y345549D01*
X223974Y347897D01*
X223938Y348069D01*
X223936Y348245D01*
X223453Y350543D01*
X223383Y350705D01*
X223347Y350877D01*
X222425Y353036D01*
X222325Y353181D01*
X222256Y353343D01*
X220930Y355280D01*
X220804Y355403D01*
X220704Y355548D01*
X219025Y357189D01*
X218878Y357285D01*
X218752Y357408D01*
X216784Y358689D01*
X216621Y358755D01*
X216474Y358851D01*
X214294Y359724D01*
X214121Y359756D01*
X213958Y359822D01*
X211649Y360253D01*
X211560Y360252D01*
X211475Y360277D01*
X159557Y364776D01*
X159518Y364772D01*
X159479Y364781D01*
X158434Y364826D01*
X158313Y364807D01*
X158191Y364820D01*
X155981Y364613D01*
X155822Y364565D01*
X155657Y364551D01*
X153523Y363941D01*
X153375Y363865D01*
X153215Y363821D01*
X151230Y362827D01*
X151099Y362725D01*
X150950Y362653D01*
X149182Y361311D01*
X149072Y361186D01*
X148939Y361088D01*
X147448Y359443D01*
X147363Y359300D01*
X147250Y359179D01*
X146088Y357288D01*
X146030Y357132D01*
X145942Y356992D01*
X145149Y354919D01*
X145121Y354755D01*
X145060Y354601D01*
X144954Y354017D01*
X112884Y356796D01*
X112563Y357179D01*
X117447Y412944D01*
X149878Y410133D01*
D02*
G37*
%LPC*%
G36*
X-420975Y1582D02*
X-422944D01*
X-424301Y1449D01*
X-425605Y1053D01*
X-426808Y410D01*
X-427861Y-455D01*
X-428726Y-1508D01*
X-429369Y-2711D01*
X-429765Y-4016D01*
X-429899Y-5372D01*
X-429765Y-6729D01*
X-429369Y-8034D01*
X-428726Y-9236D01*
X-427861Y-10290D01*
X-426808Y-11155D01*
X-425605Y-11798D01*
X-424301Y-12194D01*
X-422944Y-12327D01*
X-420975D01*
X-419619Y-12194D01*
X-418314Y-11798D01*
X-417111Y-11155D01*
X-416057Y-10290D01*
X-415193Y-9236D01*
X-414550Y-8034D01*
X-414154Y-6729D01*
X-414020Y-5372D01*
X-414154Y-4016D01*
X-414550Y-2711D01*
X-415193Y-1508D01*
X-416057Y-455D01*
X-417111Y410D01*
X-418314Y1053D01*
X-419619Y1449D01*
X-420975Y1582D01*
D02*
G37*
G36*
X-383110Y1615D02*
X-384467Y1481D01*
X-385772Y1085D01*
X-386974Y443D01*
X-388028Y-422D01*
X-388893Y-1476D01*
X-389536Y-2679D01*
X-389931Y-3983D01*
X-390065Y-5340D01*
X-389931Y-6697D01*
X-389536Y-8002D01*
X-388893Y-9204D01*
X-388028Y-10258D01*
X-386974Y-11123D01*
X-385772Y-11765D01*
X-384467Y-12161D01*
X-383110Y-12295D01*
X-381753Y-12161D01*
X-380449Y-11765D01*
X-379246Y-11123D01*
X-378193Y-10258D01*
X-377328Y-9204D01*
X-376685Y-8002D01*
X-376289Y-6697D01*
X-376156Y-5340D01*
X-376289Y-3983D01*
X-376685Y-2679D01*
X-377328Y-1476D01*
X-378193Y-422D01*
X-379246Y443D01*
X-380449Y1085D01*
X-381753Y1481D01*
X-383110Y1615D01*
D02*
G37*
G36*
X422944Y2285D02*
X420975D01*
X419618Y2151D01*
X418314Y1755D01*
X417111Y1113D01*
X416057Y248D01*
X415193Y-806D01*
X414550Y-2009D01*
X414154Y-3313D01*
X414020Y-4670D01*
X414154Y-6027D01*
X414550Y-7332D01*
X415193Y-8534D01*
X416057Y-9588D01*
X417111Y-10453D01*
X418314Y-11095D01*
X419618Y-11491D01*
X420975Y-11625D01*
X422944D01*
X424300Y-11491D01*
X425605Y-11095D01*
X426807Y-10453D01*
X427861Y-9588D01*
X428726Y-8534D01*
X429369Y-7332D01*
X429765Y-6027D01*
X429898Y-4670D01*
X429765Y-3313D01*
X429369Y-2009D01*
X428726Y-806D01*
X427861Y248D01*
X426807Y1113D01*
X425605Y1755D01*
X424300Y2151D01*
X422944Y2285D01*
D02*
G37*
G36*
X383110Y2252D02*
X381753Y2119D01*
X380449Y1723D01*
X379246Y1080D01*
X378192Y215D01*
X377328Y-839D01*
X376685Y-2041D01*
X376289Y-3346D01*
X376155Y-4702D01*
X376289Y-6059D01*
X376685Y-7364D01*
X377328Y-8566D01*
X378192Y-9620D01*
X379246Y-10485D01*
X380449Y-11128D01*
X381753Y-11524D01*
X383110Y-11657D01*
X384467Y-11524D01*
X385772Y-11128D01*
X386974Y-10485D01*
X388028Y-9620D01*
X388893Y-8566D01*
X389536Y-7364D01*
X389931Y-6059D01*
X390065Y-4702D01*
X389931Y-3346D01*
X389536Y-2041D01*
X388893Y-839D01*
X388028Y215D01*
X386974Y1080D01*
X385772Y1723D01*
X384467Y2119D01*
X383110Y2252D01*
D02*
G37*
G36*
X-241913Y-1223D02*
X-243881D01*
X-245238Y-1357D01*
X-246543Y-1753D01*
X-247745Y-2395D01*
X-248799Y-3260D01*
X-249664Y-4314D01*
X-250307Y-5517D01*
X-250702Y-6821D01*
X-250836Y-8178D01*
X-250702Y-9535D01*
X-250307Y-10840D01*
X-249664Y-12042D01*
X-248799Y-13096D01*
X-247745Y-13961D01*
X-246543Y-14603D01*
X-245238Y-14999D01*
X-243881Y-15133D01*
X-241913D01*
X-240556Y-14999D01*
X-239251Y-14603D01*
X-238049Y-13961D01*
X-236995Y-13096D01*
X-236130Y-12042D01*
X-235487Y-10840D01*
X-235091Y-9535D01*
X-234958Y-8178D01*
X-235091Y-6821D01*
X-235487Y-5517D01*
X-236130Y-4314D01*
X-236995Y-3260D01*
X-238049Y-2395D01*
X-239251Y-1753D01*
X-240556Y-1357D01*
X-241913Y-1223D01*
D02*
G37*
G36*
X296033Y-56292D02*
X294676Y-56426D01*
X293371Y-56822D01*
X292169Y-57464D01*
X291115Y-58329D01*
X290250Y-59383D01*
X289607Y-60586D01*
X289211Y-61890D01*
X289078Y-63247D01*
X289211Y-64604D01*
X289607Y-65908D01*
X290250Y-67111D01*
X291115Y-68165D01*
X292169Y-69030D01*
X293371Y-69672D01*
X294676Y-70068D01*
X296033Y-70202D01*
X297389Y-70068D01*
X298694Y-69672D01*
X299896Y-69030D01*
X300950Y-68165D01*
X301815Y-67111D01*
X302458Y-65908D01*
X302854Y-64604D01*
X302987Y-63247D01*
X302854Y-61890D01*
X302458Y-60586D01*
X301815Y-59383D01*
X300950Y-58329D01*
X299896Y-57464D01*
X298694Y-56822D01*
X297389Y-56426D01*
X296033Y-56292D01*
D02*
G37*
G36*
X-204048Y-1191D02*
X-205404Y-1325D01*
X-206709Y-1720D01*
X-207911Y-2363D01*
X-208965Y-3228D01*
X-209830Y-4282D01*
X-210473Y-5484D01*
X-210869Y-6789D01*
X-211002Y-8146D01*
X-210869Y-9503D01*
X-210473Y-10807D01*
X-209830Y-12010D01*
X-208965Y-13063D01*
X-207911Y-13928D01*
X-206709Y-14571D01*
X-205404Y-14967D01*
X-204048Y-15100D01*
X-202691Y-14967D01*
X-201386Y-14571D01*
X-200184Y-13928D01*
X-199130Y-13063D01*
X-198265Y-12010D01*
X-197622Y-10807D01*
X-197227Y-9503D01*
X-197093Y-8146D01*
X-197227Y-6789D01*
X-197622Y-5484D01*
X-198265Y-4282D01*
X-199130Y-3228D01*
X-200184Y-2363D01*
X-201386Y-1720D01*
X-202691Y-1325D01*
X-204048Y-1191D01*
D02*
G37*
G36*
X243881Y-819D02*
X241913D01*
X240556Y-953D01*
X239251Y-1348D01*
X238049Y-1991D01*
X236995Y-2856D01*
X236130Y-3910D01*
X235487Y-5112D01*
X235091Y-6417D01*
X234958Y-7774D01*
X235091Y-9131D01*
X235487Y-10435D01*
X236130Y-11638D01*
X236995Y-12692D01*
X238049Y-13556D01*
X239251Y-14199D01*
X240556Y-14595D01*
X241913Y-14729D01*
X243881D01*
X245238Y-14595D01*
X246543Y-14199D01*
X247745Y-13556D01*
X248799Y-12692D01*
X249664Y-11638D01*
X250306Y-10435D01*
X250702Y-9131D01*
X250836Y-7774D01*
X250702Y-6417D01*
X250306Y-5112D01*
X249664Y-3910D01*
X248799Y-2856D01*
X247745Y-1991D01*
X246543Y-1348D01*
X245238Y-953D01*
X243881Y-819D01*
D02*
G37*
G36*
X204047Y-851D02*
X202691Y-985D01*
X201386Y-1381D01*
X200184Y-2024D01*
X199130Y-2888D01*
X198265Y-3942D01*
X197622Y-5145D01*
X197226Y-6449D01*
X197093Y-7806D01*
X197226Y-9163D01*
X197622Y-10468D01*
X198265Y-11670D01*
X199130Y-12724D01*
X200184Y-13589D01*
X201386Y-14232D01*
X202691Y-14627D01*
X204047Y-14761D01*
X205404Y-14627D01*
X206709Y-14232D01*
X207911Y-13589D01*
X208965Y-12724D01*
X209830Y-11670D01*
X210473Y-10468D01*
X210869Y-9163D01*
X211002Y-7806D01*
X210869Y-6449D01*
X210473Y-5145D01*
X209830Y-3942D01*
X208965Y-2888D01*
X207911Y-2024D01*
X206709Y-1381D01*
X205404Y-985D01*
X204047Y-851D01*
D02*
G37*
G36*
X-19425Y6939D02*
X-20781Y6805D01*
X-22086Y6409D01*
X-23289Y5767D01*
X-24342Y4902D01*
X-25207Y3848D01*
X-25850Y2645D01*
X-26246Y1341D01*
X-26379Y-16D01*
X-26246Y-1373D01*
X-25850Y-2678D01*
X-25207Y-3880D01*
X-24342Y-4934D01*
X-23289Y-5799D01*
X-22086Y-6442D01*
X-20781Y-6837D01*
X-19425Y-6971D01*
X-18068Y-6837D01*
X-16763Y-6442D01*
X-15561Y-5799D01*
X-14507Y-4934D01*
X-13642Y-3880D01*
X-12999Y-2678D01*
X-12604Y-1373D01*
X-12470Y-16D01*
X-12604Y1341D01*
X-12999Y2645D01*
X-13642Y3848D01*
X-14507Y4902D01*
X-15561Y5767D01*
X-16763Y6409D01*
X-18068Y6805D01*
X-19425Y6939D01*
D02*
G37*
G36*
X-331732Y59816D02*
X-333089Y59682D01*
X-334393Y59286D01*
X-335596Y58643D01*
X-336650Y57779D01*
X-337515Y56725D01*
X-338157Y55522D01*
X-338553Y54217D01*
X-338687Y52861D01*
Y50892D01*
X-338553Y49535D01*
X-338157Y48231D01*
X-337515Y47028D01*
X-336650Y45974D01*
X-335596Y45110D01*
X-334393Y44467D01*
X-333089Y44071D01*
X-331732Y43938D01*
X-330375Y44071D01*
X-329070Y44467D01*
X-327868Y45110D01*
X-326814Y45974D01*
X-325949Y47028D01*
X-325307Y48231D01*
X-324911Y49535D01*
X-324777Y50892D01*
Y52861D01*
X-324911Y54217D01*
X-325307Y55522D01*
X-325949Y56725D01*
X-326814Y57779D01*
X-327868Y58643D01*
X-329070Y59286D01*
X-330375Y59682D01*
X-331732Y59816D01*
D02*
G37*
G36*
X-485021Y59688D02*
X-486378Y59554D01*
X-487683Y59159D01*
X-488885Y58516D01*
X-489939Y57651D01*
X-490804Y56597D01*
X-491447Y55395D01*
X-491843Y54090D01*
X-491976Y52733D01*
Y50765D01*
X-491843Y49408D01*
X-491447Y48103D01*
X-490804Y46901D01*
X-489939Y45847D01*
X-488885Y44982D01*
X-487683Y44339D01*
X-486378Y43944D01*
X-485021Y43810D01*
X-483665Y43944D01*
X-482360Y44339D01*
X-481157Y44982D01*
X-480104Y45847D01*
X-479239Y46901D01*
X-478596Y48103D01*
X-478200Y49408D01*
X-478067Y50765D01*
Y52733D01*
X-478200Y54090D01*
X-478596Y55395D01*
X-479239Y56597D01*
X-480104Y57651D01*
X-481157Y58516D01*
X-482360Y59159D01*
X-483665Y59554D01*
X-485021Y59688D01*
D02*
G37*
G36*
X485021Y60495D02*
X483665Y60362D01*
X482360Y59966D01*
X481157Y59323D01*
X480103Y58458D01*
X479239Y57404D01*
X478596Y56202D01*
X478200Y54897D01*
X478066Y53540D01*
Y51572D01*
X478200Y50215D01*
X478596Y48910D01*
X479239Y47708D01*
X480103Y46654D01*
X481157Y45789D01*
X482360Y45147D01*
X483665Y44751D01*
X485021Y44617D01*
X486378Y44751D01*
X487683Y45147D01*
X488885Y45789D01*
X489939Y46654D01*
X490804Y47708D01*
X491447Y48910D01*
X491842Y50215D01*
X491976Y51572D01*
Y53540D01*
X491842Y54897D01*
X491447Y56202D01*
X490804Y57404D01*
X489939Y58458D01*
X488885Y59323D01*
X487683Y59966D01*
X486378Y60362D01*
X485021Y60495D01*
D02*
G37*
G36*
X331732Y60368D02*
X330375Y60234D01*
X329070Y59838D01*
X327868Y59196D01*
X326814Y58331D01*
X325949Y57277D01*
X325307Y56074D01*
X324911Y54770D01*
X324777Y53413D01*
Y51444D01*
X324911Y50088D01*
X325307Y48783D01*
X325949Y47581D01*
X326814Y46527D01*
X327868Y45662D01*
X329070Y45019D01*
X330375Y44623D01*
X331732Y44490D01*
X333089Y44623D01*
X334393Y45019D01*
X335596Y45662D01*
X336650Y46527D01*
X337514Y47581D01*
X338157Y48783D01*
X338553Y50088D01*
X338687Y51444D01*
Y53413D01*
X338553Y54770D01*
X338157Y56074D01*
X337514Y57277D01*
X336650Y58331D01*
X335596Y59196D01*
X334393Y59838D01*
X333089Y60234D01*
X331732Y60368D01*
D02*
G37*
G36*
X589429Y17017D02*
X587460D01*
X586104Y16883D01*
X584799Y16488D01*
X583597Y15845D01*
X582543Y14980D01*
X581678Y13926D01*
X581035Y12724D01*
X580639Y11419D01*
X580506Y10062D01*
X580639Y8706D01*
X581035Y7401D01*
X581678Y6199D01*
X582543Y5145D01*
X583597Y4280D01*
X584799Y3637D01*
X586104Y3241D01*
X587460Y3108D01*
X589429D01*
X590786Y3241D01*
X592090Y3637D01*
X593293Y4280D01*
X594347Y5145D01*
X595212Y6199D01*
X595854Y7401D01*
X596250Y8706D01*
X596384Y10062D01*
X596250Y11419D01*
X595854Y12724D01*
X595212Y13926D01*
X594347Y14980D01*
X593293Y15845D01*
X592090Y16488D01*
X590786Y16883D01*
X589429Y17017D01*
D02*
G37*
G36*
X-587461Y16038D02*
X-589429D01*
X-590786Y15904D01*
X-592091Y15508D01*
X-593293Y14866D01*
X-594347Y14001D01*
X-595212Y12947D01*
X-595854Y11744D01*
X-596250Y10440D01*
X-596384Y9083D01*
X-596250Y7726D01*
X-595854Y6422D01*
X-595212Y5219D01*
X-594347Y4165D01*
X-593293Y3300D01*
X-592091Y2658D01*
X-590786Y2262D01*
X-589429Y2128D01*
X-587461D01*
X-586104Y2262D01*
X-584799Y2658D01*
X-583597Y3300D01*
X-582543Y4165D01*
X-581678Y5219D01*
X-581035Y6422D01*
X-580639Y7726D01*
X-580506Y9083D01*
X-580639Y10440D01*
X-581035Y11744D01*
X-581678Y12947D01*
X-582543Y14001D01*
X-583597Y14866D01*
X-584799Y15508D01*
X-586104Y15904D01*
X-587461Y16038D01*
D02*
G37*
G36*
X20409Y6971D02*
X18440D01*
X17083Y6837D01*
X15779Y6442D01*
X14576Y5799D01*
X13522Y4934D01*
X12658Y3880D01*
X12015Y2678D01*
X11619Y1373D01*
X11485Y16D01*
X11619Y-1341D01*
X12015Y-2645D01*
X12658Y-3848D01*
X13522Y-4902D01*
X14576Y-5767D01*
X15779Y-6409D01*
X17083Y-6805D01*
X18440Y-6939D01*
X20409D01*
X21766Y-6805D01*
X23070Y-6409D01*
X24273Y-5767D01*
X25326Y-4902D01*
X26191Y-3848D01*
X26834Y-2645D01*
X27230Y-1341D01*
X27363Y16D01*
X27230Y1373D01*
X26834Y2678D01*
X26191Y3880D01*
X25326Y4934D01*
X24273Y5799D01*
X23070Y6442D01*
X21766Y6837D01*
X20409Y6971D01*
D02*
G37*
G36*
X549595Y16985D02*
X548239Y16851D01*
X546934Y16455D01*
X545732Y15813D01*
X544678Y14948D01*
X543813Y13894D01*
X543170Y12691D01*
X542774Y11387D01*
X542641Y10030D01*
X542774Y8673D01*
X543170Y7369D01*
X543813Y6166D01*
X544678Y5112D01*
X545732Y4247D01*
X546934Y3605D01*
X548239Y3209D01*
X549595Y3075D01*
X550952Y3209D01*
X552257Y3605D01*
X553459Y4247D01*
X554513Y5112D01*
X555378Y6166D01*
X556021Y7369D01*
X556417Y8673D01*
X556550Y10030D01*
X556417Y11387D01*
X556021Y12691D01*
X555378Y13894D01*
X554513Y14948D01*
X553459Y15813D01*
X552257Y16455D01*
X550952Y16851D01*
X549595Y16985D01*
D02*
G37*
G36*
X-549595Y16070D02*
X-550952Y15936D01*
X-552257Y15541D01*
X-553459Y14898D01*
X-554513Y14033D01*
X-555378Y12979D01*
X-556021Y11777D01*
X-556417Y10472D01*
X-556550Y9115D01*
X-556417Y7759D01*
X-556021Y6454D01*
X-555378Y5252D01*
X-554513Y4198D01*
X-553459Y3333D01*
X-552257Y2690D01*
X-550952Y2294D01*
X-549595Y2161D01*
X-548239Y2294D01*
X-546934Y2690D01*
X-545732Y3333D01*
X-544678Y4198D01*
X-543813Y5252D01*
X-543170Y6454D01*
X-542774Y7759D01*
X-542641Y9115D01*
X-542774Y10472D01*
X-543170Y11777D01*
X-543813Y12979D01*
X-544678Y14033D01*
X-545732Y14898D01*
X-546934Y15541D01*
X-548239Y15936D01*
X-549595Y16070D01*
D02*
G37*
G36*
X-296033Y-56785D02*
X-297389Y-56919D01*
X-298694Y-57314D01*
X-299896Y-57957D01*
X-300950Y-58822D01*
X-301815Y-59876D01*
X-302458Y-61078D01*
X-302854Y-62383D01*
X-302987Y-63740D01*
X-302854Y-65097D01*
X-302458Y-66401D01*
X-301815Y-67604D01*
X-300950Y-68657D01*
X-299896Y-69522D01*
X-298694Y-70165D01*
X-297389Y-70561D01*
X-296033Y-70695D01*
X-294676Y-70561D01*
X-293371Y-70165D01*
X-292169Y-69522D01*
X-291115Y-68657D01*
X-290250Y-67604D01*
X-289607Y-66401D01*
X-289211Y-65097D01*
X-289078Y-63740D01*
X-289211Y-62383D01*
X-289607Y-61078D01*
X-290250Y-59876D01*
X-291115Y-58822D01*
X-292169Y-57957D01*
X-293371Y-57314D01*
X-294676Y-56919D01*
X-296033Y-56785D01*
D02*
G37*
G36*
X-238417Y-174387D02*
X-239774Y-174521D01*
X-241079Y-174916D01*
X-242281Y-175559D01*
X-243335Y-176424D01*
X-244200Y-177478D01*
X-244843Y-178680D01*
X-245238Y-179985D01*
X-245372Y-181342D01*
X-245238Y-182699D01*
X-244843Y-184003D01*
X-244200Y-185206D01*
X-243335Y-186259D01*
X-242281Y-187124D01*
X-241079Y-187767D01*
X-239774Y-188163D01*
X-238417Y-188296D01*
X-237060Y-188163D01*
X-235756Y-187767D01*
X-234553Y-187124D01*
X-233499Y-186259D01*
X-232634Y-185206D01*
X-231992Y-184003D01*
X-231596Y-182699D01*
X-231462Y-181342D01*
X-231596Y-179985D01*
X-231992Y-178680D01*
X-232634Y-177478D01*
X-233499Y-176424D01*
X-234553Y-175559D01*
X-235756Y-174916D01*
X-237060Y-174521D01*
X-238417Y-174387D01*
D02*
G37*
G36*
X241120Y-211714D02*
X239780Y-211964D01*
X238514Y-212471D01*
X237372Y-213215D01*
X236397Y-214168D01*
X235626Y-215293D01*
X235089Y-216546D01*
X234807Y-217880D01*
X234791Y-219243D01*
X234961Y-221204D01*
X235211Y-222544D01*
X235718Y-223810D01*
X236462Y-224953D01*
X237415Y-225928D01*
X238540Y-226699D01*
X239793Y-227235D01*
X241127Y-227517D01*
X242490Y-227533D01*
X243830Y-227283D01*
X245096Y-226776D01*
X246238Y-226032D01*
X247214Y-225079D01*
X247985Y-223955D01*
X248521Y-222701D01*
X248803Y-221367D01*
X248819Y-220004D01*
X248649Y-218043D01*
X248399Y-216703D01*
X247892Y-215437D01*
X247148Y-214295D01*
X246195Y-213319D01*
X245071Y-212548D01*
X243817Y-212012D01*
X242483Y-211730D01*
X241120Y-211714D01*
D02*
G37*
G36*
X-19425Y-104238D02*
X-20781Y-104372D01*
X-22086Y-104768D01*
X-23289Y-105410D01*
X-24342Y-106275D01*
X-25207Y-107329D01*
X-25850Y-108532D01*
X-26246Y-109836D01*
X-26379Y-111193D01*
X-26246Y-112550D01*
X-25850Y-113855D01*
X-25207Y-115057D01*
X-24342Y-116111D01*
X-23289Y-116976D01*
X-22086Y-117618D01*
X-20781Y-118014D01*
X-19425Y-118148D01*
X-18068Y-118014D01*
X-16763Y-117618D01*
X-15561Y-116976D01*
X-14507Y-116111D01*
X-13642Y-115057D01*
X-12999Y-113855D01*
X-12604Y-112550D01*
X-12470Y-111193D01*
X-12604Y-109836D01*
X-12999Y-108532D01*
X-13642Y-107329D01*
X-14507Y-106275D01*
X-15561Y-105410D01*
X-16763Y-104768D01*
X-18068Y-104372D01*
X-19425Y-104238D01*
D02*
G37*
G36*
X238417Y-173990D02*
X237060Y-174124D01*
X235755Y-174520D01*
X234553Y-175162D01*
X233499Y-176027D01*
X232634Y-177081D01*
X231992Y-178284D01*
X231596Y-179588D01*
X231462Y-180945D01*
X231596Y-182302D01*
X231992Y-183606D01*
X232634Y-184809D01*
X233499Y-185863D01*
X234553Y-186728D01*
X235755Y-187370D01*
X237060Y-187766D01*
X238417Y-187900D01*
X239774Y-187766D01*
X241078Y-187370D01*
X242281Y-186728D01*
X243335Y-185863D01*
X244200Y-184809D01*
X244842Y-183606D01*
X245238Y-182302D01*
X245372Y-180945D01*
X245238Y-179588D01*
X244842Y-178284D01*
X244200Y-177081D01*
X243335Y-176027D01*
X242281Y-175162D01*
X241078Y-174520D01*
X239774Y-174124D01*
X238417Y-173990D01*
D02*
G37*
G36*
X129427Y-213840D02*
X128071Y-213974D01*
X126766Y-214370D01*
X125564Y-215013D01*
X124510Y-215877D01*
X123645Y-216931D01*
X123002Y-218134D01*
X122606Y-219438D01*
X122473Y-220795D01*
X122606Y-222152D01*
X123002Y-223457D01*
X123645Y-224659D01*
X124510Y-225713D01*
X125564Y-226578D01*
X126766Y-227221D01*
X128071Y-227616D01*
X129427Y-227750D01*
X130784Y-227616D01*
X132089Y-227221D01*
X133291Y-226578D01*
X134345Y-225713D01*
X135210Y-224659D01*
X135853Y-223457D01*
X136249Y-222152D01*
X136382Y-220795D01*
X136249Y-219438D01*
X135853Y-218134D01*
X135210Y-216931D01*
X134345Y-215877D01*
X133291Y-215013D01*
X132089Y-214370D01*
X130784Y-213974D01*
X129427Y-213840D01*
D02*
G37*
G36*
X132122Y-251565D02*
X130782Y-251817D01*
X129517Y-252325D01*
X128375Y-253070D01*
X127401Y-254024D01*
X126632Y-255149D01*
X126096Y-256403D01*
X125816Y-257737D01*
X125801Y-259101D01*
X125973Y-261062D01*
X126225Y-262402D01*
X126733Y-263667D01*
X127478Y-264808D01*
X128432Y-265783D01*
X129557Y-266552D01*
X130811Y-267087D01*
X132146Y-267368D01*
X133509Y-267382D01*
X134849Y-267131D01*
X136114Y-266623D01*
X137256Y-265877D01*
X138230Y-264924D01*
X138999Y-263798D01*
X139535Y-262544D01*
X139815Y-261210D01*
X139830Y-259847D01*
X139658Y-257886D01*
X139406Y-256546D01*
X138898Y-255281D01*
X138153Y-254139D01*
X137199Y-253165D01*
X136074Y-252395D01*
X134820Y-251860D01*
X133485Y-251580D01*
X132122Y-251565D01*
D02*
G37*
G36*
X-132122Y-251786D02*
X-133486Y-251801D01*
X-134820Y-252081D01*
X-136074Y-252616D01*
X-137199Y-253386D01*
X-138153Y-254360D01*
X-138898Y-255502D01*
X-139406Y-256767D01*
X-139658Y-258107D01*
X-139830Y-260068D01*
X-139815Y-261431D01*
X-139535Y-262765D01*
X-138999Y-264019D01*
X-138230Y-265145D01*
X-137256Y-266098D01*
X-136114Y-266844D01*
X-134849Y-267352D01*
X-133509Y-267603D01*
X-132146Y-267589D01*
X-130811Y-267308D01*
X-129558Y-266773D01*
X-128432Y-266004D01*
X-127478Y-265029D01*
X-126733Y-263888D01*
X-126225Y-262623D01*
X-125973Y-261283D01*
X-125802Y-259322D01*
X-125816Y-257958D01*
X-126096Y-256624D01*
X-126632Y-255370D01*
X-127401Y-254245D01*
X-128376Y-253291D01*
X-129517Y-252546D01*
X-130782Y-252038D01*
X-132122Y-251786D01*
D02*
G37*
G36*
X-241120Y-212117D02*
X-242483Y-212133D01*
X-243817Y-212414D01*
X-245071Y-212951D01*
X-246195Y-213722D01*
X-247148Y-214697D01*
X-247892Y-215839D01*
X-248399Y-217105D01*
X-248649Y-218445D01*
X-248819Y-220406D01*
X-248803Y-221770D01*
X-248521Y-223104D01*
X-247985Y-224357D01*
X-247214Y-225482D01*
X-246238Y-226434D01*
X-245096Y-227178D01*
X-243830Y-227685D01*
X-242490Y-227935D01*
X-241127Y-227919D01*
X-239793Y-227638D01*
X-238540Y-227101D01*
X-237415Y-226330D01*
X-236462Y-225355D01*
X-235718Y-224213D01*
X-235211Y-222947D01*
X-234961Y-221607D01*
X-234791Y-219646D01*
X-234807Y-218282D01*
X-235089Y-216948D01*
X-235626Y-215695D01*
X-236397Y-214570D01*
X-237372Y-213618D01*
X-238514Y-212874D01*
X-239780Y-212367D01*
X-241120Y-212117D01*
D02*
G37*
G36*
X-129428Y-214056D02*
X-130784Y-214189D01*
X-132089Y-214585D01*
X-133291Y-215228D01*
X-134345Y-216093D01*
X-135210Y-217147D01*
X-135853Y-218349D01*
X-136249Y-219654D01*
X-136382Y-221011D01*
X-136249Y-222367D01*
X-135853Y-223672D01*
X-135210Y-224874D01*
X-134345Y-225928D01*
X-133291Y-226793D01*
X-132089Y-227436D01*
X-130784Y-227832D01*
X-129428Y-227965D01*
X-128071Y-227832D01*
X-126766Y-227436D01*
X-125564Y-226793D01*
X-124510Y-225928D01*
X-123645Y-224874D01*
X-123002Y-223672D01*
X-122606Y-222367D01*
X-122473Y-221011D01*
X-122606Y-219654D01*
X-123002Y-218349D01*
X-123645Y-217147D01*
X-124510Y-216093D01*
X-125564Y-215228D01*
X-126766Y-214585D01*
X-128071Y-214189D01*
X-129428Y-214056D01*
D02*
G37*
G36*
X-125690Y-94735D02*
X-127051Y-94816D01*
X-128371Y-95160D01*
X-129597Y-95755D01*
X-130684Y-96578D01*
X-131589Y-97598D01*
X-132279Y-98774D01*
X-132725Y-100062D01*
X-132912Y-101413D01*
X-132831Y-102774D01*
X-132487Y-104093D01*
X-131892Y-105319D01*
X-131069Y-106406D01*
X-130049Y-107312D01*
X-128873Y-108001D01*
X-127585Y-108448D01*
X-126234Y-108634D01*
X-124267Y-108711D01*
X-122906Y-108631D01*
X-121587Y-108286D01*
X-120360Y-107691D01*
X-119273Y-106868D01*
X-118368Y-105849D01*
X-117679Y-104672D01*
X-117232Y-103384D01*
X-117046Y-102033D01*
X-117126Y-100672D01*
X-117471Y-99353D01*
X-118066Y-98127D01*
X-118889Y-97040D01*
X-119908Y-96134D01*
X-121085Y-95445D01*
X-122373Y-94999D01*
X-123723Y-94812D01*
X-125690Y-94735D01*
D02*
G37*
G36*
X-507343Y-78429D02*
X-508700Y-78563D01*
X-510005Y-78959D01*
X-511207Y-79601D01*
X-512261Y-80466D01*
X-513126Y-81520D01*
X-513769Y-82723D01*
X-514165Y-84027D01*
X-514298Y-85384D01*
X-514165Y-86741D01*
X-513769Y-88046D01*
X-513126Y-89248D01*
X-512261Y-90302D01*
X-511207Y-91167D01*
X-510005Y-91809D01*
X-508700Y-92205D01*
X-507343Y-92339D01*
X-505987Y-92205D01*
X-504682Y-91809D01*
X-503480Y-91167D01*
X-502426Y-90302D01*
X-501561Y-89248D01*
X-500918Y-88046D01*
X-500522Y-86741D01*
X-500389Y-85384D01*
X-500522Y-84027D01*
X-500918Y-82723D01*
X-501561Y-81520D01*
X-502426Y-80466D01*
X-503480Y-79601D01*
X-504682Y-78959D01*
X-505987Y-78563D01*
X-507343Y-78429D01*
D02*
G37*
G36*
X-545209Y-78462D02*
X-547177D01*
X-548534Y-78595D01*
X-549838Y-78991D01*
X-551041Y-79634D01*
X-552095Y-80499D01*
X-552960Y-81553D01*
X-553602Y-82755D01*
X-553998Y-84060D01*
X-554132Y-85417D01*
X-553998Y-86773D01*
X-553602Y-88078D01*
X-552960Y-89280D01*
X-552095Y-90334D01*
X-551041Y-91199D01*
X-549838Y-91842D01*
X-548534Y-92238D01*
X-547177Y-92371D01*
X-545209D01*
X-543852Y-92238D01*
X-542547Y-91842D01*
X-541345Y-91199D01*
X-540291Y-90334D01*
X-539426Y-89280D01*
X-538783Y-88078D01*
X-538387Y-86773D01*
X-538254Y-85417D01*
X-538387Y-84060D01*
X-538783Y-82755D01*
X-539426Y-81553D01*
X-540291Y-80499D01*
X-541345Y-79634D01*
X-542547Y-78991D01*
X-543852Y-78595D01*
X-545209Y-78462D01*
D02*
G37*
G36*
X547177Y-77553D02*
X545208D01*
X543852Y-77686D01*
X542547Y-78082D01*
X541344Y-78725D01*
X540291Y-79590D01*
X539426Y-80643D01*
X538783Y-81846D01*
X538387Y-83151D01*
X538254Y-84507D01*
X538387Y-85864D01*
X538783Y-87169D01*
X539426Y-88371D01*
X540291Y-89425D01*
X541344Y-90290D01*
X542547Y-90933D01*
X543852Y-91329D01*
X545208Y-91462D01*
X547177D01*
X548534Y-91329D01*
X549838Y-90933D01*
X551041Y-90290D01*
X552095Y-89425D01*
X552960Y-88371D01*
X553602Y-87169D01*
X553998Y-85864D01*
X554132Y-84507D01*
X553998Y-83151D01*
X553602Y-81846D01*
X552960Y-80643D01*
X552095Y-79590D01*
X551041Y-78725D01*
X549838Y-78082D01*
X548534Y-77686D01*
X547177Y-77553D01*
D02*
G37*
G36*
X507343Y-77585D02*
X505987Y-77719D01*
X504682Y-78114D01*
X503479Y-78757D01*
X502426Y-79622D01*
X501561Y-80676D01*
X500918Y-81878D01*
X500522Y-83183D01*
X500389Y-84540D01*
X500522Y-85896D01*
X500918Y-87201D01*
X501561Y-88403D01*
X502426Y-89457D01*
X503479Y-90322D01*
X504682Y-90965D01*
X505987Y-91361D01*
X507343Y-91494D01*
X508700Y-91361D01*
X510005Y-90965D01*
X511207Y-90322D01*
X512261Y-89457D01*
X513126Y-88403D01*
X513769Y-87201D01*
X514164Y-85896D01*
X514298Y-84540D01*
X514164Y-83183D01*
X513769Y-81878D01*
X513126Y-80676D01*
X512261Y-79622D01*
X511207Y-78757D01*
X510005Y-78114D01*
X508700Y-77719D01*
X507343Y-77585D01*
D02*
G37*
G36*
X323177Y-82513D02*
X321823Y-82674D01*
X320527Y-83095D01*
X319337Y-83762D01*
X318301Y-84647D01*
X317457Y-85718D01*
X316838Y-86933D01*
X316469Y-88245D01*
X316362Y-89605D01*
X316523Y-90959D01*
X316944Y-92255D01*
X317611Y-93445D01*
X318496Y-94481D01*
X319916Y-95845D01*
X320987Y-96689D01*
X322202Y-97307D01*
X323514Y-97677D01*
X324873Y-97784D01*
X326227Y-97623D01*
X327524Y-97201D01*
X328713Y-96535D01*
X329749Y-95649D01*
X330593Y-94578D01*
X331212Y-93363D01*
X331582Y-92051D01*
X331688Y-90692D01*
X331528Y-89338D01*
X331106Y-88042D01*
X330439Y-86852D01*
X329554Y-85816D01*
X328134Y-84452D01*
X327063Y-83608D01*
X325849Y-82989D01*
X324536Y-82620D01*
X323177Y-82513D01*
D02*
G37*
G36*
X-163798Y-93284D02*
X-165155Y-93417D01*
X-166460Y-93813D01*
X-167662Y-94456D01*
X-168716Y-95321D01*
X-169581Y-96374D01*
X-170224Y-97577D01*
X-170619Y-98882D01*
X-170753Y-100238D01*
X-170619Y-101595D01*
X-170224Y-102900D01*
X-169581Y-104102D01*
X-168716Y-105156D01*
X-167662Y-106021D01*
X-166460Y-106664D01*
X-165155Y-107059D01*
X-163798Y-107193D01*
X-162442Y-107059D01*
X-161137Y-106664D01*
X-159934Y-106021D01*
X-158881Y-105156D01*
X-158016Y-104102D01*
X-157373Y-102900D01*
X-156977Y-101595D01*
X-156844Y-100238D01*
X-156977Y-98882D01*
X-157373Y-97577D01*
X-158016Y-96374D01*
X-158881Y-95321D01*
X-159934Y-94456D01*
X-161137Y-93813D01*
X-162442Y-93417D01*
X-163798Y-93284D01*
D02*
G37*
G36*
X125690Y-94527D02*
X123723Y-94604D01*
X122373Y-94791D01*
X121085Y-95237D01*
X119908Y-95926D01*
X118889Y-96832D01*
X118066Y-97919D01*
X117471Y-99145D01*
X117126Y-100464D01*
X117046Y-101825D01*
X117232Y-103176D01*
X117679Y-104464D01*
X118368Y-105640D01*
X119273Y-106660D01*
X120360Y-107483D01*
X121587Y-108078D01*
X122906Y-108423D01*
X124267Y-108503D01*
X126234Y-108426D01*
X127585Y-108239D01*
X128873Y-107793D01*
X130049Y-107104D01*
X131068Y-106198D01*
X131892Y-105111D01*
X132487Y-103885D01*
X132831Y-102566D01*
X132912Y-101205D01*
X132725Y-99854D01*
X132279Y-98566D01*
X131589Y-97390D01*
X130684Y-96370D01*
X129597Y-95547D01*
X128370Y-94952D01*
X127051Y-94608D01*
X125690Y-94527D01*
D02*
G37*
G36*
X-323482Y-83025D02*
X-324835Y-83185D01*
X-326132Y-83607D01*
X-327321Y-84273D01*
X-328358Y-85159D01*
X-329722Y-86578D01*
X-330566Y-87649D01*
X-331184Y-88864D01*
X-331554Y-90176D01*
X-331661Y-91536D01*
X-331500Y-92890D01*
X-331078Y-94186D01*
X-330412Y-95376D01*
X-329526Y-96412D01*
X-328455Y-97256D01*
X-327240Y-97874D01*
X-325928Y-98244D01*
X-324569Y-98351D01*
X-323215Y-98190D01*
X-321918Y-97768D01*
X-320729Y-97102D01*
X-319693Y-96216D01*
X-318329Y-94797D01*
X-317485Y-93726D01*
X-316866Y-92511D01*
X-316496Y-91199D01*
X-316390Y-89840D01*
X-316550Y-88486D01*
X-316972Y-87189D01*
X-317639Y-86000D01*
X-318524Y-84963D01*
X-319595Y-84120D01*
X-320810Y-83501D01*
X-322122Y-83131D01*
X-323482Y-83025D01*
D02*
G37*
G36*
X163798Y-93011D02*
X162441Y-93145D01*
X161137Y-93540D01*
X159934Y-94183D01*
X158880Y-95048D01*
X158016Y-96102D01*
X157373Y-97304D01*
X156977Y-98609D01*
X156843Y-99966D01*
X156977Y-101322D01*
X157373Y-102627D01*
X158016Y-103830D01*
X158880Y-104883D01*
X159934Y-105748D01*
X161137Y-106391D01*
X162441Y-106787D01*
X163798Y-106920D01*
X165155Y-106787D01*
X166460Y-106391D01*
X167662Y-105748D01*
X168716Y-104883D01*
X169581Y-103830D01*
X170224Y-102627D01*
X170619Y-101322D01*
X170753Y-99966D01*
X170619Y-98609D01*
X170224Y-97304D01*
X169581Y-96102D01*
X168716Y-95048D01*
X167662Y-94183D01*
X166460Y-93540D01*
X165155Y-93145D01*
X163798Y-93011D01*
D02*
G37*
G36*
X-146083Y78399D02*
X-148051D01*
X-149408Y78266D01*
X-150713Y77870D01*
X-151915Y77227D01*
X-152969Y76363D01*
X-153834Y75309D01*
X-154477Y74106D01*
X-154872Y72802D01*
X-155006Y71445D01*
X-154872Y70088D01*
X-154477Y68783D01*
X-153834Y67581D01*
X-152969Y66527D01*
X-151915Y65662D01*
X-150713Y65019D01*
X-149408Y64624D01*
X-148051Y64490D01*
X-146083D01*
X-144726Y64624D01*
X-143421Y65019D01*
X-142219Y65662D01*
X-141165Y66527D01*
X-140300Y67581D01*
X-139657Y68783D01*
X-139262Y70088D01*
X-139128Y71445D01*
X-139262Y72802D01*
X-139657Y74106D01*
X-140300Y75309D01*
X-141165Y76363D01*
X-142219Y77227D01*
X-143421Y77870D01*
X-144726Y78266D01*
X-146083Y78399D01*
D02*
G37*
G36*
X324873Y241457D02*
X323514Y241351D01*
X322202Y240981D01*
X320987Y240363D01*
X319916Y239519D01*
X318496Y238155D01*
X317611Y237118D01*
X316944Y235929D01*
X316523Y234632D01*
X316362Y233278D01*
X316469Y231919D01*
X316838Y230607D01*
X317457Y229392D01*
X318301Y228321D01*
X319337Y227435D01*
X320527Y226769D01*
X321823Y226347D01*
X323177Y226187D01*
X324536Y226293D01*
X325849Y226663D01*
X327063Y227282D01*
X328134Y228126D01*
X329554Y229489D01*
X330439Y230526D01*
X331106Y231715D01*
X331528Y233012D01*
X331688Y234366D01*
X331582Y235725D01*
X331212Y237037D01*
X330593Y238252D01*
X329749Y239323D01*
X328713Y240209D01*
X327524Y240875D01*
X326227Y241297D01*
X324873Y241457D01*
D02*
G37*
G36*
X-324873Y240918D02*
X-326227Y240757D01*
X-327524Y240336D01*
X-328713Y239669D01*
X-329749Y238784D01*
X-330593Y237713D01*
X-331212Y236498D01*
X-331582Y235186D01*
X-331688Y233826D01*
X-331528Y232472D01*
X-331106Y231176D01*
X-330439Y229987D01*
X-329554Y228950D01*
X-328134Y227586D01*
X-327064Y226742D01*
X-325849Y226124D01*
X-324536Y225754D01*
X-323177Y225647D01*
X-321823Y225808D01*
X-320527Y226230D01*
X-319337Y226896D01*
X-318301Y227782D01*
X-317457Y228853D01*
X-316839Y230068D01*
X-316469Y231380D01*
X-316362Y232739D01*
X-316523Y234093D01*
X-316944Y235390D01*
X-317611Y236579D01*
X-318497Y237615D01*
X-319916Y238979D01*
X-320987Y239823D01*
X-322202Y240442D01*
X-323514Y240811D01*
X-324873Y240918D01*
D02*
G37*
G36*
X163798Y250327D02*
X162441Y250194D01*
X161137Y249798D01*
X159934Y249155D01*
X158880Y248290D01*
X158016Y247237D01*
X157373Y246034D01*
X156977Y244729D01*
X156843Y243373D01*
X156977Y242016D01*
X157373Y240711D01*
X158016Y239509D01*
X158880Y238455D01*
X159934Y237590D01*
X161137Y236947D01*
X162441Y236552D01*
X163798Y236418D01*
X165155Y236552D01*
X166460Y236947D01*
X167662Y237590D01*
X168716Y238455D01*
X169581Y239509D01*
X170224Y240711D01*
X170619Y242016D01*
X170753Y243373D01*
X170619Y244729D01*
X170224Y246034D01*
X169581Y247237D01*
X168716Y248290D01*
X167662Y249155D01*
X166460Y249798D01*
X165155Y250194D01*
X163798Y250327D01*
D02*
G37*
G36*
X-163798Y250055D02*
X-165155Y249921D01*
X-166460Y249525D01*
X-167662Y248883D01*
X-168716Y248018D01*
X-169581Y246964D01*
X-170224Y245762D01*
X-170619Y244457D01*
X-170753Y243100D01*
X-170619Y241743D01*
X-170224Y240439D01*
X-169581Y239236D01*
X-168716Y238182D01*
X-167662Y237317D01*
X-166460Y236675D01*
X-165155Y236279D01*
X-163798Y236145D01*
X-162442Y236279D01*
X-161137Y236675D01*
X-159934Y237317D01*
X-158881Y238182D01*
X-158016Y239236D01*
X-157373Y240439D01*
X-156977Y241743D01*
X-156844Y243100D01*
X-156977Y244457D01*
X-157373Y245762D01*
X-158016Y246964D01*
X-158881Y248018D01*
X-159934Y248883D01*
X-161137Y249525D01*
X-162442Y249921D01*
X-163798Y250055D01*
D02*
G37*
G36*
X547177Y235506D02*
X545208D01*
X543852Y235372D01*
X542547Y234976D01*
X541344Y234333D01*
X540291Y233469D01*
X539426Y232415D01*
X538783Y231212D01*
X538387Y229908D01*
X538254Y228551D01*
X538387Y227194D01*
X538783Y225889D01*
X539426Y224687D01*
X540291Y223633D01*
X541344Y222768D01*
X542547Y222126D01*
X543852Y221730D01*
X545208Y221596D01*
X547177D01*
X548534Y221730D01*
X549838Y222126D01*
X551041Y222768D01*
X552095Y223633D01*
X552960Y224687D01*
X553602Y225889D01*
X553998Y227194D01*
X554132Y228551D01*
X553998Y229908D01*
X553602Y231212D01*
X552960Y232415D01*
X552095Y233469D01*
X551041Y234333D01*
X549838Y234976D01*
X548534Y235372D01*
X547177Y235506D01*
D02*
G37*
G36*
X-545209Y234597D02*
X-547177D01*
X-548534Y234463D01*
X-549838Y234067D01*
X-551041Y233424D01*
X-552095Y232560D01*
X-552960Y231506D01*
X-553602Y230303D01*
X-553998Y228999D01*
X-554132Y227642D01*
X-553998Y226285D01*
X-553602Y224980D01*
X-552960Y223778D01*
X-552095Y222724D01*
X-551041Y221859D01*
X-549838Y221217D01*
X-548534Y220821D01*
X-547177Y220687D01*
X-545209D01*
X-543852Y220821D01*
X-542547Y221217D01*
X-541345Y221859D01*
X-540291Y222724D01*
X-539426Y223778D01*
X-538783Y224980D01*
X-538387Y226285D01*
X-538254Y227642D01*
X-538387Y228999D01*
X-538783Y230303D01*
X-539426Y231506D01*
X-540291Y232560D01*
X-541345Y233424D01*
X-542547Y234067D01*
X-543852Y234463D01*
X-545209Y234597D01*
D02*
G37*
G36*
X296033Y213829D02*
X294676Y213695D01*
X293371Y213300D01*
X292169Y212657D01*
X291115Y211792D01*
X290250Y210738D01*
X289607Y209536D01*
X289211Y208231D01*
X289078Y206874D01*
X289211Y205517D01*
X289607Y204213D01*
X290250Y203010D01*
X291115Y201957D01*
X292169Y201092D01*
X293371Y200449D01*
X294676Y200053D01*
X296033Y199919D01*
X297389Y200053D01*
X298694Y200449D01*
X299896Y201092D01*
X300950Y201957D01*
X301815Y203010D01*
X302458Y204213D01*
X302854Y205517D01*
X302987Y206874D01*
X302854Y208231D01*
X302458Y209536D01*
X301815Y210738D01*
X300950Y211792D01*
X299896Y212657D01*
X298694Y213300D01*
X297389Y213695D01*
X296033Y213829D01*
D02*
G37*
G36*
X507343Y235473D02*
X505987Y235340D01*
X504682Y234944D01*
X503479Y234301D01*
X502426Y233436D01*
X501561Y232382D01*
X500918Y231180D01*
X500522Y229875D01*
X500389Y228519D01*
X500522Y227162D01*
X500918Y225857D01*
X501561Y224655D01*
X502426Y223601D01*
X503479Y222736D01*
X504682Y222093D01*
X505987Y221697D01*
X507343Y221564D01*
X508700Y221697D01*
X510005Y222093D01*
X511207Y222736D01*
X512261Y223601D01*
X513126Y224655D01*
X513769Y225857D01*
X514164Y227162D01*
X514298Y228519D01*
X514164Y229875D01*
X513769Y231180D01*
X513126Y232382D01*
X512261Y233436D01*
X511207Y234301D01*
X510005Y234944D01*
X508700Y235340D01*
X507343Y235473D01*
D02*
G37*
G36*
X-507343Y234629D02*
X-508700Y234495D01*
X-510005Y234100D01*
X-511207Y233457D01*
X-512261Y232592D01*
X-513126Y231538D01*
X-513769Y230336D01*
X-514165Y229031D01*
X-514298Y227674D01*
X-514165Y226317D01*
X-513769Y225013D01*
X-513126Y223810D01*
X-512261Y222756D01*
X-511207Y221891D01*
X-510005Y221249D01*
X-508700Y220853D01*
X-507343Y220719D01*
X-505987Y220853D01*
X-504682Y221249D01*
X-503480Y221891D01*
X-502426Y222756D01*
X-501561Y223810D01*
X-500918Y225013D01*
X-500522Y226317D01*
X-500389Y227674D01*
X-500522Y229031D01*
X-500918Y230336D01*
X-501561Y231538D01*
X-502426Y232592D01*
X-503480Y233457D01*
X-504682Y234100D01*
X-505987Y234495D01*
X-507343Y234629D01*
D02*
G37*
G36*
X-124267Y251637D02*
X-126234Y251560D01*
X-127585Y251374D01*
X-128873Y250927D01*
X-130049Y250238D01*
X-131069Y249333D01*
X-131892Y248246D01*
X-132487Y247019D01*
X-132831Y245700D01*
X-132912Y244339D01*
X-132725Y242989D01*
X-132279Y241701D01*
X-131589Y240524D01*
X-130684Y239505D01*
X-129597Y238682D01*
X-128371Y238087D01*
X-127051Y237742D01*
X-125690Y237662D01*
X-123723Y237738D01*
X-122373Y237925D01*
X-121085Y238372D01*
X-119908Y239061D01*
X-118889Y239966D01*
X-118066Y241053D01*
X-117471Y242280D01*
X-117126Y243599D01*
X-117046Y244960D01*
X-117232Y246310D01*
X-117679Y247599D01*
X-118368Y248775D01*
X-119273Y249794D01*
X-120360Y250617D01*
X-121587Y251212D01*
X-122906Y251557D01*
X-124267Y251637D01*
D02*
G37*
G36*
X130035Y371073D02*
X128671Y371059D01*
X127337Y370778D01*
X126083Y370243D01*
X124958Y369474D01*
X124004Y368499D01*
X123259Y367357D01*
X122751Y366092D01*
X122499Y364752D01*
X122514Y363389D01*
X122794Y362055D01*
X123329Y360801D01*
X124099Y359676D01*
X125073Y358722D01*
X126215Y357977D01*
X127480Y357469D01*
X128820Y357217D01*
X130183Y357231D01*
X131518Y357512D01*
X132772Y358047D01*
X133897Y358817D01*
X134851Y359791D01*
X135596Y360933D01*
X136104Y362198D01*
X136355Y363538D01*
X136341Y364901D01*
X136061Y366235D01*
X135525Y367489D01*
X134756Y368615D01*
X133781Y369568D01*
X132640Y370313D01*
X131375Y370822D01*
X130035Y371073D01*
D02*
G37*
G36*
X-129428Y370884D02*
X-130784Y370751D01*
X-132089Y370355D01*
X-133291Y369712D01*
X-134345Y368847D01*
X-135210Y367793D01*
X-135853Y366591D01*
X-136249Y365286D01*
X-136382Y363930D01*
X-136249Y362573D01*
X-135853Y361268D01*
X-135210Y360066D01*
X-134345Y359012D01*
X-133291Y358147D01*
X-132089Y357504D01*
X-130784Y357108D01*
X-129428Y356975D01*
X-128071Y357108D01*
X-126766Y357504D01*
X-125564Y358147D01*
X-124510Y359012D01*
X-123645Y360066D01*
X-123002Y361268D01*
X-122606Y362573D01*
X-122473Y363930D01*
X-122606Y365286D01*
X-123002Y366591D01*
X-123645Y367793D01*
X-124510Y368847D01*
X-125564Y369712D01*
X-126766Y370355D01*
X-128071Y370751D01*
X-129428Y370884D01*
D02*
G37*
G36*
X133509Y410738D02*
X132146Y410723D01*
X130811Y410443D01*
X129557Y409908D01*
X128432Y409138D01*
X127478Y408164D01*
X126733Y407022D01*
X126225Y405757D01*
X125973Y404417D01*
X125801Y402456D01*
X125816Y401093D01*
X126096Y399759D01*
X126632Y398505D01*
X127401Y397379D01*
X128375Y396426D01*
X129517Y395680D01*
X130782Y395172D01*
X132122Y394920D01*
X133485Y394935D01*
X134820Y395216D01*
X136074Y395751D01*
X137199Y396520D01*
X138153Y397495D01*
X138898Y398636D01*
X139406Y399901D01*
X139658Y401241D01*
X139830Y403202D01*
X139815Y404566D01*
X139535Y405900D01*
X138999Y407154D01*
X138230Y408279D01*
X137256Y409233D01*
X136114Y409978D01*
X134849Y410486D01*
X133509Y410738D01*
D02*
G37*
G36*
X-133509Y410517D02*
X-134849Y410265D01*
X-136114Y409757D01*
X-137256Y409012D01*
X-138230Y408058D01*
X-138999Y406933D01*
X-139535Y405679D01*
X-139815Y404345D01*
X-139830Y402981D01*
X-139658Y401020D01*
X-139406Y399680D01*
X-138898Y398415D01*
X-138153Y397274D01*
X-137199Y396299D01*
X-136074Y395530D01*
X-134820Y394994D01*
X-133486Y394714D01*
X-132122Y394700D01*
X-130782Y394951D01*
X-129517Y395459D01*
X-128376Y396204D01*
X-127401Y397158D01*
X-126632Y398284D01*
X-126096Y399537D01*
X-125816Y400872D01*
X-125802Y402235D01*
X-125973Y404196D01*
X-126225Y405536D01*
X-126733Y406801D01*
X-127478Y407943D01*
X-128432Y408917D01*
X-129558Y409687D01*
X-130811Y410222D01*
X-132146Y410502D01*
X-133509Y410517D01*
D02*
G37*
G36*
X242490Y371070D02*
X241127Y371054D01*
X239793Y370772D01*
X238540Y370235D01*
X237415Y369465D01*
X236462Y368489D01*
X235718Y367347D01*
X235211Y366081D01*
X234961Y364741D01*
X234791Y362780D01*
X234807Y361417D01*
X235089Y360083D01*
X235626Y358829D01*
X236397Y357705D01*
X237372Y356752D01*
X238514Y356008D01*
X239780Y355501D01*
X241120Y355251D01*
X242483Y355267D01*
X243817Y355549D01*
X245071Y356085D01*
X246195Y356856D01*
X247148Y357831D01*
X247892Y358974D01*
X248399Y360240D01*
X248649Y361580D01*
X248819Y363541D01*
X248803Y364904D01*
X248521Y366238D01*
X247985Y367491D01*
X247214Y368616D01*
X246238Y369569D01*
X245096Y370313D01*
X243830Y370820D01*
X242490Y371070D01*
D02*
G37*
G36*
X-238417Y331034D02*
X-239774Y330901D01*
X-241079Y330505D01*
X-242281Y329862D01*
X-243335Y328997D01*
X-244200Y327943D01*
X-244843Y326741D01*
X-245238Y325436D01*
X-245372Y324079D01*
X-245238Y322723D01*
X-244843Y321418D01*
X-244200Y320216D01*
X-243335Y319162D01*
X-242281Y318297D01*
X-241079Y317654D01*
X-239774Y317258D01*
X-238417Y317125D01*
X-237060Y317258D01*
X-235756Y317654D01*
X-234553Y318297D01*
X-233499Y319162D01*
X-232634Y320216D01*
X-231992Y321418D01*
X-231596Y322723D01*
X-231462Y324079D01*
X-231596Y325436D01*
X-231992Y326741D01*
X-232634Y327943D01*
X-233499Y328997D01*
X-234553Y329862D01*
X-235756Y330505D01*
X-237060Y330901D01*
X-238417Y331034D01*
D02*
G37*
G36*
X124267Y251845D02*
X122906Y251765D01*
X121587Y251420D01*
X120360Y250825D01*
X119273Y250002D01*
X118368Y248983D01*
X117679Y247807D01*
X117232Y246518D01*
X117046Y245168D01*
X117126Y243807D01*
X117471Y242488D01*
X118066Y241261D01*
X118889Y240174D01*
X119908Y239269D01*
X121085Y238580D01*
X122373Y238133D01*
X123723Y237947D01*
X125690Y237870D01*
X127051Y237950D01*
X128370Y238295D01*
X129597Y238890D01*
X130684Y239713D01*
X131589Y240732D01*
X132279Y241909D01*
X132725Y243197D01*
X132912Y244547D01*
X132831Y245908D01*
X132487Y247227D01*
X131892Y248454D01*
X131068Y249541D01*
X130049Y250446D01*
X128873Y251135D01*
X127585Y251582D01*
X126234Y251768D01*
X124267Y251845D01*
D02*
G37*
G36*
X-242490Y370667D02*
X-243830Y370417D01*
X-245096Y369910D01*
X-246238Y369166D01*
X-247214Y368214D01*
X-247985Y367089D01*
X-248521Y365836D01*
X-248803Y364502D01*
X-248819Y363138D01*
X-248649Y361177D01*
X-248399Y359837D01*
X-247892Y358571D01*
X-247148Y357429D01*
X-246195Y356454D01*
X-245071Y355683D01*
X-243817Y355146D01*
X-242483Y354865D01*
X-241120Y354849D01*
X-239780Y355099D01*
X-238514Y355606D01*
X-237372Y356350D01*
X-236397Y357302D01*
X-235626Y358427D01*
X-235089Y359680D01*
X-234807Y361014D01*
X-234791Y362377D01*
X-234961Y364339D01*
X-235211Y365679D01*
X-235718Y366945D01*
X-236462Y368087D01*
X-237415Y369062D01*
X-238540Y369833D01*
X-239793Y370370D01*
X-241127Y370651D01*
X-242490Y370667D01*
D02*
G37*
G36*
X238417Y331431D02*
X237060Y331297D01*
X235755Y330902D01*
X234553Y330259D01*
X233499Y329394D01*
X232634Y328340D01*
X231992Y327138D01*
X231596Y325833D01*
X231462Y324476D01*
X231596Y323119D01*
X231992Y321815D01*
X232634Y320612D01*
X233499Y319559D01*
X234553Y318694D01*
X235755Y318051D01*
X237060Y317655D01*
X238417Y317522D01*
X239774Y317655D01*
X241078Y318051D01*
X242281Y318694D01*
X243335Y319559D01*
X244200Y320612D01*
X244842Y321815D01*
X245238Y323119D01*
X245372Y324476D01*
X245238Y325833D01*
X244842Y327138D01*
X244200Y328340D01*
X243335Y329394D01*
X242281Y330259D01*
X241078Y330902D01*
X239774Y331297D01*
X238417Y331431D01*
D02*
G37*
G36*
X-296033Y213336D02*
X-297389Y213203D01*
X-298694Y212807D01*
X-299896Y212164D01*
X-300950Y211299D01*
X-301815Y210245D01*
X-302458Y209043D01*
X-302854Y207738D01*
X-302987Y206382D01*
X-302854Y205025D01*
X-302458Y203720D01*
X-301815Y202518D01*
X-300950Y201464D01*
X-299896Y200599D01*
X-298694Y199956D01*
X-297389Y199560D01*
X-296033Y199427D01*
X-294676Y199560D01*
X-293371Y199956D01*
X-292169Y200599D01*
X-291115Y201464D01*
X-290250Y202518D01*
X-289607Y203720D01*
X-289211Y205025D01*
X-289078Y206382D01*
X-289211Y207738D01*
X-289607Y209043D01*
X-290250Y210245D01*
X-291115Y211299D01*
X-292169Y212164D01*
X-293371Y212807D01*
X-294676Y213203D01*
X-296033Y213336D01*
D02*
G37*
G36*
X485021Y98340D02*
X483665Y98207D01*
X482360Y97811D01*
X481157Y97168D01*
X480103Y96303D01*
X479239Y95249D01*
X478596Y94047D01*
X478200Y92742D01*
X478066Y91386D01*
X478200Y90029D01*
X478596Y88724D01*
X479239Y87522D01*
X480103Y86468D01*
X481157Y85603D01*
X482360Y84960D01*
X483665Y84564D01*
X485021Y84431D01*
X486378Y84564D01*
X487683Y84960D01*
X488885Y85603D01*
X489939Y86468D01*
X490804Y87522D01*
X491447Y88724D01*
X491842Y90029D01*
X491976Y91386D01*
X491842Y92742D01*
X491447Y94047D01*
X490804Y95249D01*
X489939Y96303D01*
X488885Y97168D01*
X487683Y97811D01*
X486378Y98207D01*
X485021Y98340D01*
D02*
G37*
G36*
X331732Y98213D02*
X330375Y98079D01*
X329070Y97683D01*
X327868Y97041D01*
X326814Y96176D01*
X325949Y95122D01*
X325307Y93919D01*
X324911Y92615D01*
X324777Y91258D01*
X324911Y89901D01*
X325307Y88596D01*
X325949Y87394D01*
X326814Y86340D01*
X327868Y85475D01*
X329070Y84833D01*
X330375Y84437D01*
X331732Y84303D01*
X333089Y84437D01*
X334393Y84833D01*
X335596Y85475D01*
X336650Y86340D01*
X337514Y87394D01*
X338157Y88596D01*
X338553Y89901D01*
X338687Y91258D01*
X338553Y92615D01*
X338157Y93919D01*
X337514Y95122D01*
X336650Y96176D01*
X335596Y97041D01*
X334393Y97683D01*
X333089Y98079D01*
X331732Y98213D01*
D02*
G37*
G36*
X-549595Y140059D02*
X-550952Y139926D01*
X-552257Y139530D01*
X-553459Y138887D01*
X-554513Y138022D01*
X-555378Y136968D01*
X-556021Y135766D01*
X-556417Y134461D01*
X-556550Y133104D01*
X-556417Y131748D01*
X-556021Y130443D01*
X-555378Y129241D01*
X-554513Y128187D01*
X-553459Y127322D01*
X-552257Y126679D01*
X-550952Y126283D01*
X-549595Y126150D01*
X-548239Y126283D01*
X-546934Y126679D01*
X-545732Y127322D01*
X-544678Y128187D01*
X-543813Y129241D01*
X-543170Y130443D01*
X-542774Y131748D01*
X-542641Y133104D01*
X-542774Y134461D01*
X-543170Y135766D01*
X-543813Y136968D01*
X-544678Y138022D01*
X-545732Y138887D01*
X-546934Y139530D01*
X-548239Y139926D01*
X-549595Y140059D01*
D02*
G37*
G36*
X-587461Y140027D02*
X-589429D01*
X-590786Y139893D01*
X-592091Y139497D01*
X-593293Y138855D01*
X-594347Y137990D01*
X-595212Y136936D01*
X-595854Y135733D01*
X-596250Y134429D01*
X-596384Y133072D01*
X-596250Y131715D01*
X-595854Y130411D01*
X-595212Y129208D01*
X-594347Y128154D01*
X-593293Y127289D01*
X-592091Y126647D01*
X-590786Y126251D01*
X-589429Y126117D01*
X-587461D01*
X-586104Y126251D01*
X-584799Y126647D01*
X-583597Y127289D01*
X-582543Y128154D01*
X-581678Y129208D01*
X-581035Y130411D01*
X-580639Y131715D01*
X-580506Y133072D01*
X-580639Y134429D01*
X-581035Y135733D01*
X-581678Y136936D01*
X-582543Y137990D01*
X-583597Y138855D01*
X-584799Y139497D01*
X-586104Y139893D01*
X-587461Y140027D01*
D02*
G37*
G36*
X-331732Y97661D02*
X-333089Y97527D01*
X-334393Y97131D01*
X-335596Y96488D01*
X-336650Y95624D01*
X-337515Y94570D01*
X-338157Y93367D01*
X-338553Y92063D01*
X-338687Y90706D01*
X-338553Y89349D01*
X-338157Y88044D01*
X-337515Y86842D01*
X-336650Y85788D01*
X-335596Y84923D01*
X-334393Y84281D01*
X-333089Y83885D01*
X-331732Y83751D01*
X-330375Y83885D01*
X-329070Y84281D01*
X-327868Y84923D01*
X-326814Y85788D01*
X-325949Y86842D01*
X-325307Y88044D01*
X-324911Y89349D01*
X-324777Y90706D01*
X-324911Y92063D01*
X-325307Y93367D01*
X-325949Y94570D01*
X-326814Y95624D01*
X-327868Y96488D01*
X-329070Y97131D01*
X-330375Y97527D01*
X-331732Y97661D01*
D02*
G37*
G36*
X108218Y78612D02*
X106861Y78478D01*
X105556Y78083D01*
X104354Y77440D01*
X103300Y76575D01*
X102435Y75521D01*
X101792Y74319D01*
X101397Y73014D01*
X101263Y71657D01*
X101397Y70301D01*
X101792Y68996D01*
X102435Y67793D01*
X103300Y66739D01*
X104354Y65875D01*
X105556Y65232D01*
X106861Y64836D01*
X108218Y64702D01*
X109574Y64836D01*
X110879Y65232D01*
X112081Y65875D01*
X113135Y66739D01*
X114000Y67793D01*
X114643Y68996D01*
X115039Y70301D01*
X115172Y71657D01*
X115039Y73014D01*
X114643Y74319D01*
X114000Y75521D01*
X113135Y76575D01*
X112081Y77440D01*
X110879Y78083D01*
X109574Y78478D01*
X108218Y78612D01*
D02*
G37*
G36*
X-108218Y78432D02*
X-109574Y78298D01*
X-110879Y77903D01*
X-112082Y77260D01*
X-113135Y76395D01*
X-114000Y75341D01*
X-114643Y74139D01*
X-115039Y72834D01*
X-115172Y71477D01*
X-115039Y70120D01*
X-114643Y68816D01*
X-114000Y67613D01*
X-113135Y66559D01*
X-112082Y65694D01*
X-110879Y65052D01*
X-109574Y64656D01*
X-108218Y64522D01*
X-106861Y64656D01*
X-105556Y65052D01*
X-104354Y65694D01*
X-103300Y66559D01*
X-102435Y67613D01*
X-101792Y68816D01*
X-101397Y70120D01*
X-101263Y71477D01*
X-101397Y72834D01*
X-101792Y74139D01*
X-102435Y75341D01*
X-103300Y76395D01*
X-104354Y77260D01*
X-105556Y77903D01*
X-106861Y78298D01*
X-108218Y78432D01*
D02*
G37*
G36*
X-485021Y97533D02*
X-486378Y97399D01*
X-487683Y97004D01*
X-488885Y96361D01*
X-489939Y95496D01*
X-490804Y94442D01*
X-491447Y93240D01*
X-491843Y91935D01*
X-491976Y90578D01*
X-491843Y89221D01*
X-491447Y87917D01*
X-490804Y86714D01*
X-489939Y85660D01*
X-488885Y84796D01*
X-487683Y84153D01*
X-486378Y83757D01*
X-485021Y83623D01*
X-483665Y83757D01*
X-482360Y84153D01*
X-481157Y84796D01*
X-480104Y85660D01*
X-479239Y86714D01*
X-478596Y87917D01*
X-478200Y89221D01*
X-478067Y90578D01*
X-478200Y91935D01*
X-478596Y93240D01*
X-479239Y94442D01*
X-480104Y95496D01*
X-481157Y96361D01*
X-482360Y97004D01*
X-483665Y97399D01*
X-485021Y97533D01*
D02*
G37*
G36*
X148051Y78644D02*
X146083D01*
X144726Y78511D01*
X143421Y78115D01*
X142219Y77472D01*
X141165Y76607D01*
X140300Y75553D01*
X139657Y74351D01*
X139261Y73046D01*
X139128Y71690D01*
X139261Y70333D01*
X139657Y69028D01*
X140300Y67826D01*
X141165Y66772D01*
X142219Y65907D01*
X143421Y65264D01*
X144726Y64868D01*
X146083Y64735D01*
X148051D01*
X149408Y64868D01*
X150713Y65264D01*
X151915Y65907D01*
X152969Y66772D01*
X153834Y67826D01*
X154476Y69028D01*
X154872Y70333D01*
X155006Y71690D01*
X154872Y73046D01*
X154476Y74351D01*
X153834Y75553D01*
X152969Y76607D01*
X151915Y77472D01*
X150713Y78115D01*
X149408Y78511D01*
X148051Y78644D01*
D02*
G37*
G36*
X549595Y140974D02*
X548239Y140840D01*
X546934Y140445D01*
X545732Y139802D01*
X544678Y138937D01*
X543813Y137883D01*
X543170Y136681D01*
X542774Y135376D01*
X542641Y134019D01*
X542774Y132662D01*
X543170Y131358D01*
X543813Y130155D01*
X544678Y129101D01*
X545732Y128236D01*
X546934Y127594D01*
X548239Y127198D01*
X549595Y127064D01*
X550952Y127198D01*
X552257Y127594D01*
X553459Y128236D01*
X554513Y129101D01*
X555378Y130155D01*
X556021Y131358D01*
X556417Y132662D01*
X556550Y134019D01*
X556417Y135376D01*
X556021Y136681D01*
X555378Y137883D01*
X554513Y138937D01*
X553459Y139802D01*
X552257Y140445D01*
X550952Y140840D01*
X549595Y140974D01*
D02*
G37*
G36*
X-204048Y157895D02*
X-205404Y157762D01*
X-206709Y157366D01*
X-207911Y156723D01*
X-208965Y155858D01*
X-209830Y154805D01*
X-210473Y153602D01*
X-210869Y152297D01*
X-211002Y150941D01*
X-210869Y149584D01*
X-210473Y148279D01*
X-209830Y147077D01*
X-208965Y146023D01*
X-207911Y145158D01*
X-206709Y144515D01*
X-205404Y144120D01*
X-204048Y143986D01*
X-202691Y144120D01*
X-201386Y144515D01*
X-200184Y145158D01*
X-199130Y146023D01*
X-198265Y147077D01*
X-197622Y148279D01*
X-197227Y149584D01*
X-197093Y150941D01*
X-197227Y152297D01*
X-197622Y153602D01*
X-198265Y154805D01*
X-199130Y155858D01*
X-200184Y156723D01*
X-201386Y157366D01*
X-202691Y157762D01*
X-204048Y157895D01*
D02*
G37*
G36*
X-241913Y157863D02*
X-243881D01*
X-245238Y157729D01*
X-246543Y157334D01*
X-247745Y156691D01*
X-248799Y155826D01*
X-249664Y154772D01*
X-250307Y153570D01*
X-250702Y152265D01*
X-250836Y150908D01*
X-250702Y149551D01*
X-250307Y148247D01*
X-249664Y147044D01*
X-248799Y145991D01*
X-247745Y145126D01*
X-246543Y144483D01*
X-245238Y144087D01*
X-243881Y143954D01*
X-241913D01*
X-240556Y144087D01*
X-239251Y144483D01*
X-238049Y145126D01*
X-236995Y145991D01*
X-236130Y147044D01*
X-235487Y148247D01*
X-235091Y149551D01*
X-234958Y150908D01*
X-235091Y152265D01*
X-235487Y153570D01*
X-236130Y154772D01*
X-236995Y155826D01*
X-238049Y156691D01*
X-239251Y157334D01*
X-240556Y157729D01*
X-241913Y157863D01*
D02*
G37*
G36*
X243881Y158267D02*
X241913D01*
X240556Y158134D01*
X239251Y157738D01*
X238049Y157095D01*
X236995Y156230D01*
X236130Y155176D01*
X235487Y153974D01*
X235091Y152669D01*
X234958Y151313D01*
X235091Y149956D01*
X235487Y148651D01*
X236130Y147449D01*
X236995Y146395D01*
X238049Y145530D01*
X239251Y144887D01*
X240556Y144491D01*
X241913Y144358D01*
X243881D01*
X245238Y144491D01*
X246543Y144887D01*
X247745Y145530D01*
X248799Y146395D01*
X249664Y147449D01*
X250306Y148651D01*
X250702Y149956D01*
X250836Y151313D01*
X250702Y152669D01*
X250306Y153974D01*
X249664Y155176D01*
X248799Y156230D01*
X247745Y157095D01*
X246543Y157738D01*
X245238Y158134D01*
X243881Y158267D01*
D02*
G37*
G36*
X204047Y158235D02*
X202691Y158101D01*
X201386Y157706D01*
X200184Y157063D01*
X199130Y156198D01*
X198265Y155144D01*
X197622Y153942D01*
X197226Y152637D01*
X197093Y151280D01*
X197226Y149923D01*
X197622Y148619D01*
X198265Y147416D01*
X199130Y146362D01*
X200184Y145498D01*
X201386Y144855D01*
X202691Y144459D01*
X204047Y144325D01*
X205404Y144459D01*
X206709Y144855D01*
X207911Y145498D01*
X208965Y146362D01*
X209830Y147416D01*
X210473Y148619D01*
X210869Y149923D01*
X211002Y151280D01*
X210869Y152637D01*
X210473Y153942D01*
X209830Y155144D01*
X208965Y156198D01*
X207911Y157063D01*
X206709Y157706D01*
X205404Y158101D01*
X204047Y158235D01*
D02*
G37*
G36*
X422944Y155462D02*
X420975D01*
X419618Y155328D01*
X418314Y154932D01*
X417111Y154289D01*
X416057Y153425D01*
X415193Y152371D01*
X414550Y151168D01*
X414154Y149864D01*
X414020Y148507D01*
X414154Y147150D01*
X414550Y145845D01*
X415193Y144643D01*
X416057Y143589D01*
X417111Y142724D01*
X418314Y142081D01*
X419618Y141686D01*
X420975Y141552D01*
X422944D01*
X424300Y141686D01*
X425605Y142081D01*
X426807Y142724D01*
X427861Y143589D01*
X428726Y144643D01*
X429369Y145845D01*
X429765Y147150D01*
X429898Y148507D01*
X429765Y149864D01*
X429369Y151168D01*
X428726Y152371D01*
X427861Y153425D01*
X426807Y154289D01*
X425605Y154932D01*
X424300Y155328D01*
X422944Y155462D01*
D02*
G37*
G36*
X-420975Y154759D02*
X-422944D01*
X-424301Y154626D01*
X-425605Y154230D01*
X-426808Y153587D01*
X-427861Y152722D01*
X-428726Y151668D01*
X-429369Y150466D01*
X-429765Y149161D01*
X-429899Y147805D01*
X-429765Y146448D01*
X-429369Y145143D01*
X-428726Y143941D01*
X-427861Y142887D01*
X-426808Y142022D01*
X-425605Y141379D01*
X-424301Y140983D01*
X-422944Y140850D01*
X-420975D01*
X-419619Y140983D01*
X-418314Y141379D01*
X-417111Y142022D01*
X-416057Y142887D01*
X-415193Y143941D01*
X-414550Y145143D01*
X-414154Y146448D01*
X-414020Y147805D01*
X-414154Y149161D01*
X-414550Y150466D01*
X-415193Y151668D01*
X-416057Y152722D01*
X-417111Y153587D01*
X-418314Y154230D01*
X-419619Y154626D01*
X-420975Y154759D01*
D02*
G37*
G36*
X589429Y141006D02*
X587460D01*
X586104Y140873D01*
X584799Y140477D01*
X583597Y139834D01*
X582543Y138969D01*
X581678Y137915D01*
X581035Y136713D01*
X580639Y135408D01*
X580506Y134051D01*
X580639Y132695D01*
X581035Y131390D01*
X581678Y130188D01*
X582543Y129134D01*
X583597Y128269D01*
X584799Y127626D01*
X586104Y127230D01*
X587460Y127097D01*
X589429D01*
X590786Y127230D01*
X592090Y127626D01*
X593293Y128269D01*
X594347Y129134D01*
X595212Y130188D01*
X595854Y131390D01*
X596250Y132695D01*
X596384Y134051D01*
X596250Y135408D01*
X595854Y136713D01*
X595212Y137915D01*
X594347Y138969D01*
X593293Y139834D01*
X592090Y140477D01*
X590786Y140873D01*
X589429Y141006D01*
D02*
G37*
G36*
X383110Y155429D02*
X381753Y155296D01*
X380449Y154900D01*
X379246Y154257D01*
X378192Y153392D01*
X377328Y152338D01*
X376685Y151136D01*
X376289Y149831D01*
X376155Y148475D01*
X376289Y147118D01*
X376685Y145813D01*
X377328Y144611D01*
X378192Y143557D01*
X379246Y142692D01*
X380449Y142049D01*
X381753Y141653D01*
X383110Y141520D01*
X384467Y141653D01*
X385772Y142049D01*
X386974Y142692D01*
X388028Y143557D01*
X388893Y144611D01*
X389536Y145813D01*
X389931Y147118D01*
X390065Y148475D01*
X389931Y149831D01*
X389536Y151136D01*
X388893Y152338D01*
X388028Y153392D01*
X386974Y154257D01*
X385772Y154900D01*
X384467Y155296D01*
X383110Y155429D01*
D02*
G37*
G36*
X-383110Y154792D02*
X-384467Y154658D01*
X-385772Y154262D01*
X-386974Y153620D01*
X-388028Y152755D01*
X-388893Y151701D01*
X-389536Y150498D01*
X-389931Y149194D01*
X-390065Y147837D01*
X-389931Y146480D01*
X-389536Y145175D01*
X-388893Y143973D01*
X-388028Y142919D01*
X-386974Y142054D01*
X-385772Y141411D01*
X-384467Y141016D01*
X-383110Y140882D01*
X-381753Y141016D01*
X-380449Y141411D01*
X-379246Y142054D01*
X-378193Y142919D01*
X-377328Y143973D01*
X-376685Y145175D01*
X-376289Y146480D01*
X-376156Y147837D01*
X-376289Y149194D01*
X-376685Y150498D01*
X-377328Y151701D01*
X-378193Y152755D01*
X-379246Y153620D01*
X-380449Y154262D01*
X-381753Y154658D01*
X-383110Y154792D01*
D02*
G37*
%LPD*%
D10*
X219587Y103642D02*
D03*
X227756Y126083D02*
D03*
X139272Y62402D02*
D03*
X105709Y16831D02*
D03*
X14764Y11909D02*
D03*
X-218996Y123031D02*
D03*
X-227264Y116142D02*
D03*
X-227362Y33071D02*
D03*
X-219094Y23425D02*
D03*
X-145374Y22736D02*
D03*
X-886Y282804D02*
D03*
Y226870D02*
D03*
X-2559Y166929D02*
D03*
X-1575Y127854D02*
D03*
X-2559Y82480D02*
D03*
X-1575Y41775D02*
D03*
X-106201Y16437D02*
D03*
X-526968Y239071D02*
D03*
X-511516Y213287D02*
D03*
X-533563Y179626D02*
D03*
X-476181Y112402D02*
D03*
X-503346Y140748D02*
D03*
X-589961Y144882D02*
D03*
X-539264Y146063D02*
D03*
X-495768Y98425D02*
D03*
X-496311Y41535D02*
D03*
X-581791Y-2756D02*
D03*
X-541142Y-6102D02*
D03*
X-536417Y-42809D02*
D03*
X-526870Y-97441D02*
D03*
X-515158Y-62992D02*
D03*
X-514862Y-23425D02*
D03*
X-300787Y44002D02*
D03*
X-282579Y-40551D02*
D03*
X-244193Y16339D02*
D03*
X-485138Y14370D02*
D03*
X-412303Y44390D02*
D03*
X-388779Y-16437D02*
D03*
Y42618D02*
D03*
X-344193Y54724D02*
D03*
X-319291Y54134D02*
D03*
X-266831Y76575D02*
D03*
X-259842Y89468D02*
D03*
X-318406Y90256D02*
D03*
X-412894Y96457D02*
D03*
X-402165Y160925D02*
D03*
X-388189Y133957D02*
D03*
X-353740Y100689D02*
D03*
X-309744D02*
D03*
X-245276Y128150D02*
D03*
X-244488Y171850D02*
D03*
X-284547Y180807D02*
D03*
X-241043Y245768D02*
D03*
X-256496Y199606D02*
D03*
X-118898Y389862D02*
D03*
X-197933Y383071D02*
D03*
X-226279Y381693D02*
D03*
X-209154Y360433D02*
D03*
X-143602Y367913D02*
D03*
X-225098Y229232D02*
D03*
X-235531Y304626D02*
D03*
X-212205Y238779D02*
D03*
X-182776Y253937D02*
D03*
X-203248Y172343D02*
D03*
X-202953Y131201D02*
D03*
X-200984Y100984D02*
D03*
X-156496Y82776D02*
D03*
X-111319Y82972D02*
D03*
X145866Y21358D02*
D03*
X129921Y-12303D02*
D03*
X154528Y82480D02*
D03*
X332776Y226772D02*
D03*
X238878Y238484D02*
D03*
X259842Y200984D02*
D03*
X224311Y212205D02*
D03*
X236024Y300689D02*
D03*
X229823Y383405D02*
D03*
X188467Y387303D02*
D03*
X117520Y371358D02*
D03*
X153937Y367913D02*
D03*
X205512Y364075D02*
D03*
X126476Y256693D02*
D03*
X181398Y250000D02*
D03*
X211417Y248622D02*
D03*
X202365Y177756D02*
D03*
X202461Y135425D02*
D03*
X202165Y106004D02*
D03*
X319291Y54134D02*
D03*
X343406Y55020D02*
D03*
X251181Y75984D02*
D03*
X296555Y75492D02*
D03*
X261614Y88287D02*
D03*
X313090Y88878D02*
D03*
X361115Y45177D02*
D03*
X411221Y113287D02*
D03*
X295768Y193996D02*
D03*
X279232Y181398D02*
D03*
X245571Y173819D02*
D03*
X244488Y103150D02*
D03*
X354035Y100984D02*
D03*
X384252Y135925D02*
D03*
X496949Y78839D02*
D03*
X532776Y181102D02*
D03*
X537008Y148819D02*
D03*
X514645Y198721D02*
D03*
X501673Y140453D02*
D03*
X479232Y120276D02*
D03*
X383996Y8661D02*
D03*
X406299Y35039D02*
D03*
X517520Y9646D02*
D03*
X535433Y-2756D02*
D03*
X511516Y-67716D02*
D03*
X210531Y-65808D02*
D03*
X221358Y-49705D02*
D03*
X203248Y-31299D02*
D03*
X203543Y23917D02*
D03*
X219587Y15748D02*
D03*
X227067Y27559D02*
D03*
X244488Y35138D02*
D03*
X247835Y-26870D02*
D03*
X289075Y-45276D02*
D03*
X182874Y-106693D02*
D03*
X230512Y-239173D02*
D03*
X163484Y-245374D02*
D03*
X190453Y-224606D02*
D03*
X238878Y-157972D02*
D03*
X230512Y-104134D02*
D03*
X-9350Y-24016D02*
D03*
X-5709Y-57087D02*
D03*
X-7972Y-77837D02*
D03*
X11909Y-82284D02*
D03*
X11319Y-39961D02*
D03*
X20079Y-14469D02*
D03*
X-140551Y1575D02*
D03*
X-129331Y-12205D02*
D03*
X-231988Y-105709D02*
D03*
X-236319Y-158661D02*
D03*
X-41331Y311043D02*
D03*
X-37394D02*
D03*
X-41339Y313890D02*
D03*
X-37402D02*
D03*
X-227264Y-20903D02*
D03*
X-310039Y-88238D02*
D03*
X-306102Y-84744D02*
D03*
X-125098Y62094D02*
D03*
X-309744Y232382D02*
D03*
X-306398Y229035D02*
D03*
X-227362Y164665D02*
D03*
X-219783Y164665D02*
D03*
X-138878Y235531D02*
D03*
X-138882Y253351D02*
D03*
X-249803Y346457D02*
D03*
X-141141Y386024D02*
D03*
X-141141Y391240D02*
D03*
X-572047Y124606D02*
D03*
X-535138Y219305D02*
D03*
X-529626Y219483D02*
D03*
X-576575Y125501D02*
D03*
X136221Y235925D02*
D03*
X141339Y235827D02*
D03*
X-249803Y351969D02*
D03*
X-220669Y-20571D02*
D03*
X-250394Y-208169D02*
D03*
X-250000Y-202658D02*
D03*
X-141535Y-247933D02*
D03*
X-140748Y-242717D02*
D03*
X-141142Y-92126D02*
D03*
X-136417Y-92618D02*
D03*
X-410925Y4331D02*
D03*
X-405118Y4232D02*
D03*
X-410630Y138966D02*
D03*
X-405413Y138976D02*
D03*
X-119587Y62250D02*
D03*
X-577264Y18996D02*
D03*
X-571752Y18898D02*
D03*
X-345079Y75886D02*
D03*
Y68209D02*
D03*
X-476772Y68701D02*
D03*
X-476673Y64173D02*
D03*
X-535138Y-76476D02*
D03*
X-529724D02*
D03*
X-8071Y-102461D02*
D03*
X-2756Y-102362D02*
D03*
X-8366Y-7776D02*
D03*
X-8268Y-3445D02*
D03*
X310039Y-88287D02*
D03*
X306102Y-84744D02*
D03*
X529724Y-76476D02*
D03*
X535138D02*
D03*
X476673Y64173D02*
D03*
X476772Y68701D02*
D03*
X345079Y68209D02*
D03*
Y75886D02*
D03*
X571752Y18898D02*
D03*
X577264Y18996D02*
D03*
X529626Y220079D02*
D03*
X535138Y219980D02*
D03*
X572047Y125098D02*
D03*
X576575Y125886D02*
D03*
X306398Y229035D02*
D03*
X309744Y232382D02*
D03*
X119587Y62697D02*
D03*
X125098D02*
D03*
X405413Y139370D02*
D03*
X410630Y139469D02*
D03*
X405118Y4232D02*
D03*
X410925Y4331D02*
D03*
X136417Y-92618D02*
D03*
X141142Y-92126D02*
D03*
X140748Y-242717D02*
D03*
X141535Y-247933D02*
D03*
X250000Y-202658D02*
D03*
X250394Y-208169D02*
D03*
X220669Y-20571D02*
D03*
X227264Y-20669D02*
D03*
X219783Y164665D02*
D03*
X227362D02*
D03*
X249803Y346457D02*
D03*
Y351969D02*
D03*
X141142Y386024D02*
D03*
X141142Y391240D02*
D03*
M02*
