M48
;Layer_Color=9474304
;FILE_FORMAT=2:5
INCH,LZ
;TYPE=PLATED
T3F00S00C0.09843
%
G90
G05
T03
G00X024189Y-0220604
M15
G01X024172Y-0218643
M16
G00X0132902Y-0260454
M15
G01X013273Y-0258493
M16
G00X-0132902Y-0260675
M15
G01X-013273Y-0258714
M16
G00X-024189Y-0221006
M15
G01X-024172Y-0219045
M16
G00X-0547177Y-0085417
M15
G01X-0545209
M16
G00X-0324707Y-0091397
M15
G01X-0323343Y-0089978
M16
G00X-0123995Y-0101762
M15
G01X-0125962Y-0101685
M16
G00X001844Y-0111161
M15
G01X0020409
M16
G00X0123995Y-0101553
M15
G01X0125962Y-0101477
M16
G00X0324735Y-009083
M15
G01X0323315Y-0089466
M16
G00X0545208Y-0084507
M15
G01X0547177
M16
G00X058746Y0010062
M15
G01X0589429
M16
G00X0485021Y0051572
M15
G01Y005354
M16
G00X0420975Y-000467
M15
G01X0422944
M16
G00X0331732Y0051444
M15
G01Y0053413
M16
G00X0241913Y-0007774
M15
G01X0243881
M16
G00X0146083Y007169
M15
G01X0148051
M16
G00X001844Y0000016
M15
G01X0020409
M16
G00X-0148051Y0071445
M15
G01X-0146083
M16
G00X-0243881Y-0008178
M15
G01X-0241913
M16
G00X-0331732Y0050892
M15
G01Y0052861
M16
G00X-0422944Y-0005372
M15
G01X-0420975
M16
G00X-0485021Y0050765
M15
G01Y0052733
M16
G00X-0589429Y0009083
M15
G01X-0587461
M16
G00X-0589429Y0133072
M15
G01X-0587461
M16
G00X-0547177Y0227642
M15
G01X-0545209
M16
G00X-0422944Y0147805
M15
G01X-0420975
M16
G00X-0324735Y0233965
M15
G01X-0323316Y0232601
M16
G00X-0243881Y0150908
M15
G01X-0241913
M16
G00X-0123995Y0244688
M15
G01X-0125962Y0244611
M16
G00X0125962Y0244819
M15
G01X0123995Y0244896
M16
G00X0241913Y0151313
M15
G01X0243881
M16
G00X0323315Y023314
M15
G01X0324735Y0234504
M16
G00X0420975Y0148507
M15
G01X0422944
M16
G00X058746Y0134051
M15
G01X0589429
M16
G00X0545208Y0228551
M15
G01X0547177
M16
G00X024172Y036218
M15
G01X024189Y0364141
M16
G00X013273Y0401849
M15
G01X0132902Y040381
M16
G00X-0132902Y0403589
M15
G01X-013273Y0401628
M16
G00X-024189Y0363738
M15
G01X-024172Y0361777
M16
M17
M30
