M48
;Layer_Color=9474304
;FILE_FORMAT=2:5
INCH,LZ
;TYPE=PLATED
T1F00S00C0.01000
T2F00S00C0.09843
%
T01
X0163484Y-0245374
X0190453Y-0224606
X0230512Y-0239173
X0250394Y-0208169
X025Y-0202658
X0140748Y-0242717
X0141535Y-0247933
X-0141535
X-0140748Y-0242717
X-0250394Y-0208169
X-025Y-0202658
X-052687Y-0097441
X-0529724Y-0076476
X-0535138
X-0515158Y-0062992
X-0536417Y-0042809
X-0282579Y-0040551
X-0306102Y-0084744
X-0310039Y-0088238
X-0231988Y-0105709
X-0236319Y-0158661
X-0141142Y-0092126
X-0136417Y-0092618
X-0008071Y-0102461
X-0002756Y-0102362
X-0007972Y-0077837
X-0005709Y-0057087
X0011319Y-0039961
X0011909Y-0082284
X0136417Y-0092618
X0141142Y-0092126
X0182874Y-0106693
X0230512Y-0104134
X0210531Y-0065808
X0221358Y-0049705
X0289075Y-0045276
X0306102Y-0084744
X0310039Y-0088287
X0238878Y-0157972
X0511516Y-0067716
X0529724Y-0076476
X0535138
X0535433Y-0002756
X051752Y0009646
X0571752Y0018898
X0577264Y0018996
X0496949Y0078839
X0476772Y0068701
X0476673Y0064173
X0479232Y0120276
X0411221Y0113287
X0354035Y0100984
X0345079Y0075886
Y0068209
X0343406Y005502
X0319291Y0054134
X0361115Y0045177
X0406299Y0035039
X0405118Y0004232
X0410925Y0004331
X0383996Y0008661
X031309Y0088878
X0296555Y0075492
X0251181Y0075984
X0261614Y0088287
X0244488Y010315
X0219587Y0103642
X0202165Y0106004
X0203543Y0023917
X0219587Y0015748
X0227067Y0027559
X0244488Y0035138
X0247835Y-002687
X0227264Y-0020669
X0220669Y-0020571
X0203248Y-0031299
X0129921Y-0012303
X0145866Y0021358
X0105709Y0016831
X0119587Y0062697
X0125098
X0139272Y0062402
X0154528Y008248
X0014764Y0011909
X0020079Y-0014469
X-0008366Y-0007776
X-0008268Y-0003445
X-000935Y-0024016
X-0001575Y0041775
X-0002559Y008248
X-0111319Y0082972
X-0119587Y006225
X-0125098Y0062094
X-0145374Y0022736
X-0140551Y0001575
X-0129331Y-0012205
X-0106201Y0016437
X-0156496Y0082776
X-0200984Y0100984
X-0227264Y0116142
X-0259842Y0089468
X-0266831Y0076575
X-0300787Y0044002
X-0309744Y0100689
X-0244193Y0016339
X-0219094Y0023425
X-0227362Y0033071
X-0227264Y-0020903
X-0220669Y-0020571
X-0388779Y-0016437
X-0405118Y0004232
X-0410925Y0004331
X-0412303Y004439
X-0388779Y0042618
X-0344193Y0054724
X-0345079Y0068209
Y0075886
X-035374Y0100689
X-0318406Y0090256
X-0319291Y0054134
X-0412894Y0096457
X-0476181Y0112402
X-0495768Y0098425
X-0476772Y0068701
X-0476673Y0064173
X-0496311Y0041535
X-0485138Y001437
X-0514862Y-0023425
X-0541142Y-0006102
X-0581791Y-0002756
X-0577264Y0018996
X-0571752Y0018898
X-0572047Y0124606
X-0576575Y0125501
X-0589961Y0144882
X-0539264Y0146063
X-0533563Y0179626
X-0535138Y0219305
X-0529626Y0219483
X-0526968Y0239071
X-0511516Y0213287
X-0503346Y0140748
X-041063Y0138966
X-0405413Y0138976
X-0388189Y0133957
X-0402165Y0160925
X-0284547Y0180807
X-0256496Y0199606
X-0244488Y017185
X-0227362Y0164665
X-0219783Y0164665
X-0203248Y0172343
X-0202953Y0131201
X-0218996Y0123031
X-0245276Y012815
X-0225098Y0229232
X-0212205Y0238779
X-0241043Y0245768
X-0182776Y0253937
X-0309744Y0232382
X-0306398Y0229035
X-0138878Y0235531
X-0138882Y0253351
X-0000886Y022687
X-0002559Y0166929
X-0001575Y0127854
X0136221Y0235925
X0141339Y0235827
X0126476Y0256693
X0181398Y025
X0211417Y0248622
X0238878Y0238484
X0224311Y0212205
X0259842Y0200984
X0279232Y0181398
X0295768Y0193996
X0306398Y0229035
X0309744Y0232382
X0245571Y0173819
X0227362Y0164665
X0219783
X0202365Y0177756
X0202461Y0135425
X0227756Y0126083
X0384252Y0135925
X0405413Y013937
X041063Y0139469
X0332776Y0226772
X0529626Y0220079
X0535138Y021998
X0532776Y0181102
X0514645Y0198721
X0501673Y0140453
X0537008Y0148819
X0572047Y0125098
X0576575Y0125886
X0236024Y0300689
X0249803Y0346457
Y0351969
X0229823Y0383405
X0205512Y0364075
X0188467Y0387303
X0141142Y0386024
X0141142Y039124
X0153937Y0367913
X011752Y0371358
X-0000886Y0282804
X-0037394Y0311043
X-0037402Y031389
X-0041339
X-0041331Y0311043
X-0118898Y0389862
X-0141141Y039124
X-0141141Y0386024
X-0143602Y0367913
X-0197933Y0383071
X-0226279Y0381693
X-0209154Y0360433
X-0249803Y0351969
X-0249803Y0346457
X-0235531Y0304626
T02
X0129427Y-0220795
X-0129428Y-0221011
X-0507343Y-0085384
X-0296033Y-006374
X-0163798Y-0100238
X-0238417Y-0181342
X-0019425Y-0111193
X0163798Y-0099966
X0238417Y-0180945
X0296033Y-0063247
X0507343Y-008454
X0549595Y001003
X0485021Y0091386
X0331732Y0091258
X038311Y-0004702
X0204047Y-0007806
X0108218Y0071657
X-0019425Y-0000016
X-0108218Y0071477
X-0204048Y-0008146
X-038311Y-000534
X-0331732Y0090706
X-0485021Y0090578
X-0549595Y0009115
Y0133104
X-0507343Y0227674
X-038311Y0147837
X-0296033Y0206382
X-0204048Y0150941
X-0163798Y02431
X0163798Y0243373
X0204047Y015128
X0296033Y0206874
X038311Y0148475
X0549595Y0134019
X0507343Y0228519
X0238417Y0324476
X0129427Y0364145
X-0129428Y036393
X-0238417Y0324079
M30
