%FSLAX25Y25*%
%MOIN*%
G70*
G01*
G75*
G04 Layer_Color=16711935*
%ADD10R,0.05500X0.08000*%
%ADD11R,0.12000X0.15000*%
%ADD12R,0.01500X0.02000*%
%ADD13R,0.02000X0.01500*%
%ADD14R,0.01575X0.01969*%
%ADD15R,0.02500X0.03000*%
%ADD16R,0.02000X0.02000*%
%ADD17R,0.00984X0.01969*%
%ADD18R,0.04331X0.04724*%
%ADD19R,0.03937X0.06299*%
%ADD20R,0.01575X0.01850*%
%ADD21R,0.06693X0.03740*%
%ADD22R,0.01575X0.01850*%
%ADD23R,0.01181X0.02598*%
%ADD24R,0.01575X0.01929*%
%ADD25R,0.01181X0.01929*%
%ADD26R,0.14961X0.12047*%
%ADD27R,0.02756X0.01575*%
%ADD28C,0.02000*%
%ADD29C,0.02500*%
%ADD30C,0.01000*%
%ADD31C,0.01500*%
%ADD32C,0.00800*%
%ADD33C,0.04000*%
%ADD34C,0.00700*%
%ADD35C,0.00500*%
%ADD36C,0.00600*%
%ADD37C,0.01200*%
%ADD38R,0.01969X0.00787*%
%ADD39R,0.04134X0.05512*%
%ADD40C,0.08268*%
%ADD41O,0.17716X0.06299*%
%ADD42O,0.06299X0.15748*%
%ADD43O,0.15748X0.06299*%
%ADD44C,0.02000*%
%ADD45C,0.05000*%
%ADD46C,0.04000*%
%ADD47C,0.00394*%
%ADD48C,0.00591*%
%ADD49R,0.01673X0.01673*%
%ADD50R,0.06693X0.05118*%
%ADD51R,0.06093X0.03140*%
%ADD52R,0.01378X0.01654*%
%ADD53R,0.00984X0.02402*%
%ADD54R,0.02362X0.01181*%
%ADD55R,0.03500X0.06000*%
%ADD56R,0.12787X0.15787*%
%ADD57R,0.01900X0.02400*%
%ADD58R,0.02400X0.01900*%
%ADD59R,0.01975X0.02369*%
%ADD60R,0.02900X0.03400*%
%ADD61R,0.02400X0.02400*%
%ADD62R,0.01378X0.02362*%
%ADD63R,0.04731X0.05124*%
%ADD64R,0.04337X0.06699*%
%ADD65R,0.01975X0.02250*%
%ADD66R,0.07093X0.04140*%
%ADD67R,0.02135X0.02410*%
%ADD68R,0.01741X0.03158*%
%ADD69R,0.01775X0.02129*%
%ADD70R,0.01381X0.02129*%
%ADD71R,0.15161X0.12247*%
%ADD72R,0.03150X0.01969*%
%ADD73R,0.02362X0.01181*%
%ADD74C,0.05118*%
%ADD75C,0.00800*%
%ADD76C,0.09068*%
%ADD77C,0.01400*%
%ADD78C,0.05800*%
D30*
X0Y0D02*
Y124700D01*
X77900D01*
Y0D02*
Y124700D01*
X0Y0D02*
X77900D01*
D39*
X28220Y18608D02*
D03*
D41*
X53200Y39709D02*
D03*
D42*
X71704Y27111D02*
D03*
D43*
X53200Y15300D02*
D03*
D55*
X20800Y48200D02*
D03*
X27300Y80200D02*
D03*
X7800D02*
D03*
X14300D02*
D03*
X33800Y96700D02*
D03*
X20800Y80200D02*
D03*
X7800Y48200D02*
D03*
X14300D02*
D03*
X27300D02*
D03*
D56*
X7800Y100100D02*
D03*
Y28300D02*
D03*
D57*
X44200Y59000D02*
D03*
X48200D02*
D03*
X66000Y73100D02*
D03*
X70000D02*
D03*
X49800Y79800D02*
D03*
X53800D02*
D03*
Y74200D02*
D03*
X49800D02*
D03*
X47100Y73300D02*
D03*
X43100D02*
D03*
X69300Y48200D02*
D03*
X65300D02*
D03*
X28000Y7407D02*
D03*
X32000D02*
D03*
D58*
X53000Y65300D02*
D03*
Y69300D02*
D03*
Y58800D02*
D03*
Y62800D02*
D03*
Y52500D02*
D03*
Y56500D02*
D03*
X38700Y63200D02*
D03*
Y67200D02*
D03*
X35700Y60300D02*
D03*
Y56300D02*
D03*
D59*
X59700Y80240D02*
D03*
X57141D02*
D03*
X62259D02*
D03*
X57141Y72760D02*
D03*
X59700D02*
D03*
X62259D02*
D03*
X45600Y62160D02*
D03*
X48159D02*
D03*
X43041D02*
D03*
X48159Y69640D02*
D03*
X45600D02*
D03*
X43041D02*
D03*
D60*
X56600Y49000D02*
D03*
X61600D02*
D03*
X32000Y11507D02*
D03*
X27000D02*
D03*
D61*
X39600Y60300D02*
D03*
Y56300D02*
D03*
X37700Y53500D02*
D03*
Y49500D02*
D03*
D62*
X29379Y72200D02*
D03*
X26820D02*
D03*
X24579Y34600D02*
D03*
X22020D02*
D03*
D63*
X29843Y59100D02*
D03*
X22757D02*
D03*
D64*
X20895Y66200D02*
D03*
X32706D02*
D03*
D65*
X48659Y47898D02*
D03*
X46100D02*
D03*
X43541D02*
D03*
X46100Y55102D02*
D03*
X43541D02*
D03*
X48659D02*
D03*
D66*
X46100Y51500D02*
D03*
D67*
X32059Y22200D02*
D03*
X29500D02*
D03*
X32059Y15015D02*
D03*
X29500Y15013D02*
D03*
X26941Y22200D02*
D03*
Y15013D02*
D03*
D68*
X32059Y18608D02*
D03*
D69*
X59679Y52483D02*
D03*
D70*
X61647D02*
D03*
X63616D02*
D03*
X65584D02*
D03*
X67553D02*
D03*
X69521D02*
D03*
Y67877D02*
D03*
X67553D02*
D03*
X65584D02*
D03*
X63616D02*
D03*
X61647D02*
D03*
X59679D02*
D03*
D71*
X64600Y60200D02*
D03*
D72*
X67300Y79578D02*
D03*
Y76822D02*
D03*
D73*
X29871Y72200D02*
D03*
X26329D02*
D03*
X25071Y34600D02*
D03*
X21529D02*
D03*
D74*
X17717Y104685D02*
D03*
Y20039D02*
D03*
D75*
X45326Y108952D02*
D03*
X65011D02*
D03*
D76*
X69342Y87298D02*
D03*
X43358Y95172D02*
D03*
X53200Y110921D02*
D03*
D77*
X18400Y59100D02*
D03*
X25200Y64800D02*
D03*
Y67500D02*
D03*
X41800Y79300D02*
D03*
X52100Y49600D02*
D03*
X50500Y71600D02*
D03*
X40500Y53000D02*
D03*
Y50200D02*
D03*
Y47450D02*
D03*
X65300Y45700D02*
D03*
X61600Y46000D02*
D03*
X71900Y68500D02*
D03*
X50500Y60900D02*
D03*
X47500Y66600D02*
D03*
X5300Y119900D02*
D03*
X30000D02*
D03*
X5300Y5600D02*
D03*
X27000Y95200D02*
D03*
X71100Y118000D02*
D03*
X56200Y68700D02*
D03*
X43000Y66100D02*
D03*
X71000Y75600D02*
D03*
X70400Y79500D02*
D03*
X58200Y83400D02*
D03*
X35500Y22200D02*
D03*
Y18800D02*
D03*
X25600Y7400D02*
D03*
X39300Y69700D02*
D03*
D78*
X7500Y103600D02*
D03*
Y96100D02*
D03*
Y32200D02*
D03*
Y24700D02*
D03*
M02*
