%FSLAX25Y25*%
%MOIN*%
G70*
G01*
G75*
G04 Layer_Color=32896*
%ADD10R,0.05500X0.08000*%
%ADD11R,0.12000X0.15000*%
%ADD12R,0.01500X0.02000*%
%ADD13R,0.02000X0.01500*%
%ADD14R,0.01575X0.01969*%
%ADD15R,0.02500X0.03000*%
%ADD16R,0.02000X0.02000*%
%ADD17R,0.00984X0.01969*%
%ADD18R,0.04331X0.04724*%
%ADD19R,0.03937X0.06299*%
%ADD20R,0.01575X0.01850*%
%ADD21R,0.06693X0.03740*%
%ADD22R,0.01575X0.01850*%
%ADD23R,0.01181X0.02598*%
%ADD24R,0.01575X0.01929*%
%ADD25R,0.01181X0.01929*%
%ADD26R,0.14961X0.12047*%
%ADD27R,0.02756X0.01575*%
%ADD28C,0.02000*%
%ADD29C,0.02500*%
%ADD30C,0.01000*%
%ADD31C,0.01500*%
%ADD32C,0.00800*%
%ADD33C,0.04000*%
%ADD34C,0.00700*%
%ADD35C,0.00500*%
%ADD36C,0.00600*%
%ADD37C,0.01200*%
%ADD38R,0.01969X0.00787*%
%ADD39R,0.04134X0.05512*%
%ADD40C,0.08268*%
%ADD41O,0.17716X0.06299*%
%ADD42O,0.06299X0.15748*%
%ADD43O,0.15748X0.06299*%
%ADD44C,0.02000*%
%ADD45C,0.05000*%
%ADD46C,0.04000*%
%ADD47C,0.00394*%
%ADD48C,0.00591*%
%ADD49R,0.01673X0.01673*%
%ADD50R,0.06693X0.05118*%
%ADD51R,0.06093X0.03140*%
%ADD52R,0.01378X0.01654*%
%ADD53R,0.00984X0.02402*%
%ADD54R,0.02362X0.01181*%
%ADD55R,0.03500X0.06000*%
%ADD56R,0.12787X0.15787*%
%ADD57R,0.01900X0.02400*%
%ADD58R,0.02400X0.01900*%
%ADD59R,0.01975X0.02369*%
%ADD60R,0.02900X0.03400*%
%ADD61R,0.02400X0.02400*%
%ADD62R,0.01378X0.02362*%
%ADD63R,0.04731X0.05124*%
%ADD64R,0.04337X0.06699*%
%ADD65R,0.01975X0.02250*%
%ADD66R,0.07093X0.04140*%
%ADD67R,0.02135X0.02410*%
%ADD68R,0.01741X0.03158*%
%ADD69R,0.01775X0.02129*%
%ADD70R,0.01381X0.02129*%
%ADD71R,0.15161X0.12247*%
%ADD72R,0.03150X0.01969*%
%ADD73R,0.02362X0.01181*%
%ADD74C,0.05118*%
%ADD75C,0.00800*%
%ADD76C,0.09068*%
%ADD77C,0.01400*%
%ADD78C,0.05800*%
%ADD79C,0.04800*%
D36*
X40100Y75399D02*
X38500D01*
X39300D01*
Y73000D01*
X37701D02*
Y75399D01*
X36501D01*
X36101Y74999D01*
Y74200D01*
X36501Y73800D01*
X37701D01*
X35302Y73000D02*
X34502D01*
X34902D01*
Y75399D01*
X35302Y74999D01*
X33302Y73000D02*
X32502D01*
X32902D01*
Y75399D01*
X33302Y74999D01*
X67500Y72399D02*
X65900D01*
X66700D01*
Y70000D01*
X65101D02*
Y72399D01*
X63901D01*
X63501Y71999D01*
Y71200D01*
X63901Y70800D01*
X65101D01*
X62702Y70000D02*
X61902D01*
X62302D01*
Y72399D01*
X62702Y71999D01*
X60702D02*
X60302Y72399D01*
X59503D01*
X59103Y71999D01*
Y70400D01*
X59503Y70000D01*
X60302D01*
X60702Y70400D01*
Y71999D01*
X54800Y54199D02*
X53201D01*
X54000D01*
Y51800D01*
X52401D02*
Y54199D01*
X51201D01*
X50801Y53799D01*
Y53000D01*
X51201Y52600D01*
X52401D01*
X50002Y52200D02*
X49602Y51800D01*
X48802D01*
X48402Y52200D01*
Y53799D01*
X48802Y54199D01*
X49602D01*
X50002Y53799D01*
Y53399D01*
X49602Y53000D01*
X48402D01*
X32900Y49599D02*
X31301D01*
X32100D01*
Y47200D01*
X30501D02*
Y49599D01*
X29301D01*
X28901Y49199D01*
Y48400D01*
X29301Y48000D01*
X30501D01*
X28102Y49199D02*
X27702Y49599D01*
X26902D01*
X26502Y49199D01*
Y48799D01*
X26902Y48400D01*
X26502Y48000D01*
Y47600D01*
X26902Y47200D01*
X27702D01*
X28102Y47600D01*
Y48000D01*
X27702Y48400D01*
X28102Y48799D01*
Y49199D01*
X27702Y48400D02*
X26902D01*
X72800Y62499D02*
X71201D01*
X72000D01*
Y60100D01*
X70401D02*
Y62499D01*
X69201D01*
X68801Y62099D01*
Y61300D01*
X69201Y60900D01*
X70401D01*
X68002Y60100D02*
X67202D01*
X67602D01*
Y62499D01*
X68002Y62099D01*
X72100Y102399D02*
X70500D01*
X71300D01*
Y100000D01*
X69701D02*
Y102399D01*
X68501D01*
X68101Y101999D01*
Y101200D01*
X68501Y100800D01*
X69701D01*
X65702Y100000D02*
X67302D01*
X65702Y101600D01*
Y101999D01*
X66102Y102399D01*
X66902D01*
X67302Y101999D01*
X74800Y45799D02*
X73201D01*
X74000D01*
Y43400D01*
X72401D02*
Y45799D01*
X71201D01*
X70801Y45399D01*
Y44600D01*
X71201Y44200D01*
X72401D01*
X70002Y45399D02*
X69602Y45799D01*
X68802D01*
X68402Y45399D01*
Y45000D01*
X68802Y44600D01*
X69202D01*
X68802D01*
X68402Y44200D01*
Y43800D01*
X68802Y43400D01*
X69602D01*
X70002Y43800D01*
X51600Y85599D02*
X50001D01*
X50800D01*
Y83200D01*
X49201D02*
Y85599D01*
X48001D01*
X47601Y85199D01*
Y84400D01*
X48001Y84000D01*
X49201D01*
X45602Y83200D02*
Y85599D01*
X46802Y84400D01*
X45202D01*
X56500Y30399D02*
X54900D01*
X55700D01*
Y28000D01*
X54101D02*
Y30399D01*
X52901D01*
X52501Y29999D01*
Y29200D01*
X52901Y28800D01*
X54101D01*
X50102Y30399D02*
X51702D01*
Y29200D01*
X50902Y29599D01*
X50502D01*
X50102Y29200D01*
Y28400D01*
X50502Y28000D01*
X51302D01*
X51702Y28400D01*
X61300Y102899D02*
X59701D01*
X60500D01*
Y100500D01*
X58901D02*
Y102899D01*
X57701D01*
X57301Y102499D01*
Y101700D01*
X57701Y101300D01*
X58901D01*
X54902Y102899D02*
X55702Y102499D01*
X56502Y101700D01*
Y100900D01*
X56102Y100500D01*
X55302D01*
X54902Y100900D01*
Y101300D01*
X55302Y101700D01*
X56502D01*
X39700Y65799D02*
X38100D01*
X38900D01*
Y63400D01*
X37301D02*
Y65799D01*
X36101D01*
X35701Y65399D01*
Y64600D01*
X36101Y64200D01*
X37301D01*
X34902Y65799D02*
X33302D01*
Y65399D01*
X34902Y63800D01*
Y63400D01*
M02*
