%FSLAX25Y25*%
%MOIN*%
G70*
G01*
G75*
G04 Layer_Color=32768*
%ADD10R,0.05500X0.08000*%
%ADD11R,0.12000X0.15000*%
%ADD12R,0.01500X0.02000*%
%ADD13R,0.02000X0.01500*%
%ADD14R,0.01575X0.01969*%
%ADD15R,0.02500X0.03000*%
%ADD16R,0.02000X0.02000*%
%ADD17R,0.00984X0.01969*%
%ADD18R,0.04331X0.04724*%
%ADD19R,0.03937X0.06299*%
%ADD20R,0.01575X0.01850*%
%ADD21R,0.06693X0.03740*%
%ADD22R,0.01575X0.01850*%
%ADD23R,0.01181X0.02598*%
%ADD24R,0.01575X0.01929*%
%ADD25R,0.01181X0.01929*%
%ADD26R,0.14961X0.12047*%
%ADD27R,0.02756X0.01575*%
%ADD28C,0.02000*%
%ADD29C,0.02500*%
%ADD30C,0.01000*%
%ADD31C,0.01500*%
%ADD32C,0.00800*%
%ADD33C,0.04000*%
%ADD34C,0.00700*%
%ADD35C,0.00500*%
%ADD36C,0.00600*%
%ADD37C,0.01200*%
%ADD38R,0.01969X0.00787*%
%ADD39R,0.04134X0.05512*%
%ADD40C,0.08268*%
%ADD41O,0.17716X0.06299*%
%ADD42O,0.06299X0.15748*%
%ADD43O,0.15748X0.06299*%
%ADD44C,0.02000*%
%ADD45C,0.05000*%
%ADD46C,0.04000*%
%ADD47C,0.00394*%
%ADD48C,0.00591*%
%ADD49R,0.01673X0.01673*%
%ADD50R,0.06693X0.05118*%
%ADD51R,0.06093X0.03140*%
%ADD52R,0.01378X0.01654*%
%ADD53R,0.00984X0.02402*%
%ADD54R,0.02362X0.01181*%
%ADD55R,0.03500X0.06000*%
%ADD56R,0.12787X0.15787*%
%ADD57R,0.01900X0.02400*%
%ADD58R,0.02400X0.01900*%
%ADD59R,0.01975X0.02369*%
%ADD60R,0.02900X0.03400*%
%ADD61R,0.02400X0.02400*%
%ADD62R,0.01378X0.02362*%
%ADD63R,0.04731X0.05124*%
%ADD64R,0.04337X0.06699*%
%ADD65R,0.01975X0.02250*%
%ADD66R,0.07093X0.04140*%
%ADD67R,0.02135X0.02410*%
%ADD68R,0.01741X0.03158*%
%ADD69R,0.01775X0.02129*%
%ADD70R,0.01381X0.02129*%
%ADD71R,0.15161X0.12247*%
%ADD72R,0.03150X0.01969*%
%ADD73R,0.02362X0.01181*%
%ADD74C,0.05118*%
%ADD75C,0.00800*%
%ADD76C,0.09068*%
%ADD77C,0.01400*%
%ADD78C,0.05800*%
%ADD79C,0.04800*%
%ADD80C,0.00100*%
G36*
X30107Y12115D02*
X30130Y12113D01*
X30157Y12110D01*
X30183Y12105D01*
X30208Y12100D01*
X30211D01*
X30220Y12097D01*
X30231Y12094D01*
X30248Y12087D01*
X30266Y12080D01*
X30286Y12072D01*
X30308Y12060D01*
X30328Y12049D01*
X30331Y12047D01*
X30338Y12042D01*
X30348Y12034D01*
X30361Y12022D01*
X30374Y12009D01*
X30389Y11994D01*
X30404Y11976D01*
X30416Y11956D01*
X30417Y11954D01*
X30421Y11946D01*
X30426Y11934D01*
X30431Y11919D01*
X30436Y11901D01*
X30441Y11879D01*
X30444Y11856D01*
X30446Y11830D01*
Y11828D01*
Y11825D01*
Y11820D01*
X30444Y11813D01*
X30442Y11795D01*
X30437Y11770D01*
X30429Y11743D01*
X30416Y11713D01*
X30397Y11683D01*
X30387Y11670D01*
X30374Y11655D01*
X30371Y11652D01*
X30362Y11644D01*
X30348Y11630D01*
X30328Y11617D01*
X30303Y11601D01*
X30276Y11586D01*
X30245Y11572D01*
X30210Y11562D01*
Y11551D01*
X30211D01*
X30216Y11549D01*
X30225Y11547D01*
X30235Y11546D01*
X30248Y11542D01*
X30263Y11537D01*
X30279Y11531D01*
X30298Y11524D01*
X30299Y11523D01*
X30306Y11521D01*
X30316Y11516D01*
X30328Y11511D01*
X30354Y11494D01*
X30381Y11474D01*
X30382Y11473D01*
X30387Y11468D01*
X30394Y11461D01*
X30404Y11451D01*
X30414Y11438D01*
X30426Y11423D01*
X30436Y11405D01*
X30446Y11386D01*
X30447Y11385D01*
X30449Y11376D01*
X30454Y11366D01*
X30459Y11350D01*
X30462Y11332D01*
X30467Y11308D01*
X30469Y11282D01*
X30470Y11252D01*
Y11250D01*
Y11249D01*
Y11239D01*
X30469Y11222D01*
X30467Y11202D01*
X30464Y11180D01*
X30457Y11154D01*
X30450Y11129D01*
X30441Y11102D01*
X30439Y11099D01*
X30436Y11091D01*
X30429Y11078D01*
X30419Y11063D01*
X30407Y11044D01*
X30392Y11024D01*
X30376Y11005D01*
X30358Y10985D01*
X30354Y10983D01*
X30346Y10975D01*
X30334Y10965D01*
X30316Y10953D01*
X30296Y10940D01*
X30271Y10927D01*
X30245Y10913D01*
X30215Y10902D01*
X30213D01*
X30211Y10900D01*
X30207D01*
X30200Y10898D01*
X30183Y10893D01*
X30162Y10888D01*
X30135Y10883D01*
X30105Y10880D01*
X30072Y10877D01*
X30037Y10875D01*
X30011D01*
X30001Y10877D01*
X29976Y10878D01*
X29946Y10880D01*
X29913Y10885D01*
X29878Y10890D01*
X29841Y10898D01*
X29840D01*
X29838Y10900D01*
X29833D01*
X29826Y10902D01*
X29808Y10907D01*
X29787Y10913D01*
X29762Y10922D01*
X29735Y10930D01*
X29710Y10940D01*
X29685Y10950D01*
Y11118D01*
X29697D01*
X29700Y11116D01*
X29708Y11109D01*
X29723Y11101D01*
X29742Y11091D01*
X29765Y11078D01*
X29793Y11066D01*
X29823Y11053D01*
X29856Y11041D01*
X29858D01*
X29861Y11039D01*
X29866Y11038D01*
X29873Y11036D01*
X29889Y11033D01*
X29913Y11028D01*
X29941Y11021D01*
X29971Y11018D01*
X30002Y11015D01*
X30034Y11013D01*
X30042D01*
X30054Y11015D01*
X30067D01*
X30084Y11016D01*
X30102Y11020D01*
X30142Y11029D01*
X30145Y11031D01*
X30152Y11033D01*
X30162Y11036D01*
X30175Y11043D01*
X30190Y11049D01*
X30205Y11058D01*
X30220Y11068D01*
X30235Y11079D01*
X30236Y11081D01*
X30241Y11086D01*
X30248Y11093D01*
X30255Y11102D01*
X30265Y11112D01*
X30273Y11126D01*
X30281Y11141D01*
X30290Y11156D01*
X30291Y11157D01*
X30293Y11164D01*
X30296Y11172D01*
X30299Y11186D01*
X30303Y11201D01*
X30304Y11219D01*
X30308Y11240D01*
Y11264D01*
Y11267D01*
Y11275D01*
X30306Y11287D01*
X30304Y11302D01*
X30303Y11318D01*
X30299Y11335D01*
X30293Y11353D01*
X30286Y11370D01*
X30285Y11371D01*
X30283Y11376D01*
X30278Y11385D01*
X30271Y11395D01*
X30263Y11405D01*
X30255Y11416D01*
X30243Y11426D01*
X30230Y11436D01*
X30228Y11438D01*
X30223Y11440D01*
X30215Y11445D01*
X30205Y11450D01*
X30191Y11456D01*
X30177Y11461D01*
X30160Y11466D01*
X30142Y11471D01*
X30140D01*
X30133Y11473D01*
X30123Y11474D01*
X30110Y11476D01*
X30094Y11478D01*
X30075Y11479D01*
X30054Y11481D01*
X29961D01*
Y11614D01*
X30027D01*
X30035Y11615D01*
X30046D01*
X30057Y11617D01*
X30085Y11620D01*
X30117Y11625D01*
X30148Y11635D01*
X30180Y11647D01*
X30210Y11664D01*
X30211D01*
X30213Y11665D01*
X30221Y11674D01*
X30233Y11685D01*
X30246Y11702D01*
X30260Y11723D01*
X30271Y11748D01*
X30279Y11778D01*
X30283Y11795D01*
Y11813D01*
Y11815D01*
Y11820D01*
X30281Y11828D01*
Y11838D01*
X30275Y11863D01*
X30270Y11876D01*
X30263Y11888D01*
Y11889D01*
X30260Y11893D01*
X30256Y11899D01*
X30250Y11908D01*
X30235Y11924D01*
X30213Y11941D01*
X30211Y11942D01*
X30207Y11944D01*
X30200Y11947D01*
X30191Y11952D01*
X30180Y11957D01*
X30167Y11962D01*
X30138Y11971D01*
X30137D01*
X30132Y11972D01*
X30123Y11974D01*
X30114Y11976D01*
X30100D01*
X30085Y11977D01*
X30069Y11979D01*
X30037D01*
X30022Y11977D01*
X30002Y11976D01*
X29977Y11972D01*
X29949Y11967D01*
X29919Y11961D01*
X29888Y11951D01*
X29886D01*
X29884Y11949D01*
X29880Y11947D01*
X29873Y11946D01*
X29856Y11939D01*
X29836Y11931D01*
X29811Y11921D01*
X29785Y11908D01*
X29755Y11893D01*
X29727Y11874D01*
X29720D01*
Y12040D01*
X29723Y12042D01*
X29730Y12045D01*
X29743Y12050D01*
X29760Y12057D01*
X29781Y12065D01*
X29808Y12074D01*
X29838Y12084D01*
X29871Y12092D01*
X29873D01*
X29876Y12094D01*
X29881D01*
X29888Y12095D01*
X29906Y12100D01*
X29929Y12105D01*
X29958Y12109D01*
X29987Y12113D01*
X30021Y12115D01*
X30054Y12117D01*
X30085D01*
X30107Y12115D01*
D02*
G37*
G36*
X53455Y67834D02*
Y67833D01*
Y67830D01*
Y67826D01*
Y67819D01*
Y67813D01*
Y67803D01*
X53454Y67783D01*
X53452Y67761D01*
X53450Y67737D01*
X53447Y67713D01*
X53443Y67690D01*
Y67689D01*
Y67688D01*
X53440Y67681D01*
X53438Y67669D01*
X53434Y67656D01*
X53428Y67638D01*
X53422Y67621D01*
X53414Y67603D01*
X53403Y67585D01*
X53402Y67583D01*
X53398Y67577D01*
X53390Y67567D01*
X53381Y67556D01*
X53369Y67543D01*
X53354Y67529D01*
X53338Y67516D01*
X53319Y67504D01*
X53317Y67503D01*
X53310Y67500D01*
X53299Y67495D01*
X53285Y67489D01*
X53267Y67484D01*
X53246Y67479D01*
X53221Y67476D01*
X53194Y67475D01*
X53184D01*
X53177Y67476D01*
X53168D01*
X53158Y67478D01*
X53134Y67482D01*
X53106Y67487D01*
X53077Y67496D01*
X53049Y67510D01*
X53021Y67527D01*
X53020D01*
X53019Y67529D01*
X53009Y67536D01*
X52997Y67548D01*
X52983Y67564D01*
X52965Y67584D01*
X52948Y67609D01*
X52931Y67638D01*
X52916Y67670D01*
X52500Y67310D01*
Y67475D01*
X52879Y67795D01*
Y67974D01*
X52500D01*
Y68100D01*
X53455D01*
Y67834D01*
D02*
G37*
G36*
X66155Y62060D02*
X66200Y62055D01*
X66255Y62050D01*
X66315Y62045D01*
X66380Y62030D01*
X66515Y62000D01*
X66660Y61950D01*
X66730Y61920D01*
X66800Y61885D01*
X66865Y61845D01*
X66925Y61795D01*
X66930Y61790D01*
X66940Y61785D01*
X66955Y61770D01*
X66975Y61745D01*
X67000Y61720D01*
X67025Y61685D01*
X67055Y61650D01*
X67085Y61605D01*
X67110Y61555D01*
X67140Y61505D01*
X67165Y61445D01*
X67190Y61380D01*
X67210Y61310D01*
X67225Y61235D01*
X67235Y61160D01*
X67240Y61075D01*
Y61065D01*
Y61040D01*
X67235Y61000D01*
Y60950D01*
X67225Y60890D01*
X67215Y60825D01*
X67205Y60760D01*
X67185Y60690D01*
Y60680D01*
X67175Y60660D01*
X67165Y60625D01*
X67150Y60585D01*
X67125Y60530D01*
X67100Y60475D01*
X67035Y60355D01*
X67030Y60350D01*
X67020Y60330D01*
X67000Y60300D01*
X66970Y60260D01*
X66940Y60215D01*
X66900Y60165D01*
X66810Y60060D01*
X66805Y60055D01*
X66790Y60035D01*
X66760Y60005D01*
X66725Y59970D01*
X66680Y59920D01*
X66630Y59865D01*
X66570Y59805D01*
X66505Y59740D01*
X66500Y59735D01*
X66495Y59730D01*
X66480Y59715D01*
X66460Y59695D01*
X66410Y59650D01*
X66345Y59585D01*
X66265Y59510D01*
X66175Y59430D01*
X66075Y59340D01*
X65975Y59250D01*
X65970Y59245D01*
X65965Y59240D01*
X65950Y59225D01*
X65930Y59210D01*
X65875Y59165D01*
X65810Y59110D01*
X65730Y59040D01*
X65645Y58970D01*
X65465Y58815D01*
X67390D01*
Y58400D01*
X64970D01*
Y58905D01*
X64975Y58910D01*
X64980Y58915D01*
X64995Y58925D01*
X65015Y58940D01*
X65060Y58985D01*
X65125Y59040D01*
X65200Y59105D01*
X65285Y59175D01*
X65375Y59255D01*
X65470Y59335D01*
X65475Y59340D01*
X65480Y59345D01*
X65495Y59355D01*
X65515Y59375D01*
X65560Y59415D01*
X65625Y59470D01*
X65700Y59540D01*
X65780Y59610D01*
X65945Y59770D01*
X65950Y59775D01*
X65965Y59790D01*
X65990Y59815D01*
X66020Y59845D01*
X66055Y59880D01*
X66100Y59925D01*
X66195Y60030D01*
X66300Y60140D01*
X66405Y60260D01*
X66500Y60375D01*
X66540Y60430D01*
X66575Y60480D01*
Y60485D01*
X66585Y60490D01*
X66590Y60505D01*
X66605Y60525D01*
X66630Y60580D01*
X66665Y60650D01*
X66695Y60735D01*
X66725Y60830D01*
X66745Y60940D01*
X66750Y61050D01*
Y61055D01*
Y61065D01*
Y61075D01*
X66745Y61095D01*
X66740Y61145D01*
X66725Y61210D01*
X66705Y61280D01*
X66670Y61355D01*
X66625Y61425D01*
X66565Y61490D01*
X66555Y61495D01*
X66530Y61515D01*
X66490Y61540D01*
X66430Y61570D01*
X66360Y61600D01*
X66270Y61625D01*
X66165Y61645D01*
X66050Y61650D01*
X66015D01*
X65970Y61645D01*
X65910Y61640D01*
X65840Y61630D01*
X65760Y61615D01*
X65675Y61595D01*
X65580Y61570D01*
X65575D01*
X65570Y61565D01*
X65555Y61560D01*
X65535Y61555D01*
X65485Y61535D01*
X65420Y61510D01*
X65345Y61480D01*
X65260Y61435D01*
X65170Y61390D01*
X65080Y61335D01*
X65060D01*
Y61840D01*
X65070Y61845D01*
X65090Y61855D01*
X65130Y61870D01*
X65180Y61890D01*
X65245Y61915D01*
X65320Y61940D01*
X65410Y61970D01*
X65510Y61995D01*
X65515D01*
X65525Y62000D01*
X65540D01*
X65560Y62005D01*
X65615Y62015D01*
X65685Y62030D01*
X65770Y62045D01*
X65865Y62055D01*
X65965Y62060D01*
X66065Y62065D01*
X66120D01*
X66155Y62060D01*
D02*
G37*
G36*
X29118Y12112D02*
X29142Y12110D01*
X29172Y12109D01*
X29204Y12104D01*
X29239Y12099D01*
X29274Y12090D01*
X29275D01*
X29278Y12089D01*
X29283D01*
X29290Y12085D01*
X29300Y12084D01*
X29310Y12080D01*
X29337Y12072D01*
X29368Y12060D01*
X29405Y12045D01*
X29445Y12029D01*
X29488Y12009D01*
Y11821D01*
X29474D01*
X29473Y11823D01*
X29469Y11825D01*
X29465Y11830D01*
X29458Y11835D01*
X29449Y11841D01*
X29438Y11850D01*
X29413Y11866D01*
X29383Y11886D01*
X29350Y11906D01*
X29315Y11924D01*
X29278Y11939D01*
X29277D01*
X29274Y11941D01*
X29269Y11942D01*
X29262Y11946D01*
X29254Y11947D01*
X29242Y11951D01*
X29217Y11959D01*
X29186Y11966D01*
X29151Y11971D01*
X29112Y11976D01*
X29073Y11977D01*
X29058D01*
X29039Y11976D01*
X29018Y11974D01*
X28993Y11971D01*
X28965Y11964D01*
X28937Y11957D01*
X28908Y11947D01*
X28905Y11946D01*
X28897Y11942D01*
X28883Y11934D01*
X28865Y11924D01*
X28845Y11913D01*
X28824Y11896D01*
X28802Y11878D01*
X28780Y11856D01*
X28779Y11853D01*
X28772Y11846D01*
X28762Y11833D01*
X28749Y11815D01*
X28736Y11793D01*
X28721Y11767D01*
X28708Y11738D01*
X28694Y11705D01*
Y11703D01*
X28693Y11702D01*
X28691Y11695D01*
X28689Y11688D01*
X28688Y11680D01*
X28684Y11670D01*
X28679Y11644D01*
X28674Y11614D01*
X28669Y11577D01*
X28666Y11536D01*
X28664Y11493D01*
Y11491D01*
Y11488D01*
Y11481D01*
Y11471D01*
X28666Y11461D01*
Y11448D01*
X28669Y11420D01*
X28673Y11385D01*
X28678Y11350D01*
X28686Y11312D01*
X28697Y11277D01*
Y11275D01*
X28699Y11274D01*
X28701Y11269D01*
X28704Y11262D01*
X28711Y11245D01*
X28721Y11225D01*
X28734Y11202D01*
X28749Y11177D01*
X28766Y11152D01*
X28785Y11129D01*
X28789Y11126D01*
X28795Y11119D01*
X28807Y11109D01*
X28824Y11096D01*
X28842Y11083D01*
X28865Y11068D01*
X28890Y11054D01*
X28917Y11043D01*
X28918D01*
X28920Y11041D01*
X28930Y11038D01*
X28945Y11034D01*
X28965Y11029D01*
X28988Y11023D01*
X29015Y11020D01*
X29044Y11016D01*
X29074Y11015D01*
X29094D01*
X29104Y11016D01*
X29116D01*
X29144Y11020D01*
X29177Y11024D01*
X29214Y11031D01*
X29250Y11039D01*
X29289Y11053D01*
X29290D01*
X29294Y11054D01*
X29298Y11058D01*
X29305Y11061D01*
X29315Y11064D01*
X29325Y11069D01*
X29350Y11083D01*
X29378Y11099D01*
X29410Y11121D01*
X29443Y11144D01*
X29476Y11172D01*
X29488D01*
Y10986D01*
X29486Y10985D01*
X29479Y10983D01*
X29471Y10980D01*
X29461Y10975D01*
X29448Y10968D01*
X29435Y10963D01*
X29406Y10950D01*
X29405D01*
X29400Y10947D01*
X29393Y10943D01*
X29381Y10940D01*
X29368Y10935D01*
X29353Y10928D01*
X29333Y10922D01*
X29313Y10915D01*
X29312D01*
X29305Y10913D01*
X29295Y10910D01*
X29282Y10907D01*
X29267Y10902D01*
X29249Y10898D01*
X29229Y10893D01*
X29207Y10890D01*
X29204D01*
X29197Y10888D01*
X29186Y10887D01*
X29171Y10885D01*
X29152Y10882D01*
X29131Y10880D01*
X29108Y10878D01*
X29061D01*
X29050Y10880D01*
X29036D01*
X29021Y10882D01*
X29005Y10883D01*
X28968Y10887D01*
X28928Y10893D01*
X28888Y10902D01*
X28847Y10913D01*
X28845D01*
X28842Y10915D01*
X28837Y10917D01*
X28829Y10920D01*
X28820Y10925D01*
X28809Y10928D01*
X28784Y10942D01*
X28756Y10958D01*
X28724Y10976D01*
X28693Y11001D01*
X28663Y11028D01*
Y11029D01*
X28659Y11031D01*
X28656Y11036D01*
X28649Y11041D01*
X28636Y11058D01*
X28620Y11081D01*
X28600Y11109D01*
X28580Y11141D01*
X28561Y11179D01*
X28543Y11220D01*
Y11222D01*
X28541Y11225D01*
X28540Y11232D01*
X28536Y11242D01*
X28533Y11252D01*
X28530Y11265D01*
X28525Y11282D01*
X28522Y11298D01*
X28518Y11318D01*
X28513Y11340D01*
X28507Y11386D01*
X28502Y11438D01*
X28500Y11494D01*
Y11496D01*
Y11501D01*
Y11509D01*
Y11519D01*
X28502Y11532D01*
Y11547D01*
X28503Y11564D01*
X28505Y11582D01*
X28510Y11624D01*
X28518Y11667D01*
X28528Y11712D01*
X28541Y11757D01*
Y11758D01*
X28543Y11761D01*
X28547Y11768D01*
X28550Y11777D01*
X28553Y11786D01*
X28558Y11798D01*
X28571Y11825D01*
X28590Y11856D01*
X28610Y11889D01*
X28633Y11923D01*
X28661Y11954D01*
X28663Y11956D01*
X28664Y11957D01*
X28674Y11967D01*
X28691Y11981D01*
X28712Y11997D01*
X28739Y12017D01*
X28771Y12035D01*
X28805Y12055D01*
X28844Y12072D01*
X28845D01*
X28849Y12074D01*
X28855Y12075D01*
X28862Y12079D01*
X28874Y12082D01*
X28885Y12085D01*
X28898Y12089D01*
X28913Y12094D01*
X28950Y12100D01*
X28990Y12107D01*
X29035Y12112D01*
X29083Y12113D01*
X29108D01*
X29118Y12112D01*
D02*
G37*
G36*
X45316Y59454D02*
X45339Y59452D01*
X45363Y59450D01*
X45387Y59447D01*
X45410Y59443D01*
X45412D01*
X45419Y59440D01*
X45431Y59438D01*
X45444Y59434D01*
X45461Y59428D01*
X45479Y59422D01*
X45497Y59414D01*
X45515Y59403D01*
X45517Y59402D01*
X45523Y59398D01*
X45533Y59390D01*
X45544Y59381D01*
X45557Y59368D01*
X45571Y59354D01*
X45584Y59338D01*
X45596Y59319D01*
X45597Y59317D01*
X45600Y59310D01*
X45605Y59299D01*
X45610Y59285D01*
X45616Y59267D01*
X45621Y59246D01*
X45624Y59221D01*
X45625Y59194D01*
Y59193D01*
Y59190D01*
Y59184D01*
X45624Y59177D01*
Y59168D01*
X45622Y59158D01*
X45619Y59134D01*
X45613Y59106D01*
X45604Y59077D01*
X45590Y59049D01*
X45573Y59021D01*
Y59020D01*
X45571Y59019D01*
X45564Y59009D01*
X45552Y58997D01*
X45536Y58983D01*
X45516Y58965D01*
X45491Y58948D01*
X45461Y58931D01*
X45430Y58916D01*
X45790Y58500D01*
X45625D01*
X45305Y58879D01*
X45126D01*
Y58500D01*
X45000D01*
Y59455D01*
X45297D01*
X45316Y59454D01*
D02*
G37*
G36*
X47052Y59474D02*
X47064D01*
X47079Y59471D01*
X47095Y59468D01*
X47112Y59464D01*
X47132Y59459D01*
X47152Y59452D01*
X47173Y59444D01*
X47193Y59435D01*
X47214Y59423D01*
X47234Y59408D01*
X47253Y59392D01*
X47270Y59373D01*
X47286Y59351D01*
X47288Y59350D01*
X47290Y59346D01*
X47294Y59338D01*
X47298Y59329D01*
X47305Y59315D01*
X47311Y59299D01*
X47318Y59279D01*
X47326Y59258D01*
X47334Y59233D01*
X47341Y59206D01*
X47347Y59176D01*
X47354Y59141D01*
X47358Y59105D01*
X47362Y59065D01*
X47365Y59023D01*
X47366Y58978D01*
Y58976D01*
Y58975D01*
Y58971D01*
Y58967D01*
Y58953D01*
X47365Y58935D01*
X47363Y58914D01*
X47362Y58890D01*
X47359Y58863D01*
X47355Y58834D01*
X47351Y58803D01*
X47346Y58771D01*
X47339Y58741D01*
X47332Y58709D01*
X47322Y58679D01*
X47311Y58650D01*
X47300Y58624D01*
X47285Y58600D01*
X47284Y58598D01*
X47281Y58594D01*
X47277Y58589D01*
X47270Y58581D01*
X47261Y58572D01*
X47250Y58562D01*
X47238Y58551D01*
X47224Y58540D01*
X47208Y58529D01*
X47189Y58519D01*
X47169Y58508D01*
X47147Y58499D01*
X47121Y58491D01*
X47096Y58485D01*
X47067Y58481D01*
X47036Y58480D01*
X47028D01*
X47020Y58481D01*
X47008D01*
X46994Y58484D01*
X46978Y58487D01*
X46959Y58491D01*
X46940Y58495D01*
X46919Y58501D01*
X46899Y58509D01*
X46878Y58520D01*
X46857Y58531D01*
X46837Y58545D01*
X46818Y58561D01*
X46801Y58580D01*
X46785Y58601D01*
X46784Y58602D01*
X46781Y58606D01*
X46778Y58614D01*
X46773Y58624D01*
X46766Y58637D01*
X46760Y58653D01*
X46753Y58672D01*
X46746Y58694D01*
X46738Y58718D01*
X46732Y58746D01*
X46725Y58777D01*
X46718Y58811D01*
X46713Y58847D01*
X46710Y58887D01*
X46708Y58931D01*
X46706Y58976D01*
Y58978D01*
Y58979D01*
Y58983D01*
Y58987D01*
Y59000D01*
X46708Y59017D01*
X46709Y59039D01*
X46710Y59064D01*
X46713Y59091D01*
X46717Y59118D01*
X46721Y59149D01*
X46726Y59180D01*
X46733Y59211D01*
X46740Y59242D01*
X46749Y59273D01*
X46760Y59302D01*
X46772Y59329D01*
X46786Y59352D01*
X46788Y59354D01*
X46790Y59358D01*
X46794Y59364D01*
X46801Y59371D01*
X46810Y59381D01*
X46821Y59391D01*
X46833Y59402D01*
X46847Y59414D01*
X46863Y59426D01*
X46882Y59436D01*
X46903Y59447D01*
X46926Y59456D01*
X46950Y59464D01*
X46976Y59470D01*
X47006Y59474D01*
X47036Y59475D01*
X47044D01*
X47052Y59474D01*
D02*
G37*
G36*
X52777Y67235D02*
X52791Y67234D01*
X52811Y67232D01*
X52833Y67226D01*
X52856Y67218D01*
X52882Y67206D01*
X52906Y67192D01*
X52907D01*
X52908Y67189D01*
X52916Y67184D01*
X52928Y67173D01*
X52943Y67158D01*
X52959Y67140D01*
X52976Y67117D01*
X52993Y67090D01*
X53008Y67061D01*
X53012D01*
Y67063D01*
X53013Y67065D01*
X53016Y67069D01*
X53019Y67073D01*
X53028Y67088D01*
X53039Y67104D01*
X53052Y67123D01*
X53067Y67142D01*
X53084Y67160D01*
X53101Y67176D01*
X53104Y67177D01*
X53110Y67181D01*
X53121Y67188D01*
X53134Y67193D01*
X53153Y67200D01*
X53173Y67206D01*
X53197Y67210D01*
X53224Y67212D01*
X53234D01*
X53242Y67210D01*
X53250Y67209D01*
X53262Y67206D01*
X53286Y67201D01*
X53315Y67190D01*
X53330Y67184D01*
X53345Y67174D01*
X53360Y67165D01*
X53375Y67153D01*
X53390Y67140D01*
X53403Y67124D01*
X53404Y67123D01*
X53406Y67120D01*
X53410Y67115D01*
X53414Y67108D01*
X53420Y67100D01*
X53426Y67089D01*
X53432Y67076D01*
X53439Y67063D01*
X53446Y67047D01*
X53452Y67031D01*
X53459Y67012D01*
X53464Y66992D01*
X53468Y66971D01*
X53472Y66948D01*
X53474Y66924D01*
X53475Y66899D01*
Y66898D01*
Y66892D01*
Y66886D01*
X53474Y66875D01*
X53472Y66863D01*
X53471Y66850D01*
X53470Y66834D01*
X53467Y66817D01*
X53458Y66781D01*
X53446Y66743D01*
X53438Y66725D01*
X53428Y66706D01*
X53418Y66688D01*
X53406Y66672D01*
X53404Y66670D01*
X53403Y66668D01*
X53399Y66664D01*
X53394Y66658D01*
X53387Y66652D01*
X53379Y66644D01*
X53370Y66637D01*
X53359Y66628D01*
X53334Y66613D01*
X53303Y66598D01*
X53287Y66593D01*
X53270Y66589D01*
X53251Y66587D01*
X53232Y66585D01*
X53221D01*
X53208Y66588D01*
X53192Y66590D01*
X53173Y66596D01*
X53152Y66602D01*
X53129Y66613D01*
X53105Y66626D01*
X53104D01*
X53102Y66628D01*
X53095Y66634D01*
X53084Y66644D01*
X53069Y66656D01*
X53053Y66673D01*
X53037Y66693D01*
X53021Y66717D01*
X53007Y66745D01*
X53003D01*
Y66743D01*
X53001Y66741D01*
X52999Y66737D01*
X52996Y66730D01*
X52988Y66714D01*
X52978Y66694D01*
X52963Y66672D01*
X52947Y66649D01*
X52928Y66628D01*
X52908Y66608D01*
X52906Y66605D01*
X52898Y66600D01*
X52886Y66593D01*
X52870Y66584D01*
X52849Y66575D01*
X52824Y66568D01*
X52797Y66562D01*
X52765Y66560D01*
X52753D01*
X52745Y66561D01*
X52734Y66562D01*
X52722Y66565D01*
X52707Y66568D01*
X52693Y66572D01*
X52677Y66577D01*
X52661Y66584D01*
X52644Y66592D01*
X52626Y66601D01*
X52609Y66612D01*
X52592Y66625D01*
X52576Y66640D01*
X52560Y66657D01*
X52558Y66658D01*
X52556Y66661D01*
X52552Y66666D01*
X52548Y66674D01*
X52541Y66684D01*
X52535Y66695D01*
X52527Y66707D01*
X52520Y66724D01*
X52512Y66739D01*
X52504Y66758D01*
X52497Y66778D01*
X52492Y66799D01*
X52487Y66822D01*
X52483Y66847D01*
X52480Y66872D01*
X52479Y66899D01*
Y66900D01*
Y66906D01*
Y66914D01*
X52480Y66924D01*
X52481Y66938D01*
X52483Y66952D01*
X52485Y66970D01*
X52489Y66988D01*
X52499Y67027D01*
X52505Y67047D01*
X52512Y67068D01*
X52521Y67088D01*
X52532Y67108D01*
X52544Y67128D01*
X52558Y67145D01*
X52560Y67146D01*
X52562Y67149D01*
X52566Y67153D01*
X52573Y67160D01*
X52581Y67166D01*
X52590Y67174D01*
X52601Y67182D01*
X52614Y67190D01*
X52628Y67200D01*
X52644Y67208D01*
X52661Y67216D01*
X52678Y67222D01*
X52698Y67229D01*
X52718Y67233D01*
X52741Y67235D01*
X52763Y67237D01*
X52771D01*
X52777Y67235D01*
D02*
G37*
G36*
X46285Y58597D02*
X46480D01*
Y58500D01*
X45963D01*
Y58597D01*
X46161D01*
Y59237D01*
X45963D01*
Y59325D01*
X45978D01*
X45988Y59326D01*
X46001D01*
X46016Y59327D01*
X46048Y59331D01*
X46051D01*
X46056Y59333D01*
X46064Y59334D01*
X46075Y59337D01*
X46097Y59342D01*
X46109Y59346D01*
X46119Y59350D01*
X46120Y59351D01*
X46124Y59352D01*
X46129Y59356D01*
X46136Y59360D01*
X46150Y59374D01*
X46165Y59390D01*
X46166Y59391D01*
X46168Y59395D01*
X46170Y59400D01*
X46174Y59408D01*
X46177Y59418D01*
X46180Y59430D01*
X46182Y59443D01*
X46184Y59458D01*
X46285D01*
Y58597D01*
D02*
G37*
G36*
X64150Y59840D02*
Y59835D01*
Y59825D01*
Y59800D01*
Y59775D01*
X64145Y59740D01*
Y59700D01*
X64140Y59610D01*
X64130Y59500D01*
X64110Y59385D01*
X64090Y59270D01*
X64060Y59155D01*
Y59150D01*
X64055Y59140D01*
X64050Y59125D01*
X64045Y59105D01*
X64025Y59055D01*
X63995Y58985D01*
X63955Y58910D01*
X63905Y58830D01*
X63850Y58750D01*
X63780Y58675D01*
X63770Y58665D01*
X63745Y58645D01*
X63710Y58610D01*
X63655Y58570D01*
X63595Y58530D01*
X63520Y58485D01*
X63435Y58440D01*
X63345Y58405D01*
X63340D01*
X63335Y58400D01*
X63320D01*
X63300Y58395D01*
X63250Y58380D01*
X63180Y58365D01*
X63095Y58350D01*
X63000Y58340D01*
X62890Y58330D01*
X62770Y58325D01*
X62715D01*
X62685Y58330D01*
X62650D01*
X62570Y58335D01*
X62480Y58345D01*
X62380Y58360D01*
X62280Y58380D01*
X62185Y58410D01*
X62180D01*
X62175Y58415D01*
X62145Y58425D01*
X62095Y58450D01*
X62040Y58475D01*
X61975Y58515D01*
X61905Y58560D01*
X61830Y58615D01*
X61765Y58675D01*
X61755Y58685D01*
X61735Y58710D01*
X61700Y58750D01*
X61655Y58810D01*
X61610Y58875D01*
X61565Y58960D01*
X61520Y59050D01*
X61485Y59150D01*
Y59155D01*
X61480Y59165D01*
X61475Y59180D01*
X61470Y59200D01*
X61465Y59230D01*
X61460Y59260D01*
X61450Y59300D01*
X61445Y59340D01*
X61425Y59440D01*
X61415Y59560D01*
X61405Y59695D01*
X61400Y59840D01*
Y61990D01*
X61875D01*
Y59815D01*
Y59810D01*
Y59800D01*
Y59785D01*
Y59765D01*
Y59715D01*
X61880Y59650D01*
X61885Y59575D01*
X61890Y59500D01*
X61900Y59425D01*
X61910Y59355D01*
Y59350D01*
X61920Y59325D01*
X61930Y59295D01*
X61940Y59255D01*
X61960Y59205D01*
X61985Y59155D01*
X62010Y59100D01*
X62045Y59050D01*
X62050Y59045D01*
X62065Y59025D01*
X62090Y58995D01*
X62120Y58960D01*
X62160Y58920D01*
X62210Y58880D01*
X62265Y58845D01*
X62330Y58810D01*
X62340Y58805D01*
X62365Y58800D01*
X62400Y58785D01*
X62455Y58775D01*
X62520Y58760D01*
X62595Y58745D01*
X62680Y58740D01*
X62770Y58735D01*
X62815D01*
X62860Y58740D01*
X62925Y58745D01*
X62990Y58755D01*
X63065Y58765D01*
X63140Y58785D01*
X63210Y58810D01*
X63220Y58815D01*
X63240Y58825D01*
X63275Y58845D01*
X63315Y58870D01*
X63360Y58905D01*
X63410Y58945D01*
X63455Y58995D01*
X63500Y59050D01*
X63505Y59055D01*
X63515Y59075D01*
X63530Y59100D01*
X63555Y59140D01*
X63575Y59185D01*
X63595Y59240D01*
X63620Y59295D01*
X63635Y59360D01*
Y59370D01*
X63640Y59390D01*
X63650Y59430D01*
X63655Y59485D01*
X63665Y59550D01*
X63670Y59625D01*
X63675Y59710D01*
Y59805D01*
Y61990D01*
X64150D01*
Y59840D01*
D02*
G37*
G36*
X53455Y61334D02*
Y61333D01*
Y61330D01*
Y61326D01*
Y61319D01*
Y61313D01*
Y61303D01*
X53454Y61283D01*
X53452Y61261D01*
X53450Y61237D01*
X53447Y61213D01*
X53443Y61190D01*
Y61189D01*
Y61188D01*
X53440Y61181D01*
X53438Y61169D01*
X53434Y61156D01*
X53428Y61138D01*
X53422Y61121D01*
X53414Y61103D01*
X53403Y61085D01*
X53402Y61083D01*
X53398Y61077D01*
X53390Y61067D01*
X53381Y61056D01*
X53369Y61043D01*
X53354Y61029D01*
X53338Y61016D01*
X53319Y61004D01*
X53317Y61003D01*
X53310Y61000D01*
X53299Y60995D01*
X53285Y60989D01*
X53267Y60984D01*
X53246Y60979D01*
X53221Y60976D01*
X53194Y60975D01*
X53184D01*
X53177Y60976D01*
X53168D01*
X53158Y60978D01*
X53134Y60982D01*
X53106Y60987D01*
X53077Y60996D01*
X53049Y61010D01*
X53021Y61027D01*
X53020D01*
X53019Y61029D01*
X53009Y61036D01*
X52997Y61048D01*
X52983Y61064D01*
X52965Y61084D01*
X52948Y61109D01*
X52931Y61138D01*
X52916Y61170D01*
X52500Y60810D01*
Y60975D01*
X52879Y61295D01*
Y61474D01*
X52500D01*
Y61600D01*
X53455D01*
Y61334D01*
D02*
G37*
G36*
X52951Y60726D02*
X52964D01*
X52979Y60725D01*
X52995Y60724D01*
X53029Y60721D01*
X53067Y60717D01*
X53106Y60710D01*
X53144Y60701D01*
X53145D01*
X53148Y60700D01*
X53153Y60698D01*
X53160Y60696D01*
X53169Y60693D01*
X53178Y60689D01*
X53202Y60680D01*
X53230Y60668D01*
X53259Y60653D01*
X53289Y60636D01*
X53318Y60615D01*
X53319Y60613D01*
X53321Y60612D01*
X53325Y60609D01*
X53330Y60604D01*
X53343Y60592D01*
X53359Y60576D01*
X53378Y60555D01*
X53396Y60529D01*
X53414Y60501D01*
X53431Y60470D01*
Y60468D01*
X53432Y60466D01*
X53435Y60460D01*
X53438Y60453D01*
X53440Y60446D01*
X53444Y60435D01*
X53448Y60423D01*
X53452Y60410D01*
X53455Y60395D01*
X53459Y60379D01*
X53466Y60344D01*
X53471Y60305D01*
X53472Y60262D01*
Y60261D01*
Y60255D01*
Y60249D01*
Y60241D01*
X53471Y60220D01*
X53468Y60199D01*
Y60198D01*
Y60195D01*
X53467Y60190D01*
X53466Y60182D01*
X53462Y60166D01*
X53456Y60146D01*
X53335D01*
Y60153D01*
Y60154D01*
X53337Y60157D01*
X53339Y60161D01*
X53341Y60166D01*
X53343Y60174D01*
X53346Y60184D01*
X53350Y60194D01*
X53352Y60207D01*
Y60209D01*
X53354Y60214D01*
X53355Y60221D01*
X53358Y60230D01*
X53359Y60241D01*
X53360Y60254D01*
X53362Y60281D01*
Y60282D01*
Y60287D01*
Y60294D01*
X53360Y60303D01*
X53359Y60315D01*
X53358Y60329D01*
X53355Y60343D01*
X53351Y60359D01*
X53341Y60395D01*
X53334Y60412D01*
X53326Y60431D01*
X53315Y60449D01*
X53303Y60467D01*
X53290Y60484D01*
X53275Y60500D01*
X53274Y60501D01*
X53271Y60504D01*
X53266Y60508D01*
X53259Y60513D01*
X53251Y60519D01*
X53241Y60527D01*
X53228Y60535D01*
X53214Y60543D01*
X53198Y60551D01*
X53180Y60559D01*
X53161Y60567D01*
X53140Y60575D01*
X53117Y60581D01*
X53093Y60587D01*
X53068Y60592D01*
X53041Y60594D01*
X53043Y60592D01*
X53047Y60585D01*
X53053Y60575D01*
X53060Y60561D01*
X53068Y60545D01*
X53077Y60528D01*
X53085Y60509D01*
X53092Y60489D01*
X53093Y60487D01*
X53095Y60480D01*
X53097Y60470D01*
X53101Y60455D01*
X53104Y60438D01*
X53106Y60416D01*
X53108Y60394D01*
X53109Y60368D01*
Y60367D01*
Y60366D01*
Y60358D01*
Y60347D01*
X53108Y60333D01*
X53106Y60316D01*
X53104Y60298D01*
X53097Y60262D01*
Y60259D01*
X53095Y60254D01*
X53092Y60245D01*
X53088Y60233D01*
X53081Y60218D01*
X53073Y60202D01*
X53064Y60185D01*
X53052Y60166D01*
X53051Y60164D01*
X53045Y60157D01*
X53036Y60148D01*
X53025Y60134D01*
X53011Y60121D01*
X52995Y60108D01*
X52975Y60094D01*
X52953Y60083D01*
X52951Y60081D01*
X52943Y60079D01*
X52930Y60073D01*
X52914Y60068D01*
X52892Y60062D01*
X52867Y60057D01*
X52839Y60054D01*
X52809Y60053D01*
X52795D01*
X52785Y60054D01*
X52773Y60056D01*
X52758Y60058D01*
X52742Y60061D01*
X52725Y60065D01*
X52706Y60071D01*
X52688Y60077D01*
X52668Y60084D01*
X52648Y60093D01*
X52628Y60105D01*
X52608Y60117D01*
X52589Y60132D01*
X52572Y60149D01*
X52570Y60150D01*
X52568Y60153D01*
X52564Y60158D01*
X52557Y60166D01*
X52551Y60176D01*
X52543Y60186D01*
X52535Y60199D01*
X52527Y60214D01*
X52517Y60230D01*
X52509Y60249D01*
X52501Y60267D01*
X52495Y60289D01*
X52488Y60311D01*
X52484Y60334D01*
X52481Y60359D01*
X52480Y60384D01*
Y60386D01*
Y60387D01*
Y60391D01*
Y60396D01*
X52481Y60410D01*
X52483Y60427D01*
X52485Y60447D01*
X52489Y60468D01*
X52495Y60489D01*
X52501Y60512D01*
X52503Y60515D01*
X52505Y60521D01*
X52511Y60532D01*
X52517Y60547D01*
X52527Y60561D01*
X52537Y60579D01*
X52551Y60596D01*
X52566Y60613D01*
X52569Y60616D01*
X52576Y60623D01*
X52588Y60632D01*
X52604Y60645D01*
X52624Y60658D01*
X52649Y60673D01*
X52677Y60686D01*
X52707Y60698D01*
X52709D01*
X52711Y60700D01*
X52717Y60701D01*
X52723Y60702D01*
X52731Y60705D01*
X52742Y60708D01*
X52754Y60710D01*
X52767Y60713D01*
X52782Y60716D01*
X52798Y60718D01*
X52834Y60724D01*
X52874Y60726D01*
X52919Y60728D01*
X52940D01*
X52951Y60726D01*
D02*
G37*
G36*
X53455Y55034D02*
Y55033D01*
Y55030D01*
Y55026D01*
Y55019D01*
Y55013D01*
Y55003D01*
X53454Y54984D01*
X53452Y54961D01*
X53450Y54937D01*
X53447Y54913D01*
X53443Y54890D01*
Y54889D01*
Y54888D01*
X53440Y54881D01*
X53438Y54869D01*
X53434Y54856D01*
X53428Y54839D01*
X53422Y54821D01*
X53414Y54803D01*
X53403Y54785D01*
X53402Y54783D01*
X53398Y54777D01*
X53390Y54767D01*
X53381Y54756D01*
X53369Y54743D01*
X53354Y54729D01*
X53338Y54716D01*
X53319Y54704D01*
X53317Y54703D01*
X53310Y54700D01*
X53299Y54695D01*
X53285Y54690D01*
X53267Y54684D01*
X53246Y54679D01*
X53221Y54676D01*
X53194Y54675D01*
X53184D01*
X53177Y54676D01*
X53168D01*
X53158Y54678D01*
X53134Y54682D01*
X53106Y54687D01*
X53077Y54696D01*
X53049Y54710D01*
X53021Y54727D01*
X53020D01*
X53019Y54729D01*
X53009Y54736D01*
X52997Y54748D01*
X52983Y54764D01*
X52965Y54784D01*
X52948Y54809D01*
X52931Y54839D01*
X52916Y54870D01*
X52500Y54510D01*
Y54675D01*
X52879Y54995D01*
Y55174D01*
X52500D01*
Y55300D01*
X53455D01*
Y55034D01*
D02*
G37*
G36*
X52672Y54388D02*
X52670Y54385D01*
X52666Y54378D01*
X52660Y54368D01*
X52652Y54352D01*
X52642Y54334D01*
X52633Y54313D01*
X52622Y54289D01*
X52613Y54264D01*
Y54263D01*
X52612Y54261D01*
X52610Y54257D01*
X52609Y54252D01*
X52606Y54239D01*
X52602Y54220D01*
X52597Y54199D01*
X52594Y54176D01*
X52592Y54151D01*
X52590Y54126D01*
Y54123D01*
Y54118D01*
X52592Y54110D01*
Y54098D01*
X52593Y54084D01*
X52596Y54070D01*
X52602Y54038D01*
X52604Y54036D01*
X52605Y54031D01*
X52608Y54023D01*
X52613Y54013D01*
X52620Y54001D01*
X52628Y53987D01*
X52637Y53975D01*
X52648Y53962D01*
X52649Y53961D01*
X52653Y53958D01*
X52658Y53953D01*
X52666Y53946D01*
X52676Y53939D01*
X52688Y53933D01*
X52701Y53926D01*
X52714Y53920D01*
X52715Y53918D01*
X52721Y53917D01*
X52729Y53914D01*
X52739Y53912D01*
X52753Y53909D01*
X52769Y53908D01*
X52785Y53905D01*
X52811D01*
X52820Y53906D01*
X52833Y53908D01*
X52846Y53909D01*
X52859Y53912D01*
X52874Y53917D01*
X52887Y53922D01*
X52888Y53923D01*
X52892Y53925D01*
X52899Y53929D01*
X52907Y53934D01*
X52915Y53941D01*
X52924Y53950D01*
X52934Y53959D01*
X52942Y53970D01*
X52943Y53971D01*
X52946Y53975D01*
X52950Y53983D01*
X52955Y53993D01*
X52961Y54005D01*
X52967Y54018D01*
X52972Y54034D01*
X52976Y54051D01*
Y54054D01*
X52978Y54059D01*
X52980Y54068D01*
X52982Y54082D01*
X52984Y54098D01*
X52986Y54115D01*
X52987Y54135D01*
Y54156D01*
Y54159D01*
Y54166D01*
Y54177D01*
X52986Y54191D01*
Y54208D01*
X52984Y54227D01*
X52979Y54265D01*
Y54268D01*
X52978Y54273D01*
X52976Y54284D01*
X52974Y54296D01*
X52972Y54309D01*
X52969Y54325D01*
X52967Y54340D01*
X52964Y54354D01*
X53455D01*
Y53781D01*
X53343D01*
Y54231D01*
X53089D01*
Y54229D01*
Y54227D01*
X53091Y54221D01*
Y54213D01*
X53092Y54196D01*
X53093Y54176D01*
Y54175D01*
Y54171D01*
Y54166D01*
X53095Y54159D01*
Y54143D01*
Y54126D01*
Y54124D01*
Y54122D01*
Y54118D01*
Y54112D01*
Y54098D01*
X53093Y54079D01*
X53092Y54058D01*
X53089Y54035D01*
X53085Y54013D01*
X53081Y53990D01*
Y53989D01*
Y53987D01*
X53079Y53981D01*
X53076Y53969D01*
X53071Y53954D01*
X53064Y53938D01*
X53056Y53920D01*
X53047Y53901D01*
X53035Y53882D01*
X53033Y53880D01*
X53028Y53874D01*
X53020Y53865D01*
X53009Y53853D01*
X52996Y53841D01*
X52982Y53828D01*
X52963Y53816D01*
X52943Y53804D01*
X52940Y53802D01*
X52932Y53800D01*
X52920Y53794D01*
X52904Y53789D01*
X52884Y53784D01*
X52860Y53778D01*
X52834Y53776D01*
X52803Y53774D01*
X52793D01*
X52779Y53776D01*
X52762Y53777D01*
X52743Y53781D01*
X52721Y53785D01*
X52698Y53792D01*
X52676Y53800D01*
X52673Y53801D01*
X52665Y53804D01*
X52654Y53809D01*
X52640Y53817D01*
X52624Y53826D01*
X52606Y53838D01*
X52589Y53852D01*
X52573Y53866D01*
X52572Y53869D01*
X52565Y53874D01*
X52557Y53885D01*
X52548Y53897D01*
X52536Y53914D01*
X52525Y53933D01*
X52513Y53954D01*
X52504Y53977D01*
Y53978D01*
X52503Y53979D01*
X52501Y53983D01*
X52500Y53987D01*
X52496Y54001D01*
X52492Y54018D01*
X52488Y54039D01*
X52484Y54064D01*
X52481Y54092D01*
X52480Y54123D01*
Y54124D01*
Y54127D01*
Y54131D01*
Y54136D01*
Y54143D01*
X52481Y54152D01*
X52483Y54171D01*
X52484Y54195D01*
X52487Y54220D01*
X52491Y54247D01*
X52496Y54275D01*
Y54276D01*
X52497Y54277D01*
Y54281D01*
X52499Y54286D01*
X52503Y54300D01*
X52507Y54317D01*
X52513Y54336D01*
X52520Y54356D01*
X52528Y54376D01*
X52536Y54396D01*
X52672D01*
Y54388D01*
D02*
G37*
G36*
X46050Y50940D02*
Y50935D01*
Y50925D01*
Y50900D01*
Y50875D01*
X46045Y50840D01*
Y50800D01*
X46040Y50710D01*
X46030Y50600D01*
X46010Y50485D01*
X45990Y50370D01*
X45960Y50255D01*
Y50250D01*
X45955Y50240D01*
X45950Y50225D01*
X45945Y50205D01*
X45925Y50155D01*
X45895Y50085D01*
X45855Y50010D01*
X45805Y49930D01*
X45750Y49850D01*
X45680Y49775D01*
X45670Y49765D01*
X45645Y49745D01*
X45610Y49710D01*
X45555Y49670D01*
X45495Y49630D01*
X45420Y49585D01*
X45335Y49540D01*
X45245Y49505D01*
X45240D01*
X45235Y49500D01*
X45220D01*
X45200Y49495D01*
X45150Y49480D01*
X45080Y49465D01*
X44995Y49450D01*
X44900Y49440D01*
X44790Y49430D01*
X44670Y49425D01*
X44615D01*
X44585Y49430D01*
X44550D01*
X44470Y49435D01*
X44380Y49445D01*
X44280Y49460D01*
X44180Y49480D01*
X44085Y49510D01*
X44080D01*
X44075Y49515D01*
X44045Y49525D01*
X43995Y49550D01*
X43940Y49575D01*
X43875Y49615D01*
X43805Y49660D01*
X43730Y49715D01*
X43665Y49775D01*
X43655Y49785D01*
X43635Y49810D01*
X43600Y49850D01*
X43555Y49910D01*
X43510Y49975D01*
X43465Y50060D01*
X43420Y50150D01*
X43385Y50250D01*
Y50255D01*
X43380Y50265D01*
X43375Y50280D01*
X43370Y50300D01*
X43365Y50330D01*
X43360Y50360D01*
X43350Y50400D01*
X43345Y50440D01*
X43325Y50540D01*
X43315Y50660D01*
X43305Y50795D01*
X43300Y50940D01*
Y53090D01*
X43775D01*
Y50915D01*
Y50910D01*
Y50900D01*
Y50885D01*
Y50865D01*
Y50815D01*
X43780Y50750D01*
X43785Y50675D01*
X43790Y50600D01*
X43800Y50525D01*
X43810Y50455D01*
Y50450D01*
X43820Y50425D01*
X43830Y50395D01*
X43840Y50355D01*
X43860Y50305D01*
X43885Y50255D01*
X43910Y50200D01*
X43945Y50150D01*
X43950Y50145D01*
X43965Y50125D01*
X43990Y50095D01*
X44020Y50060D01*
X44060Y50020D01*
X44110Y49980D01*
X44165Y49945D01*
X44230Y49910D01*
X44240Y49905D01*
X44265Y49900D01*
X44300Y49885D01*
X44355Y49875D01*
X44420Y49860D01*
X44495Y49845D01*
X44580Y49840D01*
X44670Y49835D01*
X44715D01*
X44760Y49840D01*
X44825Y49845D01*
X44890Y49855D01*
X44965Y49865D01*
X45040Y49885D01*
X45110Y49910D01*
X45120Y49915D01*
X45140Y49925D01*
X45175Y49945D01*
X45215Y49970D01*
X45260Y50005D01*
X45310Y50045D01*
X45355Y50095D01*
X45400Y50150D01*
X45405Y50155D01*
X45415Y50175D01*
X45430Y50200D01*
X45455Y50240D01*
X45475Y50285D01*
X45495Y50340D01*
X45520Y50395D01*
X45535Y50460D01*
Y50470D01*
X45540Y50490D01*
X45550Y50530D01*
X45555Y50585D01*
X45565Y50650D01*
X45570Y50725D01*
X45575Y50810D01*
Y50905D01*
Y53090D01*
X46050D01*
Y50940D01*
D02*
G37*
G36*
X48360Y49865D02*
X49095D01*
Y49500D01*
X47150D01*
Y49865D01*
X47895D01*
Y52270D01*
X47150D01*
Y52600D01*
X47205D01*
X47245Y52605D01*
X47295D01*
X47350Y52610D01*
X47470Y52625D01*
X47480D01*
X47500Y52630D01*
X47530Y52635D01*
X47570Y52645D01*
X47655Y52665D01*
X47700Y52680D01*
X47735Y52695D01*
X47740Y52700D01*
X47755Y52705D01*
X47775Y52720D01*
X47800Y52735D01*
X47855Y52785D01*
X47910Y52845D01*
X47915Y52850D01*
X47920Y52865D01*
X47930Y52885D01*
X47945Y52915D01*
X47955Y52950D01*
X47965Y52995D01*
X47975Y53045D01*
X47980Y53100D01*
X48360D01*
Y49865D01*
D02*
G37*
G36*
X68736Y73413D02*
X68304Y72600D01*
X68167D01*
X68624Y73443D01*
X68083D01*
Y73555D01*
X68736D01*
Y73413D01*
D02*
G37*
G36*
X67516Y73554D02*
X67539Y73552D01*
X67563Y73550D01*
X67587Y73547D01*
X67610Y73543D01*
X67612D01*
X67619Y73540D01*
X67631Y73538D01*
X67644Y73534D01*
X67661Y73528D01*
X67679Y73522D01*
X67697Y73514D01*
X67715Y73503D01*
X67717Y73502D01*
X67723Y73498D01*
X67733Y73490D01*
X67744Y73480D01*
X67757Y73469D01*
X67771Y73454D01*
X67784Y73438D01*
X67796Y73419D01*
X67797Y73417D01*
X67800Y73410D01*
X67805Y73399D01*
X67810Y73385D01*
X67816Y73367D01*
X67821Y73346D01*
X67824Y73321D01*
X67825Y73294D01*
Y73293D01*
Y73290D01*
Y73284D01*
X67824Y73277D01*
Y73268D01*
X67822Y73258D01*
X67818Y73234D01*
X67813Y73207D01*
X67804Y73177D01*
X67791Y73149D01*
X67773Y73121D01*
Y73120D01*
X67771Y73119D01*
X67764Y73109D01*
X67752Y73097D01*
X67736Y73083D01*
X67716Y73066D01*
X67691Y73048D01*
X67661Y73031D01*
X67630Y73016D01*
X67990Y72600D01*
X67825D01*
X67505Y72979D01*
X67326D01*
Y72600D01*
X67200D01*
Y73555D01*
X67497D01*
X67516Y73554D01*
D02*
G37*
G36*
X36155Y58834D02*
Y58833D01*
Y58830D01*
Y58826D01*
Y58819D01*
Y58813D01*
Y58803D01*
X36154Y58784D01*
X36152Y58761D01*
X36150Y58737D01*
X36147Y58713D01*
X36143Y58690D01*
Y58689D01*
Y58688D01*
X36140Y58681D01*
X36138Y58669D01*
X36134Y58656D01*
X36128Y58639D01*
X36122Y58621D01*
X36114Y58603D01*
X36103Y58585D01*
X36102Y58583D01*
X36098Y58577D01*
X36090Y58567D01*
X36081Y58556D01*
X36068Y58543D01*
X36054Y58529D01*
X36038Y58516D01*
X36019Y58504D01*
X36017Y58503D01*
X36010Y58500D01*
X35999Y58495D01*
X35985Y58490D01*
X35967Y58484D01*
X35946Y58479D01*
X35921Y58476D01*
X35894Y58475D01*
X35884D01*
X35877Y58476D01*
X35868D01*
X35858Y58478D01*
X35834Y58482D01*
X35807Y58487D01*
X35777Y58496D01*
X35749Y58509D01*
X35721Y58527D01*
X35720D01*
X35719Y58529D01*
X35709Y58536D01*
X35697Y58548D01*
X35683Y58564D01*
X35666Y58584D01*
X35648Y58609D01*
X35631Y58639D01*
X35616Y58670D01*
X35200Y58310D01*
Y58475D01*
X35579Y58795D01*
Y58974D01*
X35200D01*
Y59100D01*
X36155D01*
Y58834D01*
D02*
G37*
G36*
X31580Y21160D02*
X31650Y21155D01*
X31730Y21145D01*
X31810Y21130D01*
X31885Y21115D01*
X31895D01*
X31920Y21105D01*
X31955Y21095D01*
X32005Y21075D01*
X32060Y21055D01*
X32120Y21030D01*
X32185Y20995D01*
X32245Y20960D01*
X32255Y20955D01*
X32275Y20940D01*
X32305Y20915D01*
X32345Y20880D01*
X32385Y20840D01*
X32430Y20795D01*
X32475Y20740D01*
X32510Y20680D01*
X32515Y20675D01*
X32525Y20650D01*
X32540Y20615D01*
X32555Y20570D01*
X32570Y20515D01*
X32585Y20450D01*
X32595Y20380D01*
X32600Y20300D01*
Y20295D01*
Y20285D01*
Y20270D01*
X32595Y20250D01*
X32590Y20195D01*
X32575Y20120D01*
X32550Y20040D01*
X32510Y19950D01*
X32455Y19860D01*
X32425Y19820D01*
X32385Y19775D01*
X32375Y19765D01*
X32350Y19740D01*
X32305Y19700D01*
X32245Y19660D01*
X32170Y19610D01*
X32090Y19565D01*
X31995Y19525D01*
X31890Y19495D01*
Y19460D01*
X31895D01*
X31910Y19455D01*
X31935Y19450D01*
X31965Y19445D01*
X32005Y19435D01*
X32050Y19420D01*
X32100Y19400D01*
X32155Y19380D01*
X32160Y19375D01*
X32180Y19370D01*
X32210Y19355D01*
X32245Y19340D01*
X32325Y19290D01*
X32405Y19230D01*
X32410Y19225D01*
X32425Y19210D01*
X32445Y19190D01*
X32475Y19160D01*
X32505Y19120D01*
X32540Y19075D01*
X32570Y19020D01*
X32600Y18965D01*
X32605Y18960D01*
X32610Y18935D01*
X32625Y18905D01*
X32640Y18855D01*
X32650Y18800D01*
X32665Y18730D01*
X32670Y18650D01*
X32675Y18560D01*
Y18555D01*
Y18550D01*
Y18520D01*
X32670Y18470D01*
X32665Y18410D01*
X32655Y18345D01*
X32635Y18265D01*
X32615Y18190D01*
X32585Y18110D01*
X32580Y18100D01*
X32570Y18075D01*
X32550Y18035D01*
X32520Y17990D01*
X32485Y17935D01*
X32440Y17875D01*
X32390Y17815D01*
X32335Y17755D01*
X32325Y17750D01*
X32300Y17725D01*
X32265Y17695D01*
X32210Y17660D01*
X32150Y17620D01*
X32075Y17580D01*
X31995Y17540D01*
X31905Y17505D01*
X31900D01*
X31895Y17500D01*
X31880D01*
X31860Y17495D01*
X31810Y17480D01*
X31745Y17465D01*
X31665Y17450D01*
X31575Y17440D01*
X31475Y17430D01*
X31370Y17425D01*
X31290D01*
X31260Y17430D01*
X31185Y17435D01*
X31095Y17440D01*
X30995Y17455D01*
X30890Y17470D01*
X30780Y17495D01*
X30775D01*
X30770Y17500D01*
X30755D01*
X30735Y17505D01*
X30680Y17520D01*
X30615Y17540D01*
X30540Y17565D01*
X30460Y17590D01*
X30385Y17620D01*
X30310Y17650D01*
Y18155D01*
X30345D01*
X30355Y18150D01*
X30380Y18130D01*
X30425Y18105D01*
X30480Y18075D01*
X30550Y18035D01*
X30635Y18000D01*
X30725Y17960D01*
X30825Y17925D01*
X30830D01*
X30840Y17920D01*
X30855Y17915D01*
X30875Y17910D01*
X30925Y17900D01*
X30995Y17885D01*
X31080Y17865D01*
X31170Y17855D01*
X31265Y17845D01*
X31360Y17840D01*
X31385D01*
X31420Y17845D01*
X31460D01*
X31510Y17850D01*
X31565Y17860D01*
X31685Y17890D01*
X31695Y17895D01*
X31715Y17900D01*
X31745Y17910D01*
X31785Y17930D01*
X31830Y17950D01*
X31875Y17975D01*
X31920Y18005D01*
X31965Y18040D01*
X31970Y18045D01*
X31985Y18060D01*
X32005Y18080D01*
X32025Y18110D01*
X32055Y18140D01*
X32080Y18180D01*
X32105Y18225D01*
X32130Y18270D01*
X32135Y18275D01*
X32140Y18295D01*
X32150Y18320D01*
X32160Y18360D01*
X32170Y18405D01*
X32175Y18460D01*
X32185Y18525D01*
Y18595D01*
Y18605D01*
Y18630D01*
X32180Y18665D01*
X32175Y18710D01*
X32170Y18760D01*
X32160Y18810D01*
X32140Y18865D01*
X32120Y18915D01*
X32115Y18920D01*
X32110Y18935D01*
X32095Y18960D01*
X32075Y18990D01*
X32050Y19020D01*
X32025Y19055D01*
X31990Y19085D01*
X31950Y19115D01*
X31945Y19120D01*
X31930Y19125D01*
X31905Y19140D01*
X31875Y19155D01*
X31835Y19175D01*
X31790Y19190D01*
X31740Y19205D01*
X31685Y19220D01*
X31680D01*
X31660Y19225D01*
X31630Y19230D01*
X31590Y19235D01*
X31540Y19240D01*
X31485Y19245D01*
X31420Y19250D01*
X31140D01*
Y19650D01*
X31340D01*
X31365Y19655D01*
X31395D01*
X31430Y19660D01*
X31515Y19670D01*
X31610Y19685D01*
X31705Y19715D01*
X31800Y19750D01*
X31890Y19800D01*
X31895D01*
X31900Y19805D01*
X31925Y19830D01*
X31960Y19865D01*
X32000Y19915D01*
X32040Y19980D01*
X32075Y20055D01*
X32100Y20145D01*
X32110Y20195D01*
Y20250D01*
Y20255D01*
Y20270D01*
X32105Y20295D01*
Y20325D01*
X32085Y20400D01*
X32070Y20440D01*
X32050Y20475D01*
Y20480D01*
X32040Y20490D01*
X32030Y20510D01*
X32010Y20535D01*
X31965Y20585D01*
X31900Y20635D01*
X31895Y20640D01*
X31880Y20645D01*
X31860Y20655D01*
X31835Y20670D01*
X31800Y20685D01*
X31760Y20700D01*
X31675Y20725D01*
X31670D01*
X31655Y20730D01*
X31630Y20735D01*
X31600Y20740D01*
X31560D01*
X31515Y20745D01*
X31465Y20750D01*
X31370D01*
X31325Y20745D01*
X31265Y20740D01*
X31190Y20730D01*
X31105Y20715D01*
X31015Y20695D01*
X30920Y20665D01*
X30915D01*
X30910Y20660D01*
X30895Y20655D01*
X30875Y20650D01*
X30825Y20630D01*
X30765Y20605D01*
X30690Y20575D01*
X30610Y20535D01*
X30520Y20490D01*
X30435Y20435D01*
X30415D01*
Y20935D01*
X30425Y20940D01*
X30445Y20950D01*
X30485Y20965D01*
X30535Y20985D01*
X30600Y21010D01*
X30680Y21035D01*
X30770Y21065D01*
X30870Y21090D01*
X30875D01*
X30885Y21095D01*
X30900D01*
X30920Y21100D01*
X30975Y21115D01*
X31045Y21130D01*
X31130Y21140D01*
X31220Y21155D01*
X31320Y21160D01*
X31420Y21165D01*
X31515D01*
X31580Y21160D01*
D02*
G37*
G36*
X28065D02*
X28105D01*
X28195Y21150D01*
X28305Y21135D01*
X28420Y21110D01*
X28540Y21080D01*
X28655Y21035D01*
X28660D01*
X28670Y21030D01*
X28685Y21020D01*
X28705Y21010D01*
X28765Y20985D01*
X28835Y20945D01*
X28920Y20890D01*
X29005Y20830D01*
X29095Y20760D01*
X29180Y20675D01*
X29185Y20670D01*
X29190Y20665D01*
X29200Y20650D01*
X29215Y20630D01*
X29255Y20580D01*
X29305Y20510D01*
X29360Y20425D01*
X29415Y20325D01*
X29470Y20210D01*
X29515Y20085D01*
Y20080D01*
X29520Y20070D01*
X29525Y20050D01*
X29535Y20025D01*
X29545Y19990D01*
X29555Y19950D01*
X29565Y19905D01*
X29575Y19855D01*
X29585Y19800D01*
X29595Y19735D01*
X29615Y19600D01*
X29630Y19450D01*
X29635Y19290D01*
Y19285D01*
Y19260D01*
Y19225D01*
X29630Y19180D01*
X29625Y19125D01*
X29620Y19060D01*
X29615Y18985D01*
X29600Y18905D01*
X29585Y18820D01*
X29570Y18730D01*
X29520Y18545D01*
X29490Y18450D01*
X29455Y18360D01*
X29415Y18270D01*
X29365Y18180D01*
X29360Y18175D01*
X29355Y18160D01*
X29335Y18135D01*
X29315Y18105D01*
X29290Y18070D01*
X29255Y18030D01*
X29220Y17980D01*
X29175Y17935D01*
X29125Y17880D01*
X29070Y17830D01*
X29010Y17775D01*
X28950Y17725D01*
X28805Y17630D01*
X28725Y17585D01*
X28645Y17550D01*
Y17545D01*
Y17540D01*
Y17525D01*
X28650Y17505D01*
X28655Y17460D01*
X28665Y17400D01*
X28680Y17330D01*
X28700Y17265D01*
X28730Y17195D01*
X28770Y17135D01*
X28775Y17130D01*
X28795Y17110D01*
X28825Y17085D01*
X28870Y17060D01*
X28935Y17030D01*
X29010Y17005D01*
X29100Y16985D01*
X29210Y16980D01*
X29250D01*
X29275Y16985D01*
X29310Y16990D01*
X29350Y16995D01*
X29445Y17015D01*
X29450D01*
X29465Y17020D01*
X29490Y17025D01*
X29520Y17035D01*
X29585Y17050D01*
X29615Y17055D01*
X29640Y17065D01*
X29705D01*
Y16625D01*
X29700D01*
X29680Y16620D01*
X29650Y16615D01*
X29615Y16605D01*
X29570Y16600D01*
X29520Y16590D01*
X29415Y16575D01*
X29410D01*
X29390Y16570D01*
X29365D01*
X29325Y16565D01*
X29285Y16560D01*
X29235D01*
X29130Y16555D01*
X29090D01*
X29060Y16560D01*
X29025D01*
X28985Y16565D01*
X28890Y16585D01*
X28780Y16610D01*
X28670Y16650D01*
X28555Y16710D01*
X28505Y16745D01*
X28455Y16785D01*
X28450Y16790D01*
X28445Y16795D01*
X28430Y16810D01*
X28415Y16830D01*
X28395Y16850D01*
X28375Y16880D01*
X28350Y16915D01*
X28330Y16955D01*
X28305Y17000D01*
X28280Y17045D01*
X28235Y17160D01*
X28205Y17295D01*
X28190Y17365D01*
X28185Y17445D01*
X28175D01*
X28150Y17440D01*
X28110Y17435D01*
X28070Y17430D01*
X28035D01*
X28005Y17425D01*
X27900D01*
X27870Y17430D01*
X27830D01*
X27735Y17440D01*
X27630Y17455D01*
X27515Y17480D01*
X27395Y17510D01*
X27275Y17550D01*
X27270D01*
X27260Y17555D01*
X27245Y17565D01*
X27225Y17575D01*
X27165Y17600D01*
X27095Y17640D01*
X27010Y17695D01*
X26925Y17755D01*
X26835Y17825D01*
X26750Y17910D01*
Y17915D01*
X26740Y17920D01*
X26730Y17935D01*
X26715Y17955D01*
X26675Y18005D01*
X26625Y18075D01*
X26570Y18160D01*
X26515Y18260D01*
X26465Y18370D01*
X26415Y18495D01*
Y18500D01*
X26410Y18510D01*
X26405Y18530D01*
X26395Y18555D01*
X26390Y18590D01*
X26380Y18630D01*
X26370Y18675D01*
X26360Y18725D01*
X26345Y18780D01*
X26335Y18845D01*
X26320Y18980D01*
X26305Y19130D01*
X26300Y19290D01*
Y19295D01*
Y19310D01*
Y19335D01*
Y19365D01*
X26305Y19405D01*
Y19450D01*
X26310Y19500D01*
X26315Y19555D01*
X26330Y19675D01*
X26350Y19805D01*
X26375Y19940D01*
X26415Y20075D01*
Y20080D01*
X26420Y20090D01*
X26425Y20110D01*
X26435Y20135D01*
X26450Y20165D01*
X26465Y20200D01*
X26500Y20280D01*
X26545Y20375D01*
X26605Y20475D01*
X26675Y20580D01*
X26750Y20675D01*
X26755Y20680D01*
X26760Y20685D01*
X26790Y20715D01*
X26835Y20755D01*
X26895Y20810D01*
X26975Y20865D01*
X27060Y20925D01*
X27165Y20985D01*
X27275Y21035D01*
X27280D01*
X27290Y21040D01*
X27305Y21045D01*
X27330Y21055D01*
X27360Y21065D01*
X27395Y21075D01*
X27435Y21090D01*
X27480Y21100D01*
X27580Y21125D01*
X27700Y21145D01*
X27830Y21160D01*
X27965Y21165D01*
X28030D01*
X28065Y21160D01*
D02*
G37*
G36*
X29210Y68150D02*
X29285Y68140D01*
X29300D01*
X29320Y68135D01*
X29350Y68130D01*
X29410Y68115D01*
X29485Y68095D01*
Y67640D01*
X29455D01*
X29445Y67645D01*
X29430Y67655D01*
X29410Y67660D01*
X29380Y67670D01*
X29345Y67680D01*
X29305Y67695D01*
X29255Y67705D01*
X29250D01*
X29230Y67710D01*
X29205Y67715D01*
X29170Y67725D01*
X29130Y67730D01*
X29080Y67735D01*
X28980Y67740D01*
X28930D01*
X28895Y67735D01*
X28850Y67730D01*
X28800Y67725D01*
X28745Y67715D01*
X28685Y67700D01*
X28550Y67660D01*
X28485Y67635D01*
X28415Y67605D01*
X28345Y67565D01*
X28280Y67520D01*
X28215Y67470D01*
X28155Y67415D01*
X28150Y67410D01*
X28140Y67400D01*
X28125Y67380D01*
X28105Y67355D01*
X28085Y67325D01*
X28055Y67285D01*
X28025Y67235D01*
X27995Y67185D01*
X27965Y67125D01*
X27935Y67055D01*
X27905Y66985D01*
X27875Y66905D01*
X27850Y66820D01*
X27830Y66730D01*
X27810Y66635D01*
X27800Y66535D01*
X27810Y66540D01*
X27835Y66555D01*
X27875Y66580D01*
X27925Y66605D01*
X27985Y66635D01*
X28050Y66670D01*
X28120Y66700D01*
X28195Y66725D01*
X28205Y66730D01*
X28230Y66735D01*
X28270Y66745D01*
X28325Y66760D01*
X28390Y66770D01*
X28470Y66780D01*
X28555Y66785D01*
X28650Y66790D01*
X28730D01*
X28785Y66785D01*
X28845Y66780D01*
X28915Y66770D01*
X29050Y66745D01*
X29060D01*
X29080Y66735D01*
X29115Y66725D01*
X29160Y66710D01*
X29215Y66685D01*
X29275Y66655D01*
X29340Y66620D01*
X29410Y66575D01*
X29420Y66570D01*
X29445Y66550D01*
X29480Y66515D01*
X29530Y66475D01*
X29580Y66420D01*
X29630Y66360D01*
X29680Y66285D01*
X29725Y66205D01*
X29730Y66195D01*
X29740Y66165D01*
X29760Y66115D01*
X29780Y66055D01*
X29800Y65975D01*
X29820Y65880D01*
X29830Y65775D01*
X29835Y65660D01*
Y65655D01*
Y65635D01*
Y65610D01*
X29830Y65570D01*
X29825Y65525D01*
X29815Y65470D01*
X29805Y65410D01*
X29790Y65345D01*
X29770Y65275D01*
X29745Y65205D01*
X29720Y65130D01*
X29685Y65055D01*
X29640Y64980D01*
X29595Y64905D01*
X29540Y64835D01*
X29475Y64770D01*
X29470Y64765D01*
X29460Y64755D01*
X29440Y64740D01*
X29410Y64715D01*
X29375Y64690D01*
X29335Y64660D01*
X29285Y64630D01*
X29230Y64600D01*
X29170Y64565D01*
X29100Y64535D01*
X29030Y64505D01*
X28950Y64480D01*
X28865Y64455D01*
X28780Y64440D01*
X28685Y64430D01*
X28590Y64425D01*
X28545D01*
X28495Y64430D01*
X28430Y64435D01*
X28355Y64445D01*
X28275Y64460D01*
X28195Y64480D01*
X28110Y64505D01*
X28100Y64510D01*
X28075Y64520D01*
X28035Y64540D01*
X27980Y64565D01*
X27925Y64600D01*
X27860Y64640D01*
X27795Y64690D01*
X27730Y64750D01*
X27720Y64760D01*
X27695Y64785D01*
X27660Y64830D01*
X27610Y64890D01*
X27560Y64965D01*
X27505Y65060D01*
X27455Y65165D01*
X27410Y65280D01*
Y65285D01*
X27405Y65295D01*
X27400Y65315D01*
X27395Y65340D01*
X27385Y65370D01*
X27375Y65410D01*
X27365Y65455D01*
X27355Y65505D01*
X27345Y65560D01*
X27335Y65620D01*
X27315Y65755D01*
X27305Y65905D01*
X27300Y66075D01*
Y66080D01*
Y66095D01*
Y66120D01*
Y66155D01*
X27305Y66195D01*
Y66245D01*
X27310Y66300D01*
X27315Y66360D01*
X27325Y66490D01*
X27340Y66630D01*
X27365Y66780D01*
X27400Y66920D01*
Y66925D01*
X27405Y66935D01*
X27410Y66955D01*
X27420Y66980D01*
X27430Y67015D01*
X27445Y67050D01*
X27480Y67140D01*
X27525Y67245D01*
X27580Y67355D01*
X27645Y67465D01*
X27725Y67575D01*
X27730Y67580D01*
X27735Y67585D01*
X27745Y67600D01*
X27765Y67620D01*
X27810Y67670D01*
X27870Y67730D01*
X27950Y67800D01*
X28045Y67870D01*
X28150Y67935D01*
X28270Y68000D01*
X28275D01*
X28285Y68005D01*
X28305Y68015D01*
X28330Y68025D01*
X28360Y68035D01*
X28400Y68050D01*
X28445Y68065D01*
X28495Y68080D01*
X28550Y68090D01*
X28610Y68105D01*
X28740Y68130D01*
X28890Y68150D01*
X29050Y68155D01*
X29130D01*
X29210Y68150D01*
D02*
G37*
G36*
X25660D02*
X25735Y68145D01*
X25825Y68140D01*
X25920Y68125D01*
X26025Y68110D01*
X26130Y68085D01*
X26135D01*
X26145Y68080D01*
X26160D01*
X26180Y68070D01*
X26210Y68065D01*
X26240Y68055D01*
X26320Y68030D01*
X26415Y67995D01*
X26525Y67950D01*
X26645Y67900D01*
X26775Y67840D01*
Y67275D01*
X26735D01*
X26730Y67280D01*
X26720Y67285D01*
X26705Y67300D01*
X26685Y67315D01*
X26660Y67335D01*
X26625Y67360D01*
X26550Y67410D01*
X26460Y67470D01*
X26360Y67530D01*
X26255Y67585D01*
X26145Y67630D01*
X26140D01*
X26130Y67635D01*
X26115Y67640D01*
X26095Y67650D01*
X26070Y67655D01*
X26035Y67665D01*
X25960Y67690D01*
X25865Y67710D01*
X25760Y67725D01*
X25645Y67740D01*
X25525Y67745D01*
X25480D01*
X25425Y67740D01*
X25360Y67735D01*
X25285Y67725D01*
X25200Y67705D01*
X25115Y67685D01*
X25030Y67655D01*
X25020Y67650D01*
X24995Y67640D01*
X24955Y67615D01*
X24900Y67585D01*
X24840Y67550D01*
X24775Y67500D01*
X24710Y67445D01*
X24645Y67380D01*
X24640Y67370D01*
X24620Y67350D01*
X24590Y67310D01*
X24550Y67255D01*
X24510Y67190D01*
X24465Y67110D01*
X24425Y67025D01*
X24385Y66925D01*
Y66920D01*
X24380Y66915D01*
X24375Y66895D01*
X24370Y66875D01*
X24365Y66850D01*
X24355Y66820D01*
X24340Y66740D01*
X24325Y66650D01*
X24310Y66540D01*
X24300Y66415D01*
X24295Y66285D01*
Y66280D01*
Y66270D01*
Y66250D01*
Y66220D01*
X24300Y66190D01*
Y66150D01*
X24310Y66065D01*
X24320Y65960D01*
X24335Y65855D01*
X24360Y65740D01*
X24395Y65635D01*
Y65630D01*
X24400Y65625D01*
X24405Y65610D01*
X24415Y65590D01*
X24435Y65540D01*
X24465Y65480D01*
X24505Y65410D01*
X24550Y65335D01*
X24600Y65260D01*
X24660Y65190D01*
X24670Y65180D01*
X24690Y65160D01*
X24725Y65130D01*
X24775Y65090D01*
X24830Y65050D01*
X24900Y65005D01*
X24975Y64965D01*
X25055Y64930D01*
X25060D01*
X25065Y64925D01*
X25095Y64915D01*
X25140Y64905D01*
X25200Y64890D01*
X25270Y64870D01*
X25350Y64860D01*
X25440Y64850D01*
X25530Y64845D01*
X25590D01*
X25620Y64850D01*
X25655D01*
X25740Y64860D01*
X25840Y64875D01*
X25950Y64895D01*
X26060Y64920D01*
X26175Y64960D01*
X26180D01*
X26190Y64965D01*
X26205Y64975D01*
X26225Y64985D01*
X26255Y64995D01*
X26285Y65010D01*
X26360Y65050D01*
X26445Y65100D01*
X26540Y65165D01*
X26640Y65235D01*
X26740Y65320D01*
X26775D01*
Y64760D01*
X26770Y64755D01*
X26750Y64750D01*
X26725Y64740D01*
X26695Y64725D01*
X26655Y64705D01*
X26615Y64690D01*
X26530Y64650D01*
X26525D01*
X26510Y64640D01*
X26490Y64630D01*
X26455Y64620D01*
X26415Y64605D01*
X26370Y64585D01*
X26310Y64565D01*
X26250Y64545D01*
X26245D01*
X26225Y64540D01*
X26195Y64530D01*
X26155Y64520D01*
X26110Y64505D01*
X26055Y64495D01*
X25995Y64480D01*
X25930Y64470D01*
X25920D01*
X25900Y64465D01*
X25865Y64460D01*
X25820Y64455D01*
X25765Y64445D01*
X25700Y64440D01*
X25630Y64435D01*
X25490D01*
X25455Y64440D01*
X25415D01*
X25370Y64445D01*
X25320Y64450D01*
X25210Y64460D01*
X25090Y64480D01*
X24970Y64505D01*
X24845Y64540D01*
X24840D01*
X24830Y64545D01*
X24815Y64550D01*
X24790Y64560D01*
X24765Y64575D01*
X24730Y64585D01*
X24655Y64625D01*
X24570Y64675D01*
X24475Y64730D01*
X24380Y64805D01*
X24290Y64885D01*
Y64890D01*
X24280Y64895D01*
X24270Y64910D01*
X24250Y64925D01*
X24210Y64975D01*
X24160Y65045D01*
X24100Y65130D01*
X24040Y65225D01*
X23985Y65340D01*
X23930Y65465D01*
Y65470D01*
X23925Y65480D01*
X23920Y65500D01*
X23910Y65530D01*
X23900Y65560D01*
X23890Y65600D01*
X23875Y65650D01*
X23865Y65700D01*
X23855Y65760D01*
X23840Y65825D01*
X23820Y65965D01*
X23805Y66120D01*
X23800Y66290D01*
Y66295D01*
Y66310D01*
Y66335D01*
Y66365D01*
X23805Y66405D01*
Y66450D01*
X23810Y66500D01*
X23815Y66555D01*
X23830Y66680D01*
X23855Y66810D01*
X23885Y66945D01*
X23925Y67080D01*
Y67085D01*
X23930Y67095D01*
X23940Y67115D01*
X23950Y67140D01*
X23960Y67170D01*
X23975Y67205D01*
X24015Y67285D01*
X24070Y67380D01*
X24130Y67480D01*
X24200Y67580D01*
X24285Y67675D01*
X24290Y67680D01*
X24295Y67685D01*
X24325Y67715D01*
X24375Y67755D01*
X24440Y67805D01*
X24520Y67865D01*
X24615Y67920D01*
X24720Y67980D01*
X24835Y68030D01*
X24840D01*
X24850Y68035D01*
X24870Y68040D01*
X24890Y68050D01*
X24925Y68060D01*
X24960Y68070D01*
X25000Y68080D01*
X25045Y68095D01*
X25155Y68115D01*
X25275Y68135D01*
X25410Y68150D01*
X25555Y68155D01*
X25630D01*
X25660Y68150D01*
D02*
G37*
G36*
X70892Y78903D02*
Y78901D01*
Y78895D01*
Y78886D01*
Y78875D01*
Y78860D01*
X70890Y78841D01*
Y78823D01*
X70889Y78803D01*
X70885Y78758D01*
X70880Y78712D01*
X70874Y78667D01*
X70870Y78646D01*
X70865Y78626D01*
Y78624D01*
X70864Y78621D01*
X70862Y78616D01*
X70860Y78609D01*
X70855Y78589D01*
X70847Y78566D01*
X70837Y78538D01*
X70825Y78509D01*
X70812Y78480D01*
X70797Y78453D01*
X70796Y78451D01*
X70794Y78448D01*
X70789Y78441D01*
X70784Y78433D01*
X70776Y78423D01*
X70766Y78410D01*
X70742Y78383D01*
X70714Y78352D01*
X70679Y78320D01*
X70638Y78290D01*
X70593Y78262D01*
X70591D01*
X70588Y78259D01*
X70580Y78255D01*
X70572Y78252D01*
X70558Y78246D01*
X70545Y78241D01*
X70527Y78234D01*
X70508Y78227D01*
X70487Y78222D01*
X70465Y78216D01*
X70440Y78209D01*
X70414Y78204D01*
X70357Y78197D01*
X70294Y78194D01*
X70278D01*
X70266Y78196D01*
X70253D01*
X70236Y78197D01*
X70216Y78201D01*
X70196Y78202D01*
X70152Y78211D01*
X70102Y78224D01*
X70050Y78242D01*
X70024Y78252D01*
X69999Y78265D01*
X69997D01*
X69994Y78269D01*
X69986Y78272D01*
X69977Y78279D01*
X69966Y78285D01*
X69954Y78294D01*
X69924Y78315D01*
X69891Y78343D01*
X69858Y78375D01*
X69824Y78413D01*
X69795Y78455D01*
Y78456D01*
X69793Y78458D01*
X69790Y78463D01*
X69786Y78470D01*
X69778Y78486D01*
X69766Y78508D01*
X69755Y78534D01*
X69743Y78566D01*
X69731Y78601D01*
X69722Y78637D01*
Y78639D01*
X69720Y78642D01*
Y78647D01*
X69718Y78655D01*
X69717Y78666D01*
X69715Y78677D01*
X69713Y78692D01*
X69712Y78707D01*
X69708Y78725D01*
X69707Y78745D01*
X69705Y78767D01*
X69703Y78790D01*
X69702Y78815D01*
Y78841D01*
X69700Y78900D01*
Y79200D01*
X70892D01*
Y78903D01*
D02*
G37*
G36*
X70729Y77874D02*
Y77867D01*
Y77857D01*
X70731Y77844D01*
Y77827D01*
X70732Y77809D01*
X70737Y77769D01*
Y77766D01*
X70739Y77759D01*
X70741Y77749D01*
X70744Y77736D01*
X70751Y77708D01*
X70756Y77693D01*
X70761Y77681D01*
X70762Y77679D01*
X70764Y77675D01*
X70769Y77668D01*
X70774Y77659D01*
X70791Y77641D01*
X70811Y77623D01*
X70812Y77621D01*
X70817Y77620D01*
X70824Y77616D01*
X70834Y77611D01*
X70845Y77608D01*
X70860Y77605D01*
X70877Y77601D01*
X70895Y77600D01*
Y77474D01*
X69821D01*
Y77230D01*
X69700D01*
Y77875D01*
X69821D01*
Y77628D01*
X70620D01*
Y77875D01*
X70729D01*
Y77874D01*
D02*
G37*
G36*
X23925Y35215D02*
X23940Y35214D01*
X23958Y35212D01*
X23978Y35210D01*
X24000Y35205D01*
X24045Y35195D01*
X24093Y35179D01*
X24116Y35169D01*
X24139Y35157D01*
X24161Y35144D01*
X24181Y35127D01*
X24182Y35125D01*
X24186Y35124D01*
X24191Y35119D01*
X24197Y35111D01*
X24206Y35102D01*
X24214Y35091D01*
X24224Y35079D01*
X24234Y35064D01*
X24242Y35048D01*
X24252Y35031D01*
X24261Y35011D01*
X24269Y34989D01*
X24275Y34966D01*
X24280Y34941D01*
X24284Y34916D01*
X24285Y34888D01*
Y34885D01*
Y34876D01*
X24284Y34863D01*
Y34847D01*
X24280Y34827D01*
X24277Y34805D01*
X24274Y34784D01*
X24267Y34760D01*
Y34757D01*
X24264Y34750D01*
X24261Y34739D01*
X24256Y34725D01*
X24247Y34707D01*
X24239Y34689D01*
X24217Y34649D01*
X24216Y34647D01*
X24212Y34641D01*
X24206Y34631D01*
X24196Y34617D01*
X24186Y34603D01*
X24172Y34586D01*
X24143Y34551D01*
X24141Y34549D01*
X24136Y34543D01*
X24126Y34533D01*
X24114Y34521D01*
X24099Y34505D01*
X24083Y34486D01*
X24063Y34466D01*
X24041Y34445D01*
X24040Y34443D01*
X24038Y34442D01*
X24033Y34437D01*
X24026Y34430D01*
X24010Y34415D01*
X23988Y34393D01*
X23962Y34369D01*
X23932Y34342D01*
X23899Y34312D01*
X23865Y34282D01*
X23864Y34280D01*
X23862Y34279D01*
X23857Y34274D01*
X23850Y34269D01*
X23832Y34254D01*
X23811Y34236D01*
X23784Y34212D01*
X23756Y34189D01*
X23696Y34138D01*
X24335D01*
Y34000D01*
X23532D01*
Y34168D01*
X23533Y34169D01*
X23535Y34171D01*
X23540Y34174D01*
X23547Y34179D01*
X23562Y34194D01*
X23583Y34212D01*
X23608Y34234D01*
X23636Y34257D01*
X23666Y34284D01*
X23698Y34310D01*
X23699Y34312D01*
X23701Y34314D01*
X23706Y34317D01*
X23713Y34324D01*
X23728Y34337D01*
X23749Y34355D01*
X23774Y34378D01*
X23801Y34402D01*
X23855Y34455D01*
X23857Y34457D01*
X23862Y34462D01*
X23870Y34470D01*
X23880Y34480D01*
X23892Y34491D01*
X23907Y34506D01*
X23938Y34541D01*
X23973Y34578D01*
X24008Y34617D01*
X24040Y34656D01*
X24053Y34674D01*
X24065Y34691D01*
Y34692D01*
X24068Y34694D01*
X24070Y34699D01*
X24074Y34705D01*
X24083Y34724D01*
X24094Y34747D01*
X24104Y34775D01*
X24114Y34807D01*
X24121Y34843D01*
X24123Y34880D01*
Y34881D01*
Y34885D01*
Y34888D01*
X24121Y34895D01*
X24119Y34911D01*
X24114Y34933D01*
X24108Y34956D01*
X24096Y34981D01*
X24081Y35004D01*
X24061Y35026D01*
X24058Y35028D01*
X24050Y35034D01*
X24036Y35043D01*
X24016Y35052D01*
X23993Y35062D01*
X23963Y35071D01*
X23929Y35077D01*
X23890Y35079D01*
X23879D01*
X23864Y35077D01*
X23844Y35076D01*
X23821Y35072D01*
X23794Y35067D01*
X23766Y35061D01*
X23734Y35052D01*
X23733D01*
X23731Y35051D01*
X23726Y35049D01*
X23719Y35048D01*
X23703Y35041D01*
X23681Y35032D01*
X23656Y35023D01*
X23628Y35008D01*
X23598Y34993D01*
X23568Y34974D01*
X23562D01*
Y35142D01*
X23565Y35144D01*
X23572Y35147D01*
X23585Y35152D01*
X23601Y35159D01*
X23623Y35167D01*
X23648Y35175D01*
X23678Y35185D01*
X23711Y35193D01*
X23713D01*
X23716Y35195D01*
X23721D01*
X23728Y35197D01*
X23746Y35200D01*
X23769Y35205D01*
X23797Y35210D01*
X23829Y35214D01*
X23862Y35215D01*
X23895Y35217D01*
X23913D01*
X23925Y35215D01*
D02*
G37*
G36*
X22659Y35190D02*
X22677D01*
X22697Y35189D01*
X22742Y35185D01*
X22788Y35180D01*
X22833Y35174D01*
X22854Y35170D01*
X22874Y35165D01*
X22876D01*
X22879Y35164D01*
X22884Y35162D01*
X22891Y35160D01*
X22911Y35155D01*
X22934Y35147D01*
X22962Y35137D01*
X22991Y35125D01*
X23020Y35112D01*
X23047Y35097D01*
X23049Y35096D01*
X23052Y35094D01*
X23059Y35089D01*
X23067Y35084D01*
X23077Y35076D01*
X23090Y35066D01*
X23117Y35043D01*
X23148Y35014D01*
X23180Y34979D01*
X23210Y34938D01*
X23238Y34893D01*
Y34891D01*
X23241Y34888D01*
X23245Y34880D01*
X23248Y34872D01*
X23255Y34858D01*
X23259Y34845D01*
X23266Y34827D01*
X23273Y34808D01*
X23278Y34787D01*
X23284Y34765D01*
X23291Y34740D01*
X23296Y34714D01*
X23303Y34657D01*
X23306Y34594D01*
Y34593D01*
Y34588D01*
Y34578D01*
X23304Y34566D01*
Y34553D01*
X23303Y34536D01*
X23299Y34516D01*
X23298Y34496D01*
X23289Y34451D01*
X23276Y34402D01*
X23258Y34350D01*
X23248Y34324D01*
X23235Y34299D01*
Y34297D01*
X23231Y34294D01*
X23228Y34286D01*
X23221Y34277D01*
X23215Y34266D01*
X23206Y34254D01*
X23185Y34224D01*
X23157Y34191D01*
X23125Y34158D01*
X23087Y34124D01*
X23045Y34095D01*
X23044D01*
X23042Y34093D01*
X23037Y34090D01*
X23030Y34086D01*
X23014Y34078D01*
X22992Y34066D01*
X22966Y34055D01*
X22934Y34043D01*
X22899Y34032D01*
X22863Y34022D01*
X22861D01*
X22858Y34020D01*
X22853D01*
X22844Y34018D01*
X22835Y34017D01*
X22823Y34015D01*
X22808Y34013D01*
X22793Y34012D01*
X22775Y34008D01*
X22755Y34007D01*
X22733Y34005D01*
X22710Y34003D01*
X22685Y34002D01*
X22659D01*
X22601Y34000D01*
X22300D01*
Y35192D01*
X22640D01*
X22659Y35190D01*
D02*
G37*
G36*
X27360Y60338D02*
X27390Y60334D01*
X27427Y60331D01*
X27467Y60328D01*
X27510Y60318D01*
X27600Y60298D01*
X27696Y60264D01*
X27743Y60244D01*
X27790Y60221D01*
X27833Y60194D01*
X27873Y60161D01*
X27876Y60158D01*
X27883Y60154D01*
X27893Y60144D01*
X27906Y60128D01*
X27923Y60111D01*
X27940Y60088D01*
X27960Y60065D01*
X27980Y60035D01*
X27996Y60001D01*
X28016Y59968D01*
X28033Y59928D01*
X28049Y59885D01*
X28063Y59838D01*
X28073Y59788D01*
X28080Y59738D01*
X28083Y59682D01*
Y59675D01*
Y59658D01*
X28080Y59632D01*
Y59598D01*
X28073Y59558D01*
X28066Y59515D01*
X28060Y59472D01*
X28046Y59425D01*
Y59418D01*
X28040Y59405D01*
X28033Y59382D01*
X28023Y59355D01*
X28006Y59319D01*
X27990Y59282D01*
X27946Y59202D01*
X27943Y59199D01*
X27936Y59185D01*
X27923Y59165D01*
X27903Y59139D01*
X27883Y59109D01*
X27856Y59075D01*
X27796Y59006D01*
X27793Y59002D01*
X27783Y58989D01*
X27763Y58969D01*
X27740Y58946D01*
X27710Y58912D01*
X27676Y58876D01*
X27637Y58836D01*
X27593Y58792D01*
X27590Y58789D01*
X27587Y58786D01*
X27577Y58776D01*
X27563Y58763D01*
X27530Y58732D01*
X27487Y58689D01*
X27433Y58639D01*
X27373Y58586D01*
X27307Y58526D01*
X27240Y58466D01*
X27237Y58463D01*
X27234Y58459D01*
X27224Y58450D01*
X27210Y58439D01*
X27174Y58410D01*
X27130Y58373D01*
X27077Y58326D01*
X27020Y58280D01*
X26901Y58176D01*
X28183D01*
Y57900D01*
X26571D01*
Y58236D01*
X26574Y58240D01*
X26578Y58243D01*
X26588Y58250D01*
X26601Y58260D01*
X26631Y58290D01*
X26674Y58326D01*
X26724Y58369D01*
X26781Y58416D01*
X26841Y58469D01*
X26904Y58523D01*
X26907Y58526D01*
X26911Y58529D01*
X26921Y58536D01*
X26934Y58549D01*
X26964Y58576D01*
X27007Y58613D01*
X27057Y58659D01*
X27110Y58706D01*
X27220Y58812D01*
X27224Y58816D01*
X27234Y58826D01*
X27250Y58842D01*
X27270Y58862D01*
X27294Y58886D01*
X27323Y58916D01*
X27387Y58986D01*
X27457Y59059D01*
X27527Y59139D01*
X27590Y59215D01*
X27617Y59252D01*
X27640Y59285D01*
Y59289D01*
X27647Y59292D01*
X27650Y59302D01*
X27660Y59315D01*
X27676Y59352D01*
X27700Y59399D01*
X27720Y59455D01*
X27740Y59518D01*
X27753Y59592D01*
X27756Y59665D01*
Y59668D01*
Y59675D01*
Y59682D01*
X27753Y59695D01*
X27750Y59728D01*
X27740Y59772D01*
X27727Y59818D01*
X27703Y59868D01*
X27673Y59915D01*
X27633Y59958D01*
X27627Y59961D01*
X27610Y59975D01*
X27583Y59991D01*
X27543Y60011D01*
X27497Y60031D01*
X27437Y60048D01*
X27367Y60061D01*
X27290Y60065D01*
X27267D01*
X27237Y60061D01*
X27197Y60058D01*
X27150Y60051D01*
X27097Y60041D01*
X27040Y60028D01*
X26977Y60011D01*
X26974D01*
X26971Y60008D01*
X26961Y60005D01*
X26947Y60001D01*
X26914Y59988D01*
X26871Y59971D01*
X26821Y59951D01*
X26764Y59921D01*
X26704Y59891D01*
X26644Y59855D01*
X26631D01*
Y60191D01*
X26638Y60194D01*
X26651Y60201D01*
X26678Y60211D01*
X26711Y60224D01*
X26754Y60241D01*
X26804Y60258D01*
X26864Y60278D01*
X26931Y60294D01*
X26934D01*
X26941Y60298D01*
X26951D01*
X26964Y60301D01*
X27000Y60308D01*
X27047Y60318D01*
X27104Y60328D01*
X27167Y60334D01*
X27234Y60338D01*
X27300Y60341D01*
X27337D01*
X27360Y60338D01*
D02*
G37*
G36*
X39272Y58129D02*
X39270Y58126D01*
X39266Y58120D01*
X39260Y58109D01*
X39252Y58093D01*
X39242Y58076D01*
X39233Y58055D01*
X39222Y58031D01*
X39213Y58005D01*
Y58004D01*
X39212Y58003D01*
X39210Y57999D01*
X39209Y57993D01*
X39206Y57980D01*
X39202Y57961D01*
X39197Y57940D01*
X39194Y57918D01*
X39192Y57892D01*
X39190Y57867D01*
Y57864D01*
Y57859D01*
X39192Y57851D01*
Y57839D01*
X39193Y57826D01*
X39196Y57811D01*
X39202Y57779D01*
X39204Y57778D01*
X39205Y57773D01*
X39208Y57765D01*
X39213Y57754D01*
X39220Y57742D01*
X39228Y57729D01*
X39237Y57717D01*
X39248Y57704D01*
X39249Y57702D01*
X39253Y57700D01*
X39258Y57694D01*
X39266Y57687D01*
X39276Y57681D01*
X39287Y57674D01*
X39301Y57668D01*
X39314Y57661D01*
X39316Y57660D01*
X39321Y57658D01*
X39329Y57656D01*
X39339Y57653D01*
X39353Y57650D01*
X39369Y57649D01*
X39385Y57646D01*
X39411D01*
X39421Y57648D01*
X39432Y57649D01*
X39446Y57650D01*
X39459Y57653D01*
X39474Y57658D01*
X39487Y57664D01*
X39488Y57665D01*
X39492Y57666D01*
X39499Y57670D01*
X39507Y57676D01*
X39515Y57682D01*
X39524Y57692D01*
X39534Y57701D01*
X39542Y57711D01*
X39543Y57713D01*
X39546Y57717D01*
X39549Y57725D01*
X39555Y57734D01*
X39562Y57746D01*
X39567Y57759D01*
X39572Y57775D01*
X39576Y57793D01*
Y57795D01*
X39577Y57801D01*
X39580Y57810D01*
X39582Y57823D01*
X39584Y57839D01*
X39585Y57856D01*
X39587Y57876D01*
Y57898D01*
Y57900D01*
Y57907D01*
Y57919D01*
X39585Y57932D01*
Y57950D01*
X39584Y57968D01*
X39579Y58007D01*
Y58009D01*
X39577Y58015D01*
X39576Y58025D01*
X39573Y58037D01*
X39572Y58051D01*
X39570Y58067D01*
X39567Y58081D01*
X39564Y58096D01*
X40055D01*
Y57523D01*
X39943D01*
Y57972D01*
X39689D01*
Y57971D01*
Y57968D01*
X39691Y57963D01*
Y57955D01*
X39692Y57938D01*
X39693Y57918D01*
Y57916D01*
Y57912D01*
Y57907D01*
X39694Y57900D01*
Y57884D01*
Y57867D01*
Y57866D01*
Y57863D01*
Y57859D01*
Y57854D01*
Y57839D01*
X39693Y57820D01*
X39692Y57799D01*
X39689Y57777D01*
X39685Y57754D01*
X39681Y57731D01*
Y57730D01*
Y57729D01*
X39679Y57722D01*
X39676Y57710D01*
X39671Y57696D01*
X39664Y57680D01*
X39656Y57661D01*
X39647Y57642D01*
X39635Y57624D01*
X39633Y57621D01*
X39628Y57616D01*
X39620Y57606D01*
X39609Y57594D01*
X39596Y57582D01*
X39582Y57569D01*
X39563Y57557D01*
X39543Y57545D01*
X39540Y57544D01*
X39532Y57541D01*
X39520Y57536D01*
X39504Y57531D01*
X39484Y57525D01*
X39460Y57520D01*
X39434Y57517D01*
X39403Y57516D01*
X39393D01*
X39379Y57517D01*
X39362Y57519D01*
X39343Y57523D01*
X39321Y57527D01*
X39298Y57533D01*
X39276Y57541D01*
X39273Y57543D01*
X39265Y57545D01*
X39254Y57551D01*
X39240Y57559D01*
X39224Y57568D01*
X39206Y57580D01*
X39189Y57593D01*
X39173Y57608D01*
X39172Y57610D01*
X39165Y57616D01*
X39157Y57626D01*
X39148Y57638D01*
X39136Y57656D01*
X39125Y57674D01*
X39113Y57696D01*
X39104Y57718D01*
Y57719D01*
X39103Y57721D01*
X39101Y57725D01*
X39100Y57729D01*
X39096Y57742D01*
X39092Y57759D01*
X39088Y57781D01*
X39084Y57806D01*
X39081Y57834D01*
X39080Y57864D01*
Y57866D01*
Y57868D01*
Y57872D01*
Y57878D01*
Y57884D01*
X39081Y57894D01*
X39083Y57912D01*
X39084Y57936D01*
X39087Y57961D01*
X39091Y57988D01*
X39096Y58016D01*
Y58017D01*
X39097Y58019D01*
Y58023D01*
X39099Y58028D01*
X39103Y58041D01*
X39107Y58059D01*
X39113Y58077D01*
X39120Y58097D01*
X39128Y58117D01*
X39136Y58137D01*
X39272D01*
Y58129D01*
D02*
G37*
G36*
X28757Y72815D02*
X28780Y72813D01*
X28806Y72810D01*
X28833Y72805D01*
X28858Y72800D01*
X28861D01*
X28870Y72797D01*
X28881Y72794D01*
X28898Y72787D01*
X28916Y72780D01*
X28936Y72772D01*
X28958Y72760D01*
X28978Y72749D01*
X28981Y72747D01*
X28987Y72742D01*
X28997Y72734D01*
X29011Y72722D01*
X29024Y72709D01*
X29039Y72694D01*
X29054Y72676D01*
X29065Y72656D01*
X29067Y72654D01*
X29070Y72646D01*
X29075Y72634D01*
X29080Y72619D01*
X29085Y72601D01*
X29090Y72579D01*
X29094Y72556D01*
X29095Y72530D01*
Y72528D01*
Y72525D01*
Y72520D01*
X29094Y72513D01*
X29092Y72495D01*
X29087Y72470D01*
X29079Y72443D01*
X29065Y72413D01*
X29047Y72383D01*
X29037Y72370D01*
X29024Y72355D01*
X29021Y72352D01*
X29012Y72344D01*
X28997Y72330D01*
X28978Y72317D01*
X28953Y72300D01*
X28926Y72286D01*
X28894Y72272D01*
X28860Y72262D01*
Y72251D01*
X28861D01*
X28866Y72249D01*
X28874Y72247D01*
X28885Y72246D01*
X28898Y72242D01*
X28913Y72237D01*
X28929Y72231D01*
X28948Y72224D01*
X28949Y72223D01*
X28956Y72221D01*
X28966Y72216D01*
X28978Y72211D01*
X29004Y72194D01*
X29031Y72174D01*
X29032Y72173D01*
X29037Y72168D01*
X29044Y72161D01*
X29054Y72151D01*
X29064Y72138D01*
X29075Y72123D01*
X29085Y72105D01*
X29095Y72086D01*
X29097Y72085D01*
X29099Y72076D01*
X29104Y72066D01*
X29109Y72050D01*
X29112Y72032D01*
X29117Y72008D01*
X29119Y71982D01*
X29120Y71952D01*
Y71950D01*
Y71949D01*
Y71939D01*
X29119Y71922D01*
X29117Y71902D01*
X29114Y71881D01*
X29107Y71854D01*
X29100Y71829D01*
X29090Y71803D01*
X29089Y71799D01*
X29085Y71791D01*
X29079Y71778D01*
X29069Y71763D01*
X29057Y71744D01*
X29042Y71724D01*
X29026Y71705D01*
X29007Y71685D01*
X29004Y71683D01*
X28996Y71675D01*
X28984Y71665D01*
X28966Y71653D01*
X28946Y71640D01*
X28921Y71627D01*
X28894Y71613D01*
X28865Y71602D01*
X28863D01*
X28861Y71600D01*
X28856D01*
X28850Y71598D01*
X28833Y71593D01*
X28811Y71588D01*
X28785Y71583D01*
X28755Y71580D01*
X28722Y71577D01*
X28687Y71575D01*
X28660D01*
X28650Y71577D01*
X28626Y71578D01*
X28596Y71580D01*
X28563Y71585D01*
X28528Y71590D01*
X28491Y71598D01*
X28489D01*
X28488Y71600D01*
X28483D01*
X28476Y71602D01*
X28458Y71607D01*
X28436Y71613D01*
X28411Y71622D01*
X28385Y71630D01*
X28360Y71640D01*
X28335Y71650D01*
Y71817D01*
X28347D01*
X28350Y71816D01*
X28358Y71809D01*
X28373Y71801D01*
X28392Y71791D01*
X28415Y71778D01*
X28443Y71766D01*
X28473Y71753D01*
X28506Y71741D01*
X28508D01*
X28511Y71739D01*
X28516Y71738D01*
X28523Y71736D01*
X28539Y71733D01*
X28563Y71728D01*
X28591Y71721D01*
X28621Y71718D01*
X28652Y71715D01*
X28684Y71713D01*
X28692D01*
X28704Y71715D01*
X28717D01*
X28733Y71716D01*
X28752Y71719D01*
X28791Y71729D01*
X28795Y71731D01*
X28802Y71733D01*
X28811Y71736D01*
X28825Y71743D01*
X28840Y71749D01*
X28855Y71758D01*
X28870Y71768D01*
X28885Y71779D01*
X28886Y71781D01*
X28891Y71786D01*
X28898Y71793D01*
X28904Y71803D01*
X28914Y71812D01*
X28923Y71826D01*
X28931Y71841D01*
X28939Y71856D01*
X28941Y71857D01*
X28943Y71864D01*
X28946Y71872D01*
X28949Y71886D01*
X28953Y71900D01*
X28954Y71919D01*
X28958Y71940D01*
Y71964D01*
Y71967D01*
Y71975D01*
X28956Y71987D01*
X28954Y72002D01*
X28953Y72018D01*
X28949Y72035D01*
X28943Y72053D01*
X28936Y72070D01*
X28934Y72071D01*
X28933Y72076D01*
X28928Y72085D01*
X28921Y72095D01*
X28913Y72105D01*
X28904Y72116D01*
X28893Y72126D01*
X28879Y72136D01*
X28878Y72138D01*
X28873Y72140D01*
X28865Y72145D01*
X28855Y72149D01*
X28841Y72156D01*
X28826Y72161D01*
X28810Y72166D01*
X28791Y72171D01*
X28790D01*
X28783Y72173D01*
X28773Y72174D01*
X28760Y72176D01*
X28743Y72178D01*
X28725Y72179D01*
X28704Y72181D01*
X28611D01*
Y72314D01*
X28677D01*
X28685Y72316D01*
X28695D01*
X28707Y72317D01*
X28735Y72320D01*
X28767Y72325D01*
X28798Y72335D01*
X28830Y72347D01*
X28860Y72364D01*
X28861D01*
X28863Y72365D01*
X28871Y72374D01*
X28883Y72385D01*
X28896Y72402D01*
X28909Y72423D01*
X28921Y72448D01*
X28929Y72478D01*
X28933Y72495D01*
Y72513D01*
Y72515D01*
Y72520D01*
X28931Y72528D01*
Y72538D01*
X28924Y72563D01*
X28919Y72576D01*
X28913Y72588D01*
Y72589D01*
X28909Y72593D01*
X28906Y72599D01*
X28899Y72608D01*
X28885Y72624D01*
X28863Y72641D01*
X28861Y72642D01*
X28856Y72644D01*
X28850Y72648D01*
X28841Y72652D01*
X28830Y72657D01*
X28816Y72662D01*
X28788Y72671D01*
X28787D01*
X28782Y72672D01*
X28773Y72674D01*
X28763Y72676D01*
X28750D01*
X28735Y72677D01*
X28719Y72679D01*
X28687D01*
X28672Y72677D01*
X28652Y72676D01*
X28627Y72672D01*
X28599Y72667D01*
X28569Y72661D01*
X28538Y72651D01*
X28536D01*
X28534Y72649D01*
X28529Y72648D01*
X28523Y72646D01*
X28506Y72639D01*
X28486Y72631D01*
X28461Y72621D01*
X28435Y72608D01*
X28405Y72593D01*
X28376Y72574D01*
X28370D01*
Y72740D01*
X28373Y72742D01*
X28380Y72745D01*
X28393Y72750D01*
X28410Y72757D01*
X28431Y72765D01*
X28458Y72774D01*
X28488Y72784D01*
X28521Y72792D01*
X28523D01*
X28526Y72794D01*
X28531D01*
X28538Y72795D01*
X28556Y72800D01*
X28579Y72805D01*
X28607Y72808D01*
X28637Y72813D01*
X28670Y72815D01*
X28704Y72817D01*
X28735D01*
X28757Y72815D01*
D02*
G37*
G36*
X35858Y58242D02*
X35868D01*
X35881Y58241D01*
X35894Y58238D01*
X35912Y58236D01*
X35929Y58232D01*
X35947Y58226D01*
X35966Y58219D01*
X35986Y58213D01*
X36006Y58204D01*
X36026Y58192D01*
X36046Y58180D01*
X36064Y58165D01*
X36082Y58148D01*
X36083Y58146D01*
X36086Y58144D01*
X36090Y58138D01*
X36096Y58130D01*
X36103Y58121D01*
X36111Y58110D01*
X36120Y58097D01*
X36128Y58083D01*
X36138Y58067D01*
X36146Y58048D01*
X36154Y58029D01*
X36160Y58008D01*
X36167Y57987D01*
X36171Y57963D01*
X36174Y57939D01*
X36175Y57914D01*
Y57912D01*
Y57911D01*
Y57907D01*
Y57902D01*
X36174Y57888D01*
X36172Y57871D01*
X36170Y57853D01*
X36166Y57831D01*
X36160Y57809D01*
X36152Y57786D01*
Y57785D01*
X36151Y57783D01*
X36148Y57775D01*
X36143Y57765D01*
X36136Y57750D01*
X36127Y57734D01*
X36116Y57717D01*
X36103Y57700D01*
X36088Y57682D01*
X36086Y57680D01*
X36079Y57673D01*
X36067Y57664D01*
X36051Y57652D01*
X36031Y57638D01*
X36009Y57624D01*
X35982Y57610D01*
X35951Y57598D01*
X35950D01*
X35947Y57597D01*
X35943Y57596D01*
X35937Y57593D01*
X35928Y57592D01*
X35918Y57589D01*
X35906Y57586D01*
X35893Y57582D01*
X35878Y57580D01*
X35862Y57577D01*
X35844Y57574D01*
X35825Y57573D01*
X35804Y57570D01*
X35783Y57569D01*
X35735Y57568D01*
X35713D01*
X35703Y57569D01*
X35689D01*
X35675Y57570D01*
X35659Y57572D01*
X35623Y57574D01*
X35584Y57580D01*
X35546Y57588D01*
X35506Y57597D01*
X35505D01*
X35502Y57598D01*
X35497Y57600D01*
X35489Y57602D01*
X35481Y57605D01*
X35470Y57609D01*
X35446Y57618D01*
X35419Y57630D01*
X35390Y57645D01*
X35361Y57664D01*
X35333Y57684D01*
X35332D01*
X35330Y57686D01*
X35326Y57689D01*
X35321Y57694D01*
X35308Y57706D01*
X35290Y57723D01*
X35272Y57745D01*
X35253Y57770D01*
X35235Y57798D01*
X35219Y57830D01*
Y57831D01*
X35217Y57834D01*
X35215Y57839D01*
X35213Y57846D01*
X35209Y57854D01*
X35207Y57864D01*
X35203Y57875D01*
X35200Y57888D01*
X35196Y57903D01*
X35192Y57919D01*
X35187Y57954D01*
X35181Y57993D01*
X35180Y58036D01*
Y58037D01*
Y58041D01*
Y58048D01*
Y58056D01*
X35181Y58065D01*
Y58076D01*
X35184Y58099D01*
Y58100D01*
X35185Y58104D01*
Y58109D01*
X35187Y58116D01*
X35191Y58133D01*
X35196Y58150D01*
X35317D01*
Y58145D01*
Y58144D01*
X35316Y58141D01*
X35313Y58137D01*
X35310Y58132D01*
X35308Y58124D01*
X35305Y58116D01*
X35301Y58105D01*
X35298Y58093D01*
Y58092D01*
X35297Y58087D01*
X35296Y58080D01*
X35294Y58071D01*
X35293Y58060D01*
X35292Y58047D01*
X35290Y58017D01*
Y58016D01*
Y58011D01*
Y58004D01*
X35292Y57993D01*
X35293Y57981D01*
X35294Y57968D01*
X35297Y57952D01*
X35301Y57936D01*
X35312Y57900D01*
X35318Y57882D01*
X35326Y57863D01*
X35336Y57846D01*
X35348Y57827D01*
X35361Y57811D01*
X35376Y57795D01*
X35377Y57794D01*
X35380Y57791D01*
X35385Y57787D01*
X35392Y57782D01*
X35399Y57777D01*
X35410Y57769D01*
X35423Y57762D01*
X35437Y57754D01*
X35453Y57746D01*
X35470Y57738D01*
X35490Y57730D01*
X35511Y57722D01*
X35534Y57715D01*
X35558Y57710D01*
X35583Y57705D01*
X35611Y57702D01*
X35610Y57705D01*
X35606Y57713D01*
X35599Y57723D01*
X35591Y57738D01*
X35583Y57755D01*
X35574Y57775D01*
X35566Y57795D01*
X35559Y57815D01*
Y57818D01*
X35556Y57824D01*
X35555Y57835D01*
X35552Y57849D01*
X35550Y57866D01*
X35547Y57884D01*
X35546Y57906D01*
X35544Y57928D01*
Y57931D01*
Y57939D01*
Y57950D01*
X35546Y57964D01*
X35547Y57981D01*
X35548Y57999D01*
X35555Y58036D01*
Y58039D01*
X35558Y58044D01*
X35560Y58053D01*
X35566Y58065D01*
X35571Y58080D01*
X35579Y58096D01*
X35588Y58113D01*
X35600Y58130D01*
X35602Y58133D01*
X35607Y58140D01*
X35616Y58150D01*
X35627Y58162D01*
X35642Y58176D01*
X35658Y58190D01*
X35677Y58204D01*
X35699Y58215D01*
X35700D01*
X35701Y58217D01*
X35709Y58219D01*
X35723Y58225D01*
X35740Y58229D01*
X35761Y58234D01*
X35785Y58240D01*
X35813Y58242D01*
X35844Y58244D01*
X35850D01*
X35858Y58242D01*
D02*
G37*
G36*
X39607Y59099D02*
X39619D01*
X39632Y59097D01*
X39647Y59096D01*
X39680Y59092D01*
X39715Y59085D01*
X39750Y59077D01*
X39786Y59067D01*
X39788D01*
X39790Y59065D01*
X39796Y59063D01*
X39802Y59060D01*
X39810Y59057D01*
X39819Y59053D01*
X39841Y59043D01*
X39866Y59028D01*
X39893Y59012D01*
X39919Y58994D01*
X39944Y58971D01*
X39946Y58970D01*
X39947Y58968D01*
X39955Y58960D01*
X39966Y58947D01*
X39979Y58930D01*
X39995Y58908D01*
X40010Y58883D01*
X40026Y58855D01*
X40039Y58825D01*
Y58823D01*
X40040Y58821D01*
X40042Y58815D01*
X40044Y58810D01*
X40047Y58801D01*
X40050Y58791D01*
X40052Y58781D01*
X40056Y58769D01*
X40062Y58740D01*
X40067Y58708D01*
X40071Y58672D01*
X40072Y58633D01*
Y58632D01*
Y58629D01*
Y58625D01*
Y58620D01*
Y58613D01*
X40071Y58605D01*
X40070Y58585D01*
X40068Y58561D01*
X40064Y58536D01*
X40060Y58508D01*
X40054Y58480D01*
Y58479D01*
X40052Y58476D01*
Y58472D01*
X40050Y58467D01*
X40048Y58459D01*
X40046Y58451D01*
X40039Y58430D01*
X40030Y58404D01*
X40018Y58375D01*
X40004Y58343D01*
X39988Y58309D01*
X39838D01*
Y58319D01*
X39840Y58321D01*
X39841Y58323D01*
X39845Y58327D01*
X39849Y58333D01*
X39854Y58339D01*
X39861Y58349D01*
X39874Y58368D01*
X39890Y58392D01*
X39906Y58419D01*
X39921Y58447D01*
X39933Y58476D01*
Y58478D01*
X39934Y58480D01*
X39935Y58484D01*
X39938Y58490D01*
X39939Y58496D01*
X39942Y58505D01*
X39948Y58525D01*
X39954Y58551D01*
X39958Y58579D01*
X39962Y58609D01*
X39963Y58641D01*
Y58643D01*
Y58644D01*
Y58648D01*
Y58653D01*
X39962Y58668D01*
X39961Y58685D01*
X39958Y58705D01*
X39952Y58728D01*
X39947Y58750D01*
X39939Y58773D01*
X39938Y58776D01*
X39935Y58782D01*
X39929Y58793D01*
X39921Y58807D01*
X39911Y58823D01*
X39898Y58841D01*
X39883Y58858D01*
X39866Y58875D01*
X39863Y58877D01*
X39858Y58882D01*
X39847Y58890D01*
X39833Y58900D01*
X39816Y58911D01*
X39794Y58923D01*
X39772Y58934D01*
X39745Y58944D01*
X39744D01*
X39742Y58946D01*
X39737Y58947D01*
X39732Y58948D01*
X39725Y58950D01*
X39717Y58952D01*
X39696Y58956D01*
X39672Y58960D01*
X39643Y58964D01*
X39609Y58967D01*
X39575Y58968D01*
X39557D01*
X39549Y58967D01*
X39539D01*
X39516Y58964D01*
X39488Y58962D01*
X39460Y58958D01*
X39430Y58951D01*
X39402Y58942D01*
X39401D01*
X39399Y58940D01*
X39395Y58939D01*
X39390Y58936D01*
X39377Y58931D01*
X39361Y58923D01*
X39342Y58912D01*
X39322Y58900D01*
X39302Y58887D01*
X39283Y58871D01*
X39281Y58869D01*
X39276Y58863D01*
X39268Y58854D01*
X39257Y58841D01*
X39246Y58826D01*
X39234Y58807D01*
X39224Y58788D01*
X39214Y58766D01*
Y58765D01*
X39213Y58763D01*
X39210Y58755D01*
X39208Y58744D01*
X39204Y58728D01*
X39198Y58709D01*
X39196Y58688D01*
X39193Y58664D01*
X39192Y58640D01*
Y58639D01*
Y58636D01*
Y58631D01*
Y58624D01*
X39193Y58616D01*
Y58607D01*
X39196Y58584D01*
X39200Y58557D01*
X39205Y58528D01*
X39212Y58499D01*
X39222Y58468D01*
Y58467D01*
X39224Y58464D01*
X39226Y58460D01*
X39229Y58455D01*
X39232Y58447D01*
X39236Y58439D01*
X39246Y58419D01*
X39260Y58396D01*
X39277Y58371D01*
X39296Y58345D01*
X39318Y58318D01*
Y58309D01*
X39169D01*
X39168Y58310D01*
X39167Y58315D01*
X39164Y58322D01*
X39160Y58330D01*
X39154Y58341D01*
X39151Y58351D01*
X39140Y58374D01*
Y58375D01*
X39137Y58379D01*
X39135Y58385D01*
X39132Y58394D01*
X39128Y58404D01*
X39123Y58416D01*
X39117Y58432D01*
X39112Y58448D01*
Y58450D01*
X39111Y58455D01*
X39108Y58463D01*
X39105Y58474D01*
X39101Y58486D01*
X39099Y58500D01*
X39095Y58516D01*
X39092Y58533D01*
Y58536D01*
X39091Y58541D01*
X39089Y58551D01*
X39088Y58563D01*
X39085Y58577D01*
X39084Y58595D01*
X39083Y58613D01*
Y58633D01*
Y58635D01*
Y58637D01*
Y58644D01*
Y58650D01*
X39084Y58660D01*
Y58670D01*
X39085Y58682D01*
X39087Y58696D01*
X39089Y58725D01*
X39095Y58757D01*
X39101Y58789D01*
X39111Y58822D01*
Y58823D01*
X39112Y58826D01*
X39113Y58830D01*
X39116Y58837D01*
X39120Y58843D01*
X39123Y58853D01*
X39133Y58873D01*
X39147Y58895D01*
X39161Y58921D01*
X39181Y58946D01*
X39202Y58970D01*
X39204D01*
X39205Y58972D01*
X39209Y58975D01*
X39213Y58980D01*
X39226Y58991D01*
X39245Y59004D01*
X39268Y59020D01*
X39293Y59036D01*
X39323Y59051D01*
X39357Y59065D01*
X39358D01*
X39361Y59067D01*
X39366Y59068D01*
X39374Y59071D01*
X39382Y59073D01*
X39393Y59076D01*
X39406Y59080D01*
X39419Y59083D01*
X39435Y59085D01*
X39452Y59089D01*
X39490Y59095D01*
X39531Y59099D01*
X39576Y59100D01*
X39596D01*
X39607Y59099D01*
D02*
G37*
G36*
X38155Y50947D02*
Y50828D01*
X37571D01*
Y50685D01*
X37469D01*
Y50828D01*
X37200D01*
Y50951D01*
X37469D01*
Y51408D01*
X37615D01*
X38155Y50947D01*
D02*
G37*
G36*
X25439Y60331D02*
X25489Y60328D01*
X25549Y60324D01*
X25612Y60314D01*
X25682Y60304D01*
X25752Y60288D01*
X25755D01*
X25762Y60284D01*
X25772D01*
X25785Y60278D01*
X25805Y60274D01*
X25825Y60268D01*
X25878Y60251D01*
X25942Y60228D01*
X26015Y60198D01*
X26095Y60164D01*
X26181Y60124D01*
Y59748D01*
X26155D01*
X26151Y59751D01*
X26145Y59755D01*
X26135Y59765D01*
X26121Y59775D01*
X26105Y59788D01*
X26081Y59805D01*
X26032Y59838D01*
X25972Y59878D01*
X25905Y59918D01*
X25835Y59955D01*
X25762Y59985D01*
X25758D01*
X25752Y59988D01*
X25742Y59991D01*
X25728Y59998D01*
X25712Y60001D01*
X25688Y60008D01*
X25639Y60024D01*
X25575Y60038D01*
X25505Y60048D01*
X25429Y60058D01*
X25349Y60061D01*
X25319D01*
X25282Y60058D01*
X25239Y60054D01*
X25189Y60048D01*
X25132Y60035D01*
X25076Y60021D01*
X25019Y60001D01*
X25012Y59998D01*
X24996Y59991D01*
X24969Y59975D01*
X24933Y59955D01*
X24893Y59931D01*
X24849Y59898D01*
X24806Y59861D01*
X24763Y59818D01*
X24759Y59811D01*
X24746Y59798D01*
X24726Y59772D01*
X24700Y59735D01*
X24673Y59692D01*
X24643Y59638D01*
X24616Y59582D01*
X24590Y59515D01*
Y59512D01*
X24586Y59508D01*
X24583Y59495D01*
X24580Y59482D01*
X24576Y59465D01*
X24570Y59445D01*
X24560Y59392D01*
X24550Y59332D01*
X24540Y59259D01*
X24533Y59175D01*
X24530Y59089D01*
Y59086D01*
Y59079D01*
Y59066D01*
Y59045D01*
X24533Y59026D01*
Y58999D01*
X24540Y58942D01*
X24546Y58872D01*
X24556Y58802D01*
X24573Y58726D01*
X24596Y58656D01*
Y58653D01*
X24600Y58649D01*
X24603Y58639D01*
X24610Y58626D01*
X24623Y58593D01*
X24643Y58553D01*
X24669Y58506D01*
X24700Y58456D01*
X24733Y58406D01*
X24773Y58359D01*
X24779Y58353D01*
X24793Y58340D01*
X24816Y58320D01*
X24849Y58293D01*
X24886Y58266D01*
X24933Y58236D01*
X24983Y58210D01*
X25036Y58186D01*
X25039D01*
X25043Y58183D01*
X25063Y58176D01*
X25092Y58170D01*
X25132Y58160D01*
X25179Y58146D01*
X25232Y58140D01*
X25292Y58133D01*
X25352Y58130D01*
X25392D01*
X25412Y58133D01*
X25435D01*
X25492Y58140D01*
X25559Y58150D01*
X25632Y58163D01*
X25705Y58180D01*
X25782Y58206D01*
X25785D01*
X25792Y58210D01*
X25802Y58216D01*
X25815Y58223D01*
X25835Y58230D01*
X25855Y58240D01*
X25905Y58266D01*
X25962Y58300D01*
X26025Y58343D01*
X26091Y58390D01*
X26158Y58446D01*
X26181D01*
Y58073D01*
X26178Y58070D01*
X26165Y58066D01*
X26148Y58060D01*
X26128Y58050D01*
X26101Y58037D01*
X26075Y58026D01*
X26018Y58000D01*
X26015D01*
X26005Y57993D01*
X25991Y57987D01*
X25968Y57980D01*
X25942Y57970D01*
X25912Y57957D01*
X25872Y57943D01*
X25832Y57930D01*
X25828D01*
X25815Y57927D01*
X25795Y57920D01*
X25768Y57913D01*
X25738Y57903D01*
X25702Y57897D01*
X25662Y57887D01*
X25619Y57880D01*
X25612D01*
X25599Y57877D01*
X25575Y57873D01*
X25545Y57870D01*
X25509Y57863D01*
X25465Y57860D01*
X25419Y57857D01*
X25326D01*
X25302Y57860D01*
X25276D01*
X25246Y57863D01*
X25212Y57867D01*
X25139Y57873D01*
X25059Y57887D01*
X24979Y57903D01*
X24896Y57927D01*
X24893D01*
X24886Y57930D01*
X24876Y57933D01*
X24859Y57940D01*
X24843Y57950D01*
X24819Y57957D01*
X24769Y57983D01*
X24713Y58017D01*
X24649Y58053D01*
X24586Y58103D01*
X24526Y58156D01*
Y58160D01*
X24520Y58163D01*
X24513Y58173D01*
X24500Y58183D01*
X24473Y58216D01*
X24440Y58263D01*
X24400Y58320D01*
X24360Y58383D01*
X24323Y58459D01*
X24287Y58543D01*
Y58546D01*
X24283Y58553D01*
X24280Y58566D01*
X24273Y58586D01*
X24267Y58606D01*
X24260Y58633D01*
X24250Y58666D01*
X24243Y58699D01*
X24237Y58739D01*
X24227Y58782D01*
X24213Y58876D01*
X24203Y58979D01*
X24200Y59092D01*
Y59096D01*
Y59105D01*
Y59122D01*
Y59142D01*
X24203Y59169D01*
Y59199D01*
X24207Y59232D01*
X24210Y59269D01*
X24220Y59352D01*
X24237Y59439D01*
X24257Y59528D01*
X24283Y59618D01*
Y59622D01*
X24287Y59628D01*
X24293Y59642D01*
X24300Y59658D01*
X24307Y59678D01*
X24317Y59702D01*
X24343Y59755D01*
X24380Y59818D01*
X24420Y59885D01*
X24466Y59951D01*
X24523Y60014D01*
X24526Y60018D01*
X24530Y60021D01*
X24550Y60041D01*
X24583Y60068D01*
X24626Y60101D01*
X24679Y60141D01*
X24743Y60178D01*
X24813Y60218D01*
X24889Y60251D01*
X24893D01*
X24899Y60254D01*
X24913Y60258D01*
X24926Y60264D01*
X24949Y60271D01*
X24973Y60278D01*
X24999Y60284D01*
X25029Y60294D01*
X25102Y60308D01*
X25182Y60321D01*
X25272Y60331D01*
X25369Y60334D01*
X25419D01*
X25439Y60331D01*
D02*
G37*
G36*
X27459Y72790D02*
X27477D01*
X27497Y72789D01*
X27542Y72785D01*
X27588Y72780D01*
X27633Y72774D01*
X27654Y72770D01*
X27674Y72765D01*
X27676D01*
X27679Y72764D01*
X27684Y72762D01*
X27691Y72760D01*
X27711Y72755D01*
X27734Y72747D01*
X27762Y72737D01*
X27791Y72725D01*
X27820Y72712D01*
X27847Y72697D01*
X27849Y72696D01*
X27852Y72694D01*
X27859Y72689D01*
X27867Y72684D01*
X27877Y72676D01*
X27890Y72666D01*
X27917Y72642D01*
X27948Y72614D01*
X27980Y72579D01*
X28010Y72538D01*
X28038Y72493D01*
Y72491D01*
X28041Y72488D01*
X28045Y72480D01*
X28048Y72471D01*
X28054Y72458D01*
X28060Y72445D01*
X28066Y72427D01*
X28073Y72408D01*
X28078Y72387D01*
X28084Y72365D01*
X28091Y72340D01*
X28096Y72314D01*
X28103Y72257D01*
X28106Y72194D01*
Y72193D01*
Y72188D01*
Y72178D01*
X28104Y72166D01*
Y72153D01*
X28103Y72136D01*
X28099Y72116D01*
X28098Y72096D01*
X28089Y72052D01*
X28076Y72002D01*
X28058Y71950D01*
X28048Y71924D01*
X28035Y71899D01*
Y71897D01*
X28031Y71894D01*
X28028Y71886D01*
X28021Y71877D01*
X28015Y71866D01*
X28006Y71854D01*
X27985Y71824D01*
X27957Y71791D01*
X27925Y71758D01*
X27887Y71724D01*
X27845Y71695D01*
X27844D01*
X27842Y71693D01*
X27837Y71690D01*
X27830Y71686D01*
X27814Y71678D01*
X27792Y71666D01*
X27766Y71655D01*
X27734Y71643D01*
X27699Y71631D01*
X27663Y71622D01*
X27661D01*
X27658Y71620D01*
X27653D01*
X27645Y71618D01*
X27635Y71617D01*
X27623Y71615D01*
X27608Y71613D01*
X27593Y71612D01*
X27575Y71608D01*
X27555Y71607D01*
X27533Y71605D01*
X27510Y71603D01*
X27485Y71602D01*
X27459D01*
X27400Y71600D01*
X27100D01*
Y72792D01*
X27440D01*
X27459Y72790D01*
D02*
G37*
G36*
X37707Y52299D02*
X37719D01*
X37732Y52297D01*
X37747Y52296D01*
X37780Y52292D01*
X37815Y52285D01*
X37850Y52277D01*
X37886Y52267D01*
X37888D01*
X37890Y52265D01*
X37896Y52263D01*
X37902Y52260D01*
X37910Y52257D01*
X37920Y52253D01*
X37941Y52243D01*
X37966Y52228D01*
X37993Y52212D01*
X38019Y52194D01*
X38045Y52171D01*
X38046Y52170D01*
X38047Y52168D01*
X38055Y52160D01*
X38066Y52147D01*
X38079Y52130D01*
X38095Y52109D01*
X38110Y52083D01*
X38126Y52055D01*
X38139Y52025D01*
Y52023D01*
X38140Y52021D01*
X38142Y52015D01*
X38144Y52010D01*
X38147Y52001D01*
X38150Y51991D01*
X38152Y51981D01*
X38156Y51969D01*
X38162Y51940D01*
X38167Y51908D01*
X38171Y51872D01*
X38172Y51833D01*
Y51832D01*
Y51829D01*
Y51825D01*
Y51820D01*
Y51813D01*
X38171Y51805D01*
X38170Y51785D01*
X38168Y51761D01*
X38164Y51736D01*
X38160Y51708D01*
X38154Y51680D01*
Y51679D01*
X38152Y51676D01*
Y51672D01*
X38150Y51667D01*
X38148Y51659D01*
X38146Y51651D01*
X38139Y51630D01*
X38130Y51604D01*
X38118Y51575D01*
X38104Y51543D01*
X38088Y51509D01*
X37938D01*
Y51519D01*
X37940Y51521D01*
X37941Y51523D01*
X37945Y51527D01*
X37949Y51533D01*
X37954Y51539D01*
X37961Y51549D01*
X37974Y51569D01*
X37990Y51592D01*
X38006Y51619D01*
X38021Y51647D01*
X38033Y51676D01*
Y51678D01*
X38034Y51680D01*
X38035Y51684D01*
X38038Y51689D01*
X38039Y51696D01*
X38042Y51705D01*
X38048Y51725D01*
X38054Y51751D01*
X38058Y51779D01*
X38062Y51809D01*
X38063Y51841D01*
Y51842D01*
Y51844D01*
Y51848D01*
Y51853D01*
X38062Y51868D01*
X38061Y51885D01*
X38058Y51905D01*
X38052Y51928D01*
X38047Y51950D01*
X38039Y51973D01*
X38038Y51976D01*
X38035Y51982D01*
X38029Y51993D01*
X38021Y52007D01*
X38011Y52023D01*
X37998Y52041D01*
X37983Y52058D01*
X37966Y52075D01*
X37963Y52077D01*
X37958Y52082D01*
X37947Y52090D01*
X37933Y52100D01*
X37916Y52111D01*
X37894Y52123D01*
X37872Y52134D01*
X37845Y52144D01*
X37844D01*
X37842Y52146D01*
X37837Y52147D01*
X37832Y52148D01*
X37825Y52150D01*
X37817Y52152D01*
X37796Y52156D01*
X37772Y52160D01*
X37743Y52164D01*
X37709Y52167D01*
X37675Y52168D01*
X37657D01*
X37650Y52167D01*
X37639D01*
X37616Y52164D01*
X37588Y52162D01*
X37560Y52158D01*
X37530Y52151D01*
X37502Y52142D01*
X37501D01*
X37499Y52140D01*
X37495Y52139D01*
X37490Y52136D01*
X37477Y52131D01*
X37461Y52123D01*
X37442Y52113D01*
X37422Y52100D01*
X37402Y52087D01*
X37383Y52071D01*
X37381Y52069D01*
X37376Y52063D01*
X37368Y52054D01*
X37357Y52041D01*
X37346Y52026D01*
X37334Y52007D01*
X37324Y51987D01*
X37314Y51966D01*
Y51965D01*
X37313Y51964D01*
X37310Y51955D01*
X37308Y51944D01*
X37304Y51928D01*
X37298Y51909D01*
X37296Y51888D01*
X37293Y51864D01*
X37292Y51840D01*
Y51838D01*
Y51836D01*
Y51831D01*
Y51824D01*
X37293Y51816D01*
Y51807D01*
X37296Y51784D01*
X37300Y51757D01*
X37305Y51728D01*
X37312Y51699D01*
X37322Y51668D01*
Y51667D01*
X37324Y51664D01*
X37326Y51660D01*
X37329Y51655D01*
X37332Y51647D01*
X37336Y51639D01*
X37346Y51619D01*
X37360Y51596D01*
X37377Y51571D01*
X37396Y51545D01*
X37418Y51518D01*
Y51509D01*
X37269D01*
X37268Y51510D01*
X37266Y51515D01*
X37264Y51522D01*
X37260Y51530D01*
X37255Y51541D01*
X37251Y51551D01*
X37240Y51574D01*
Y51575D01*
X37237Y51579D01*
X37235Y51585D01*
X37232Y51594D01*
X37228Y51604D01*
X37223Y51616D01*
X37217Y51632D01*
X37212Y51648D01*
Y51650D01*
X37211Y51655D01*
X37208Y51663D01*
X37205Y51674D01*
X37201Y51686D01*
X37199Y51700D01*
X37195Y51716D01*
X37192Y51733D01*
Y51736D01*
X37191Y51741D01*
X37189Y51751D01*
X37188Y51763D01*
X37185Y51777D01*
X37184Y51795D01*
X37183Y51813D01*
Y51833D01*
Y51834D01*
Y51837D01*
Y51844D01*
Y51850D01*
X37184Y51860D01*
Y51870D01*
X37185Y51882D01*
X37187Y51896D01*
X37189Y51925D01*
X37195Y51957D01*
X37201Y51989D01*
X37211Y52022D01*
Y52023D01*
X37212Y52026D01*
X37213Y52030D01*
X37216Y52037D01*
X37220Y52043D01*
X37223Y52053D01*
X37233Y52073D01*
X37247Y52095D01*
X37261Y52121D01*
X37281Y52146D01*
X37302Y52170D01*
X37304D01*
X37305Y52172D01*
X37309Y52175D01*
X37313Y52180D01*
X37326Y52191D01*
X37345Y52204D01*
X37368Y52220D01*
X37393Y52236D01*
X37423Y52251D01*
X37457Y52265D01*
X37458D01*
X37461Y52267D01*
X37466Y52268D01*
X37474Y52271D01*
X37482Y52273D01*
X37493Y52276D01*
X37506Y52280D01*
X37519Y52283D01*
X37535Y52285D01*
X37552Y52289D01*
X37590Y52295D01*
X37631Y52299D01*
X37676Y52300D01*
X37696D01*
X37707Y52299D01*
D02*
G37*
G36*
X58517Y49512D02*
X58542Y49510D01*
X58572Y49509D01*
X58604Y49503D01*
X58639Y49499D01*
X58674Y49490D01*
X58675D01*
X58679Y49489D01*
X58684D01*
X58690Y49485D01*
X58700Y49484D01*
X58710Y49480D01*
X58737Y49472D01*
X58768Y49460D01*
X58805Y49445D01*
X58845Y49429D01*
X58888Y49409D01*
Y49221D01*
X58874D01*
X58873Y49223D01*
X58869Y49225D01*
X58864Y49230D01*
X58858Y49235D01*
X58850Y49241D01*
X58838Y49250D01*
X58813Y49266D01*
X58783Y49286D01*
X58750Y49306D01*
X58715Y49324D01*
X58679Y49339D01*
X58677D01*
X58674Y49341D01*
X58669Y49343D01*
X58662Y49346D01*
X58654Y49347D01*
X58642Y49351D01*
X58617Y49359D01*
X58586Y49366D01*
X58551Y49371D01*
X58513Y49376D01*
X58473Y49377D01*
X58458D01*
X58439Y49376D01*
X58418Y49374D01*
X58393Y49371D01*
X58365Y49364D01*
X58337Y49357D01*
X58308Y49347D01*
X58305Y49346D01*
X58297Y49343D01*
X58284Y49334D01*
X58265Y49324D01*
X58245Y49313D01*
X58224Y49296D01*
X58202Y49278D01*
X58180Y49256D01*
X58179Y49253D01*
X58172Y49246D01*
X58162Y49233D01*
X58149Y49215D01*
X58136Y49193D01*
X58121Y49167D01*
X58108Y49138D01*
X58094Y49105D01*
Y49103D01*
X58093Y49102D01*
X58091Y49095D01*
X58089Y49088D01*
X58088Y49080D01*
X58084Y49070D01*
X58079Y49044D01*
X58074Y49014D01*
X58069Y48977D01*
X58066Y48936D01*
X58064Y48893D01*
Y48891D01*
Y48888D01*
Y48881D01*
Y48871D01*
X58066Y48861D01*
Y48848D01*
X58069Y48820D01*
X58073Y48785D01*
X58078Y48750D01*
X58086Y48712D01*
X58097Y48677D01*
Y48675D01*
X58099Y48673D01*
X58101Y48669D01*
X58104Y48662D01*
X58111Y48645D01*
X58121Y48625D01*
X58134Y48602D01*
X58149Y48577D01*
X58166Y48552D01*
X58185Y48529D01*
X58189Y48526D01*
X58196Y48519D01*
X58207Y48509D01*
X58224Y48496D01*
X58242Y48483D01*
X58265Y48468D01*
X58290Y48454D01*
X58317Y48443D01*
X58318D01*
X58320Y48441D01*
X58330Y48438D01*
X58345Y48434D01*
X58365Y48430D01*
X58388Y48423D01*
X58415Y48419D01*
X58444Y48416D01*
X58474Y48414D01*
X58494D01*
X58504Y48416D01*
X58516D01*
X58544Y48419D01*
X58577Y48425D01*
X58614Y48431D01*
X58650Y48439D01*
X58688Y48453D01*
X58690D01*
X58693Y48454D01*
X58698Y48458D01*
X58705Y48461D01*
X58715Y48464D01*
X58725Y48469D01*
X58750Y48483D01*
X58778Y48499D01*
X58810Y48521D01*
X58843Y48544D01*
X58876Y48572D01*
X58888D01*
Y48386D01*
X58886Y48385D01*
X58879Y48383D01*
X58871Y48380D01*
X58861Y48375D01*
X58848Y48368D01*
X58835Y48363D01*
X58806Y48350D01*
X58805D01*
X58800Y48346D01*
X58793Y48343D01*
X58781Y48340D01*
X58768Y48335D01*
X58753Y48328D01*
X58733Y48322D01*
X58713Y48315D01*
X58712D01*
X58705Y48313D01*
X58695Y48310D01*
X58682Y48307D01*
X58667Y48302D01*
X58649Y48298D01*
X58629Y48293D01*
X58607Y48290D01*
X58604D01*
X58597Y48288D01*
X58586Y48287D01*
X58571Y48285D01*
X58552Y48282D01*
X58531Y48280D01*
X58508Y48278D01*
X58461D01*
X58450Y48280D01*
X58436D01*
X58421Y48282D01*
X58405Y48283D01*
X58368Y48287D01*
X58328Y48293D01*
X58288Y48302D01*
X58247Y48313D01*
X58245D01*
X58242Y48315D01*
X58237Y48317D01*
X58229Y48320D01*
X58220Y48325D01*
X58209Y48328D01*
X58184Y48342D01*
X58156Y48358D01*
X58124Y48376D01*
X58093Y48401D01*
X58063Y48428D01*
Y48430D01*
X58059Y48431D01*
X58056Y48436D01*
X58049Y48441D01*
X58036Y48458D01*
X58020Y48481D01*
X58000Y48509D01*
X57980Y48541D01*
X57961Y48579D01*
X57943Y48620D01*
Y48622D01*
X57942Y48625D01*
X57940Y48632D01*
X57937Y48642D01*
X57933Y48652D01*
X57930Y48665D01*
X57925Y48682D01*
X57922Y48698D01*
X57918Y48718D01*
X57913Y48740D01*
X57907Y48786D01*
X57902Y48838D01*
X57900Y48894D01*
Y48896D01*
Y48901D01*
Y48909D01*
Y48919D01*
X57902Y48932D01*
Y48947D01*
X57903Y48964D01*
X57905Y48982D01*
X57910Y49024D01*
X57918Y49067D01*
X57928Y49112D01*
X57942Y49157D01*
Y49158D01*
X57943Y49161D01*
X57946Y49168D01*
X57950Y49176D01*
X57953Y49186D01*
X57958Y49198D01*
X57971Y49225D01*
X57990Y49256D01*
X58010Y49289D01*
X58033Y49323D01*
X58061Y49354D01*
X58063Y49356D01*
X58064Y49357D01*
X58074Y49367D01*
X58091Y49381D01*
X58113Y49397D01*
X58139Y49417D01*
X58171Y49435D01*
X58205Y49455D01*
X58244Y49472D01*
X58245D01*
X58249Y49474D01*
X58255Y49475D01*
X58262Y49479D01*
X58274Y49482D01*
X58285Y49485D01*
X58298Y49489D01*
X58313Y49494D01*
X58350Y49500D01*
X58390Y49507D01*
X58434Y49512D01*
X58483Y49514D01*
X58508D01*
X58517Y49512D01*
D02*
G37*
G36*
X59577Y48421D02*
X59821D01*
Y48300D01*
X59175D01*
Y48421D01*
X59422D01*
Y49220D01*
X59175D01*
Y49329D01*
X59193D01*
X59206Y49331D01*
X59223D01*
X59241Y49332D01*
X59281Y49338D01*
X59284D01*
X59291Y49339D01*
X59301Y49341D01*
X59314Y49344D01*
X59342Y49351D01*
X59358Y49356D01*
X59369Y49361D01*
X59371Y49362D01*
X59376Y49364D01*
X59382Y49369D01*
X59391Y49374D01*
X59409Y49391D01*
X59427Y49411D01*
X59429Y49412D01*
X59430Y49417D01*
X59434Y49424D01*
X59439Y49434D01*
X59442Y49445D01*
X59446Y49460D01*
X59449Y49477D01*
X59450Y49495D01*
X59577D01*
Y48421D01*
D02*
G37*
G36*
X44065Y67860D02*
X44105D01*
X44195Y67850D01*
X44305Y67835D01*
X44420Y67810D01*
X44540Y67780D01*
X44655Y67735D01*
X44660D01*
X44670Y67730D01*
X44685Y67720D01*
X44705Y67710D01*
X44765Y67685D01*
X44835Y67645D01*
X44920Y67590D01*
X45005Y67530D01*
X45095Y67460D01*
X45180Y67375D01*
X45185Y67370D01*
X45190Y67365D01*
X45200Y67350D01*
X45215Y67330D01*
X45255Y67280D01*
X45305Y67210D01*
X45360Y67125D01*
X45415Y67025D01*
X45470Y66910D01*
X45515Y66785D01*
Y66780D01*
X45520Y66770D01*
X45525Y66750D01*
X45535Y66725D01*
X45545Y66690D01*
X45555Y66650D01*
X45565Y66605D01*
X45575Y66555D01*
X45585Y66500D01*
X45595Y66435D01*
X45615Y66300D01*
X45630Y66150D01*
X45635Y65990D01*
Y65985D01*
Y65960D01*
Y65925D01*
X45630Y65880D01*
X45625Y65825D01*
X45620Y65760D01*
X45615Y65685D01*
X45600Y65605D01*
X45585Y65520D01*
X45570Y65430D01*
X45520Y65245D01*
X45490Y65150D01*
X45455Y65060D01*
X45415Y64970D01*
X45365Y64880D01*
X45360Y64875D01*
X45355Y64860D01*
X45335Y64835D01*
X45315Y64805D01*
X45290Y64770D01*
X45255Y64730D01*
X45220Y64680D01*
X45175Y64635D01*
X45125Y64580D01*
X45070Y64530D01*
X45010Y64475D01*
X44950Y64425D01*
X44805Y64330D01*
X44725Y64285D01*
X44645Y64250D01*
Y64245D01*
Y64240D01*
Y64225D01*
X44650Y64205D01*
X44655Y64160D01*
X44665Y64100D01*
X44680Y64030D01*
X44700Y63965D01*
X44730Y63895D01*
X44770Y63835D01*
X44775Y63830D01*
X44795Y63810D01*
X44825Y63785D01*
X44870Y63760D01*
X44935Y63730D01*
X45010Y63705D01*
X45100Y63685D01*
X45210Y63680D01*
X45250D01*
X45275Y63685D01*
X45310Y63690D01*
X45350Y63695D01*
X45445Y63715D01*
X45450D01*
X45465Y63720D01*
X45490Y63725D01*
X45520Y63735D01*
X45585Y63750D01*
X45615Y63755D01*
X45640Y63765D01*
X45705D01*
Y63325D01*
X45700D01*
X45680Y63320D01*
X45650Y63315D01*
X45615Y63305D01*
X45570Y63300D01*
X45520Y63290D01*
X45415Y63275D01*
X45410D01*
X45390Y63270D01*
X45365D01*
X45325Y63265D01*
X45285Y63260D01*
X45235D01*
X45130Y63255D01*
X45090D01*
X45060Y63260D01*
X45025D01*
X44985Y63265D01*
X44890Y63285D01*
X44780Y63310D01*
X44670Y63350D01*
X44555Y63410D01*
X44505Y63445D01*
X44455Y63485D01*
X44450Y63490D01*
X44445Y63495D01*
X44430Y63510D01*
X44415Y63530D01*
X44395Y63550D01*
X44375Y63580D01*
X44350Y63615D01*
X44330Y63655D01*
X44305Y63700D01*
X44280Y63745D01*
X44235Y63860D01*
X44205Y63995D01*
X44190Y64065D01*
X44185Y64145D01*
X44175D01*
X44150Y64140D01*
X44110Y64135D01*
X44070Y64130D01*
X44035D01*
X44005Y64125D01*
X43900D01*
X43870Y64130D01*
X43830D01*
X43735Y64140D01*
X43630Y64155D01*
X43515Y64180D01*
X43395Y64210D01*
X43275Y64250D01*
X43270D01*
X43260Y64255D01*
X43245Y64265D01*
X43225Y64275D01*
X43165Y64300D01*
X43095Y64340D01*
X43010Y64395D01*
X42925Y64455D01*
X42835Y64525D01*
X42750Y64610D01*
Y64615D01*
X42740Y64620D01*
X42730Y64635D01*
X42715Y64655D01*
X42675Y64705D01*
X42625Y64775D01*
X42570Y64860D01*
X42515Y64960D01*
X42465Y65070D01*
X42415Y65195D01*
Y65200D01*
X42410Y65210D01*
X42405Y65230D01*
X42395Y65255D01*
X42390Y65290D01*
X42380Y65330D01*
X42370Y65375D01*
X42360Y65425D01*
X42345Y65480D01*
X42335Y65545D01*
X42320Y65680D01*
X42305Y65830D01*
X42300Y65990D01*
Y65995D01*
Y66010D01*
Y66035D01*
Y66065D01*
X42305Y66105D01*
Y66150D01*
X42310Y66200D01*
X42315Y66255D01*
X42330Y66375D01*
X42350Y66505D01*
X42375Y66640D01*
X42415Y66775D01*
Y66780D01*
X42420Y66790D01*
X42425Y66810D01*
X42435Y66835D01*
X42450Y66865D01*
X42465Y66900D01*
X42500Y66980D01*
X42545Y67075D01*
X42605Y67175D01*
X42675Y67280D01*
X42750Y67375D01*
X42755Y67380D01*
X42760Y67385D01*
X42790Y67415D01*
X42835Y67455D01*
X42895Y67510D01*
X42975Y67565D01*
X43060Y67625D01*
X43165Y67685D01*
X43275Y67735D01*
X43280D01*
X43290Y67740D01*
X43305Y67745D01*
X43330Y67755D01*
X43360Y67765D01*
X43395Y67775D01*
X43435Y67790D01*
X43480Y67800D01*
X43580Y67825D01*
X43700Y67845D01*
X43830Y67860D01*
X43965Y67865D01*
X44030D01*
X44065Y67860D01*
D02*
G37*
G36*
X66417Y48654D02*
X66439Y48652D01*
X66463Y48650D01*
X66487Y48647D01*
X66510Y48643D01*
X66512D01*
X66519Y48640D01*
X66531Y48638D01*
X66544Y48634D01*
X66562Y48628D01*
X66579Y48622D01*
X66597Y48614D01*
X66615Y48603D01*
X66617Y48602D01*
X66623Y48598D01*
X66633Y48590D01*
X66644Y48581D01*
X66657Y48568D01*
X66671Y48554D01*
X66684Y48538D01*
X66696Y48519D01*
X66697Y48517D01*
X66700Y48510D01*
X66705Y48499D01*
X66711Y48485D01*
X66716Y48467D01*
X66721Y48446D01*
X66724Y48421D01*
X66725Y48394D01*
Y48393D01*
Y48390D01*
Y48384D01*
X66724Y48377D01*
Y48368D01*
X66722Y48358D01*
X66718Y48334D01*
X66713Y48307D01*
X66704Y48277D01*
X66690Y48249D01*
X66673Y48221D01*
Y48220D01*
X66671Y48219D01*
X66664Y48209D01*
X66652Y48197D01*
X66636Y48183D01*
X66616Y48166D01*
X66591Y48148D01*
X66562Y48131D01*
X66530Y48116D01*
X66890Y47700D01*
X66725D01*
X66405Y48079D01*
X66226D01*
Y47700D01*
X66100D01*
Y48655D01*
X66397D01*
X66417Y48654D01*
D02*
G37*
G36*
X68219Y47797D02*
X68414D01*
Y47700D01*
X67897D01*
Y47797D01*
X68095D01*
Y48437D01*
X67897D01*
Y48525D01*
X67911D01*
X67922Y48526D01*
X67935D01*
X67950Y48527D01*
X67982Y48531D01*
X67985D01*
X67990Y48533D01*
X67998Y48534D01*
X68009Y48537D01*
X68031Y48542D01*
X68043Y48546D01*
X68052Y48550D01*
X68054Y48551D01*
X68058Y48553D01*
X68063Y48557D01*
X68070Y48561D01*
X68084Y48574D01*
X68099Y48590D01*
X68100Y48591D01*
X68102Y48595D01*
X68104Y48600D01*
X68108Y48608D01*
X68111Y48618D01*
X68114Y48630D01*
X68116Y48643D01*
X68118Y48658D01*
X68219D01*
Y47797D01*
D02*
G37*
G36*
X45685Y72897D02*
X45880D01*
Y72800D01*
X45363D01*
Y72897D01*
X45561D01*
Y73537D01*
X45363D01*
Y73625D01*
X45378D01*
X45388Y73626D01*
X45401D01*
X45416Y73627D01*
X45448Y73631D01*
X45451D01*
X45456Y73633D01*
X45464Y73634D01*
X45475Y73637D01*
X45497Y73642D01*
X45509Y73646D01*
X45518Y73650D01*
X45520Y73651D01*
X45524Y73652D01*
X45529Y73656D01*
X45536Y73660D01*
X45551Y73674D01*
X45565Y73690D01*
X45566Y73691D01*
X45568Y73695D01*
X45570Y73700D01*
X45574Y73708D01*
X45577Y73718D01*
X45580Y73730D01*
X45582Y73743D01*
X45584Y73758D01*
X45685D01*
Y72897D01*
D02*
G37*
G36*
X67385Y47797D02*
X67580D01*
Y47700D01*
X67063D01*
Y47797D01*
X67261D01*
Y48437D01*
X67063D01*
Y48525D01*
X67077D01*
X67088Y48526D01*
X67102D01*
X67116Y48527D01*
X67148Y48531D01*
X67151D01*
X67156Y48533D01*
X67164Y48534D01*
X67175Y48537D01*
X67197Y48542D01*
X67209Y48546D01*
X67219Y48550D01*
X67220Y48551D01*
X67224Y48553D01*
X67229Y48557D01*
X67236Y48561D01*
X67251Y48574D01*
X67265Y48590D01*
X67266Y48591D01*
X67268Y48595D01*
X67270Y48600D01*
X67274Y48608D01*
X67277Y48618D01*
X67280Y48630D01*
X67282Y48643D01*
X67284Y48658D01*
X67385D01*
Y47797D01*
D02*
G37*
G36*
X57510Y103160D02*
X57580Y103155D01*
X57660Y103145D01*
X57740Y103130D01*
X57815Y103115D01*
X57825D01*
X57850Y103105D01*
X57885Y103095D01*
X57935Y103075D01*
X57990Y103055D01*
X58050Y103030D01*
X58115Y102995D01*
X58175Y102960D01*
X58185Y102955D01*
X58205Y102940D01*
X58235Y102915D01*
X58275Y102880D01*
X58315Y102840D01*
X58360Y102795D01*
X58405Y102740D01*
X58440Y102680D01*
X58445Y102675D01*
X58455Y102650D01*
X58470Y102615D01*
X58485Y102570D01*
X58500Y102515D01*
X58515Y102450D01*
X58525Y102380D01*
X58530Y102300D01*
Y102295D01*
Y102285D01*
Y102270D01*
X58525Y102250D01*
X58520Y102195D01*
X58505Y102120D01*
X58480Y102040D01*
X58440Y101950D01*
X58385Y101860D01*
X58355Y101820D01*
X58315Y101775D01*
X58305Y101765D01*
X58280Y101740D01*
X58235Y101700D01*
X58175Y101660D01*
X58100Y101610D01*
X58020Y101565D01*
X57925Y101525D01*
X57820Y101495D01*
Y101460D01*
X57825D01*
X57840Y101455D01*
X57865Y101450D01*
X57895Y101445D01*
X57935Y101435D01*
X57980Y101420D01*
X58030Y101400D01*
X58085Y101380D01*
X58090Y101375D01*
X58110Y101370D01*
X58140Y101355D01*
X58175Y101340D01*
X58255Y101290D01*
X58335Y101230D01*
X58340Y101225D01*
X58355Y101210D01*
X58375Y101190D01*
X58405Y101160D01*
X58435Y101120D01*
X58470Y101075D01*
X58500Y101020D01*
X58530Y100965D01*
X58535Y100960D01*
X58540Y100935D01*
X58555Y100905D01*
X58570Y100855D01*
X58580Y100800D01*
X58595Y100730D01*
X58600Y100650D01*
X58605Y100560D01*
Y100555D01*
Y100550D01*
Y100520D01*
X58600Y100470D01*
X58595Y100410D01*
X58585Y100345D01*
X58565Y100265D01*
X58545Y100190D01*
X58515Y100110D01*
X58510Y100100D01*
X58500Y100075D01*
X58480Y100035D01*
X58450Y99990D01*
X58415Y99935D01*
X58370Y99875D01*
X58320Y99815D01*
X58265Y99755D01*
X58255Y99750D01*
X58230Y99725D01*
X58195Y99695D01*
X58140Y99660D01*
X58080Y99620D01*
X58005Y99580D01*
X57925Y99540D01*
X57835Y99505D01*
X57830D01*
X57825Y99500D01*
X57810D01*
X57790Y99495D01*
X57740Y99480D01*
X57675Y99465D01*
X57595Y99450D01*
X57505Y99440D01*
X57405Y99430D01*
X57300Y99425D01*
X57220D01*
X57190Y99430D01*
X57115Y99435D01*
X57025Y99440D01*
X56925Y99455D01*
X56820Y99470D01*
X56710Y99495D01*
X56705D01*
X56700Y99500D01*
X56685D01*
X56665Y99505D01*
X56610Y99520D01*
X56545Y99540D01*
X56470Y99565D01*
X56390Y99590D01*
X56315Y99620D01*
X56240Y99650D01*
Y100155D01*
X56275D01*
X56285Y100150D01*
X56310Y100130D01*
X56355Y100105D01*
X56410Y100075D01*
X56480Y100035D01*
X56565Y100000D01*
X56655Y99960D01*
X56755Y99925D01*
X56760D01*
X56770Y99920D01*
X56785Y99915D01*
X56805Y99910D01*
X56855Y99900D01*
X56925Y99885D01*
X57010Y99865D01*
X57100Y99855D01*
X57195Y99845D01*
X57290Y99840D01*
X57315D01*
X57350Y99845D01*
X57390D01*
X57440Y99850D01*
X57495Y99860D01*
X57615Y99890D01*
X57625Y99895D01*
X57645Y99900D01*
X57675Y99910D01*
X57715Y99930D01*
X57760Y99950D01*
X57805Y99975D01*
X57850Y100005D01*
X57895Y100040D01*
X57900Y100045D01*
X57915Y100060D01*
X57935Y100080D01*
X57955Y100110D01*
X57985Y100140D01*
X58010Y100180D01*
X58035Y100225D01*
X58060Y100270D01*
X58065Y100275D01*
X58070Y100295D01*
X58080Y100320D01*
X58090Y100360D01*
X58100Y100405D01*
X58105Y100460D01*
X58115Y100525D01*
Y100595D01*
Y100605D01*
Y100630D01*
X58110Y100665D01*
X58105Y100710D01*
X58100Y100760D01*
X58090Y100810D01*
X58070Y100865D01*
X58050Y100915D01*
X58045Y100920D01*
X58040Y100935D01*
X58025Y100960D01*
X58005Y100990D01*
X57980Y101020D01*
X57955Y101055D01*
X57920Y101085D01*
X57880Y101115D01*
X57875Y101120D01*
X57860Y101125D01*
X57835Y101140D01*
X57805Y101155D01*
X57765Y101175D01*
X57720Y101190D01*
X57670Y101205D01*
X57615Y101220D01*
X57610D01*
X57590Y101225D01*
X57560Y101230D01*
X57520Y101235D01*
X57470Y101240D01*
X57415Y101245D01*
X57350Y101250D01*
X57070D01*
Y101650D01*
X57270D01*
X57295Y101655D01*
X57325D01*
X57360Y101660D01*
X57445Y101670D01*
X57540Y101685D01*
X57635Y101715D01*
X57730Y101750D01*
X57820Y101800D01*
X57825D01*
X57830Y101805D01*
X57855Y101830D01*
X57890Y101865D01*
X57930Y101915D01*
X57970Y101980D01*
X58005Y102055D01*
X58030Y102145D01*
X58040Y102195D01*
Y102250D01*
Y102255D01*
Y102270D01*
X58035Y102295D01*
Y102325D01*
X58015Y102400D01*
X58000Y102440D01*
X57980Y102475D01*
Y102480D01*
X57970Y102490D01*
X57960Y102510D01*
X57940Y102535D01*
X57895Y102585D01*
X57830Y102635D01*
X57825Y102640D01*
X57810Y102645D01*
X57790Y102655D01*
X57765Y102670D01*
X57730Y102685D01*
X57690Y102700D01*
X57605Y102725D01*
X57600D01*
X57585Y102730D01*
X57560Y102735D01*
X57530Y102740D01*
X57490D01*
X57445Y102745D01*
X57395Y102750D01*
X57300D01*
X57255Y102745D01*
X57195Y102740D01*
X57120Y102730D01*
X57035Y102715D01*
X56945Y102695D01*
X56850Y102665D01*
X56845D01*
X56840Y102660D01*
X56825Y102655D01*
X56805Y102650D01*
X56755Y102630D01*
X56695Y102605D01*
X56620Y102575D01*
X56540Y102535D01*
X56450Y102490D01*
X56365Y102435D01*
X56345D01*
Y102935D01*
X56355Y102940D01*
X56375Y102950D01*
X56415Y102965D01*
X56465Y102985D01*
X56530Y103010D01*
X56610Y103035D01*
X56700Y103065D01*
X56800Y103090D01*
X56805D01*
X56815Y103095D01*
X56830D01*
X56850Y103100D01*
X56905Y103115D01*
X56975Y103130D01*
X57060Y103140D01*
X57150Y103155D01*
X57250Y103160D01*
X57350Y103165D01*
X57445D01*
X57510Y103160D01*
D02*
G37*
G36*
X53905Y24495D02*
X54440D01*
Y24110D01*
X53905D01*
Y23100D01*
X53440D01*
Y24110D01*
X51725D01*
Y24660D01*
X53455Y26690D01*
X53905D01*
Y24495D01*
D02*
G37*
G36*
X51095Y24030D02*
Y24025D01*
Y24010D01*
Y23985D01*
X51090Y23955D01*
X51085Y23915D01*
X51080Y23870D01*
X51060Y23765D01*
X51025Y23645D01*
X51000Y23585D01*
X50975Y23525D01*
X50940Y23465D01*
X50900Y23410D01*
X50855Y23355D01*
X50805Y23305D01*
X50800Y23300D01*
X50790Y23295D01*
X50775Y23280D01*
X50750Y23265D01*
X50725Y23245D01*
X50690Y23225D01*
X50645Y23200D01*
X50600Y23180D01*
X50545Y23155D01*
X50490Y23130D01*
X50425Y23110D01*
X50355Y23090D01*
X50280Y23075D01*
X50205Y23060D01*
X50120Y23055D01*
X50030Y23050D01*
X49985D01*
X49950Y23055D01*
X49905D01*
X49850Y23060D01*
X49790Y23065D01*
X49720Y23075D01*
X49710D01*
X49690Y23080D01*
X49655Y23085D01*
X49610Y23090D01*
X49560Y23095D01*
X49505Y23100D01*
X49450Y23110D01*
X49400Y23115D01*
Y23565D01*
X49430D01*
X49445Y23560D01*
X49465Y23550D01*
X49495Y23545D01*
X49530Y23535D01*
X49570Y23520D01*
X49620Y23510D01*
X49670Y23495D01*
X49675D01*
X49695Y23490D01*
X49725Y23485D01*
X49760Y23480D01*
X49805Y23470D01*
X49855Y23465D01*
X49965Y23460D01*
X50000D01*
X50045Y23465D01*
X50095D01*
X50150Y23470D01*
X50210Y23480D01*
X50270Y23495D01*
X50320Y23510D01*
X50325D01*
X50340Y23520D01*
X50365Y23530D01*
X50395Y23545D01*
X50460Y23590D01*
X50490Y23620D01*
X50515Y23655D01*
X50520Y23660D01*
X50525Y23670D01*
X50535Y23695D01*
X50550Y23720D01*
X50565Y23755D01*
X50580Y23795D01*
X50590Y23840D01*
X50600Y23890D01*
Y23895D01*
X50605Y23915D01*
Y23945D01*
X50610Y23985D01*
X50615Y24030D01*
Y24085D01*
X50620Y24145D01*
Y24210D01*
Y26310D01*
X49860D01*
Y26690D01*
X51095D01*
Y24030D01*
D02*
G37*
G36*
X62290Y75165D02*
X63025D01*
Y74800D01*
X61080D01*
Y75165D01*
X61825D01*
Y77570D01*
X61080D01*
Y77900D01*
X61135D01*
X61175Y77905D01*
X61225D01*
X61280Y77910D01*
X61400Y77925D01*
X61410D01*
X61430Y77930D01*
X61460Y77935D01*
X61500Y77945D01*
X61585Y77965D01*
X61630Y77980D01*
X61665Y77995D01*
X61670Y78000D01*
X61685Y78005D01*
X61705Y78020D01*
X61730Y78035D01*
X61785Y78085D01*
X61840Y78145D01*
X61845Y78150D01*
X61850Y78165D01*
X61860Y78185D01*
X61875Y78215D01*
X61885Y78250D01*
X61895Y78295D01*
X61905Y78345D01*
X61910Y78400D01*
X62290D01*
Y75165D01*
D02*
G37*
G36*
X47485Y67860D02*
X47530Y67855D01*
X47585Y67850D01*
X47645Y67845D01*
X47710Y67830D01*
X47845Y67800D01*
X47990Y67750D01*
X48060Y67720D01*
X48130Y67685D01*
X48195Y67645D01*
X48255Y67595D01*
X48260Y67590D01*
X48270Y67585D01*
X48285Y67570D01*
X48305Y67545D01*
X48330Y67520D01*
X48355Y67485D01*
X48385Y67450D01*
X48415Y67405D01*
X48440Y67355D01*
X48470Y67305D01*
X48495Y67245D01*
X48520Y67180D01*
X48540Y67110D01*
X48555Y67035D01*
X48565Y66960D01*
X48570Y66875D01*
Y66865D01*
Y66840D01*
X48565Y66800D01*
Y66750D01*
X48555Y66690D01*
X48545Y66625D01*
X48535Y66560D01*
X48515Y66490D01*
Y66480D01*
X48505Y66460D01*
X48495Y66425D01*
X48480Y66385D01*
X48455Y66330D01*
X48430Y66275D01*
X48365Y66155D01*
X48360Y66150D01*
X48350Y66130D01*
X48330Y66100D01*
X48300Y66060D01*
X48270Y66015D01*
X48230Y65965D01*
X48140Y65860D01*
X48135Y65855D01*
X48120Y65835D01*
X48090Y65805D01*
X48055Y65770D01*
X48010Y65720D01*
X47960Y65665D01*
X47900Y65605D01*
X47835Y65540D01*
X47830Y65535D01*
X47825Y65530D01*
X47810Y65515D01*
X47790Y65495D01*
X47740Y65450D01*
X47675Y65385D01*
X47595Y65310D01*
X47505Y65230D01*
X47405Y65140D01*
X47305Y65050D01*
X47300Y65045D01*
X47295Y65040D01*
X47280Y65025D01*
X47260Y65010D01*
X47205Y64965D01*
X47140Y64910D01*
X47060Y64840D01*
X46975Y64770D01*
X46795Y64615D01*
X48720D01*
Y64200D01*
X46300D01*
Y64705D01*
X46305Y64710D01*
X46310Y64715D01*
X46325Y64725D01*
X46345Y64740D01*
X46390Y64785D01*
X46455Y64840D01*
X46530Y64905D01*
X46615Y64975D01*
X46705Y65055D01*
X46800Y65135D01*
X46805Y65140D01*
X46810Y65145D01*
X46825Y65155D01*
X46845Y65175D01*
X46890Y65215D01*
X46955Y65270D01*
X47030Y65340D01*
X47110Y65410D01*
X47275Y65570D01*
X47280Y65575D01*
X47295Y65590D01*
X47320Y65615D01*
X47350Y65645D01*
X47385Y65680D01*
X47430Y65725D01*
X47525Y65830D01*
X47630Y65940D01*
X47735Y66060D01*
X47830Y66175D01*
X47870Y66230D01*
X47905Y66280D01*
Y66285D01*
X47915Y66290D01*
X47920Y66305D01*
X47935Y66325D01*
X47960Y66380D01*
X47995Y66450D01*
X48025Y66535D01*
X48055Y66630D01*
X48075Y66740D01*
X48080Y66850D01*
Y66855D01*
Y66865D01*
Y66875D01*
X48075Y66895D01*
X48070Y66945D01*
X48055Y67010D01*
X48035Y67080D01*
X48000Y67155D01*
X47955Y67225D01*
X47895Y67290D01*
X47885Y67295D01*
X47860Y67315D01*
X47820Y67340D01*
X47760Y67370D01*
X47690Y67400D01*
X47600Y67425D01*
X47495Y67445D01*
X47380Y67450D01*
X47345D01*
X47300Y67445D01*
X47240Y67440D01*
X47170Y67430D01*
X47090Y67415D01*
X47005Y67395D01*
X46910Y67370D01*
X46905D01*
X46900Y67365D01*
X46885Y67360D01*
X46865Y67355D01*
X46815Y67335D01*
X46750Y67310D01*
X46675Y67280D01*
X46590Y67235D01*
X46500Y67190D01*
X46410Y67135D01*
X46390D01*
Y67640D01*
X46400Y67645D01*
X46420Y67655D01*
X46460Y67670D01*
X46510Y67690D01*
X46575Y67715D01*
X46650Y67740D01*
X46740Y67770D01*
X46840Y67795D01*
X46845D01*
X46855Y67800D01*
X46870D01*
X46890Y67805D01*
X46945Y67815D01*
X47015Y67830D01*
X47100Y67845D01*
X47195Y67855D01*
X47295Y67860D01*
X47395Y67865D01*
X47450D01*
X47485Y67860D01*
D02*
G37*
G36*
X55395Y100430D02*
Y100425D01*
Y100410D01*
Y100385D01*
X55390Y100355D01*
X55385Y100315D01*
X55380Y100270D01*
X55360Y100165D01*
X55325Y100045D01*
X55300Y99985D01*
X55275Y99925D01*
X55240Y99865D01*
X55200Y99810D01*
X55155Y99755D01*
X55105Y99705D01*
X55100Y99700D01*
X55090Y99695D01*
X55075Y99680D01*
X55050Y99665D01*
X55025Y99645D01*
X54990Y99625D01*
X54945Y99600D01*
X54900Y99580D01*
X54845Y99555D01*
X54790Y99530D01*
X54725Y99510D01*
X54655Y99490D01*
X54580Y99475D01*
X54505Y99460D01*
X54420Y99455D01*
X54330Y99450D01*
X54285D01*
X54250Y99455D01*
X54205D01*
X54150Y99460D01*
X54090Y99465D01*
X54020Y99475D01*
X54010D01*
X53990Y99480D01*
X53955Y99485D01*
X53910Y99490D01*
X53860Y99495D01*
X53805Y99500D01*
X53750Y99510D01*
X53700Y99515D01*
Y99965D01*
X53730D01*
X53745Y99960D01*
X53765Y99950D01*
X53795Y99945D01*
X53830Y99935D01*
X53870Y99920D01*
X53920Y99910D01*
X53970Y99895D01*
X53975D01*
X53995Y99890D01*
X54025Y99885D01*
X54060Y99880D01*
X54105Y99870D01*
X54155Y99865D01*
X54265Y99860D01*
X54300D01*
X54345Y99865D01*
X54395D01*
X54450Y99870D01*
X54510Y99880D01*
X54570Y99895D01*
X54620Y99910D01*
X54625D01*
X54640Y99920D01*
X54665Y99930D01*
X54695Y99945D01*
X54760Y99990D01*
X54790Y100020D01*
X54815Y100055D01*
X54820Y100060D01*
X54825Y100070D01*
X54835Y100095D01*
X54850Y100120D01*
X54865Y100155D01*
X54880Y100195D01*
X54890Y100240D01*
X54900Y100290D01*
Y100295D01*
X54905Y100315D01*
Y100345D01*
X54910Y100385D01*
X54915Y100430D01*
Y100485D01*
X54920Y100545D01*
Y100610D01*
Y102710D01*
X54160D01*
Y103090D01*
X55395D01*
Y100430D01*
D02*
G37*
G36*
X58565Y78460D02*
X58605D01*
X58695Y78450D01*
X58805Y78435D01*
X58920Y78410D01*
X59040Y78380D01*
X59155Y78335D01*
X59160D01*
X59170Y78330D01*
X59185Y78320D01*
X59205Y78310D01*
X59265Y78285D01*
X59335Y78245D01*
X59420Y78190D01*
X59505Y78130D01*
X59595Y78060D01*
X59680Y77975D01*
X59685Y77970D01*
X59690Y77965D01*
X59700Y77950D01*
X59715Y77930D01*
X59755Y77880D01*
X59805Y77810D01*
X59860Y77725D01*
X59915Y77625D01*
X59970Y77510D01*
X60015Y77385D01*
Y77380D01*
X60020Y77370D01*
X60025Y77350D01*
X60035Y77325D01*
X60045Y77290D01*
X60055Y77250D01*
X60065Y77205D01*
X60075Y77155D01*
X60085Y77100D01*
X60095Y77035D01*
X60115Y76900D01*
X60130Y76750D01*
X60135Y76590D01*
Y76585D01*
Y76560D01*
Y76525D01*
X60130Y76480D01*
X60125Y76425D01*
X60120Y76360D01*
X60115Y76285D01*
X60100Y76205D01*
X60085Y76120D01*
X60070Y76030D01*
X60020Y75845D01*
X59990Y75750D01*
X59955Y75660D01*
X59915Y75570D01*
X59865Y75480D01*
X59860Y75475D01*
X59855Y75460D01*
X59835Y75435D01*
X59815Y75405D01*
X59790Y75370D01*
X59755Y75330D01*
X59720Y75280D01*
X59675Y75235D01*
X59625Y75180D01*
X59570Y75130D01*
X59510Y75075D01*
X59450Y75025D01*
X59305Y74930D01*
X59225Y74885D01*
X59145Y74850D01*
Y74845D01*
Y74840D01*
Y74825D01*
X59150Y74805D01*
X59155Y74760D01*
X59165Y74700D01*
X59180Y74630D01*
X59200Y74565D01*
X59230Y74495D01*
X59270Y74435D01*
X59275Y74430D01*
X59295Y74410D01*
X59325Y74385D01*
X59370Y74360D01*
X59435Y74330D01*
X59510Y74305D01*
X59600Y74285D01*
X59710Y74280D01*
X59750D01*
X59775Y74285D01*
X59810Y74290D01*
X59850Y74295D01*
X59945Y74315D01*
X59950D01*
X59965Y74320D01*
X59990Y74325D01*
X60020Y74335D01*
X60085Y74350D01*
X60115Y74355D01*
X60140Y74365D01*
X60205D01*
Y73925D01*
X60200D01*
X60180Y73920D01*
X60150Y73915D01*
X60115Y73905D01*
X60070Y73900D01*
X60020Y73890D01*
X59915Y73875D01*
X59910D01*
X59890Y73870D01*
X59865D01*
X59825Y73865D01*
X59785Y73860D01*
X59735D01*
X59630Y73855D01*
X59590D01*
X59560Y73860D01*
X59525D01*
X59485Y73865D01*
X59390Y73885D01*
X59280Y73910D01*
X59170Y73950D01*
X59055Y74010D01*
X59005Y74045D01*
X58955Y74085D01*
X58950Y74090D01*
X58945Y74095D01*
X58930Y74110D01*
X58915Y74130D01*
X58895Y74150D01*
X58875Y74180D01*
X58850Y74215D01*
X58830Y74255D01*
X58805Y74300D01*
X58780Y74345D01*
X58735Y74460D01*
X58705Y74595D01*
X58690Y74665D01*
X58685Y74745D01*
X58675D01*
X58650Y74740D01*
X58610Y74735D01*
X58570Y74730D01*
X58535D01*
X58505Y74725D01*
X58400D01*
X58370Y74730D01*
X58330D01*
X58235Y74740D01*
X58130Y74755D01*
X58015Y74780D01*
X57895Y74810D01*
X57775Y74850D01*
X57770D01*
X57760Y74855D01*
X57745Y74865D01*
X57725Y74875D01*
X57665Y74900D01*
X57595Y74940D01*
X57510Y74995D01*
X57425Y75055D01*
X57335Y75125D01*
X57250Y75210D01*
Y75215D01*
X57240Y75220D01*
X57230Y75235D01*
X57215Y75255D01*
X57175Y75305D01*
X57125Y75375D01*
X57070Y75460D01*
X57015Y75560D01*
X56965Y75670D01*
X56915Y75795D01*
Y75800D01*
X56910Y75810D01*
X56905Y75830D01*
X56895Y75855D01*
X56890Y75890D01*
X56880Y75930D01*
X56870Y75975D01*
X56860Y76025D01*
X56845Y76080D01*
X56835Y76145D01*
X56820Y76280D01*
X56805Y76430D01*
X56800Y76590D01*
Y76595D01*
Y76610D01*
Y76635D01*
Y76665D01*
X56805Y76705D01*
Y76750D01*
X56810Y76800D01*
X56815Y76855D01*
X56830Y76975D01*
X56850Y77105D01*
X56875Y77240D01*
X56915Y77375D01*
Y77380D01*
X56920Y77390D01*
X56925Y77410D01*
X56935Y77435D01*
X56950Y77465D01*
X56965Y77500D01*
X57000Y77580D01*
X57045Y77675D01*
X57105Y77775D01*
X57175Y77880D01*
X57250Y77975D01*
X57255Y77980D01*
X57260Y77985D01*
X57290Y78015D01*
X57335Y78055D01*
X57395Y78110D01*
X57475Y78165D01*
X57560Y78225D01*
X57665Y78285D01*
X57775Y78335D01*
X57780D01*
X57790Y78340D01*
X57805Y78345D01*
X57830Y78355D01*
X57860Y78365D01*
X57895Y78375D01*
X57935Y78390D01*
X57980Y78400D01*
X58080Y78425D01*
X58200Y78445D01*
X58330Y78460D01*
X58465Y78465D01*
X58530D01*
X58565Y78460D01*
D02*
G37*
G36*
X44717Y73754D02*
X44739Y73752D01*
X44763Y73750D01*
X44787Y73747D01*
X44810Y73743D01*
X44812D01*
X44819Y73740D01*
X44831Y73738D01*
X44844Y73734D01*
X44862Y73728D01*
X44879Y73722D01*
X44897Y73714D01*
X44915Y73703D01*
X44917Y73702D01*
X44923Y73698D01*
X44933Y73690D01*
X44944Y73681D01*
X44957Y73668D01*
X44971Y73654D01*
X44984Y73638D01*
X44996Y73619D01*
X44997Y73617D01*
X45000Y73610D01*
X45005Y73599D01*
X45011Y73585D01*
X45016Y73567D01*
X45021Y73546D01*
X45024Y73521D01*
X45025Y73494D01*
Y73493D01*
Y73490D01*
Y73484D01*
X45024Y73477D01*
Y73468D01*
X45022Y73458D01*
X45019Y73434D01*
X45013Y73406D01*
X45004Y73377D01*
X44991Y73349D01*
X44973Y73321D01*
Y73320D01*
X44971Y73319D01*
X44964Y73309D01*
X44952Y73297D01*
X44936Y73283D01*
X44916Y73265D01*
X44891Y73248D01*
X44862Y73231D01*
X44830Y73216D01*
X45190Y72800D01*
X45025D01*
X44705Y73179D01*
X44526D01*
Y72800D01*
X44400D01*
Y73755D01*
X44697D01*
X44717Y73754D01*
D02*
G37*
G36*
X39155Y65834D02*
Y65833D01*
Y65830D01*
Y65826D01*
Y65819D01*
Y65813D01*
Y65803D01*
X39154Y65784D01*
X39152Y65761D01*
X39150Y65737D01*
X39147Y65713D01*
X39143Y65690D01*
Y65689D01*
Y65688D01*
X39140Y65681D01*
X39138Y65669D01*
X39134Y65656D01*
X39128Y65639D01*
X39122Y65621D01*
X39114Y65603D01*
X39103Y65585D01*
X39102Y65583D01*
X39098Y65577D01*
X39090Y65567D01*
X39081Y65556D01*
X39068Y65543D01*
X39054Y65529D01*
X39038Y65516D01*
X39019Y65504D01*
X39017Y65503D01*
X39010Y65500D01*
X38999Y65495D01*
X38985Y65490D01*
X38967Y65484D01*
X38946Y65479D01*
X38921Y65476D01*
X38894Y65475D01*
X38884D01*
X38877Y65476D01*
X38868D01*
X38858Y65478D01*
X38834Y65482D01*
X38807Y65487D01*
X38777Y65496D01*
X38749Y65509D01*
X38721Y65527D01*
X38720D01*
X38719Y65529D01*
X38709Y65536D01*
X38697Y65548D01*
X38683Y65564D01*
X38666Y65584D01*
X38648Y65609D01*
X38631Y65639D01*
X38616Y65670D01*
X38200Y65310D01*
Y65475D01*
X38579Y65795D01*
Y65974D01*
X38200D01*
Y66100D01*
X39155D01*
Y65834D01*
D02*
G37*
G36*
X29116Y7854D02*
X29139Y7852D01*
X29163Y7850D01*
X29187Y7847D01*
X29210Y7843D01*
X29212D01*
X29219Y7840D01*
X29231Y7838D01*
X29244Y7834D01*
X29261Y7828D01*
X29279Y7822D01*
X29297Y7814D01*
X29315Y7803D01*
X29317Y7802D01*
X29323Y7798D01*
X29333Y7790D01*
X29344Y7780D01*
X29357Y7768D01*
X29371Y7754D01*
X29384Y7738D01*
X29396Y7719D01*
X29397Y7717D01*
X29400Y7710D01*
X29405Y7699D01*
X29410Y7685D01*
X29416Y7667D01*
X29421Y7646D01*
X29424Y7621D01*
X29425Y7594D01*
Y7593D01*
Y7590D01*
Y7584D01*
X29424Y7577D01*
Y7568D01*
X29422Y7558D01*
X29419Y7534D01*
X29413Y7507D01*
X29404Y7477D01*
X29390Y7449D01*
X29373Y7421D01*
Y7420D01*
X29371Y7419D01*
X29364Y7409D01*
X29352Y7397D01*
X29336Y7383D01*
X29316Y7366D01*
X29291Y7348D01*
X29261Y7331D01*
X29230Y7316D01*
X29590Y6900D01*
X29425D01*
X29105Y7279D01*
X28926D01*
Y6900D01*
X28800D01*
Y7855D01*
X29097D01*
X29116Y7854D01*
D02*
G37*
G36*
X51217Y80254D02*
X51239Y80252D01*
X51263Y80250D01*
X51287Y80247D01*
X51310Y80243D01*
X51312D01*
X51319Y80240D01*
X51331Y80238D01*
X51344Y80234D01*
X51362Y80228D01*
X51379Y80222D01*
X51397Y80214D01*
X51415Y80203D01*
X51417Y80202D01*
X51423Y80198D01*
X51433Y80190D01*
X51444Y80181D01*
X51457Y80168D01*
X51471Y80154D01*
X51484Y80138D01*
X51496Y80119D01*
X51497Y80117D01*
X51500Y80110D01*
X51505Y80099D01*
X51511Y80085D01*
X51516Y80067D01*
X51521Y80046D01*
X51524Y80021D01*
X51525Y79994D01*
Y79993D01*
Y79990D01*
Y79984D01*
X51524Y79977D01*
Y79968D01*
X51522Y79958D01*
X51518Y79934D01*
X51513Y79906D01*
X51504Y79877D01*
X51490Y79849D01*
X51473Y79821D01*
Y79820D01*
X51471Y79819D01*
X51464Y79809D01*
X51452Y79797D01*
X51436Y79783D01*
X51416Y79765D01*
X51391Y79748D01*
X51362Y79731D01*
X51330Y79716D01*
X51690Y79300D01*
X51525D01*
X51205Y79679D01*
X51026D01*
Y79300D01*
X50900D01*
Y80255D01*
X51197D01*
X51217Y80254D01*
D02*
G37*
G36*
X39155Y64806D02*
Y64686D01*
X38571D01*
Y64544D01*
X38469D01*
Y64686D01*
X38200D01*
Y64810D01*
X38469D01*
Y65266D01*
X38615D01*
X39155Y64806D01*
D02*
G37*
G36*
X30838Y7874D02*
X30849Y7872D01*
X30864Y7871D01*
X30880Y7870D01*
X30897Y7866D01*
X30933Y7858D01*
X30972Y7844D01*
X30990Y7836D01*
X31009Y7827D01*
X31026Y7816D01*
X31042Y7803D01*
X31044Y7802D01*
X31046Y7800D01*
X31050Y7796D01*
X31056Y7790D01*
X31062Y7783D01*
X31069Y7774D01*
X31077Y7764D01*
X31085Y7752D01*
X31092Y7739D01*
X31100Y7726D01*
X31106Y7710D01*
X31113Y7693D01*
X31118Y7674D01*
X31122Y7654D01*
X31125Y7634D01*
X31126Y7611D01*
Y7609D01*
Y7602D01*
X31125Y7592D01*
Y7578D01*
X31122Y7562D01*
X31119Y7545D01*
X31117Y7528D01*
X31111Y7509D01*
Y7507D01*
X31109Y7501D01*
X31106Y7492D01*
X31102Y7481D01*
X31096Y7467D01*
X31089Y7452D01*
X31072Y7420D01*
X31070Y7419D01*
X31068Y7413D01*
X31062Y7405D01*
X31054Y7395D01*
X31046Y7383D01*
X31036Y7369D01*
X31012Y7342D01*
X31010Y7340D01*
X31007Y7335D01*
X30999Y7327D01*
X30989Y7318D01*
X30977Y7304D01*
X30964Y7290D01*
X30948Y7274D01*
X30931Y7256D01*
X30929Y7255D01*
X30928Y7254D01*
X30924Y7250D01*
X30919Y7244D01*
X30905Y7232D01*
X30888Y7215D01*
X30867Y7195D01*
X30843Y7174D01*
X30816Y7150D01*
X30790Y7126D01*
X30788Y7125D01*
X30787Y7123D01*
X30783Y7119D01*
X30778Y7115D01*
X30763Y7103D01*
X30746Y7089D01*
X30724Y7070D01*
X30702Y7052D01*
X30654Y7010D01*
X31166D01*
Y6900D01*
X30522D01*
Y7034D01*
X30524Y7036D01*
X30525Y7037D01*
X30529Y7040D01*
X30534Y7044D01*
X30546Y7056D01*
X30564Y7070D01*
X30584Y7087D01*
X30606Y7106D01*
X30630Y7127D01*
X30655Y7149D01*
X30657Y7150D01*
X30658Y7151D01*
X30662Y7154D01*
X30667Y7159D01*
X30679Y7170D01*
X30697Y7185D01*
X30716Y7203D01*
X30738Y7222D01*
X30782Y7264D01*
X30783Y7266D01*
X30787Y7270D01*
X30794Y7276D01*
X30802Y7284D01*
X30811Y7294D01*
X30823Y7306D01*
X30848Y7334D01*
X30876Y7363D01*
X30904Y7395D01*
X30929Y7425D01*
X30940Y7440D01*
X30949Y7453D01*
Y7455D01*
X30952Y7456D01*
X30953Y7460D01*
X30957Y7465D01*
X30964Y7480D01*
X30973Y7498D01*
X30981Y7521D01*
X30989Y7546D01*
X30994Y7576D01*
X30996Y7605D01*
Y7606D01*
Y7609D01*
Y7611D01*
X30994Y7617D01*
X30993Y7630D01*
X30989Y7648D01*
X30984Y7666D01*
X30975Y7686D01*
X30963Y7705D01*
X30947Y7722D01*
X30944Y7723D01*
X30937Y7729D01*
X30927Y7735D01*
X30911Y7743D01*
X30892Y7751D01*
X30868Y7758D01*
X30840Y7763D01*
X30810Y7764D01*
X30800D01*
X30788Y7763D01*
X30772Y7762D01*
X30754Y7759D01*
X30733Y7755D01*
X30710Y7750D01*
X30685Y7743D01*
X30683D01*
X30682Y7742D01*
X30678Y7741D01*
X30673Y7739D01*
X30659Y7734D01*
X30642Y7727D01*
X30622Y7719D01*
X30599Y7707D01*
X30575Y7695D01*
X30552Y7681D01*
X30546D01*
Y7815D01*
X30549Y7816D01*
X30554Y7819D01*
X30565Y7823D01*
X30578Y7828D01*
X30595Y7835D01*
X30615Y7842D01*
X30639Y7850D01*
X30666Y7856D01*
X30667D01*
X30670Y7858D01*
X30674D01*
X30679Y7859D01*
X30694Y7862D01*
X30713Y7866D01*
X30735Y7870D01*
X30760Y7872D01*
X30787Y7874D01*
X30814Y7875D01*
X30828D01*
X30838Y7874D01*
D02*
G37*
G36*
X30085Y6997D02*
X30280D01*
Y6900D01*
X29763D01*
Y6997D01*
X29961D01*
Y7637D01*
X29763D01*
Y7725D01*
X29778D01*
X29788Y7726D01*
X29801D01*
X29816Y7727D01*
X29848Y7731D01*
X29851D01*
X29856Y7733D01*
X29864Y7734D01*
X29875Y7737D01*
X29897Y7742D01*
X29909Y7746D01*
X29919Y7750D01*
X29920Y7751D01*
X29924Y7752D01*
X29929Y7756D01*
X29936Y7761D01*
X29950Y7774D01*
X29965Y7790D01*
X29966Y7791D01*
X29968Y7795D01*
X29970Y7800D01*
X29974Y7808D01*
X29977Y7818D01*
X29980Y7830D01*
X29982Y7843D01*
X29984Y7858D01*
X30085D01*
Y6997D01*
D02*
G37*
G36*
X51416Y74654D02*
X51439Y74652D01*
X51463Y74650D01*
X51487Y74647D01*
X51510Y74643D01*
X51512D01*
X51519Y74640D01*
X51531Y74638D01*
X51544Y74634D01*
X51561Y74628D01*
X51579Y74622D01*
X51597Y74614D01*
X51615Y74603D01*
X51617Y74602D01*
X51623Y74598D01*
X51633Y74590D01*
X51644Y74581D01*
X51657Y74568D01*
X51671Y74554D01*
X51684Y74538D01*
X51696Y74519D01*
X51697Y74517D01*
X51700Y74510D01*
X51705Y74499D01*
X51710Y74485D01*
X51716Y74467D01*
X51721Y74446D01*
X51724Y74421D01*
X51725Y74394D01*
Y74393D01*
Y74390D01*
Y74384D01*
X51724Y74377D01*
Y74368D01*
X51722Y74358D01*
X51718Y74334D01*
X51713Y74306D01*
X51704Y74277D01*
X51691Y74249D01*
X51673Y74221D01*
Y74220D01*
X51671Y74219D01*
X51664Y74209D01*
X51652Y74197D01*
X51636Y74183D01*
X51616Y74165D01*
X51591Y74148D01*
X51561Y74131D01*
X51530Y74116D01*
X51890Y73700D01*
X51725D01*
X51405Y74079D01*
X51226D01*
Y73700D01*
X51100D01*
Y74655D01*
X51397D01*
X51416Y74654D01*
D02*
G37*
G36*
X52304Y74674D02*
X52316Y74672D01*
X52330Y74671D01*
X52346Y74670D01*
X52364Y74666D01*
X52399Y74658D01*
X52438Y74644D01*
X52457Y74636D01*
X52475Y74627D01*
X52492Y74616D01*
X52508Y74603D01*
X52510Y74602D01*
X52513Y74600D01*
X52516Y74596D01*
X52522Y74590D01*
X52528Y74583D01*
X52535Y74574D01*
X52543Y74564D01*
X52551Y74553D01*
X52558Y74539D01*
X52566Y74526D01*
X52572Y74510D01*
X52579Y74493D01*
X52584Y74474D01*
X52588Y74454D01*
X52591Y74434D01*
X52592Y74411D01*
Y74409D01*
Y74402D01*
X52591Y74392D01*
Y74378D01*
X52588Y74362D01*
X52586Y74345D01*
X52583Y74328D01*
X52578Y74309D01*
Y74306D01*
X52575Y74301D01*
X52572Y74292D01*
X52568Y74281D01*
X52562Y74267D01*
X52555Y74252D01*
X52538Y74220D01*
X52536Y74219D01*
X52534Y74213D01*
X52528Y74205D01*
X52520Y74195D01*
X52513Y74183D01*
X52502Y74169D01*
X52478Y74142D01*
X52477Y74140D01*
X52473Y74135D01*
X52465Y74127D01*
X52455Y74118D01*
X52443Y74104D01*
X52430Y74090D01*
X52414Y74074D01*
X52397Y74056D01*
X52395Y74055D01*
X52394Y74054D01*
X52390Y74050D01*
X52385Y74045D01*
X52372Y74032D01*
X52354Y74015D01*
X52333Y73995D01*
X52309Y73974D01*
X52282Y73950D01*
X52256Y73926D01*
X52254Y73925D01*
X52253Y73923D01*
X52249Y73919D01*
X52244Y73915D01*
X52229Y73904D01*
X52212Y73889D01*
X52191Y73870D01*
X52168Y73852D01*
X52120Y73810D01*
X52632D01*
Y73700D01*
X51988D01*
Y73834D01*
X51990Y73836D01*
X51991Y73837D01*
X51995Y73840D01*
X52000Y73844D01*
X52012Y73856D01*
X52030Y73870D01*
X52050Y73887D01*
X52072Y73906D01*
X52096Y73927D01*
X52121Y73949D01*
X52123Y73950D01*
X52124Y73951D01*
X52128Y73954D01*
X52133Y73959D01*
X52145Y73970D01*
X52163Y73985D01*
X52183Y74003D01*
X52204Y74022D01*
X52248Y74064D01*
X52249Y74066D01*
X52253Y74070D01*
X52260Y74076D01*
X52268Y74084D01*
X52277Y74094D01*
X52289Y74106D01*
X52314Y74134D01*
X52342Y74163D01*
X52370Y74195D01*
X52395Y74225D01*
X52406Y74240D01*
X52415Y74253D01*
Y74255D01*
X52418Y74256D01*
X52419Y74260D01*
X52423Y74265D01*
X52430Y74280D01*
X52439Y74299D01*
X52447Y74321D01*
X52455Y74346D01*
X52461Y74376D01*
X52462Y74405D01*
Y74406D01*
Y74409D01*
Y74411D01*
X52461Y74417D01*
X52459Y74430D01*
X52455Y74448D01*
X52450Y74466D01*
X52441Y74486D01*
X52429Y74505D01*
X52413Y74522D01*
X52410Y74523D01*
X52403Y74529D01*
X52393Y74535D01*
X52377Y74543D01*
X52358Y74551D01*
X52334Y74558D01*
X52306Y74563D01*
X52276Y74564D01*
X52266D01*
X52254Y74563D01*
X52239Y74562D01*
X52220Y74559D01*
X52199Y74555D01*
X52176Y74550D01*
X52151Y74543D01*
X52149D01*
X52148Y74542D01*
X52144Y74541D01*
X52139Y74539D01*
X52125Y74534D01*
X52108Y74527D01*
X52088Y74519D01*
X52066Y74507D01*
X52042Y74495D01*
X52018Y74481D01*
X52012D01*
Y74615D01*
X52015Y74616D01*
X52020Y74619D01*
X52031Y74623D01*
X52044Y74628D01*
X52062Y74635D01*
X52082Y74642D01*
X52105Y74650D01*
X52132Y74656D01*
X52133D01*
X52136Y74658D01*
X52140D01*
X52145Y74659D01*
X52160Y74662D01*
X52179Y74666D01*
X52201Y74670D01*
X52227Y74672D01*
X52253Y74674D01*
X52280Y74675D01*
X52294D01*
X52304Y74674D01*
D02*
G37*
G36*
X52129Y80274D02*
X52148Y80272D01*
X52169Y80270D01*
X52190Y80266D01*
X52210Y80262D01*
X52213D01*
X52219Y80259D01*
X52229Y80256D01*
X52242Y80251D01*
X52257Y80246D01*
X52273Y80239D01*
X52290Y80230D01*
X52306Y80220D01*
X52308Y80219D01*
X52314Y80215D01*
X52322Y80208D01*
X52332Y80199D01*
X52343Y80188D01*
X52355Y80177D01*
X52367Y80162D01*
X52376Y80146D01*
X52378Y80145D01*
X52380Y80138D01*
X52384Y80129D01*
X52388Y80117D01*
X52392Y80102D01*
X52396Y80085D01*
X52399Y80066D01*
X52400Y80045D01*
Y80044D01*
Y80041D01*
Y80037D01*
X52399Y80032D01*
X52398Y80017D01*
X52394Y79997D01*
X52387Y79976D01*
X52376Y79952D01*
X52362Y79928D01*
X52354Y79917D01*
X52343Y79905D01*
X52340Y79902D01*
X52334Y79896D01*
X52322Y79885D01*
X52306Y79875D01*
X52286Y79861D01*
X52265Y79849D01*
X52239Y79839D01*
X52211Y79831D01*
Y79821D01*
X52213D01*
X52217Y79820D01*
X52223Y79819D01*
X52231Y79817D01*
X52242Y79815D01*
X52254Y79811D01*
X52267Y79805D01*
X52282Y79800D01*
X52283Y79799D01*
X52289Y79797D01*
X52297Y79793D01*
X52306Y79789D01*
X52327Y79776D01*
X52348Y79760D01*
X52350Y79759D01*
X52354Y79755D01*
X52359Y79750D01*
X52367Y79742D01*
X52375Y79731D01*
X52384Y79719D01*
X52392Y79704D01*
X52400Y79690D01*
X52402Y79688D01*
X52403Y79682D01*
X52407Y79674D01*
X52411Y79660D01*
X52413Y79646D01*
X52417Y79627D01*
X52419Y79606D01*
X52420Y79582D01*
Y79581D01*
Y79579D01*
Y79571D01*
X52419Y79558D01*
X52417Y79542D01*
X52415Y79525D01*
X52410Y79504D01*
X52404Y79483D01*
X52396Y79462D01*
X52395Y79460D01*
X52392Y79453D01*
X52387Y79442D01*
X52379Y79430D01*
X52370Y79416D01*
X52358Y79400D01*
X52344Y79384D01*
X52330Y79368D01*
X52327Y79366D01*
X52320Y79360D01*
X52311Y79352D01*
X52297Y79343D01*
X52280Y79332D01*
X52261Y79321D01*
X52239Y79311D01*
X52215Y79301D01*
X52214D01*
X52213Y79300D01*
X52209D01*
X52203Y79299D01*
X52190Y79295D01*
X52173Y79291D01*
X52152Y79287D01*
X52128Y79284D01*
X52101Y79281D01*
X52073Y79280D01*
X52052D01*
X52044Y79281D01*
X52024Y79283D01*
X52000Y79284D01*
X51973Y79288D01*
X51945Y79292D01*
X51916Y79299D01*
X51915D01*
X51913Y79300D01*
X51910D01*
X51904Y79301D01*
X51889Y79305D01*
X51872Y79311D01*
X51852Y79317D01*
X51831Y79324D01*
X51811Y79332D01*
X51791Y79340D01*
Y79474D01*
X51800D01*
X51803Y79473D01*
X51810Y79468D01*
X51822Y79461D01*
X51836Y79453D01*
X51855Y79442D01*
X51877Y79433D01*
X51902Y79422D01*
X51928Y79413D01*
X51929D01*
X51932Y79412D01*
X51936Y79410D01*
X51941Y79409D01*
X51955Y79406D01*
X51973Y79402D01*
X51996Y79397D01*
X52020Y79394D01*
X52045Y79392D01*
X52070Y79390D01*
X52077D01*
X52086Y79392D01*
X52097D01*
X52110Y79393D01*
X52125Y79396D01*
X52157Y79404D01*
X52160Y79405D01*
X52165Y79406D01*
X52173Y79409D01*
X52184Y79414D01*
X52195Y79420D01*
X52207Y79426D01*
X52219Y79434D01*
X52231Y79444D01*
X52233Y79445D01*
X52237Y79449D01*
X52242Y79454D01*
X52247Y79462D01*
X52255Y79470D01*
X52262Y79481D01*
X52269Y79493D01*
X52275Y79505D01*
X52276Y79506D01*
X52278Y79511D01*
X52280Y79518D01*
X52283Y79529D01*
X52286Y79541D01*
X52287Y79555D01*
X52290Y79573D01*
Y79591D01*
Y79594D01*
Y79601D01*
X52289Y79610D01*
X52287Y79622D01*
X52286Y79635D01*
X52283Y79649D01*
X52278Y79663D01*
X52273Y79676D01*
X52271Y79678D01*
X52270Y79682D01*
X52266Y79688D01*
X52261Y79696D01*
X52254Y79704D01*
X52247Y79714D01*
X52238Y79722D01*
X52227Y79730D01*
X52226Y79731D01*
X52222Y79732D01*
X52215Y79736D01*
X52207Y79740D01*
X52197Y79746D01*
X52185Y79750D01*
X52171Y79754D01*
X52157Y79757D01*
X52156D01*
X52150Y79759D01*
X52142Y79760D01*
X52132Y79761D01*
X52118Y79763D01*
X52104Y79764D01*
X52086Y79765D01*
X52012D01*
Y79872D01*
X52065D01*
X52072Y79873D01*
X52080D01*
X52089Y79875D01*
X52112Y79877D01*
X52137Y79881D01*
X52162Y79889D01*
X52187Y79899D01*
X52211Y79912D01*
X52213D01*
X52214Y79913D01*
X52221Y79920D01*
X52230Y79929D01*
X52241Y79942D01*
X52251Y79960D01*
X52261Y79980D01*
X52267Y80004D01*
X52270Y80017D01*
Y80032D01*
Y80033D01*
Y80037D01*
X52269Y80044D01*
Y80051D01*
X52263Y80071D01*
X52259Y80082D01*
X52254Y80091D01*
Y80093D01*
X52251Y80095D01*
X52249Y80101D01*
X52243Y80107D01*
X52231Y80121D01*
X52214Y80134D01*
X52213Y80135D01*
X52209Y80137D01*
X52203Y80139D01*
X52197Y80143D01*
X52187Y80147D01*
X52177Y80151D01*
X52154Y80158D01*
X52153D01*
X52149Y80159D01*
X52142Y80160D01*
X52134Y80162D01*
X52124D01*
X52112Y80163D01*
X52098Y80164D01*
X52073D01*
X52061Y80163D01*
X52045Y80162D01*
X52025Y80159D01*
X52003Y80155D01*
X51979Y80150D01*
X51953Y80142D01*
X51952D01*
X51951Y80141D01*
X51947Y80139D01*
X51941Y80138D01*
X51928Y80133D01*
X51912Y80126D01*
X51892Y80118D01*
X51871Y80107D01*
X51847Y80095D01*
X51824Y80081D01*
X51819D01*
Y80214D01*
X51822Y80215D01*
X51827Y80218D01*
X51838Y80222D01*
X51851Y80227D01*
X51868Y80234D01*
X51889Y80240D01*
X51913Y80248D01*
X51940Y80255D01*
X51941D01*
X51944Y80256D01*
X51948D01*
X51953Y80258D01*
X51968Y80262D01*
X51987Y80266D01*
X52009Y80268D01*
X52033Y80272D01*
X52060Y80274D01*
X52086Y80275D01*
X52112D01*
X52129Y80274D01*
D02*
G37*
%LPC*%
G36*
X53440Y26110D02*
X52050Y24495D01*
X53440D01*
Y26110D01*
D02*
G37*
G36*
X29094Y7746D02*
X28926D01*
Y7385D01*
X29075D01*
X29090Y7387D01*
X29107Y7388D01*
X29125Y7389D01*
X29142Y7392D01*
X29159Y7395D01*
X29162D01*
X29167Y7397D01*
X29175Y7400D01*
X29186Y7404D01*
X29198Y7409D01*
X29211Y7416D01*
X29224Y7424D01*
X29236Y7435D01*
X29238Y7436D01*
X29242Y7440D01*
X29247Y7445D01*
X29252Y7452D01*
X29260Y7461D01*
X29267Y7472D01*
X29274Y7484D01*
X29279Y7496D01*
X29280Y7497D01*
X29281Y7502D01*
X29284Y7510D01*
X29287Y7521D01*
X29289Y7533D01*
X29291Y7549D01*
X29293Y7566D01*
Y7585D01*
Y7586D01*
Y7592D01*
X29292Y7600D01*
Y7610D01*
X29289Y7621D01*
X29287Y7633D01*
X29284Y7646D01*
X29279Y7658D01*
Y7659D01*
X29276Y7663D01*
X29272Y7669D01*
X29267Y7677D01*
X29260Y7685D01*
X29252Y7694D01*
X29243Y7703D01*
X29231Y7711D01*
X29230Y7713D01*
X29226Y7714D01*
X29220Y7718D01*
X29212Y7722D01*
X29203Y7726D01*
X29191Y7730D01*
X29179Y7734D01*
X29164Y7738D01*
X29163D01*
X29158Y7739D01*
X29150Y7741D01*
X29139Y7742D01*
X29126Y7743D01*
X29111Y7745D01*
X29094Y7746D01*
D02*
G37*
G36*
X27965Y20755D02*
X27915D01*
X27875Y20750D01*
X27830Y20745D01*
X27775Y20735D01*
X27715Y20725D01*
X27655Y20705D01*
X27585Y20685D01*
X27515Y20660D01*
X27445Y20630D01*
X27370Y20595D01*
X27300Y20550D01*
X27235Y20495D01*
X27165Y20440D01*
X27105Y20370D01*
X27100Y20365D01*
X27090Y20350D01*
X27075Y20330D01*
X27055Y20300D01*
X27035Y20260D01*
X27005Y20215D01*
X26980Y20155D01*
X26950Y20095D01*
X26920Y20020D01*
X26895Y19940D01*
X26865Y19850D01*
X26845Y19755D01*
X26825Y19650D01*
X26810Y19540D01*
X26800Y19420D01*
X26795Y19290D01*
Y19280D01*
Y19260D01*
Y19225D01*
X26800Y19175D01*
X26805Y19115D01*
X26810Y19045D01*
X26820Y18970D01*
X26835Y18890D01*
X26870Y18715D01*
X26900Y18625D01*
X26930Y18535D01*
X26965Y18450D01*
X27005Y18365D01*
X27055Y18285D01*
X27110Y18210D01*
X27115Y18205D01*
X27125Y18195D01*
X27145Y18175D01*
X27170Y18150D01*
X27200Y18125D01*
X27240Y18090D01*
X27285Y18060D01*
X27335Y18025D01*
X27395Y17990D01*
X27460Y17955D01*
X27530Y17920D01*
X27605Y17895D01*
X27690Y17870D01*
X27775Y17850D01*
X27865Y17840D01*
X27965Y17835D01*
X27990D01*
X28015Y17840D01*
X28055D01*
X28100Y17845D01*
X28150Y17855D01*
X28210Y17865D01*
X28275Y17880D01*
X28340Y17900D01*
X28410Y17925D01*
X28480Y17955D01*
X28550Y17995D01*
X28620Y18035D01*
X28690Y18085D01*
X28760Y18145D01*
X28820Y18210D01*
X28825Y18215D01*
X28835Y18230D01*
X28850Y18250D01*
X28870Y18280D01*
X28895Y18320D01*
X28920Y18365D01*
X28950Y18420D01*
X28980Y18485D01*
X29010Y18560D01*
X29040Y18640D01*
X29065Y18725D01*
X29090Y18825D01*
X29110Y18930D01*
X29125Y19040D01*
X29135Y19160D01*
X29140Y19290D01*
Y19300D01*
Y19320D01*
Y19355D01*
X29135Y19405D01*
X29130Y19465D01*
X29125Y19530D01*
X29115Y19605D01*
X29100Y19690D01*
X29065Y19860D01*
X29040Y19950D01*
X29005Y20040D01*
X28970Y20130D01*
X28930Y20215D01*
X28880Y20295D01*
X28825Y20370D01*
X28820Y20375D01*
X28810Y20385D01*
X28790Y20405D01*
X28765Y20430D01*
X28735Y20460D01*
X28695Y20490D01*
X28650Y20525D01*
X28600Y20565D01*
X28540Y20600D01*
X28475Y20635D01*
X28405Y20665D01*
X28330Y20695D01*
X28245Y20720D01*
X28160Y20740D01*
X28065Y20750D01*
X27965Y20755D01*
D02*
G37*
G36*
X70756Y79042D02*
X69836D01*
Y78895D01*
Y78893D01*
Y78890D01*
Y78883D01*
Y78875D01*
Y78865D01*
X69838Y78853D01*
Y78826D01*
X69839Y78795D01*
X69843Y78762D01*
X69848Y78729D01*
X69853Y78695D01*
Y78694D01*
X69854Y78692D01*
Y78687D01*
X69856Y78680D01*
X69861Y78664D01*
X69866Y78644D01*
X69874Y78619D01*
X69886Y78592D01*
X69899Y78564D01*
X69914Y78538D01*
Y78536D01*
X69918Y78534D01*
X69921Y78529D01*
X69924Y78523D01*
X69937Y78506D01*
X69954Y78488D01*
X69976Y78465D01*
X70000Y78443D01*
X70030Y78421D01*
X70064Y78403D01*
X70065D01*
X70069Y78401D01*
X70073Y78398D01*
X70080Y78397D01*
X70090Y78393D01*
X70100Y78388D01*
X70113Y78385D01*
X70128Y78380D01*
X70161Y78373D01*
X70201Y78365D01*
X70246Y78360D01*
X70296Y78358D01*
X70319D01*
X70331Y78360D01*
X70346Y78362D01*
X70379Y78365D01*
X70416Y78370D01*
X70455Y78380D01*
X70495Y78392D01*
X70532Y78408D01*
X70533D01*
X70537Y78410D01*
X70542Y78413D01*
X70548Y78417D01*
X70565Y78428D01*
X70586Y78445D01*
X70611Y78465D01*
X70636Y78490D01*
X70661Y78519D01*
X70684Y78554D01*
X70686Y78558D01*
X70691Y78566D01*
X70698Y78581D01*
X70706Y78599D01*
X70716Y78621D01*
X70724Y78647D01*
X70732Y78674D01*
X70739Y78704D01*
Y78705D01*
Y78707D01*
X70741Y78712D01*
X70742Y78719D01*
X70744Y78735D01*
X70748Y78757D01*
X70751Y78785D01*
X70752Y78818D01*
X70756Y78855D01*
Y78895D01*
Y79042D01*
D02*
G37*
G36*
X66394Y48546D02*
X66226D01*
Y48185D01*
X66375D01*
X66390Y48187D01*
X66407Y48188D01*
X66425Y48189D01*
X66442Y48192D01*
X66459Y48195D01*
X66462D01*
X66467Y48197D01*
X66475Y48200D01*
X66486Y48204D01*
X66498Y48209D01*
X66511Y48216D01*
X66524Y48224D01*
X66536Y48235D01*
X66538Y48236D01*
X66542Y48240D01*
X66547Y48245D01*
X66552Y48252D01*
X66560Y48261D01*
X66567Y48272D01*
X66574Y48284D01*
X66579Y48296D01*
X66580Y48297D01*
X66581Y48303D01*
X66584Y48311D01*
X66587Y48321D01*
X66589Y48333D01*
X66591Y48349D01*
X66593Y48366D01*
Y48385D01*
Y48386D01*
Y48392D01*
X66592Y48400D01*
Y48410D01*
X66589Y48421D01*
X66587Y48433D01*
X66584Y48446D01*
X66579Y48458D01*
Y48459D01*
X66576Y48463D01*
X66572Y48469D01*
X66567Y48477D01*
X66560Y48485D01*
X66552Y48494D01*
X66543Y48503D01*
X66531Y48511D01*
X66530Y48513D01*
X66526Y48514D01*
X66520Y48518D01*
X66512Y48522D01*
X66503Y48526D01*
X66491Y48530D01*
X66479Y48534D01*
X66464Y48538D01*
X66463D01*
X66458Y48539D01*
X66450Y48541D01*
X66439Y48542D01*
X66426Y48543D01*
X66411Y48544D01*
X66394Y48546D01*
D02*
G37*
G36*
X22645Y35056D02*
X22458D01*
Y34136D01*
X22635D01*
X22647Y34138D01*
X22673D01*
X22705Y34139D01*
X22738Y34143D01*
X22771Y34148D01*
X22805Y34153D01*
X22806D01*
X22808Y34154D01*
X22813D01*
X22820Y34156D01*
X22836Y34161D01*
X22856Y34166D01*
X22881Y34174D01*
X22908Y34186D01*
X22936Y34199D01*
X22962Y34214D01*
X22964D01*
X22966Y34218D01*
X22971Y34221D01*
X22977Y34224D01*
X22994Y34237D01*
X23012Y34254D01*
X23035Y34276D01*
X23057Y34301D01*
X23078Y34330D01*
X23097Y34363D01*
Y34365D01*
X23099Y34369D01*
X23102Y34374D01*
X23103Y34380D01*
X23107Y34390D01*
X23112Y34400D01*
X23115Y34413D01*
X23120Y34428D01*
X23127Y34462D01*
X23135Y34501D01*
X23140Y34546D01*
X23142Y34596D01*
Y34598D01*
Y34603D01*
Y34609D01*
Y34619D01*
X23140Y34631D01*
X23138Y34646D01*
X23135Y34679D01*
X23130Y34716D01*
X23120Y34755D01*
X23108Y34795D01*
X23092Y34832D01*
Y34833D01*
X23090Y34837D01*
X23087Y34842D01*
X23084Y34848D01*
X23072Y34865D01*
X23055Y34886D01*
X23035Y34911D01*
X23010Y34936D01*
X22981Y34961D01*
X22946Y34984D01*
X22942Y34986D01*
X22934Y34991D01*
X22919Y34998D01*
X22901Y35006D01*
X22879Y35016D01*
X22853Y35024D01*
X22826Y35032D01*
X22796Y35039D01*
X22793D01*
X22788Y35041D01*
X22781Y35043D01*
X22765Y35044D01*
X22743Y35048D01*
X22715Y35051D01*
X22682Y35052D01*
X22645Y35056D01*
D02*
G37*
G36*
X28535Y66390D02*
X28460D01*
X28410Y66385D01*
X28350Y66380D01*
X28290Y66370D01*
X28155Y66340D01*
X28145D01*
X28125Y66330D01*
X28090Y66320D01*
X28045Y66305D01*
X27990Y66280D01*
X27930Y66255D01*
X27795Y66190D01*
Y66180D01*
Y66160D01*
X27790Y66125D01*
Y66090D01*
Y66080D01*
Y66055D01*
Y66015D01*
Y65965D01*
Y65960D01*
Y65950D01*
Y65930D01*
Y65905D01*
Y65870D01*
X27795Y65835D01*
X27800Y65750D01*
X27810Y65655D01*
X27820Y65555D01*
X27840Y65460D01*
X27865Y65370D01*
X27870Y65360D01*
X27880Y65335D01*
X27900Y65295D01*
X27920Y65245D01*
X27955Y65190D01*
X27990Y65130D01*
X28030Y65075D01*
X28080Y65025D01*
X28085Y65020D01*
X28100Y65010D01*
X28120Y64990D01*
X28150Y64965D01*
X28185Y64940D01*
X28225Y64915D01*
X28270Y64890D01*
X28315Y64870D01*
X28320D01*
X28340Y64865D01*
X28365Y64855D01*
X28400Y64850D01*
X28440Y64840D01*
X28490Y64830D01*
X28595Y64825D01*
X28630D01*
X28655Y64830D01*
X28680D01*
X28715Y64835D01*
X28795Y64850D01*
X28885Y64875D01*
X28975Y64915D01*
X29065Y64965D01*
X29145Y65035D01*
X29155Y65045D01*
X29175Y65075D01*
X29210Y65120D01*
X29245Y65190D01*
X29280Y65275D01*
X29315Y65380D01*
X29335Y65500D01*
X29345Y65640D01*
Y65645D01*
Y65650D01*
Y65680D01*
X29340Y65720D01*
X29335Y65770D01*
X29330Y65830D01*
X29315Y65890D01*
X29300Y65955D01*
X29275Y66010D01*
X29270Y66015D01*
X29265Y66035D01*
X29245Y66060D01*
X29225Y66095D01*
X29195Y66135D01*
X29155Y66180D01*
X29110Y66225D01*
X29060Y66265D01*
X29055Y66270D01*
X29040Y66275D01*
X29020Y66290D01*
X28990Y66305D01*
X28950Y66325D01*
X28910Y66340D01*
X28815Y66365D01*
X28810D01*
X28790Y66370D01*
X28765Y66375D01*
X28730Y66380D01*
X28685D01*
X28640Y66385D01*
X28535Y66390D01*
D02*
G37*
G36*
X37571Y51321D02*
Y50951D01*
X38001D01*
X37571Y51321D01*
D02*
G37*
G36*
X51194Y80146D02*
X51026D01*
Y79786D01*
X51175D01*
X51190Y79787D01*
X51207Y79788D01*
X51224Y79789D01*
X51242Y79792D01*
X51259Y79795D01*
X51262D01*
X51267Y79797D01*
X51275Y79800D01*
X51286Y79804D01*
X51298Y79809D01*
X51311Y79816D01*
X51324Y79824D01*
X51336Y79835D01*
X51338Y79836D01*
X51342Y79840D01*
X51347Y79845D01*
X51352Y79852D01*
X51360Y79861D01*
X51367Y79872D01*
X51373Y79884D01*
X51379Y79896D01*
X51380Y79897D01*
X51381Y79902D01*
X51384Y79910D01*
X51387Y79921D01*
X51389Y79933D01*
X51391Y79949D01*
X51393Y79966D01*
Y79985D01*
Y79986D01*
Y79992D01*
X51392Y80000D01*
Y80010D01*
X51389Y80021D01*
X51387Y80033D01*
X51384Y80046D01*
X51379Y80058D01*
Y80059D01*
X51376Y80063D01*
X51372Y80069D01*
X51367Y80077D01*
X51360Y80085D01*
X51352Y80094D01*
X51343Y80103D01*
X51331Y80111D01*
X51330Y80113D01*
X51326Y80114D01*
X51320Y80118D01*
X51312Y80122D01*
X51303Y80126D01*
X51291Y80130D01*
X51279Y80134D01*
X51264Y80138D01*
X51263D01*
X51258Y80139D01*
X51250Y80141D01*
X51239Y80142D01*
X51226Y80143D01*
X51211Y80145D01*
X51194Y80146D01*
D02*
G37*
G36*
X39046Y65974D02*
X38685D01*
Y65846D01*
Y65845D01*
Y65843D01*
Y65835D01*
Y65825D01*
X38687Y65810D01*
X38688Y65793D01*
X38689Y65776D01*
X38692Y65758D01*
X38695Y65741D01*
Y65738D01*
X38697Y65733D01*
X38700Y65725D01*
X38704Y65714D01*
X38709Y65702D01*
X38716Y65689D01*
X38724Y65676D01*
X38735Y65664D01*
X38736Y65662D01*
X38740Y65658D01*
X38745Y65653D01*
X38752Y65648D01*
X38761Y65640D01*
X38772Y65633D01*
X38784Y65627D01*
X38796Y65621D01*
X38797Y65620D01*
X38802Y65618D01*
X38811Y65616D01*
X38821Y65613D01*
X38833Y65611D01*
X38849Y65609D01*
X38866Y65607D01*
X38892D01*
X38900Y65608D01*
X38910D01*
X38921Y65611D01*
X38933Y65613D01*
X38946Y65616D01*
X38958Y65621D01*
X38959D01*
X38963Y65624D01*
X38969Y65628D01*
X38977Y65633D01*
X38985Y65640D01*
X38994Y65648D01*
X39003Y65657D01*
X39011Y65669D01*
X39013Y65670D01*
X39014Y65674D01*
X39018Y65680D01*
X39022Y65688D01*
X39026Y65697D01*
X39030Y65709D01*
X39034Y65721D01*
X39038Y65736D01*
Y65737D01*
X39039Y65742D01*
X39041Y65750D01*
X39042Y65761D01*
X39043Y65774D01*
X39044Y65789D01*
X39046Y65806D01*
Y65825D01*
Y65974D01*
D02*
G37*
G36*
X53346Y67974D02*
X52986D01*
Y67846D01*
Y67845D01*
Y67843D01*
Y67835D01*
Y67825D01*
X52987Y67810D01*
X52988Y67793D01*
X52989Y67775D01*
X52992Y67758D01*
X52995Y67741D01*
Y67738D01*
X52997Y67733D01*
X53000Y67725D01*
X53004Y67714D01*
X53009Y67702D01*
X53016Y67689D01*
X53024Y67676D01*
X53035Y67664D01*
X53036Y67662D01*
X53040Y67658D01*
X53045Y67653D01*
X53052Y67648D01*
X53061Y67640D01*
X53072Y67633D01*
X53084Y67627D01*
X53096Y67621D01*
X53097Y67620D01*
X53102Y67619D01*
X53110Y67616D01*
X53121Y67613D01*
X53133Y67611D01*
X53149Y67609D01*
X53166Y67607D01*
X53192D01*
X53200Y67608D01*
X53210D01*
X53221Y67611D01*
X53233Y67613D01*
X53246Y67616D01*
X53258Y67621D01*
X53259D01*
X53263Y67624D01*
X53269Y67628D01*
X53277Y67633D01*
X53285Y67640D01*
X53294Y67648D01*
X53303Y67657D01*
X53311Y67669D01*
X53313Y67670D01*
X53314Y67674D01*
X53318Y67680D01*
X53322Y67688D01*
X53326Y67697D01*
X53330Y67709D01*
X53334Y67721D01*
X53338Y67736D01*
Y67737D01*
X53339Y67742D01*
X53341Y67750D01*
X53342Y67761D01*
X53343Y67774D01*
X53345Y67789D01*
X53346Y67806D01*
Y67825D01*
Y67974D01*
D02*
G37*
G36*
X51394Y74546D02*
X51226D01*
Y74186D01*
X51375D01*
X51390Y74187D01*
X51407Y74188D01*
X51424Y74189D01*
X51442Y74192D01*
X51459Y74195D01*
X51462D01*
X51467Y74197D01*
X51475Y74200D01*
X51486Y74204D01*
X51498Y74209D01*
X51511Y74216D01*
X51524Y74224D01*
X51536Y74235D01*
X51538Y74236D01*
X51542Y74240D01*
X51547Y74245D01*
X51552Y74252D01*
X51560Y74261D01*
X51567Y74272D01*
X51573Y74284D01*
X51579Y74296D01*
X51580Y74297D01*
X51582Y74303D01*
X51584Y74310D01*
X51587Y74321D01*
X51589Y74333D01*
X51591Y74349D01*
X51593Y74366D01*
Y74385D01*
Y74386D01*
Y74392D01*
X51592Y74400D01*
Y74410D01*
X51589Y74421D01*
X51587Y74433D01*
X51584Y74446D01*
X51579Y74458D01*
Y74459D01*
X51576Y74463D01*
X51572Y74469D01*
X51567Y74477D01*
X51560Y74485D01*
X51552Y74494D01*
X51543Y74503D01*
X51531Y74511D01*
X51530Y74513D01*
X51526Y74514D01*
X51520Y74518D01*
X51512Y74522D01*
X51503Y74526D01*
X51491Y74530D01*
X51479Y74534D01*
X51464Y74538D01*
X51463D01*
X51458Y74539D01*
X51450Y74541D01*
X51439Y74542D01*
X51426Y74543D01*
X51411Y74545D01*
X51394Y74546D01*
D02*
G37*
G36*
X67494Y73446D02*
X67326D01*
Y73085D01*
X67475D01*
X67490Y73087D01*
X67507Y73088D01*
X67524Y73089D01*
X67542Y73092D01*
X67559Y73095D01*
X67562D01*
X67567Y73097D01*
X67575Y73100D01*
X67586Y73104D01*
X67598Y73109D01*
X67611Y73116D01*
X67624Y73124D01*
X67636Y73135D01*
X67638Y73136D01*
X67642Y73140D01*
X67647Y73145D01*
X67652Y73152D01*
X67660Y73161D01*
X67667Y73172D01*
X67673Y73184D01*
X67679Y73196D01*
X67680Y73197D01*
X67681Y73203D01*
X67684Y73211D01*
X67687Y73221D01*
X67689Y73233D01*
X67691Y73249D01*
X67693Y73266D01*
Y73285D01*
Y73286D01*
Y73292D01*
X67692Y73300D01*
Y73310D01*
X67689Y73321D01*
X67687Y73333D01*
X67684Y73346D01*
X67679Y73358D01*
Y73359D01*
X67676Y73363D01*
X67672Y73369D01*
X67667Y73377D01*
X67660Y73385D01*
X67652Y73394D01*
X67643Y73403D01*
X67631Y73411D01*
X67630Y73413D01*
X67626Y73414D01*
X67620Y73418D01*
X67612Y73422D01*
X67603Y73426D01*
X67591Y73430D01*
X67579Y73434D01*
X67564Y73438D01*
X67563D01*
X67558Y73439D01*
X67550Y73441D01*
X67539Y73442D01*
X67526Y73443D01*
X67511Y73445D01*
X67494Y73446D01*
D02*
G37*
G36*
X53346Y61474D02*
X52986D01*
Y61346D01*
Y61345D01*
Y61343D01*
Y61335D01*
Y61325D01*
X52987Y61310D01*
X52988Y61293D01*
X52989Y61276D01*
X52992Y61258D01*
X52995Y61241D01*
Y61238D01*
X52997Y61233D01*
X53000Y61225D01*
X53004Y61214D01*
X53009Y61202D01*
X53016Y61189D01*
X53024Y61176D01*
X53035Y61164D01*
X53036Y61162D01*
X53040Y61158D01*
X53045Y61153D01*
X53052Y61148D01*
X53061Y61140D01*
X53072Y61133D01*
X53084Y61127D01*
X53096Y61121D01*
X53097Y61120D01*
X53102Y61119D01*
X53110Y61116D01*
X53121Y61113D01*
X53133Y61111D01*
X53149Y61109D01*
X53166Y61107D01*
X53192D01*
X53200Y61108D01*
X53210D01*
X53221Y61111D01*
X53233Y61113D01*
X53246Y61116D01*
X53258Y61121D01*
X53259D01*
X53263Y61124D01*
X53269Y61128D01*
X53277Y61133D01*
X53285Y61140D01*
X53294Y61148D01*
X53303Y61157D01*
X53311Y61169D01*
X53313Y61170D01*
X53314Y61174D01*
X53318Y61180D01*
X53322Y61188D01*
X53326Y61197D01*
X53330Y61209D01*
X53334Y61221D01*
X53338Y61236D01*
Y61237D01*
X53339Y61242D01*
X53341Y61250D01*
X53342Y61261D01*
X53343Y61274D01*
X53345Y61289D01*
X53346Y61306D01*
Y61325D01*
Y61474D01*
D02*
G37*
G36*
Y55174D02*
X52986D01*
Y55046D01*
Y55045D01*
Y55043D01*
Y55035D01*
Y55025D01*
X52987Y55010D01*
X52988Y54993D01*
X52989Y54975D01*
X52992Y54958D01*
X52995Y54941D01*
Y54938D01*
X52997Y54933D01*
X53000Y54925D01*
X53004Y54914D01*
X53009Y54902D01*
X53016Y54889D01*
X53024Y54876D01*
X53035Y54864D01*
X53036Y54862D01*
X53040Y54858D01*
X53045Y54853D01*
X53052Y54848D01*
X53061Y54840D01*
X53072Y54833D01*
X53084Y54826D01*
X53096Y54821D01*
X53097Y54820D01*
X53102Y54818D01*
X53110Y54816D01*
X53121Y54813D01*
X53133Y54811D01*
X53149Y54809D01*
X53166Y54807D01*
X53192D01*
X53200Y54808D01*
X53210D01*
X53221Y54811D01*
X53233Y54813D01*
X53246Y54816D01*
X53258Y54821D01*
X53259D01*
X53263Y54824D01*
X53269Y54828D01*
X53277Y54833D01*
X53285Y54840D01*
X53294Y54848D01*
X53303Y54857D01*
X53311Y54869D01*
X53313Y54870D01*
X53314Y54874D01*
X53318Y54880D01*
X53322Y54888D01*
X53326Y54897D01*
X53330Y54909D01*
X53334Y54921D01*
X53338Y54936D01*
Y54937D01*
X53339Y54942D01*
X53341Y54950D01*
X53342Y54961D01*
X53343Y54974D01*
X53345Y54989D01*
X53346Y55006D01*
Y55025D01*
Y55174D01*
D02*
G37*
G36*
X52932Y60597D02*
X52864D01*
X52855Y60596D01*
X52833Y60594D01*
X52807Y60592D01*
X52781Y60589D01*
X52755Y60584D01*
X52731Y60577D01*
X52729Y60576D01*
X52722Y60573D01*
X52711Y60568D01*
X52698Y60563D01*
X52684Y60553D01*
X52668Y60544D01*
X52653Y60533D01*
X52640Y60520D01*
X52638Y60519D01*
X52636Y60515D01*
X52630Y60509D01*
X52624Y60501D01*
X52617Y60492D01*
X52610Y60482D01*
X52604Y60470D01*
X52598Y60457D01*
Y60456D01*
X52597Y60451D01*
X52594Y60444D01*
X52593Y60435D01*
X52590Y60424D01*
X52588Y60411D01*
X52587Y60383D01*
Y60382D01*
Y60379D01*
Y60374D01*
X52588Y60367D01*
Y60360D01*
X52589Y60351D01*
X52593Y60330D01*
X52600Y60306D01*
X52610Y60282D01*
X52624Y60258D01*
X52642Y60237D01*
X52645Y60234D01*
X52653Y60229D01*
X52665Y60220D01*
X52684Y60210D01*
X52706Y60201D01*
X52734Y60192D01*
X52766Y60186D01*
X52803Y60184D01*
X52814D01*
X52824Y60185D01*
X52838Y60186D01*
X52854Y60188D01*
X52870Y60192D01*
X52887Y60195D01*
X52902Y60202D01*
X52903Y60203D01*
X52908Y60205D01*
X52915Y60210D01*
X52924Y60216D01*
X52935Y60224D01*
X52947Y60234D01*
X52959Y60246D01*
X52969Y60259D01*
X52971Y60261D01*
X52972Y60265D01*
X52976Y60270D01*
X52980Y60278D01*
X52986Y60289D01*
X52989Y60299D01*
X52996Y60325D01*
Y60326D01*
X52997Y60331D01*
X52999Y60338D01*
X53000Y60347D01*
Y60359D01*
X53001Y60371D01*
X53003Y60399D01*
Y60402D01*
Y60408D01*
Y60419D01*
X53001Y60432D01*
X53000Y60448D01*
X52997Y60464D01*
X52989Y60500D01*
Y60503D01*
X52987Y60508D01*
X52984Y60517D01*
X52980Y60529D01*
X52974Y60544D01*
X52967Y60560D01*
X52950Y60596D01*
X52942D01*
X52932Y60597D01*
D02*
G37*
G36*
X38571Y65180D02*
Y64810D01*
X39001D01*
X38571Y65180D01*
D02*
G37*
G36*
X53238Y67081D02*
X53230D01*
X53222Y67080D01*
X53211Y67079D01*
X53198Y67075D01*
X53185Y67071D01*
X53172Y67064D01*
X53158Y67056D01*
X53157Y67055D01*
X53153Y67051D01*
X53146Y67045D01*
X53138Y67036D01*
X53129Y67025D01*
X53120Y67012D01*
X53109Y66996D01*
X53098Y66978D01*
Y66976D01*
X53097Y66974D01*
X53095Y66968D01*
X53091Y66960D01*
X53087Y66951D01*
X53081Y66940D01*
X53076Y66927D01*
X53069Y66911D01*
X53068Y66908D01*
X53067Y66903D01*
X53063Y66895D01*
X53059Y66883D01*
X53053Y66870D01*
X53048Y66855D01*
X53037Y66823D01*
Y66822D01*
X53039Y66821D01*
X53045Y66813D01*
X53053Y66802D01*
X53064Y66789D01*
X53077Y66774D01*
X53092Y66761D01*
X53108Y66747D01*
X53125Y66737D01*
X53128Y66735D01*
X53133Y66733D01*
X53142Y66729D01*
X53156Y66724D01*
X53172Y66720D01*
X53190Y66716D01*
X53210Y66713D01*
X53232Y66711D01*
X53234D01*
X53242Y66713D01*
X53255Y66714D01*
X53270Y66718D01*
X53287Y66725D01*
X53306Y66734D01*
X53325Y66747D01*
X53341Y66765D01*
X53342Y66767D01*
X53347Y66774D01*
X53354Y66786D01*
X53362Y66802D01*
X53369Y66821D01*
X53375Y66843D01*
X53381Y66870D01*
X53382Y66899D01*
Y66900D01*
Y66903D01*
Y66907D01*
Y66912D01*
X53381Y66927D01*
X53377Y66946D01*
X53373Y66967D01*
X53366Y66988D01*
X53356Y67011D01*
X53343Y67031D01*
X53342Y67033D01*
X53337Y67039D01*
X53327Y67047D01*
X53315Y67056D01*
X53301Y67065D01*
X53282Y67073D01*
X53262Y67079D01*
X53238Y67081D01*
D02*
G37*
G36*
X35849Y58113D02*
X35840D01*
X35828Y58112D01*
X35814Y58110D01*
X35798Y58109D01*
X35783Y58106D01*
X35767Y58103D01*
X35751Y58097D01*
X35749Y58096D01*
X35744Y58093D01*
X35737Y58089D01*
X35728Y58084D01*
X35717Y58076D01*
X35705Y58065D01*
X35695Y58053D01*
X35683Y58039D01*
X35682Y58037D01*
X35680Y58033D01*
X35676Y58028D01*
X35672Y58020D01*
X35668Y58011D01*
X35664Y57999D01*
X35658Y57975D01*
Y57973D01*
X35656Y57968D01*
X35655Y57961D01*
Y57952D01*
X35653Y57940D01*
X35652Y57928D01*
X35651Y57914D01*
Y57898D01*
Y57895D01*
Y57890D01*
X35652Y57879D01*
Y57867D01*
X35653Y57851D01*
X35656Y57835D01*
X35664Y57798D01*
Y57795D01*
X35667Y57789D01*
X35669Y57779D01*
X35673Y57766D01*
X35680Y57751D01*
X35685Y57735D01*
X35703Y57701D01*
X35720D01*
X35729Y57700D01*
X35732D01*
X35739Y57698D01*
X35788D01*
X35797Y57700D01*
X35820Y57701D01*
X35845Y57704D01*
X35870Y57708D01*
X35897Y57713D01*
X35921Y57719D01*
X35922D01*
X35923Y57721D01*
X35930Y57723D01*
X35942Y57727D01*
X35955Y57734D01*
X35970Y57742D01*
X35986Y57751D01*
X36001Y57762D01*
X36014Y57775D01*
X36015Y57777D01*
X36019Y57781D01*
X36023Y57787D01*
X36030Y57795D01*
X36037Y57805D01*
X36043Y57815D01*
X36050Y57827D01*
X36055Y57841D01*
Y57842D01*
X36058Y57846D01*
X36059Y57854D01*
X36062Y57863D01*
X36064Y57874D01*
X36066Y57887D01*
X36068Y57915D01*
Y57916D01*
Y57919D01*
Y57924D01*
X36067Y57930D01*
Y57938D01*
X36066Y57947D01*
X36062Y57967D01*
X36054Y57991D01*
X36043Y58015D01*
X36030Y58039D01*
X36021Y58049D01*
X36010Y58060D01*
X36007Y58063D01*
X35999Y58068D01*
X35986Y58077D01*
X35969Y58087D01*
X35946Y58096D01*
X35918Y58105D01*
X35886Y58110D01*
X35849Y58113D01*
D02*
G37*
G36*
X36046Y58974D02*
X35685D01*
Y58846D01*
Y58845D01*
Y58843D01*
Y58835D01*
Y58825D01*
X35687Y58810D01*
X35688Y58793D01*
X35689Y58776D01*
X35692Y58758D01*
X35695Y58741D01*
Y58738D01*
X35697Y58733D01*
X35700Y58725D01*
X35704Y58714D01*
X35709Y58702D01*
X35716Y58689D01*
X35724Y58676D01*
X35735Y58664D01*
X35736Y58662D01*
X35740Y58658D01*
X35745Y58653D01*
X35752Y58648D01*
X35761Y58640D01*
X35772Y58633D01*
X35784Y58627D01*
X35796Y58621D01*
X35797Y58620D01*
X35803Y58618D01*
X35811Y58616D01*
X35821Y58613D01*
X35833Y58611D01*
X35849Y58609D01*
X35866Y58607D01*
X35892D01*
X35900Y58608D01*
X35910D01*
X35921Y58611D01*
X35933Y58613D01*
X35946Y58616D01*
X35958Y58621D01*
X35959D01*
X35963Y58624D01*
X35969Y58628D01*
X35977Y58633D01*
X35985Y58640D01*
X35994Y58648D01*
X36003Y58657D01*
X36011Y58669D01*
X36013Y58670D01*
X36014Y58674D01*
X36018Y58680D01*
X36022Y58688D01*
X36026Y58697D01*
X36030Y58709D01*
X36034Y58721D01*
X36038Y58736D01*
Y58737D01*
X36039Y58742D01*
X36041Y58750D01*
X36042Y58761D01*
X36043Y58774D01*
X36044Y58789D01*
X36046Y58806D01*
Y58825D01*
Y58974D01*
D02*
G37*
G36*
X27445Y72656D02*
X27258D01*
Y71736D01*
X27435D01*
X27447Y71738D01*
X27474D01*
X27505Y71739D01*
X27538Y71743D01*
X27571Y71748D01*
X27605Y71753D01*
X27606D01*
X27608Y71754D01*
X27613D01*
X27620Y71756D01*
X27636Y71761D01*
X27656Y71766D01*
X27681Y71774D01*
X27708Y71786D01*
X27736Y71799D01*
X27762Y71814D01*
X27764D01*
X27766Y71817D01*
X27771Y71821D01*
X27777Y71824D01*
X27794Y71837D01*
X27812Y71854D01*
X27835Y71876D01*
X27857Y71900D01*
X27878Y71930D01*
X27897Y71964D01*
Y71965D01*
X27898Y71969D01*
X27902Y71974D01*
X27903Y71980D01*
X27907Y71990D01*
X27912Y72000D01*
X27915Y72013D01*
X27920Y72028D01*
X27927Y72062D01*
X27935Y72101D01*
X27940Y72146D01*
X27942Y72196D01*
Y72198D01*
Y72203D01*
Y72209D01*
Y72219D01*
X27940Y72231D01*
X27938Y72246D01*
X27935Y72279D01*
X27930Y72316D01*
X27920Y72355D01*
X27908Y72395D01*
X27892Y72432D01*
Y72433D01*
X27890Y72437D01*
X27887Y72442D01*
X27883Y72448D01*
X27872Y72465D01*
X27855Y72486D01*
X27835Y72511D01*
X27810Y72536D01*
X27781Y72561D01*
X27746Y72584D01*
X27742Y72586D01*
X27734Y72591D01*
X27719Y72598D01*
X27701Y72606D01*
X27679Y72616D01*
X27653Y72624D01*
X27626Y72632D01*
X27596Y72639D01*
X27593D01*
X27588Y72641D01*
X27581Y72642D01*
X27565Y72644D01*
X27543Y72648D01*
X27515Y72651D01*
X27482Y72652D01*
X27445Y72656D01*
D02*
G37*
G36*
X58465Y78055D02*
X58415D01*
X58375Y78050D01*
X58330Y78045D01*
X58275Y78035D01*
X58215Y78025D01*
X58155Y78005D01*
X58085Y77985D01*
X58015Y77960D01*
X57945Y77930D01*
X57870Y77895D01*
X57800Y77850D01*
X57735Y77795D01*
X57665Y77740D01*
X57605Y77670D01*
X57600Y77665D01*
X57590Y77650D01*
X57575Y77630D01*
X57555Y77600D01*
X57535Y77560D01*
X57505Y77515D01*
X57480Y77455D01*
X57450Y77395D01*
X57420Y77320D01*
X57395Y77240D01*
X57365Y77150D01*
X57345Y77055D01*
X57325Y76950D01*
X57310Y76840D01*
X57300Y76720D01*
X57295Y76590D01*
Y76580D01*
Y76560D01*
Y76525D01*
X57300Y76475D01*
X57305Y76415D01*
X57310Y76345D01*
X57320Y76270D01*
X57335Y76190D01*
X57370Y76015D01*
X57400Y75925D01*
X57430Y75835D01*
X57465Y75750D01*
X57505Y75665D01*
X57555Y75585D01*
X57610Y75510D01*
X57615Y75505D01*
X57625Y75495D01*
X57645Y75475D01*
X57670Y75450D01*
X57700Y75425D01*
X57740Y75390D01*
X57785Y75360D01*
X57835Y75325D01*
X57895Y75290D01*
X57960Y75255D01*
X58030Y75220D01*
X58105Y75195D01*
X58190Y75170D01*
X58275Y75150D01*
X58365Y75140D01*
X58465Y75135D01*
X58490D01*
X58515Y75140D01*
X58555D01*
X58600Y75145D01*
X58650Y75155D01*
X58710Y75165D01*
X58775Y75180D01*
X58840Y75200D01*
X58910Y75225D01*
X58980Y75255D01*
X59050Y75295D01*
X59120Y75335D01*
X59190Y75385D01*
X59260Y75445D01*
X59320Y75510D01*
X59325Y75515D01*
X59335Y75530D01*
X59350Y75550D01*
X59370Y75580D01*
X59395Y75620D01*
X59420Y75665D01*
X59450Y75720D01*
X59480Y75785D01*
X59510Y75860D01*
X59540Y75940D01*
X59565Y76025D01*
X59590Y76125D01*
X59610Y76230D01*
X59625Y76340D01*
X59635Y76460D01*
X59640Y76590D01*
Y76600D01*
Y76620D01*
Y76655D01*
X59635Y76705D01*
X59630Y76765D01*
X59625Y76830D01*
X59615Y76905D01*
X59600Y76990D01*
X59565Y77160D01*
X59540Y77250D01*
X59505Y77340D01*
X59470Y77430D01*
X59430Y77515D01*
X59380Y77595D01*
X59325Y77670D01*
X59320Y77675D01*
X59310Y77685D01*
X59290Y77705D01*
X59265Y77730D01*
X59235Y77760D01*
X59195Y77790D01*
X59150Y77825D01*
X59100Y77865D01*
X59040Y77900D01*
X58975Y77935D01*
X58905Y77965D01*
X58830Y77995D01*
X58745Y78020D01*
X58660Y78040D01*
X58565Y78050D01*
X58465Y78055D01*
D02*
G37*
G36*
X43965Y67455D02*
X43915D01*
X43875Y67450D01*
X43830Y67445D01*
X43775Y67435D01*
X43715Y67425D01*
X43655Y67405D01*
X43585Y67385D01*
X43515Y67360D01*
X43445Y67330D01*
X43370Y67295D01*
X43300Y67250D01*
X43235Y67195D01*
X43165Y67140D01*
X43105Y67070D01*
X43100Y67065D01*
X43090Y67050D01*
X43075Y67030D01*
X43055Y67000D01*
X43035Y66960D01*
X43005Y66915D01*
X42980Y66855D01*
X42950Y66795D01*
X42920Y66720D01*
X42895Y66640D01*
X42865Y66550D01*
X42845Y66455D01*
X42825Y66350D01*
X42810Y66240D01*
X42800Y66120D01*
X42795Y65990D01*
Y65980D01*
Y65960D01*
Y65925D01*
X42800Y65875D01*
X42805Y65815D01*
X42810Y65745D01*
X42820Y65670D01*
X42835Y65590D01*
X42870Y65415D01*
X42900Y65325D01*
X42930Y65235D01*
X42965Y65150D01*
X43005Y65065D01*
X43055Y64985D01*
X43110Y64910D01*
X43115Y64905D01*
X43125Y64895D01*
X43145Y64875D01*
X43170Y64850D01*
X43200Y64825D01*
X43240Y64790D01*
X43285Y64760D01*
X43335Y64725D01*
X43395Y64690D01*
X43460Y64655D01*
X43530Y64620D01*
X43605Y64595D01*
X43690Y64570D01*
X43775Y64550D01*
X43865Y64540D01*
X43965Y64535D01*
X43990D01*
X44015Y64540D01*
X44055D01*
X44100Y64545D01*
X44150Y64555D01*
X44210Y64565D01*
X44275Y64580D01*
X44340Y64600D01*
X44410Y64625D01*
X44480Y64655D01*
X44550Y64695D01*
X44620Y64735D01*
X44690Y64785D01*
X44760Y64845D01*
X44820Y64910D01*
X44825Y64915D01*
X44835Y64930D01*
X44850Y64950D01*
X44870Y64980D01*
X44895Y65020D01*
X44920Y65065D01*
X44950Y65120D01*
X44980Y65185D01*
X45010Y65260D01*
X45040Y65340D01*
X45065Y65425D01*
X45090Y65525D01*
X45110Y65630D01*
X45125Y65740D01*
X45135Y65860D01*
X45140Y65990D01*
Y66000D01*
Y66020D01*
Y66055D01*
X45135Y66105D01*
X45130Y66165D01*
X45125Y66230D01*
X45115Y66305D01*
X45100Y66390D01*
X45065Y66560D01*
X45040Y66650D01*
X45005Y66740D01*
X44970Y66830D01*
X44930Y66915D01*
X44880Y66995D01*
X44825Y67070D01*
X44820Y67075D01*
X44810Y67085D01*
X44790Y67105D01*
X44765Y67130D01*
X44735Y67160D01*
X44695Y67190D01*
X44650Y67225D01*
X44600Y67265D01*
X44540Y67300D01*
X44475Y67335D01*
X44405Y67365D01*
X44330Y67395D01*
X44245Y67420D01*
X44160Y67440D01*
X44065Y67450D01*
X43965Y67455D01*
D02*
G37*
G36*
X44694Y73646D02*
X44526D01*
Y73286D01*
X44675D01*
X44690Y73287D01*
X44707Y73288D01*
X44725Y73289D01*
X44742Y73292D01*
X44759Y73295D01*
X44762D01*
X44767Y73297D01*
X44775Y73300D01*
X44786Y73304D01*
X44798Y73309D01*
X44811Y73316D01*
X44824Y73324D01*
X44836Y73335D01*
X44838Y73336D01*
X44842Y73340D01*
X44847Y73345D01*
X44852Y73352D01*
X44860Y73361D01*
X44867Y73372D01*
X44873Y73384D01*
X44879Y73396D01*
X44880Y73397D01*
X44881Y73403D01*
X44884Y73410D01*
X44887Y73421D01*
X44889Y73433D01*
X44891Y73449D01*
X44893Y73466D01*
Y73485D01*
Y73486D01*
Y73492D01*
X44892Y73500D01*
Y73510D01*
X44889Y73521D01*
X44887Y73533D01*
X44884Y73546D01*
X44879Y73558D01*
Y73559D01*
X44876Y73563D01*
X44872Y73569D01*
X44867Y73577D01*
X44860Y73585D01*
X44852Y73594D01*
X44843Y73603D01*
X44831Y73611D01*
X44830Y73613D01*
X44826Y73614D01*
X44820Y73618D01*
X44812Y73622D01*
X44803Y73626D01*
X44791Y73630D01*
X44779Y73634D01*
X44764Y73638D01*
X44763D01*
X44758Y73639D01*
X44750Y73641D01*
X44739Y73642D01*
X44726Y73643D01*
X44711Y73645D01*
X44694Y73646D01*
D02*
G37*
G36*
X52773Y67106D02*
X52765D01*
X52758Y67105D01*
X52751D01*
X52742Y67104D01*
X52722Y67098D01*
X52700Y67092D01*
X52676Y67081D01*
X52653Y67067D01*
X52641Y67059D01*
X52630Y67048D01*
Y67047D01*
X52628Y67045D01*
X52621Y67037D01*
X52613Y67024D01*
X52602Y67007D01*
X52592Y66985D01*
X52584Y66959D01*
X52577Y66930D01*
X52574Y66898D01*
Y66896D01*
Y66894D01*
Y66888D01*
X52576Y66882D01*
Y66874D01*
X52577Y66864D01*
X52581Y66843D01*
X52587Y66819D01*
X52594Y66794D01*
X52606Y66770D01*
X52622Y66747D01*
X52625Y66745D01*
X52632Y66738D01*
X52642Y66730D01*
X52657Y66720D01*
X52676Y66709D01*
X52698Y66701D01*
X52725Y66694D01*
X52754Y66691D01*
X52763D01*
X52774Y66693D01*
X52787Y66694D01*
X52802Y66698D01*
X52818Y66702D01*
X52834Y66709D01*
X52847Y66718D01*
X52849Y66720D01*
X52854Y66724D01*
X52860Y66730D01*
X52870Y66741D01*
X52880Y66754D01*
X52892Y66771D01*
X52906Y66793D01*
X52919Y66819D01*
X52920Y66821D01*
X52922Y66825D01*
X52924Y66831D01*
X52928Y66839D01*
X52932Y66848D01*
X52936Y66860D01*
X52946Y66886D01*
Y66887D01*
X52948Y66892D01*
X52951Y66900D01*
X52955Y66911D01*
X52959Y66924D01*
X52964Y66942D01*
X52971Y66960D01*
X52979Y66982D01*
X52978Y66984D01*
X52974Y66991D01*
X52967Y67001D01*
X52956Y67015D01*
X52944Y67029D01*
X52930Y67044D01*
X52914Y67060D01*
X52894Y67073D01*
X52891Y67075D01*
X52884Y67079D01*
X52874Y67084D01*
X52859Y67089D01*
X52841Y67096D01*
X52820Y67101D01*
X52798Y67105D01*
X52773Y67106D01*
D02*
G37*
G36*
X47036Y59368D02*
X47026D01*
X47015Y59367D01*
X47000Y59366D01*
X46984Y59362D01*
X46968Y59358D01*
X46951Y59351D01*
X46935Y59343D01*
X46934Y59342D01*
X46929Y59338D01*
X46922Y59333D01*
X46913Y59325D01*
X46903Y59314D01*
X46893Y59301D01*
X46883Y59285D01*
X46874Y59267D01*
X46873Y59265D01*
X46870Y59259D01*
X46867Y59249D01*
X46862Y59234D01*
X46858Y59215D01*
X46853Y59194D01*
X46849Y59170D01*
X46845Y59142D01*
Y59141D01*
Y59138D01*
X46843Y59134D01*
Y59129D01*
Y59122D01*
X46842Y59113D01*
X46841Y59093D01*
X46839Y59068D01*
X46838Y59040D01*
X46837Y59009D01*
Y58976D01*
Y58975D01*
Y58972D01*
Y58967D01*
Y58960D01*
Y58951D01*
Y58942D01*
X46838Y58918D01*
Y58891D01*
X46839Y58863D01*
X46841Y58835D01*
X46843Y58809D01*
Y58807D01*
Y58806D01*
X46845Y58798D01*
X46847Y58785D01*
X46850Y58769D01*
X46854Y58750D01*
X46858Y58730D01*
X46865Y58709D01*
X46873Y58689D01*
X46874Y58686D01*
X46877Y58681D01*
X46882Y58672D01*
X46889Y58661D01*
X46897Y58648D01*
X46907Y58636D01*
X46919Y58622D01*
X46933Y58612D01*
X46934Y58610D01*
X46939Y58608D01*
X46949Y58604D01*
X46960Y58600D01*
X46975Y58594D01*
X46992Y58590D01*
X47014Y58588D01*
X47036Y58587D01*
X47047D01*
X47058Y58588D01*
X47071Y58589D01*
X47087Y58592D01*
X47103Y58597D01*
X47120Y58602D01*
X47135Y58610D01*
X47136Y58612D01*
X47141Y58616D01*
X47148Y58621D01*
X47157Y58629D01*
X47168Y58640D01*
X47179Y58653D01*
X47188Y58669D01*
X47197Y58686D01*
X47199Y58689D01*
X47201Y58696D01*
X47204Y58706D01*
X47209Y58721D01*
X47213Y58739D01*
X47218Y58759D01*
X47222Y58783D01*
X47226Y58809D01*
Y58810D01*
Y58811D01*
X47228Y58815D01*
Y58820D01*
X47229Y58829D01*
Y58837D01*
X47232Y58856D01*
X47233Y58880D01*
X47234Y58910D01*
X47236Y58942D01*
Y58978D01*
Y58979D01*
Y58982D01*
Y58987D01*
Y58993D01*
Y59003D01*
Y59012D01*
X47234Y59035D01*
X47233Y59061D01*
X47232Y59089D01*
X47229Y59118D01*
X47226Y59146D01*
Y59148D01*
Y59149D01*
X47225Y59153D01*
Y59158D01*
X47222Y59172D01*
X47220Y59189D01*
X47216Y59208D01*
X47210Y59229D01*
X47204Y59249D01*
X47196Y59269D01*
X47194Y59271D01*
X47192Y59277D01*
X47186Y59286D01*
X47180Y59297D01*
X47171Y59309D01*
X47160Y59321D01*
X47148Y59333D01*
X47135Y59343D01*
X47133Y59345D01*
X47128Y59347D01*
X47119Y59351D01*
X47108Y59356D01*
X47093Y59360D01*
X47078Y59364D01*
X47058Y59367D01*
X47036Y59368D01*
D02*
G37*
G36*
X45294Y59346D02*
X45126D01*
Y58986D01*
X45275D01*
X45290Y58987D01*
X45307Y58988D01*
X45325Y58989D01*
X45342Y58992D01*
X45359Y58995D01*
X45362D01*
X45367Y58997D01*
X45375Y59000D01*
X45386Y59004D01*
X45398Y59009D01*
X45411Y59016D01*
X45424Y59024D01*
X45436Y59035D01*
X45438Y59036D01*
X45442Y59040D01*
X45447Y59045D01*
X45452Y59052D01*
X45460Y59061D01*
X45467Y59072D01*
X45474Y59084D01*
X45479Y59096D01*
X45480Y59097D01*
X45482Y59102D01*
X45484Y59110D01*
X45487Y59121D01*
X45489Y59133D01*
X45491Y59149D01*
X45493Y59166D01*
Y59185D01*
Y59186D01*
Y59192D01*
X45492Y59200D01*
Y59210D01*
X45489Y59221D01*
X45487Y59233D01*
X45484Y59246D01*
X45479Y59258D01*
Y59259D01*
X45476Y59263D01*
X45472Y59269D01*
X45467Y59277D01*
X45460Y59285D01*
X45452Y59294D01*
X45443Y59303D01*
X45431Y59311D01*
X45430Y59313D01*
X45426Y59314D01*
X45420Y59318D01*
X45412Y59322D01*
X45403Y59326D01*
X45391Y59330D01*
X45379Y59334D01*
X45364Y59338D01*
X45363D01*
X45358Y59339D01*
X45350Y59341D01*
X45339Y59342D01*
X45326Y59343D01*
X45311Y59345D01*
X45294Y59346D01*
D02*
G37*
%LPD*%
D35*
X64031Y79169D02*
Y80830D01*
X62370D02*
X64031D01*
X41269Y61570D02*
X43130D01*
X41269D02*
Y63431D01*
X44232Y58016D02*
X48169D01*
X44232D02*
Y59984D01*
X48169D01*
Y58016D02*
Y59984D01*
X52016Y65332D02*
X53984D01*
X52016D02*
Y69269D01*
X53984Y65332D02*
Y69269D01*
X52016D02*
X53984D01*
X69968Y72116D02*
Y74084D01*
X66031Y72116D02*
X69968D01*
X66031Y74084D02*
X69968D01*
X66031Y72116D02*
Y74084D01*
X52016Y62769D02*
X53984D01*
X52016Y58832D02*
Y62769D01*
Y58832D02*
X53984D01*
Y62769D01*
X52016Y56468D02*
X53984D01*
Y52531D02*
Y56468D01*
X52016Y52531D02*
Y56468D01*
Y52531D02*
X53984D01*
X37716Y67168D02*
X39684D01*
Y63231D02*
Y67168D01*
X37716Y63231D02*
Y67168D01*
Y63231D02*
X39684D01*
X49832Y78816D02*
Y80784D01*
Y78816D02*
X53768D01*
Y80784D01*
X49832D02*
X53768D01*
X49832Y73216D02*
Y75184D01*
X53768D01*
X49832Y73216D02*
X53768D01*
Y75184D01*
X43132Y72316D02*
Y74284D01*
X47069D01*
X43132Y72316D02*
X47069D01*
Y74284D01*
X55370Y80830D02*
X62370D01*
X64031Y79169D01*
Y72169D02*
Y79169D01*
X55370Y72169D02*
Y80830D01*
Y72169D02*
X64031D01*
X55369Y80831D02*
X64031D01*
X55369Y72169D02*
Y80831D01*
X64031Y72169D02*
Y80831D01*
X55369Y72169D02*
X64031D01*
X62250Y47425D02*
Y50575D01*
X55950Y47425D02*
X62250D01*
X55950Y50575D02*
X62250D01*
X55950Y47425D02*
Y50575D01*
X38616Y60268D02*
X40585D01*
X38616Y56331D02*
Y60268D01*
Y56331D02*
X40585D01*
Y60268D01*
X40584Y56331D02*
Y60268D01*
X38616Y56331D02*
X40584D01*
X38616D02*
Y60268D01*
X40584D01*
X69269Y47216D02*
Y49184D01*
X65332D02*
X69269D01*
X65332Y47216D02*
Y49184D01*
Y47216D02*
X69269D01*
X30068Y72790D02*
Y73381D01*
X29478Y72200D02*
X30068Y72790D01*
Y71019D02*
Y71609D01*
X29478Y72200D02*
X30068Y71609D01*
X26131Y71019D02*
X30068D01*
X26131D02*
Y73381D01*
X30068D01*
X28032Y6423D02*
Y8392D01*
X31969D01*
X28032Y6423D02*
X31969D01*
Y8392D01*
X36716Y53468D02*
X38685D01*
X36716Y49531D02*
Y53468D01*
Y49531D02*
X38685D01*
Y53468D01*
X38684Y49531D02*
Y53469D01*
X36716Y49531D02*
X38684D01*
X36716D02*
Y53469D01*
X38684D01*
X26350Y9933D02*
Y13082D01*
Y9933D02*
X32650D01*
Y13082D01*
X26350D02*
X32650D01*
X30237Y56738D02*
Y61462D01*
X22363D02*
X30237D01*
X22363Y56738D02*
Y61462D01*
Y56738D02*
X30237D01*
X22363Y56738D02*
X30237D01*
X22363D02*
Y61462D01*
X30237D01*
Y56738D02*
Y61462D01*
X20501Y63050D02*
X33099D01*
X20501D02*
Y69350D01*
X33099D01*
Y63050D02*
Y69350D01*
Y63050D02*
Y69350D01*
X20501D02*
X33099D01*
X20501Y63050D02*
Y69350D01*
Y63050D02*
X33099D01*
X63042Y124700D02*
Y136511D01*
X43358D02*
X63042D01*
X43358Y124700D02*
Y136511D01*
X39814Y124700D02*
X72885D01*
Y85330D02*
Y124700D01*
X39814Y85330D02*
X72885D01*
X39814D02*
Y124700D01*
X50037Y47563D02*
Y55437D01*
X42163Y47563D02*
X50037D01*
X42163D02*
Y55437D01*
X50037D01*
Y47563D02*
Y55437D01*
X42163Y47563D02*
X50037D01*
X42163D02*
Y55437D01*
X50037D01*
X33437Y14671D02*
Y22545D01*
X25563D02*
X33437D01*
X25563Y14671D02*
X33437D01*
X25563D02*
Y22545D01*
Y16639D02*
X27531Y14671D01*
X35484Y42072D02*
X70916D01*
X35484Y-15015D02*
Y42072D01*
X70916Y-15015D02*
Y42072D01*
X35484Y-15015D02*
X70916D01*
X56726Y68074D02*
X72474D01*
Y52326D02*
Y68074D01*
X56726Y52326D02*
X72474D01*
X56726D02*
Y68074D01*
Y52326D02*
Y68074D01*
Y52326D02*
X72474D01*
Y68074D01*
X56726D02*
X72474D01*
X25269Y35191D02*
Y35781D01*
X24678Y34600D02*
X25269Y35191D01*
Y33419D02*
Y34009D01*
X24678Y34600D02*
X25269Y34009D01*
X21331Y33419D02*
X25269D01*
X21331D02*
Y35781D01*
X25269D01*
X34716Y56331D02*
Y60268D01*
X36684D01*
Y56331D02*
Y60268D01*
X34716Y56331D02*
X36684D01*
X65528Y80759D02*
X69072D01*
X65528Y75641D02*
Y80759D01*
X69072Y75641D02*
Y80759D01*
X66316Y78790D02*
X67300Y77806D01*
X65528Y75641D02*
X69072D01*
X67300Y78790D02*
Y79775D01*
X66316Y78790D02*
X68284D01*
X67300Y76625D02*
Y77609D01*
X67300Y77806D02*
X68284Y78790D01*
X66316Y77609D02*
X68284D01*
X65528Y80759D02*
X69072D01*
X65528Y75641D02*
Y80759D01*
X69072Y75641D02*
Y80759D01*
X65528Y75641D02*
X69072D01*
X43130Y61570D02*
X49930D01*
X41269Y63431D02*
X43130Y61570D01*
X41269Y63431D02*
Y70231D01*
X49930Y61570D02*
Y70231D01*
X41269D02*
X49930D01*
X41269Y61569D02*
X49931D01*
Y70231D01*
X41269Y61569D02*
Y70231D01*
X49931D01*
M02*
