%FSLAX25Y25*%
%MOIN*%
G70*
G01*
G75*
G04 Layer_Physical_Order=2*
G04 Layer_Color=16711680*
%ADD10R,0.05500X0.08000*%
%ADD11R,0.12000X0.15000*%
%ADD12R,0.01500X0.02000*%
%ADD13R,0.02000X0.01500*%
%ADD14R,0.01575X0.01969*%
%ADD15R,0.02500X0.03000*%
%ADD16R,0.02000X0.02000*%
%ADD17R,0.00984X0.01969*%
%ADD18R,0.04331X0.04724*%
%ADD19R,0.03937X0.06299*%
%ADD20R,0.01575X0.01850*%
%ADD21R,0.06693X0.03740*%
%ADD22R,0.01575X0.01850*%
%ADD23R,0.01181X0.02598*%
%ADD24R,0.01575X0.01929*%
%ADD25R,0.01181X0.01929*%
%ADD26R,0.14961X0.12047*%
%ADD27R,0.02756X0.01575*%
%ADD28C,0.02000*%
%ADD29C,0.02500*%
%ADD30C,0.01000*%
%ADD31C,0.01500*%
%ADD32C,0.00800*%
%ADD33C,0.04000*%
%ADD34C,0.00700*%
%ADD35C,0.00500*%
%ADD36C,0.00600*%
%ADD37C,0.01200*%
%ADD38R,0.01969X0.00787*%
%ADD39R,0.04134X0.05512*%
%ADD40C,0.08268*%
%ADD41O,0.17716X0.06299*%
%ADD42O,0.06299X0.15748*%
%ADD43O,0.15748X0.06299*%
%ADD44C,0.02000*%
%ADD45C,0.05000*%
%ADD46C,0.04000*%
G36*
X75300Y34899D02*
X74732Y34706D01*
X74664Y34795D01*
X73797Y35460D01*
X72787Y35878D01*
X71704Y36021D01*
X70621Y35878D01*
X69611Y35460D01*
X68744Y34795D01*
X68079Y33928D01*
X67661Y32919D01*
X67519Y31835D01*
Y22387D01*
X67661Y21303D01*
X68079Y20294D01*
X68744Y19427D01*
X69611Y18762D01*
X70621Y18344D01*
X71704Y18201D01*
X72787Y18344D01*
X73797Y18762D01*
X74664Y19427D01*
X74732Y19516D01*
X75300Y19323D01*
Y2600D01*
X2600D01*
Y122100D01*
X3959D01*
X4133Y121526D01*
X3858Y121342D01*
X3416Y120680D01*
X3410Y120650D01*
X7190D01*
X7184Y120680D01*
X6742Y121342D01*
X6467Y121526D01*
X6641Y122100D01*
X28659D01*
X28833Y121526D01*
X28558Y121342D01*
X28116Y120680D01*
X28110Y120650D01*
X31890D01*
X31884Y120680D01*
X31442Y121342D01*
X31167Y121526D01*
X31341Y122100D01*
X75300D01*
Y34899D01*
D02*
G37*
%LPC*%
G36*
X8250Y35631D02*
Y32950D01*
X10932D01*
X10910Y33114D01*
X10557Y33965D01*
X9996Y34696D01*
X9265Y35257D01*
X8414Y35610D01*
X8250Y35631D01*
D02*
G37*
G36*
X6750D02*
X6586Y35610D01*
X5735Y35257D01*
X5004Y34696D01*
X4443Y33965D01*
X4090Y33114D01*
X4069Y32950D01*
X6750D01*
Y35631D01*
D02*
G37*
G36*
X58909Y43895D02*
X47491D01*
X46408Y43752D01*
X45399Y43334D01*
X44532Y42669D01*
X43867Y41802D01*
X43448Y40793D01*
X43306Y39709D01*
X43448Y38626D01*
X43867Y37617D01*
X44532Y36750D01*
X45399Y36085D01*
X46408Y35667D01*
X47491Y35524D01*
X58909D01*
X59992Y35667D01*
X61001Y36085D01*
X61868Y36750D01*
X62533Y37617D01*
X62767Y38180D01*
X64785D01*
X65260Y37560D01*
X65887Y37080D01*
X66617Y36777D01*
X67400Y36674D01*
X68183Y36777D01*
X68913Y37080D01*
X69540Y37560D01*
X70021Y38187D01*
X70323Y38917D01*
X70426Y39700D01*
X70323Y40483D01*
X70021Y41213D01*
X69540Y41840D01*
X68913Y42320D01*
X68183Y42623D01*
X67400Y42726D01*
X66617Y42623D01*
X65887Y42320D01*
X65260Y41840D01*
X64799Y41239D01*
X62767D01*
X62533Y41802D01*
X61868Y42669D01*
X61001Y43334D01*
X59992Y43752D01*
X58909Y43895D01*
D02*
G37*
G36*
X67190Y44950D02*
X66050D01*
Y43810D01*
X66080Y43816D01*
X66742Y44258D01*
X67184Y44920D01*
X67190Y44950D01*
D02*
G37*
G36*
X62350Y47890D02*
Y46000D01*
Y44110D01*
X62380Y44116D01*
X63042Y44558D01*
X63050Y44570D01*
X63650D01*
X63858Y44258D01*
X64520Y43816D01*
X64550Y43810D01*
Y45700D01*
Y47590D01*
X64520Y47584D01*
X63858Y47142D01*
X63850Y47130D01*
X63250D01*
X63042Y47442D01*
X62380Y47884D01*
X62350Y47890D01*
D02*
G37*
G36*
X36250Y24090D02*
Y22950D01*
X37390D01*
X37384Y22980D01*
X36942Y23642D01*
X36280Y24084D01*
X36250Y24090D01*
D02*
G37*
G36*
X34750D02*
X34720Y24084D01*
X34058Y23642D01*
X33616Y22980D01*
X33610Y22950D01*
X34750D01*
Y24090D01*
D02*
G37*
G36*
X52450Y26727D02*
X52417Y26723D01*
X51687Y26421D01*
X51060Y25940D01*
X50580Y25313D01*
X50277Y24583D01*
X50273Y24550D01*
X52450D01*
Y26727D01*
D02*
G37*
G36*
X10932Y31450D02*
X4069D01*
X4090Y31286D01*
X4443Y30435D01*
X5004Y29704D01*
X5735Y29143D01*
X6586Y28790D01*
X6891Y28750D01*
Y28150D01*
X6586Y28110D01*
X5735Y27757D01*
X5004Y27196D01*
X4443Y26465D01*
X4090Y25614D01*
X4069Y25450D01*
X10932D01*
X10910Y25614D01*
X10557Y26465D01*
X9996Y27196D01*
X9265Y27757D01*
X8414Y28110D01*
X8109Y28150D01*
Y28750D01*
X8414Y28790D01*
X9265Y29143D01*
X9996Y29704D01*
X10557Y30435D01*
X10910Y31286D01*
X10932Y31450D01*
D02*
G37*
G36*
X53950Y26727D02*
Y24550D01*
X56127D01*
X56123Y24583D01*
X55821Y25313D01*
X55340Y25940D01*
X54713Y26421D01*
X53983Y26723D01*
X53950Y26727D01*
D02*
G37*
G36*
X17650Y58350D02*
X16510D01*
X16516Y58320D01*
X16958Y57658D01*
X17620Y57216D01*
X17650Y57210D01*
Y58350D01*
D02*
G37*
G36*
X41250Y54890D02*
Y53750D01*
X42390D01*
X42384Y53780D01*
X41942Y54442D01*
X41280Y54884D01*
X41250Y54890D01*
D02*
G37*
G36*
X20290Y58350D02*
X19150D01*
Y57210D01*
X19180Y57216D01*
X19842Y57658D01*
X20284Y58320D01*
X20290Y58350D01*
D02*
G37*
G36*
X17650Y60990D02*
X17620Y60984D01*
X16958Y60542D01*
X16516Y59880D01*
X16510Y59850D01*
X17650D01*
Y60990D01*
D02*
G37*
G36*
X70400Y81539D02*
X69620Y81384D01*
X68958Y80942D01*
X68516Y80280D01*
X68361Y79500D01*
X68516Y78720D01*
X68958Y78058D01*
X69569Y77649D01*
Y77049D01*
X69558Y77042D01*
X69116Y76380D01*
X68992Y75754D01*
X66019Y72781D01*
X65687Y72285D01*
X65571Y71700D01*
Y65949D01*
X65570Y65949D01*
Y65051D01*
X65571Y65051D01*
Y59008D01*
X64960Y58540D01*
X64960Y58540D01*
Y58540D01*
X64745Y58439D01*
X63742Y59442D01*
X63080Y59884D01*
X62300Y60039D01*
X55639D01*
Y62400D01*
X55484Y63180D01*
X55042Y63842D01*
X52539Y66345D01*
Y71600D01*
X52384Y72380D01*
X51942Y73042D01*
X51280Y73484D01*
X50500Y73639D01*
X49720Y73484D01*
X49058Y73042D01*
X48616Y72380D01*
X48461Y71600D01*
Y68921D01*
X48250Y68748D01*
Y66600D01*
Y64710D01*
X48280Y64716D01*
X48412Y64804D01*
X48616Y64720D01*
X49058Y64058D01*
X49752Y63364D01*
X49694Y62767D01*
X49058Y62342D01*
X48616Y61680D01*
X48461Y60900D01*
X48616Y60120D01*
X49058Y59458D01*
X49174Y59380D01*
X49174Y59380D01*
D01*
X49163Y59237D01*
X48875Y58807D01*
X48774Y58300D01*
Y48772D01*
X48875Y48264D01*
X49163Y47834D01*
X49163Y47834D01*
X49163Y47834D01*
X50334Y46663D01*
X50764Y46375D01*
X51272Y46275D01*
X54600D01*
X55107Y46375D01*
X55537Y46663D01*
X55537Y46663D01*
X55537Y46663D01*
X57429Y48555D01*
X57617Y48477D01*
X58400Y48374D01*
X59183Y48477D01*
X59913Y48779D01*
X60540Y49260D01*
X61020Y49887D01*
X61098Y50074D01*
X67500D01*
X68007Y50175D01*
X68437Y50463D01*
X71437Y53463D01*
X71725Y53893D01*
X71825Y54400D01*
Y66100D01*
X71900Y66461D01*
D01*
D01*
X72680Y66616D01*
X73342Y67058D01*
X73784Y67720D01*
X73790Y67750D01*
X71900D01*
Y69250D01*
X73790D01*
X73784Y69280D01*
X73342Y69942D01*
X72680Y70384D01*
X72202Y70479D01*
X72028Y71053D01*
X74037Y73063D01*
X74325Y73493D01*
X74426Y74000D01*
Y76800D01*
X74325Y77307D01*
X74037Y77737D01*
X72412Y79363D01*
X72439Y79500D01*
X72284Y80280D01*
X71842Y80942D01*
X71180Y81384D01*
X70400Y81539D01*
D02*
G37*
G36*
X66050Y47590D02*
Y46450D01*
X67190D01*
X67184Y46480D01*
X66742Y47142D01*
X66080Y47584D01*
X66050Y47590D01*
D02*
G37*
G36*
X60850Y45250D02*
X59710D01*
X59716Y45220D01*
X60158Y44558D01*
X60820Y44116D01*
X60850Y44110D01*
Y45250D01*
D02*
G37*
G36*
Y47890D02*
X60820Y47884D01*
X60158Y47442D01*
X59716Y46780D01*
X59710Y46750D01*
X60850D01*
Y47890D01*
D02*
G37*
G36*
X39750Y54890D02*
X39720Y54884D01*
X39058Y54442D01*
X38616Y53780D01*
X38610Y53750D01*
X39750D01*
Y54890D01*
D02*
G37*
G36*
X42390Y52250D02*
X38610D01*
X38616Y52220D01*
X39030Y51600D01*
X38616Y50980D01*
X38610Y50950D01*
X42390D01*
X42384Y50980D01*
X41970Y51600D01*
X42384Y52220D01*
X42390Y52250D01*
D02*
G37*
G36*
X24850Y9290D02*
X24820Y9284D01*
X24158Y8842D01*
X23716Y8180D01*
X23710Y8150D01*
X24850D01*
Y9290D01*
D02*
G37*
G36*
X6050Y7490D02*
Y6350D01*
X7190D01*
X7184Y6380D01*
X6742Y7042D01*
X6080Y7484D01*
X6050Y7490D01*
D02*
G37*
G36*
X26350Y9290D02*
Y8150D01*
X27490D01*
X27484Y8180D01*
X27042Y8842D01*
X26380Y9284D01*
X26350Y9290D01*
D02*
G37*
G36*
X62011Y14550D02*
X53950D01*
Y11115D01*
X57924D01*
X59008Y11257D01*
X60017Y11675D01*
X60884Y12341D01*
X61549Y13207D01*
X61967Y14217D01*
X62011Y14550D01*
D02*
G37*
G36*
X52450D02*
X44389D01*
X44433Y14217D01*
X44851Y13207D01*
X45516Y12341D01*
X46383Y11675D01*
X47392Y11257D01*
X48476Y11115D01*
X52450D01*
Y14550D01*
D02*
G37*
G36*
X7190Y4850D02*
X6050D01*
Y3710D01*
X6080Y3716D01*
X6742Y4158D01*
X7184Y4820D01*
X7190Y4850D01*
D02*
G37*
G36*
X4550D02*
X3410D01*
X3416Y4820D01*
X3858Y4158D01*
X4520Y3716D01*
X4550Y3710D01*
Y4850D01*
D02*
G37*
G36*
X24850Y6650D02*
X23710D01*
X23716Y6620D01*
X24158Y5958D01*
X24820Y5516D01*
X24850Y5510D01*
Y6650D01*
D02*
G37*
G36*
X4550Y7490D02*
X4520Y7484D01*
X3858Y7042D01*
X3416Y6380D01*
X3410Y6350D01*
X4550D01*
Y7490D01*
D02*
G37*
G36*
X27490Y6650D02*
X26350D01*
Y5510D01*
X26380Y5516D01*
X27042Y5958D01*
X27484Y6620D01*
X27490Y6650D01*
D02*
G37*
G36*
X52450Y23050D02*
X50273D01*
X50277Y23017D01*
X50580Y22287D01*
X51060Y21660D01*
X51687Y21180D01*
X52417Y20877D01*
X52450Y20873D01*
Y23050D01*
D02*
G37*
G36*
X37390Y21450D02*
X33610D01*
X33616Y21420D01*
X34058Y20758D01*
Y20242D01*
X33616Y19580D01*
X33610Y19550D01*
X37390D01*
X37384Y19580D01*
X36942Y20242D01*
Y20758D01*
X37384Y21420D01*
X37390Y21450D01*
D02*
G37*
G36*
X56127Y23050D02*
X53950D01*
Y20873D01*
X53983Y20877D01*
X54713Y21180D01*
X55340Y21660D01*
X55821Y22287D01*
X56123Y23017D01*
X56127Y23050D01*
D02*
G37*
G36*
X10932Y23950D02*
X8250D01*
Y21269D01*
X8414Y21290D01*
X9265Y21643D01*
X9996Y22204D01*
X10557Y22935D01*
X10910Y23786D01*
X10932Y23950D01*
D02*
G37*
G36*
X6750D02*
X4069D01*
X4090Y23786D01*
X4443Y22935D01*
X5004Y22204D01*
X5735Y21643D01*
X6586Y21290D01*
X6750Y21269D01*
Y23950D01*
D02*
G37*
G36*
X57924Y19485D02*
X53950D01*
Y16050D01*
X62011D01*
X61967Y16383D01*
X61549Y17393D01*
X60884Y18259D01*
X60017Y18925D01*
X59008Y19343D01*
X57924Y19485D01*
D02*
G37*
G36*
X52450D02*
X48476D01*
X47392Y19343D01*
X46383Y18925D01*
X45516Y18259D01*
X44851Y17393D01*
X44433Y16383D01*
X44389Y16050D01*
X52450D01*
Y19485D01*
D02*
G37*
G36*
X17717Y23431D02*
X16839Y23315D01*
X16021Y22976D01*
X15319Y22437D01*
X14780Y21735D01*
X14441Y20917D01*
X14325Y20039D01*
X14441Y19162D01*
X14780Y18344D01*
X15319Y17641D01*
X16021Y17102D01*
X16839Y16764D01*
X17717Y16648D01*
X18594Y16764D01*
X19412Y17102D01*
X20114Y17641D01*
X20653Y18344D01*
X20992Y19162D01*
X21108Y20039D01*
X20992Y20917D01*
X20653Y21735D01*
X20114Y22437D01*
X19412Y22976D01*
X18594Y23315D01*
X17717Y23431D01*
D02*
G37*
G36*
X37390Y18050D02*
X36250D01*
Y16910D01*
X36280Y16916D01*
X36942Y17358D01*
X37384Y18020D01*
X37390Y18050D01*
D02*
G37*
G36*
X34750D02*
X33610D01*
X33616Y18020D01*
X34058Y17358D01*
X34720Y16916D01*
X34750Y16910D01*
Y18050D01*
D02*
G37*
G36*
X19150Y60990D02*
Y59850D01*
X20290D01*
X20284Y59880D01*
X19842Y60542D01*
X19180Y60984D01*
X19150Y60990D01*
D02*
G37*
G36*
X6750Y107032D02*
X6586Y107010D01*
X5735Y106657D01*
X5004Y106096D01*
X4443Y105365D01*
X4090Y104514D01*
X4069Y104350D01*
X6750D01*
Y107032D01*
D02*
G37*
G36*
X17717Y108076D02*
X16839Y107961D01*
X16021Y107622D01*
X15319Y107083D01*
X14780Y106381D01*
X14441Y105563D01*
X14325Y104685D01*
X14441Y103807D01*
X14780Y102989D01*
X15319Y102287D01*
X16021Y101748D01*
X16839Y101409D01*
X17717Y101294D01*
X18594Y101409D01*
X19412Y101748D01*
X20114Y102287D01*
X20653Y102989D01*
X20992Y103807D01*
X21108Y104685D01*
X20992Y105563D01*
X20653Y106381D01*
X20114Y107083D01*
X19412Y107622D01*
X18594Y107961D01*
X17717Y108076D01*
D02*
G37*
G36*
X8250Y107032D02*
Y104350D01*
X10932D01*
X10910Y104514D01*
X10557Y105365D01*
X9996Y106096D01*
X9265Y106657D01*
X8414Y107010D01*
X8250Y107032D01*
D02*
G37*
G36*
X58279Y110170D02*
X53950D01*
Y105841D01*
X54540Y105919D01*
X55789Y106436D01*
X56862Y107259D01*
X57684Y108331D01*
X58202Y109580D01*
X58279Y110170D01*
D02*
G37*
G36*
X65011Y113137D02*
X63928Y112995D01*
X62918Y112577D01*
X62051Y111911D01*
X61386Y111045D01*
X60968Y110035D01*
X60826Y108952D01*
X60968Y107869D01*
X61386Y106859D01*
X62051Y105992D01*
X62918Y105327D01*
X63928Y104909D01*
X65011Y104767D01*
X66094Y104909D01*
X67104Y105327D01*
X67971Y105992D01*
X68636Y106859D01*
X69054Y107869D01*
X69196Y108952D01*
X69054Y110035D01*
X68636Y111045D01*
X67971Y111911D01*
X67104Y112577D01*
X66094Y112995D01*
X65011Y113137D01*
D02*
G37*
G36*
X27750Y97090D02*
Y95950D01*
X28890D01*
X28884Y95980D01*
X28442Y96642D01*
X27780Y97084D01*
X27750Y97090D01*
D02*
G37*
G36*
X26250D02*
X26220Y97084D01*
X25558Y96642D01*
X25116Y95980D01*
X25110Y95950D01*
X26250D01*
Y97090D01*
D02*
G37*
G36*
X10932Y102850D02*
X4069D01*
X4090Y102686D01*
X4443Y101835D01*
X5004Y101104D01*
X5735Y100543D01*
X6586Y100190D01*
X6891Y100150D01*
Y99550D01*
X6586Y99510D01*
X5735Y99157D01*
X5004Y98596D01*
X4443Y97865D01*
X4090Y97014D01*
X4069Y96850D01*
X10932D01*
X10910Y97014D01*
X10557Y97865D01*
X9996Y98596D01*
X9265Y99157D01*
X8414Y99510D01*
X8109Y99550D01*
Y100150D01*
X8414Y100190D01*
X9265Y100543D01*
X9996Y101104D01*
X10557Y101835D01*
X10910Y102686D01*
X10932Y102850D01*
D02*
G37*
G36*
X58750Y99427D02*
Y97250D01*
X60927D01*
X60923Y97283D01*
X60620Y98013D01*
X60140Y98640D01*
X59513Y99120D01*
X58783Y99423D01*
X58750Y99427D01*
D02*
G37*
G36*
X57250D02*
X57217Y99423D01*
X56487Y99120D01*
X55860Y98640D01*
X55379Y98013D01*
X55077Y97283D01*
X55073Y97250D01*
X57250D01*
Y99427D01*
D02*
G37*
G36*
X29250Y119150D02*
X28110D01*
X28116Y119120D01*
X28558Y118458D01*
X29220Y118016D01*
X29250Y118010D01*
Y119150D01*
D02*
G37*
G36*
X7190D02*
X6050D01*
Y118010D01*
X6080Y118016D01*
X6742Y118458D01*
X7184Y119120D01*
X7190Y119150D01*
D02*
G37*
G36*
X31890D02*
X30750D01*
Y118010D01*
X30780Y118016D01*
X31442Y118458D01*
X31884Y119120D01*
X31890Y119150D01*
D02*
G37*
G36*
X71850Y119890D02*
Y118750D01*
X72990D01*
X72984Y118780D01*
X72542Y119442D01*
X71880Y119884D01*
X71850Y119890D01*
D02*
G37*
G36*
X70350D02*
X70320Y119884D01*
X69658Y119442D01*
X69216Y118780D01*
X69210Y118750D01*
X70350D01*
Y119890D01*
D02*
G37*
G36*
X52450Y116000D02*
X51860Y115922D01*
X50611Y115405D01*
X49538Y114582D01*
X48716Y113510D01*
X48298Y112502D01*
X47719Y112346D01*
X47419Y112577D01*
X46409Y112995D01*
X45326Y113137D01*
X44243Y112995D01*
X43233Y112577D01*
X42366Y111911D01*
X41701Y111045D01*
X41283Y110035D01*
X41141Y108952D01*
X41283Y107869D01*
X41701Y106859D01*
X42366Y105992D01*
X43233Y105327D01*
X44243Y104909D01*
X45326Y104767D01*
X46409Y104909D01*
X47419Y105327D01*
X48285Y105992D01*
X48951Y106859D01*
X49029Y107050D01*
X49609Y107205D01*
X50611Y106436D01*
X51860Y105919D01*
X52450Y105841D01*
Y110921D01*
Y116000D01*
D02*
G37*
G36*
X53950D02*
Y111670D01*
X58279D01*
X58202Y112261D01*
X57684Y113510D01*
X56862Y114582D01*
X55789Y115405D01*
X54540Y115922D01*
X53950Y116000D01*
D02*
G37*
G36*
X70350Y117250D02*
X69210D01*
X69216Y117220D01*
X69658Y116558D01*
X70320Y116116D01*
X70350Y116110D01*
Y117250D01*
D02*
G37*
G36*
X4550Y119150D02*
X3410D01*
X3416Y119120D01*
X3858Y118458D01*
X4520Y118016D01*
X4550Y118010D01*
Y119150D01*
D02*
G37*
G36*
X72990Y117250D02*
X71850D01*
Y116110D01*
X71880Y116116D01*
X72542Y116558D01*
X72984Y117220D01*
X72990Y117250D01*
D02*
G37*
G36*
X62750Y68427D02*
Y66250D01*
X64927D01*
X64923Y66283D01*
X64621Y67013D01*
X64140Y67640D01*
X63513Y68120D01*
X62783Y68423D01*
X62750Y68427D01*
D02*
G37*
G36*
X61250D02*
X61217Y68423D01*
X60487Y68120D01*
X59860Y67640D01*
X59380Y67013D01*
X59077Y66283D01*
X59073Y66250D01*
X61250D01*
Y68427D01*
D02*
G37*
G36*
X24450Y69390D02*
X24420Y69384D01*
X23758Y68942D01*
X23316Y68280D01*
X23310Y68250D01*
X24450D01*
Y69390D01*
D02*
G37*
G36*
X43850Y73627D02*
Y71450D01*
X46027D01*
X46023Y71483D01*
X45720Y72213D01*
X45240Y72840D01*
X44613Y73321D01*
X43883Y73623D01*
X43850Y73627D01*
D02*
G37*
G36*
X25950Y69390D02*
Y68250D01*
X27090D01*
X27084Y68280D01*
X26642Y68942D01*
X25980Y69384D01*
X25950Y69390D01*
D02*
G37*
G36*
X64927Y64750D02*
X62750D01*
Y62573D01*
X62783Y62577D01*
X63513Y62880D01*
X64140Y63360D01*
X64621Y63987D01*
X64923Y64717D01*
X64927Y64750D01*
D02*
G37*
G36*
X61250D02*
X59073D01*
X59077Y64717D01*
X59380Y63987D01*
X59860Y63360D01*
X60487Y62880D01*
X61217Y62577D01*
X61250Y62573D01*
Y64750D01*
D02*
G37*
G36*
X24450Y64050D02*
X23310D01*
X23316Y64020D01*
X23758Y63358D01*
X24420Y62916D01*
X24450Y62910D01*
Y64050D01*
D02*
G37*
G36*
X27090Y66750D02*
X23310D01*
X23316Y66720D01*
X23697Y66150D01*
X23316Y65580D01*
X23310Y65550D01*
X27090D01*
X27084Y65580D01*
X26703Y66150D01*
X27084Y66720D01*
X27090Y66750D01*
D02*
G37*
G36*
Y64050D02*
X25950D01*
Y62910D01*
X25980Y62916D01*
X26642Y63358D01*
X27084Y64020D01*
X27090Y64050D01*
D02*
G37*
G36*
X26250Y94450D02*
X25110D01*
X25116Y94420D01*
X25558Y93758D01*
X26220Y93316D01*
X26250Y93310D01*
Y94450D01*
D02*
G37*
G36*
X10932Y95350D02*
X8250D01*
Y92668D01*
X8414Y92690D01*
X9265Y93043D01*
X9996Y93604D01*
X10557Y94335D01*
X10910Y95186D01*
X10932Y95350D01*
D02*
G37*
G36*
X28890Y94450D02*
X27750D01*
Y93310D01*
X27780Y93316D01*
X28442Y93758D01*
X28884Y94420D01*
X28890Y94450D01*
D02*
G37*
G36*
X60927Y95750D02*
X58750D01*
Y93573D01*
X58783Y93577D01*
X59513Y93879D01*
X60140Y94360D01*
X60620Y94987D01*
X60923Y95717D01*
X60927Y95750D01*
D02*
G37*
G36*
X57250D02*
X55073D01*
X55077Y95717D01*
X55379Y94987D01*
X55860Y94360D01*
X56487Y93879D01*
X57217Y93577D01*
X57250Y93573D01*
Y95750D01*
D02*
G37*
G36*
X69400Y99426D02*
X68617Y99323D01*
X67887Y99020D01*
X67260Y98540D01*
X66780Y97913D01*
X66477Y97183D01*
X66374Y96400D01*
X66477Y95617D01*
X66780Y94887D01*
X67260Y94260D01*
X67812Y93837D01*
Y92222D01*
X66753Y91783D01*
X65680Y90960D01*
X64857Y89887D01*
X64340Y88639D01*
X64164Y87298D01*
X64340Y85958D01*
X64857Y84709D01*
X65680Y83637D01*
X66753Y82814D01*
X68002Y82297D01*
X69342Y82120D01*
X70682Y82297D01*
X71931Y82814D01*
X73003Y83637D01*
X73826Y84709D01*
X74343Y85958D01*
X74520Y87298D01*
X74343Y88639D01*
X73826Y89887D01*
X73003Y90960D01*
X71931Y91783D01*
X70871Y92222D01*
Y93762D01*
X70913Y93779D01*
X71540Y94260D01*
X72021Y94887D01*
X72323Y95617D01*
X72426Y96400D01*
X72323Y97183D01*
X72021Y97913D01*
X71540Y98540D01*
X70913Y99020D01*
X70183Y99323D01*
X69400Y99426D01*
D02*
G37*
G36*
X42350Y73627D02*
X42317Y73623D01*
X41587Y73321D01*
X40960Y72840D01*
X40479Y72213D01*
X40239Y71632D01*
X40080Y71584D01*
X39300Y71739D01*
X38520Y71584D01*
X37858Y71142D01*
X37416Y70480D01*
X37261Y69700D01*
X37416Y68920D01*
X37771Y68389D01*
Y67100D01*
X37887Y66515D01*
X37971Y66390D01*
Y62800D01*
X38087Y62215D01*
X38419Y61719D01*
X38399Y61423D01*
X38160Y61240D01*
X37679Y60613D01*
X37377Y59883D01*
X37274Y59100D01*
X37377Y58317D01*
X37679Y57587D01*
X38160Y56960D01*
X38787Y56480D01*
X39517Y56177D01*
X40300Y56074D01*
X41083Y56177D01*
X41813Y56480D01*
X42440Y56960D01*
X42921Y57587D01*
X43223Y58317D01*
X43326Y59100D01*
X43223Y59883D01*
X42921Y60613D01*
X42440Y61240D01*
X41829Y61708D01*
Y62000D01*
X41713Y62585D01*
X41381Y63081D01*
X41029Y63433D01*
Y64305D01*
X41558Y64658D01*
X41558Y64658D01*
Y64658D01*
D01*
X42220Y64216D01*
X42250Y64210D01*
Y66100D01*
X43750D01*
Y64210D01*
X43780Y64216D01*
X44442Y64658D01*
X44884Y65320D01*
X45000Y65902D01*
X45600D01*
X45616Y65820D01*
X46058Y65158D01*
X46720Y64716D01*
X46750Y64710D01*
Y66600D01*
Y68490D01*
X46720Y68484D01*
X46058Y68042D01*
X45616Y67380D01*
X45500Y66798D01*
X44900D01*
X44884Y66880D01*
X44442Y67542D01*
Y67542D01*
D01*
X44613Y68080D01*
X45240Y68560D01*
X45720Y69187D01*
X46023Y69917D01*
X46027Y69950D01*
X43100D01*
Y70700D01*
X42350D01*
Y73627D01*
D02*
G37*
G36*
X58200Y85439D02*
X57420Y85284D01*
X56758Y84842D01*
X56714Y84776D01*
X41300D01*
X41300Y84777D01*
X40773Y84672D01*
X40327Y84373D01*
X38227Y82273D01*
X37928Y81827D01*
X37824Y81300D01*
Y77170D01*
X32627Y71973D01*
X32328Y71527D01*
X32224Y71000D01*
Y57200D01*
X32328Y56673D01*
X32347Y56645D01*
X31967Y56181D01*
X31383Y56423D01*
X30600Y56526D01*
X29817Y56423D01*
X29087Y56121D01*
X28460Y55640D01*
X27979Y55013D01*
X27677Y54283D01*
X27574Y53500D01*
X27677Y52717D01*
X27979Y51987D01*
X28460Y51360D01*
X29087Y50880D01*
X29817Y50577D01*
X30600Y50474D01*
X31383Y50577D01*
X32113Y50880D01*
X32740Y51360D01*
X33220Y51987D01*
X33236Y52024D01*
X34524D01*
Y48700D01*
X34628Y48173D01*
X34927Y47727D01*
X36177Y46477D01*
X36177Y46477D01*
X36623Y46178D01*
X37150Y46073D01*
X37150Y46074D01*
X39014D01*
X39058Y46008D01*
X39720Y45566D01*
X40500Y45411D01*
X41280Y45566D01*
X41942Y46008D01*
X42384Y46670D01*
X42539Y47450D01*
X42384Y48230D01*
X41987Y48825D01*
X42384Y49420D01*
X42390Y49450D01*
X40698D01*
X40500Y49489D01*
X40302Y49450D01*
X38610D01*
X38616Y49420D01*
X38659Y49356D01*
X38376Y48826D01*
X37720D01*
X37276Y49270D01*
Y53400D01*
Y54900D01*
X37172Y55427D01*
X36873Y55873D01*
X34976Y57770D01*
Y70430D01*
X40173Y75627D01*
X40173Y75627D01*
X40472Y76073D01*
X40472Y76073D01*
X40472Y76073D01*
X40576Y76600D01*
X40576Y76600D01*
Y76776D01*
X41040Y77157D01*
X41800Y77006D01*
X46462D01*
X46887Y76679D01*
X47617Y76377D01*
X48400Y76274D01*
X49183Y76377D01*
X49913Y76679D01*
X50338Y77006D01*
X51150D01*
X53906Y74250D01*
Y68700D01*
X54081Y67822D01*
X54578Y67078D01*
X55322Y66581D01*
X56200Y66406D01*
X57078Y66581D01*
X57822Y67078D01*
X58319Y67822D01*
X58494Y68700D01*
Y75200D01*
X58319Y76078D01*
X57822Y76822D01*
X53722Y80922D01*
X52978Y81419D01*
X52943Y81426D01*
X53002Y82024D01*
X56714D01*
X56758Y81958D01*
X57420Y81516D01*
X58200Y81361D01*
X58980Y81516D01*
X59642Y81958D01*
X60084Y82620D01*
X60239Y83400D01*
X60084Y84180D01*
X59642Y84842D01*
X58980Y85284D01*
X58200Y85439D01*
D02*
G37*
G36*
X6750Y95350D02*
X4069D01*
X4090Y95186D01*
X4443Y94335D01*
X5004Y93604D01*
X5735Y93043D01*
X6586Y92690D01*
X6750Y92668D01*
Y95350D01*
D02*
G37*
G36*
X43358Y100351D02*
X42017Y100174D01*
X40768Y99657D01*
X39696Y98834D01*
X38873Y97761D01*
X38356Y96513D01*
X38179Y95172D01*
X38356Y93832D01*
X38873Y92583D01*
X39696Y91511D01*
X40768Y90688D01*
X42017Y90171D01*
X43358Y89994D01*
X44698Y90171D01*
X45947Y90688D01*
X47019Y91511D01*
X47842Y92583D01*
X48359Y93832D01*
X48536Y95172D01*
X48359Y96513D01*
X47842Y97761D01*
X47019Y98834D01*
X45947Y99657D01*
X44698Y100174D01*
X43358Y100351D01*
D02*
G37*
%LPD*%
D28*
X53600Y58000D02*
Y62400D01*
Y51100D02*
Y58000D01*
X62300D01*
X63900Y56400D01*
X67100D01*
X40500Y50200D02*
Y53000D01*
X52100Y49600D02*
X53600Y51100D01*
X50500Y65500D02*
X53600Y62400D01*
X50500Y65500D02*
Y71600D01*
D29*
X48400Y79300D02*
X52100D01*
X41800D02*
X48400D01*
X56200Y68700D02*
Y75200D01*
X52100Y79300D02*
X56200Y75200D01*
D30*
X43100Y66200D02*
X43200Y66300D01*
X43000Y66100D02*
X43100Y66200D01*
X47200Y66300D02*
X47500Y66600D01*
X43200Y66300D02*
X47200D01*
X69342Y87298D02*
Y96342D01*
X53200Y39709D02*
X67391D01*
X67100Y56400D02*
Y71700D01*
X71000Y75600D01*
X39300Y67100D02*
Y69700D01*
Y67100D02*
X39500Y66900D01*
Y62800D02*
Y66900D01*
Y62800D02*
X40300Y62000D01*
Y59100D02*
Y62000D01*
D31*
X7500Y39700D02*
Y41700D01*
Y32200D02*
Y39700D01*
Y26700D02*
Y32200D01*
X43100Y66200D02*
Y70700D01*
X61900Y45700D02*
X65300D01*
X61600Y46000D02*
X61900Y45700D01*
X7500Y96100D02*
Y103600D01*
Y88600D02*
Y96100D01*
D34*
X35900Y48700D02*
Y53400D01*
X30600Y53500D02*
X30700Y53400D01*
X35900D01*
Y48700D02*
X37150Y47450D01*
X40500D01*
X33600Y71000D02*
X39200Y76600D01*
Y81300D01*
X41300Y83400D01*
X58200D01*
X33600Y57200D02*
Y71000D01*
Y57200D02*
X35900Y54900D01*
Y53400D02*
Y54900D01*
D36*
X67500Y51400D02*
X70500Y54400D01*
X58400Y51400D02*
X67500D01*
X54600Y47600D02*
X58400Y51400D01*
X51272Y47600D02*
X54600D01*
X50500Y58700D02*
Y60900D01*
X50100Y58300D02*
X50500Y58700D01*
X50100Y48772D02*
Y58300D01*
Y48772D02*
X51272Y47600D01*
X70400Y79500D02*
X73100Y76800D01*
X69900Y70800D02*
X73100Y74000D01*
Y76800D01*
X69900Y66700D02*
Y70800D01*
Y66700D02*
X70500Y66100D01*
Y54400D02*
Y66100D01*
D40*
X69342Y87298D02*
D03*
X43358Y95172D02*
D03*
X53200Y110921D02*
D03*
D41*
Y39709D02*
D03*
D42*
X71704Y27111D02*
D03*
D43*
X53200Y15300D02*
D03*
D44*
X18400Y59100D02*
D03*
X25200Y64800D02*
D03*
Y67500D02*
D03*
X41800Y79300D02*
D03*
X52100Y49600D02*
D03*
X50500Y71600D02*
D03*
X40500Y53000D02*
D03*
Y50200D02*
D03*
Y47450D02*
D03*
X65300Y45700D02*
D03*
X61600Y46000D02*
D03*
X71900Y68500D02*
D03*
X50500Y60900D02*
D03*
X47500Y66600D02*
D03*
X5300Y119900D02*
D03*
X30000D02*
D03*
X5300Y5600D02*
D03*
X27000Y95200D02*
D03*
X71100Y118000D02*
D03*
X56200Y68700D02*
D03*
X43000Y66100D02*
D03*
X71000Y75600D02*
D03*
X70400Y79500D02*
D03*
X58200Y83400D02*
D03*
X35500Y22200D02*
D03*
Y18800D02*
D03*
X25600Y7400D02*
D03*
X39300Y69700D02*
D03*
D45*
X7500Y103600D02*
D03*
Y96100D02*
D03*
Y32200D02*
D03*
Y24700D02*
D03*
D46*
X58000Y96500D02*
D03*
X53200Y23800D02*
D03*
X48400Y79300D02*
D03*
X67400Y39700D02*
D03*
X69400Y96400D02*
D03*
X67100Y56400D02*
D03*
X30600Y53500D02*
D03*
X58400Y51400D02*
D03*
X62000Y65500D02*
D03*
X43100Y70700D02*
D03*
X40300Y59100D02*
D03*
M02*
