M48
;Layer_Color=9474304
;FILE_FORMAT=2:5
INCH,LZ
;TYPE=PLATED
T1F00S00C0.01000
T3F00S00C0.02500
T4F00S00C0.04331
;TYPE=NON_PLATED
T5F00S00C0.04724
T6F00S00C0.06299
%
T01
X00053Y00056
X00256Y00074
X00355Y00188
Y00222
X00405Y004745
Y00502
Y0053
X00521Y00496
X00505Y00609
X00475Y00666
X0043Y00661
X00393Y00697
X00418Y00793
X00505Y00716
X00562Y00687
X00719Y00685
X0071Y00756
X00704Y00795
X00582Y00834
X00616Y0046
X00653Y00457
X00252Y00648
Y00675
X00184Y00591
X0027Y00952
X003Y01199
X00053
X00711Y0118
T03
X00075Y00247
Y00322
Y00961
Y01036
T04
X0069342Y0087298
X0043358Y0095172
X00532Y0110921
T05
X0017717Y0020039
Y0104685
T06
X0045326Y0108952
X0065011
M30
